M48
; DRILL file {KiCad (5.1.5)-3} date 27/01/2021 12:56:38 PM
; FORMAT={-:-/ absolute / inch / decimal}
; #@! TF.CreationDate,2021-01-27T12:56:38+11:00
; #@! TF.GenerationSoftware,Kicad,Pcbnew,(5.1.5)-3
FMAT,2
INCH
T1C0.0098
T2C0.0118
T3C0.0236
T4C0.0394
T5C0.0472
T6C0.0256
T7C0.0709
%
G90
G05
T1
X0.1535Y0.4878
X0.1791Y0.5134
X0.1791Y0.4878
X0.1949Y0.3264
X0.1949Y0.2083
X0.2106Y0.2752
X0.2461Y0.4839
X0.2461Y0.4445
X0.2539Y0.2083
X0.2697Y0.4839
X0.2697Y0.4445
X0.2697Y0.2713
X0.3307Y0.1807
X0.3322Y0.3579
X0.3327Y0.3303
X0.3409Y0.4244
X0.3484Y0.287
X0.3578Y0.3459
X0.3853Y0.3475
X0.3878Y0.1984
X0.3937Y0.5055
X0.3976Y0.1669
X0.4016Y0.0685
X0.4103Y0.2414
X0.4114Y0.2713
X0.4134Y0.4839
X0.4311Y0.35
X0.4547Y0.1807
X0.4587Y0.3522
X0.4626Y0.5035
X0.4862Y0.3522
X0.4867Y0.2617
X0.4874Y0.4854
X0.4921Y0.5134
X0.5Y0.6329
X0.5335Y0.1748
X0.5472Y0.2496
X0.5728Y0.2496
X0.6Y0.6329
X0.6Y0.0685
X0.6201Y0.4524
X0.6319Y0.3618
X0.6358Y0.2516
X0.6398Y0.5409
X0.7Y0.6329
X0.7Y0.0685
X0.7185Y0.3953
X0.7185Y0.3673
X0.7205Y0.4386
X0.7224Y0.228
X0.7224Y0.2024
X0.7262Y0.2905
X0.7343Y0.4681
X0.7421Y0.539
X0.7546Y0.4957
X0.7677Y0.5283
X0.7931Y0.539
X0.8Y0.6329
X0.8012Y0.3854
X0.8051Y0.2752
X0.8207Y0.539
X0.8406Y0.2752
X0.8482Y0.5391
X0.872Y0.5232
X0.876Y0.2752
X0.9Y0.6329
X0.9075Y0.1728
X0.937Y0.1728
X0.939Y0.4366
X0.9429Y0.2752
X0.9508Y0.5232
X0.9705Y0.2752
X0.9823Y0.3894
X0.9823Y0.3618
X1.0Y0.0685
X1.0295Y0.1925
X1.061Y0.4524
X1.062Y0.4957
X1.0728Y0.3717
X1.0771Y0.2573
X1.0884Y0.4495
X1.0955Y0.4228
X1.1046Y0.2565
X1.1083Y0.3421
X1.1201Y0.4091
X1.1202Y0.4918
X1.1417Y0.535
X1.1673Y0.2319
X1.1673Y0.1807
X1.1811Y0.5291
X1.183Y0.3619
X1.1949Y0.4563
X1.2146Y0.5311
X1.2539Y0.3579
X1.2618Y0.5213
X1.2618Y0.2791
X1.2795Y0.3972
X1.2795Y0.3694
X1.2815Y0.4248
X1.3Y0.625
T2
X1.2657Y0.2398
X1.2686Y0.47
X1.2933Y0.5075
X1.2933Y0.4799
X1.2933Y0.4524
X1.2933Y0.2752
X1.2933Y0.2476
X1.2933Y0.2201
X1.2933Y0.1925
X1.3209Y0.5075
X1.3209Y0.1925
X1.4114Y0.4327
X1.4114Y0.4051
X1.4114Y0.3776
X1.4114Y0.35
X1.4114Y0.3224
X1.4114Y0.2949
X1.4114Y0.2673
T4
X0.35Y0.05
X0.45Y0.05
X0.55Y0.05
X0.65Y0.05
X0.75Y0.05
X0.85Y0.05
X0.95Y0.05
X1.05Y0.05
X1.15Y0.05
X1.25Y0.05
X1.35Y0.05
X1.45Y0.05
X0.35Y0.65
X0.45Y0.65
X0.55Y0.65
X0.65Y0.65
X0.75Y0.65
X0.85Y0.65
X0.95Y0.65
X1.05Y0.65
X1.15Y0.65
X1.25Y0.65
X1.35Y0.65
X1.45Y0.65
X0.05Y0.05
X0.15Y0.05
X0.05Y0.65
X0.15Y0.65
T5
X0.1398Y0.4189
X0.1398Y0.2811
T6
X1.4016Y0.4638
X1.4016Y0.2362
T7
X0.25Y0.05
X1.55Y0.05
X0.25Y0.65
X1.55Y0.65
T3
G00X1.3591Y0.5201
M15
G01X1.4024Y0.5201
M16
G05
G00X1.3591Y0.1799
M15
G01X1.4024Y0.1799
M16
G05
G00X1.5335Y0.5201
M15
G01X1.5571Y0.5201
M16
G05
G00X1.5335Y0.1799
M15
G01X1.5571Y0.1799
M16
G05
T0
M30
