G04 #@! TF.GenerationSoftware,KiCad,Pcbnew,(5.1.5)-3*
G04 #@! TF.CreationDate,2021-01-27T12:55:09+11:00*
G04 #@! TF.ProjectId,PD_Micro,50445f4d-6963-4726-9f2e-6b696361645f,rev?*
G04 #@! TF.SameCoordinates,PX7ce2370PY67d8790*
G04 #@! TF.FileFunction,Copper,L2,Inr*
G04 #@! TF.FilePolarity,Positive*
%FSLAX46Y46*%
G04 Gerber Fmt 4.6, Leading zero omitted, Abs format (unit mm)*
G04 Created by KiCad (PCBNEW (5.1.5)-3) date 2021-01-27 12:55:09*
%MOMM*%
%LPD*%
G04 APERTURE LIST*
%ADD10O,2.100000X1.000000*%
%ADD11O,1.600000X1.000000*%
%ADD12C,0.100000*%
%ADD13C,2.400000*%
%ADD14O,1.700000X1.700000*%
%ADD15C,0.500000*%
%ADD16C,0.600000*%
%ADD17C,0.600000*%
%ADD18C,0.300000*%
%ADD19C,0.500000*%
%ADD20C,0.400000*%
%ADD21C,0.200000*%
G04 APERTURE END LIST*
D10*
X35070000Y4570000D03*
X35070000Y13210000D03*
D11*
X39250000Y4570000D03*
X39250000Y13210000D03*
G04 #@! TA.AperFunction,ViaPad*
D12*
G36*
X4208810Y11837111D02*
G01*
X4267054Y11828471D01*
X4324171Y11814164D01*
X4379610Y11794328D01*
X4432838Y11769153D01*
X4483342Y11738882D01*
X4530636Y11703806D01*
X4574264Y11664264D01*
X4613806Y11620636D01*
X4648882Y11573342D01*
X4679153Y11522838D01*
X4704328Y11469610D01*
X4724164Y11414171D01*
X4738471Y11357054D01*
X4747111Y11298810D01*
X4750000Y11240000D01*
X4750000Y10040000D01*
X4747111Y9981190D01*
X4738471Y9922946D01*
X4724164Y9865829D01*
X4704328Y9810390D01*
X4679153Y9757162D01*
X4648882Y9706658D01*
X4613806Y9659364D01*
X4574264Y9615736D01*
X4530636Y9576194D01*
X4483342Y9541118D01*
X4432838Y9510847D01*
X4379610Y9485672D01*
X4324171Y9465836D01*
X4267054Y9451529D01*
X4208810Y9442889D01*
X4150000Y9440000D01*
X2950000Y9440000D01*
X2891190Y9442889D01*
X2832946Y9451529D01*
X2775829Y9465836D01*
X2720390Y9485672D01*
X2667162Y9510847D01*
X2616658Y9541118D01*
X2569364Y9576194D01*
X2525736Y9615736D01*
X2486194Y9659364D01*
X2451118Y9706658D01*
X2420847Y9757162D01*
X2395672Y9810390D01*
X2375836Y9865829D01*
X2361529Y9922946D01*
X2352889Y9981190D01*
X2350000Y10040000D01*
X2350000Y11240000D01*
X2352889Y11298810D01*
X2361529Y11357054D01*
X2375836Y11414171D01*
X2395672Y11469610D01*
X2420847Y11522838D01*
X2451118Y11573342D01*
X2486194Y11620636D01*
X2525736Y11664264D01*
X2569364Y11703806D01*
X2616658Y11738882D01*
X2667162Y11769153D01*
X2720390Y11794328D01*
X2775829Y11814164D01*
X2832946Y11828471D01*
X2891190Y11837111D01*
X2950000Y11840000D01*
X4150000Y11840000D01*
X4208810Y11837111D01*
G37*
G04 #@! TD.AperFunction*
D13*
X3550000Y7140000D03*
G04 #@! TA.AperFunction,ViaPad*
D12*
G36*
X9279989Y17357544D02*
G01*
X9329496Y17350200D01*
X9378045Y17338040D01*
X9425169Y17321179D01*
X9470412Y17299780D01*
X9513341Y17274050D01*
X9553541Y17244235D01*
X9590624Y17210624D01*
X9624235Y17173541D01*
X9654050Y17133341D01*
X9679780Y17090412D01*
X9701179Y17045169D01*
X9718040Y16998045D01*
X9730200Y16949496D01*
X9737544Y16899989D01*
X9740000Y16850000D01*
X9740000Y16170000D01*
X9737544Y16120011D01*
X9730200Y16070504D01*
X9718040Y16021955D01*
X9701179Y15974831D01*
X9679780Y15929588D01*
X9654050Y15886659D01*
X9624235Y15846459D01*
X9590624Y15809376D01*
X9553541Y15775765D01*
X9513341Y15745950D01*
X9470412Y15720220D01*
X9425169Y15698821D01*
X9378045Y15681960D01*
X9329496Y15669800D01*
X9279989Y15662456D01*
X9230000Y15660000D01*
X8550000Y15660000D01*
X8500011Y15662456D01*
X8450504Y15669800D01*
X8401955Y15681960D01*
X8354831Y15698821D01*
X8309588Y15720220D01*
X8266659Y15745950D01*
X8226459Y15775765D01*
X8189376Y15809376D01*
X8155765Y15846459D01*
X8125950Y15886659D01*
X8100220Y15929588D01*
X8078821Y15974831D01*
X8061960Y16021955D01*
X8049800Y16070504D01*
X8042456Y16120011D01*
X8040000Y16170000D01*
X8040000Y16850000D01*
X8042456Y16899989D01*
X8049800Y16949496D01*
X8061960Y16998045D01*
X8078821Y17045169D01*
X8100220Y17090412D01*
X8125950Y17133341D01*
X8155765Y17173541D01*
X8189376Y17210624D01*
X8226459Y17244235D01*
X8266659Y17274050D01*
X8309588Y17299780D01*
X8354831Y17321179D01*
X8401955Y17338040D01*
X8450504Y17350200D01*
X8500011Y17357544D01*
X8550000Y17360000D01*
X9230000Y17360000D01*
X9279989Y17357544D01*
G37*
G04 #@! TD.AperFunction*
D14*
X11430000Y16510000D03*
X13970000Y16510000D03*
X16510000Y16510000D03*
X19050000Y16510000D03*
X21590000Y16510000D03*
X24130000Y16510000D03*
X26670000Y16510000D03*
X29210000Y16510000D03*
X31750000Y16510000D03*
X34290000Y16510000D03*
X36830000Y16510000D03*
G04 #@! TA.AperFunction,ViaPad*
D12*
G36*
X9279989Y2117544D02*
G01*
X9329496Y2110200D01*
X9378045Y2098040D01*
X9425169Y2081179D01*
X9470412Y2059780D01*
X9513341Y2034050D01*
X9553541Y2004235D01*
X9590624Y1970624D01*
X9624235Y1933541D01*
X9654050Y1893341D01*
X9679780Y1850412D01*
X9701179Y1805169D01*
X9718040Y1758045D01*
X9730200Y1709496D01*
X9737544Y1659989D01*
X9740000Y1610000D01*
X9740000Y930000D01*
X9737544Y880011D01*
X9730200Y830504D01*
X9718040Y781955D01*
X9701179Y734831D01*
X9679780Y689588D01*
X9654050Y646659D01*
X9624235Y606459D01*
X9590624Y569376D01*
X9553541Y535765D01*
X9513341Y505950D01*
X9470412Y480220D01*
X9425169Y458821D01*
X9378045Y441960D01*
X9329496Y429800D01*
X9279989Y422456D01*
X9230000Y420000D01*
X8550000Y420000D01*
X8500011Y422456D01*
X8450504Y429800D01*
X8401955Y441960D01*
X8354831Y458821D01*
X8309588Y480220D01*
X8266659Y505950D01*
X8226459Y535765D01*
X8189376Y569376D01*
X8155765Y606459D01*
X8125950Y646659D01*
X8100220Y689588D01*
X8078821Y734831D01*
X8061960Y781955D01*
X8049800Y830504D01*
X8042456Y880011D01*
X8040000Y930000D01*
X8040000Y1610000D01*
X8042456Y1659989D01*
X8049800Y1709496D01*
X8061960Y1758045D01*
X8078821Y1805169D01*
X8100220Y1850412D01*
X8125950Y1893341D01*
X8155765Y1933541D01*
X8189376Y1970624D01*
X8226459Y2004235D01*
X8266659Y2034050D01*
X8309588Y2059780D01*
X8354831Y2081179D01*
X8401955Y2098040D01*
X8450504Y2110200D01*
X8500011Y2117544D01*
X8550000Y2120000D01*
X9230000Y2120000D01*
X9279989Y2117544D01*
G37*
G04 #@! TD.AperFunction*
D14*
X11430000Y1270000D03*
X13970000Y1270000D03*
X16510000Y1270000D03*
X19050000Y1270000D03*
X21590000Y1270000D03*
X24130000Y1270000D03*
X26670000Y1270000D03*
X29210000Y1270000D03*
X31750000Y1270000D03*
X34290000Y1270000D03*
X36830000Y1270000D03*
X3810000Y16510000D03*
G04 #@! TA.AperFunction,ViaPad*
D12*
G36*
X1659989Y17357544D02*
G01*
X1709496Y17350200D01*
X1758045Y17338040D01*
X1805169Y17321179D01*
X1850412Y17299780D01*
X1893341Y17274050D01*
X1933541Y17244235D01*
X1970624Y17210624D01*
X2004235Y17173541D01*
X2034050Y17133341D01*
X2059780Y17090412D01*
X2081179Y17045169D01*
X2098040Y16998045D01*
X2110200Y16949496D01*
X2117544Y16899989D01*
X2120000Y16850000D01*
X2120000Y16170000D01*
X2117544Y16120011D01*
X2110200Y16070504D01*
X2098040Y16021955D01*
X2081179Y15974831D01*
X2059780Y15929588D01*
X2034050Y15886659D01*
X2004235Y15846459D01*
X1970624Y15809376D01*
X1933541Y15775765D01*
X1893341Y15745950D01*
X1850412Y15720220D01*
X1805169Y15698821D01*
X1758045Y15681960D01*
X1709496Y15669800D01*
X1659989Y15662456D01*
X1610000Y15660000D01*
X930000Y15660000D01*
X880011Y15662456D01*
X830504Y15669800D01*
X781955Y15681960D01*
X734831Y15698821D01*
X689588Y15720220D01*
X646659Y15745950D01*
X606459Y15775765D01*
X569376Y15809376D01*
X535765Y15846459D01*
X505950Y15886659D01*
X480220Y15929588D01*
X458821Y15974831D01*
X441960Y16021955D01*
X429800Y16070504D01*
X422456Y16120011D01*
X420000Y16170000D01*
X420000Y16850000D01*
X422456Y16899989D01*
X429800Y16949496D01*
X441960Y16998045D01*
X458821Y17045169D01*
X480220Y17090412D01*
X505950Y17133341D01*
X535765Y17173541D01*
X569376Y17210624D01*
X606459Y17244235D01*
X646659Y17274050D01*
X689588Y17299780D01*
X734831Y17321179D01*
X781955Y17338040D01*
X830504Y17350200D01*
X880011Y17357544D01*
X930000Y17360000D01*
X1610000Y17360000D01*
X1659989Y17357544D01*
G37*
G04 #@! TD.AperFunction*
D14*
X3810000Y1270000D03*
G04 #@! TA.AperFunction,ViaPad*
D12*
G36*
X1659989Y2117544D02*
G01*
X1709496Y2110200D01*
X1758045Y2098040D01*
X1805169Y2081179D01*
X1850412Y2059780D01*
X1893341Y2034050D01*
X1933541Y2004235D01*
X1970624Y1970624D01*
X2004235Y1933541D01*
X2034050Y1893341D01*
X2059780Y1850412D01*
X2081179Y1805169D01*
X2098040Y1758045D01*
X2110200Y1709496D01*
X2117544Y1659989D01*
X2120000Y1610000D01*
X2120000Y930000D01*
X2117544Y880011D01*
X2110200Y830504D01*
X2098040Y781955D01*
X2081179Y734831D01*
X2059780Y689588D01*
X2034050Y646659D01*
X2004235Y606459D01*
X1970624Y569376D01*
X1933541Y535765D01*
X1893341Y505950D01*
X1850412Y480220D01*
X1805169Y458821D01*
X1758045Y441960D01*
X1709496Y429800D01*
X1659989Y422456D01*
X1610000Y420000D01*
X930000Y420000D01*
X880011Y422456D01*
X830504Y429800D01*
X781955Y441960D01*
X734831Y458821D01*
X689588Y480220D01*
X646659Y505950D01*
X606459Y535765D01*
X569376Y569376D01*
X535765Y606459D01*
X505950Y646659D01*
X480220Y689588D01*
X458821Y734831D01*
X441960Y781955D01*
X429800Y830504D01*
X422456Y880011D01*
X420000Y930000D01*
X420000Y1610000D01*
X422456Y1659989D01*
X429800Y1709496D01*
X441960Y1758045D01*
X458821Y1805169D01*
X480220Y1850412D01*
X505950Y1893341D01*
X535765Y1933541D01*
X569376Y1970624D01*
X606459Y2004235D01*
X646659Y2034050D01*
X689588Y2059780D01*
X734831Y2081179D01*
X781955Y2098040D01*
X830504Y2110200D01*
X880011Y2117544D01*
X930000Y2120000D01*
X1610000Y2120000D01*
X1659989Y2117544D01*
G37*
G04 #@! TD.AperFunction*
D15*
X25400000Y1740000D03*
X26150000Y4890000D03*
X24650000Y6990000D03*
X23950000Y6990000D03*
X15240000Y16075000D03*
X17780000Y16075000D03*
X22860000Y16075000D03*
X20320000Y16075000D03*
X12700000Y16075000D03*
X24950000Y9190000D03*
X21350000Y6990000D03*
X22250000Y6990000D03*
X20450000Y6990000D03*
X23850000Y11090000D03*
X16050000Y9190000D03*
X28150000Y8690000D03*
X16250000Y13740000D03*
X15750000Y11490000D03*
X17780000Y1740000D03*
X18650000Y11890000D03*
X30350000Y11590000D03*
X24950000Y9890000D03*
X16150000Y6390000D03*
X32500000Y9382136D03*
X32500000Y10090000D03*
X15240000Y1740000D03*
D16*
X32850000Y4890000D03*
X32850000Y5590000D03*
X32850000Y6990000D03*
X32850000Y11490000D03*
X32850000Y12190000D03*
X32850000Y12890000D03*
X32150000Y6090000D03*
X32223000Y11938000D03*
D15*
X30000000Y13440000D03*
X13900000Y6340000D03*
X13550000Y4440000D03*
X14550000Y6340000D03*
X11750000Y12790000D03*
X11650000Y8946059D03*
X12500000Y13040000D03*
X6450000Y5290000D03*
X4950000Y5290000D03*
X8400000Y4590000D03*
X5350000Y6990000D03*
X4950000Y8290000D03*
X29650000Y4590000D03*
X29650000Y5890000D03*
X8450000Y8390000D03*
X20350000Y9790000D03*
D16*
X33550000Y4890000D03*
X32850000Y6290000D03*
X33550000Y12890000D03*
D15*
X10200000Y1740000D03*
X32050000Y7090000D03*
X31850000Y9090000D03*
X32550000Y10790000D03*
X24150000Y13290000D03*
X18299999Y11140001D03*
X12350000Y8946059D03*
X30047382Y9192618D03*
X27250000Y9440000D03*
X27357682Y6535870D03*
X18350000Y5790000D03*
X18350000Y5140000D03*
D16*
X35850000Y8190000D03*
X35850000Y8890000D03*
X35850000Y9590000D03*
X35850000Y10290000D03*
X35850000Y10990000D03*
X35850000Y7490000D03*
X35850000Y6790000D03*
D15*
X10499998Y12290000D03*
X9087213Y8786438D03*
X10450000Y6890000D03*
X12361790Y6646030D03*
X10422576Y6131921D03*
X8437694Y9089892D03*
X23800000Y4390000D03*
X11550000Y4590000D03*
X23050000Y4390000D03*
X10100000Y4240000D03*
X26975000Y12590001D03*
X8850000Y7290000D03*
X18250000Y10039991D03*
X10000001Y12840001D03*
X9786091Y8826091D03*
X10950000Y8890000D03*
X6850000Y6890000D03*
X27646122Y11416417D03*
X26950000Y11490000D03*
X27826296Y10740000D03*
X28057370Y6514913D03*
X19499889Y13419119D03*
X18250000Y9330000D03*
X18445735Y7379337D03*
X18850000Y13690000D03*
X22150000Y13290000D03*
X21545353Y13692710D03*
X20845357Y13690000D03*
X33020000Y15875000D03*
X20145354Y13690000D03*
X29000000Y13590000D03*
X12380000Y12330000D03*
X8660000Y10780000D03*
X32050000Y13240000D03*
X9850000Y5040000D03*
X30850000Y13490000D03*
X28450000Y10390000D03*
X28451890Y12491890D03*
X19167784Y12590000D03*
X6850000Y11290000D03*
X6850000Y12290000D03*
X6250000Y12290000D03*
X6250000Y11290000D03*
X4550000Y12390000D03*
X3900000Y12390000D03*
X4550000Y13040000D03*
D17*
X3810000Y2472081D02*
X3850000Y2512081D01*
X3810000Y1270000D02*
X3810000Y2472081D01*
X3810000Y15307919D02*
X3850000Y15267919D01*
X3810000Y16510000D02*
X3810000Y15307919D01*
D18*
X34290000Y1270000D02*
X33570000Y1270000D01*
X33570000Y1270000D02*
X33150000Y1690000D01*
X34290000Y1270000D02*
X34930000Y1270000D01*
X34930000Y1270000D02*
X35350000Y1690000D01*
D19*
X31850000Y7290000D02*
X32050000Y7090000D01*
X31850000Y9090000D02*
X31850000Y7290000D01*
D20*
X40050000Y12390000D02*
X40050000Y5370000D01*
X40050000Y5370000D02*
X39250000Y4570000D01*
X39250000Y13210000D02*
X39250000Y13190000D01*
X39250000Y13190000D02*
X40050000Y12390000D01*
X30050000Y9195236D02*
X30047382Y9192618D01*
D21*
X23800000Y4440000D02*
X23800000Y4390000D01*
X22300000Y4490000D02*
X22750000Y4940000D01*
X12150000Y5190000D02*
X13950000Y5190000D01*
X11550000Y4590000D02*
X12150000Y5190000D01*
X22750000Y4940000D02*
X23300000Y4940000D01*
X13950000Y5190000D02*
X15000000Y4140000D01*
X15000000Y4140000D02*
X16268603Y4140000D01*
X16268603Y4140000D02*
X16618604Y4490000D01*
X23300000Y4940000D02*
X23800000Y4440000D01*
X16618604Y4490000D02*
X22300000Y4490000D01*
X16784302Y4090000D02*
X16384312Y3690010D01*
X23050000Y4390000D02*
X22750000Y4090000D01*
X22750000Y4090000D02*
X16784302Y4090000D01*
X10649990Y3690010D02*
X10100000Y4240000D01*
X16384312Y3690010D02*
X10649990Y3690010D01*
X26650001Y12590001D02*
X26817541Y12590001D01*
X23350000Y9290000D02*
X26650001Y12590001D01*
X24350000Y4640000D02*
X23350000Y5640000D01*
X24350000Y4085557D02*
X24350000Y4640000D01*
X23954443Y3690000D02*
X24350000Y4085557D01*
X23350000Y5640000D02*
X23350000Y9290000D01*
X9250000Y6890000D02*
X9250000Y4240000D01*
X8850000Y7290000D02*
X9250000Y6890000D01*
X9250000Y4240000D02*
X10200000Y3290000D01*
X10200000Y3290000D02*
X16550000Y3290000D01*
X16550000Y3290000D02*
X16950000Y3690000D01*
X16950000Y3690000D02*
X23954443Y3690000D01*
X9949997Y12789997D02*
X10000001Y12840001D01*
X18099991Y10190000D02*
X14950000Y10190000D01*
X18250000Y10039991D02*
X18099991Y10190000D01*
X14950000Y10190000D02*
X13850000Y11290000D01*
X13850000Y11290000D02*
X10700000Y11290000D01*
X10700000Y11290000D02*
X9949997Y12040003D01*
X9949997Y12040003D02*
X9949997Y12789997D01*
X6850000Y8690000D02*
X6850000Y6890000D01*
X7850000Y9690000D02*
X6850000Y8690000D01*
X9750000Y9690000D02*
X7850000Y9690000D01*
X10950000Y8890000D02*
X10550000Y8890000D01*
X10550000Y8890000D02*
X9750000Y9690000D01*
X7050000Y3110000D02*
X8890000Y1270000D01*
X7050000Y6690000D02*
X7050000Y3110000D01*
X6850000Y6890000D02*
X7050000Y6690000D01*
X13049989Y2889989D02*
X11430000Y1270000D01*
X16749989Y2889989D02*
X13049989Y2889989D01*
X24750011Y3919868D02*
X24120132Y3289989D01*
X24750011Y5605711D02*
X24750011Y3919868D01*
X27646122Y11607880D02*
X27214001Y12040001D01*
X27646122Y11416417D02*
X27646122Y11607880D01*
X27214001Y12040001D02*
X26685999Y12040001D01*
X17149989Y3289989D02*
X16749989Y2889989D01*
X24120132Y3289989D02*
X17149989Y3289989D01*
X26685999Y12040001D02*
X25549978Y10903980D01*
X25549978Y10903980D02*
X25549978Y6405678D01*
X25549978Y6405678D02*
X24750011Y5605711D01*
X16932829Y2489978D02*
X14449978Y2489978D01*
X17332829Y2889978D02*
X16932829Y2489978D01*
X25949989Y10489989D02*
X25949989Y6239989D01*
X14449978Y2489978D02*
X13970000Y2010000D01*
X26950000Y11490000D02*
X25949989Y10489989D01*
X25949989Y6239989D02*
X25150022Y5440022D01*
X13970000Y2010000D02*
X13970000Y1270000D01*
X25150022Y5440022D02*
X25150022Y3754179D01*
X25150022Y3754179D02*
X24285821Y2889978D01*
X24285821Y2889978D02*
X17332829Y2889978D01*
X16510000Y1450000D02*
X16510000Y1270000D01*
X17549967Y2489967D02*
X16510000Y1450000D01*
X24451510Y2489967D02*
X17549967Y2489967D01*
X27472743Y10740000D02*
X26350000Y9617257D01*
X27826296Y10740000D02*
X27472743Y10740000D01*
X26350000Y9617257D02*
X26350000Y5990000D01*
X26350000Y5990000D02*
X25550033Y5190033D01*
X25550033Y5190033D02*
X25550033Y3588490D01*
X25550033Y3588490D02*
X24451510Y2489967D01*
X30649999Y10475999D02*
X30649999Y8955699D01*
X29650000Y11475998D02*
X30649999Y10475999D01*
X29650000Y12140000D02*
X29650000Y11475998D01*
X28209213Y6514913D02*
X28057370Y6514913D01*
X28449999Y13340001D02*
X29650000Y12140000D01*
X27800000Y14490000D02*
X28449999Y13840001D01*
X30649999Y8955699D02*
X28209213Y6514913D01*
X23550000Y14490000D02*
X27800000Y14490000D01*
X28449999Y13840001D02*
X28449999Y13340001D01*
X22364012Y12690010D02*
X22700000Y13025998D01*
X22700000Y13025998D02*
X22700000Y13640000D01*
X21935988Y12690010D02*
X22364012Y12690010D01*
X21485998Y13140000D02*
X21935988Y12690010D01*
X22700000Y13640000D02*
X23550000Y14490000D01*
X19779008Y13140000D02*
X21485998Y13140000D01*
X19499889Y13419119D02*
X19779008Y13140000D01*
X18160000Y9330000D02*
X18250000Y9330000D01*
X17700000Y9790000D02*
X18160000Y9330000D01*
X13600000Y10890000D02*
X14700000Y9790000D01*
X10450000Y10890000D02*
X13600000Y10890000D01*
X14700000Y9790000D02*
X17700000Y9790000D01*
X16510000Y16510000D02*
X16510000Y16250000D01*
X15150000Y14890000D02*
X11250000Y14890000D01*
X16510000Y16250000D02*
X15150000Y14890000D01*
X11250000Y14890000D02*
X9450000Y13090000D01*
X9450000Y13090000D02*
X9450000Y11890000D01*
X9450000Y11890000D02*
X10450000Y10890000D01*
X19050000Y16390000D02*
X19050000Y16510000D01*
X18800000Y9040000D02*
X18445735Y8685735D01*
X18800000Y10286433D02*
X18800000Y9040000D01*
X18496433Y10590000D02*
X18800000Y10286433D01*
X19050000Y16190000D02*
X17800000Y14940000D01*
X19050000Y16510000D02*
X19050000Y16190000D01*
X18445735Y8685735D02*
X18445735Y7379337D01*
X17800000Y14940000D02*
X16585998Y14940000D01*
X15200000Y10590000D02*
X18496433Y10590000D01*
X16585998Y14940000D02*
X14200000Y12554002D01*
X14200000Y12554002D02*
X14200000Y11590000D01*
X14200000Y11590000D02*
X15200000Y10590000D01*
X20920000Y16510000D02*
X21590000Y16510000D01*
X21590000Y15430000D02*
X21350000Y15190000D01*
X21590000Y16510000D02*
X21590000Y15430000D01*
X20850010Y15190010D02*
X21350000Y15190010D01*
X19650000Y13990000D02*
X20850010Y15190010D01*
X18850000Y13690000D02*
X19150000Y13990000D01*
X19150000Y13990000D02*
X19650000Y13990000D01*
X23870000Y16510000D02*
X24130000Y16510000D01*
X26670000Y16510000D02*
X25971500Y16510000D01*
X20845357Y13835357D02*
X20845357Y13690000D01*
X34290000Y16330000D02*
X32850000Y14890000D01*
X34290000Y16510000D02*
X34290000Y16330000D01*
X32850000Y14890000D02*
X23275000Y14890000D01*
X23275000Y14890000D02*
X22675000Y14290000D01*
X22675000Y14290000D02*
X21300000Y14290000D01*
X21300000Y14290000D02*
X20845357Y13835357D01*
X20145354Y13835354D02*
X20145354Y13690000D01*
X21000000Y14690000D02*
X20145354Y13835354D01*
X22450000Y14690000D02*
X21000000Y14690000D01*
X23050011Y15290011D02*
X22450000Y14690000D01*
X33020000Y15875000D02*
X32435011Y15290011D01*
X32435011Y15290011D02*
X23050011Y15290011D01*
X28854265Y13600663D02*
X30264928Y12190000D01*
X31170000Y1270000D02*
X31750000Y1270000D01*
X30264928Y12190000D02*
X30600000Y12190000D01*
X30600000Y12190000D02*
X31050010Y11739990D01*
X31050010Y11739990D02*
X31050010Y8790010D01*
X31050010Y8790010D02*
X28607371Y6347371D01*
X28607371Y6347371D02*
X28607371Y3832629D01*
X28607371Y3832629D02*
X31170000Y1270000D01*
X28049989Y13140011D02*
X28451890Y12738110D01*
X27550010Y14089990D02*
X28049989Y13590011D01*
X28049989Y13590011D02*
X28049989Y13140011D01*
X23100000Y13440000D02*
X23749990Y14089990D01*
X19317784Y12740000D02*
X21320300Y12740000D01*
X23749990Y14089990D02*
X27550010Y14089990D01*
X19167784Y12590000D02*
X19317784Y12740000D01*
X21320300Y12740000D02*
X21770298Y12290002D01*
X21770298Y12290002D02*
X22529702Y12290002D01*
X28451890Y12738110D02*
X28451890Y12491890D01*
X22529702Y12290002D02*
X23100000Y12860300D01*
X23100000Y12860300D02*
X23100000Y13440000D01*
G36*
X26350000Y2972843D02*
G01*
X26355764Y2914316D01*
X26370988Y2837779D01*
X26388060Y2781500D01*
X26415784Y2729634D01*
X26459139Y2664749D01*
X26496447Y2619289D01*
X26695736Y2420000D01*
X26556735Y2420000D01*
X26334557Y2375806D01*
X26125271Y2289116D01*
X25936918Y2163263D01*
X25776737Y2003082D01*
X25650884Y1814729D01*
X25564194Y1605443D01*
X25520000Y1383265D01*
X25520000Y1370000D01*
X25280000Y1370000D01*
X25280000Y1383265D01*
X25235806Y1605443D01*
X25149116Y1814729D01*
X25023263Y2003082D01*
X24863082Y2163263D01*
X24759621Y2232393D01*
X25818986Y3291757D01*
X25834244Y3304279D01*
X25884230Y3365187D01*
X25921373Y3434676D01*
X25944245Y3510076D01*
X25950033Y3568843D01*
X25950033Y3568853D01*
X25951967Y3588489D01*
X25950033Y3608125D01*
X25950033Y5024348D01*
X26350000Y5424314D01*
X26350000Y2972843D01*
G37*
X26350000Y2972843D02*
X26355764Y2914316D01*
X26370988Y2837779D01*
X26388060Y2781500D01*
X26415784Y2729634D01*
X26459139Y2664749D01*
X26496447Y2619289D01*
X26695736Y2420000D01*
X26556735Y2420000D01*
X26334557Y2375806D01*
X26125271Y2289116D01*
X25936918Y2163263D01*
X25776737Y2003082D01*
X25650884Y1814729D01*
X25564194Y1605443D01*
X25520000Y1383265D01*
X25520000Y1370000D01*
X25280000Y1370000D01*
X25280000Y1383265D01*
X25235806Y1605443D01*
X25149116Y1814729D01*
X25023263Y2003082D01*
X24863082Y2163263D01*
X24759621Y2232393D01*
X25818986Y3291757D01*
X25834244Y3304279D01*
X25884230Y3365187D01*
X25921373Y3434676D01*
X25944245Y3510076D01*
X25950033Y3568843D01*
X25950033Y3568853D01*
X25951967Y3588489D01*
X25950033Y3608125D01*
X25950033Y5024348D01*
X26350000Y5424314D01*
X26350000Y2972843D01*
G36*
X2683052Y16280886D02*
G01*
X2749404Y16065432D01*
X2856514Y15867062D01*
X3000266Y15693400D01*
X3175136Y15551119D01*
X3374403Y15445688D01*
X3580886Y15383054D01*
X3760000Y15436163D01*
X3760000Y16410000D01*
X3860000Y16410000D01*
X3860000Y15436163D01*
X4039114Y15383054D01*
X4245597Y15445688D01*
X4444864Y15551119D01*
X4619734Y15693400D01*
X4763486Y15867062D01*
X4870596Y16065432D01*
X4936948Y16280886D01*
X4898719Y16410000D01*
X5150000Y16410000D01*
X5150000Y16391810D01*
X5196116Y16159973D01*
X5286574Y15941587D01*
X5417899Y15745045D01*
X5585045Y15577899D01*
X5781587Y15446574D01*
X5999973Y15356116D01*
X6231810Y15310000D01*
X6468190Y15310000D01*
X6700027Y15356116D01*
X6918413Y15446574D01*
X7114955Y15577899D01*
X7282101Y15745045D01*
X7413426Y15941587D01*
X7503884Y16159973D01*
X7550000Y16391810D01*
X7550000Y16410000D01*
X7738549Y16410000D01*
X7738549Y16170000D01*
X7754141Y16011694D01*
X7800317Y15859471D01*
X7875303Y15719182D01*
X7976217Y15596217D01*
X8099182Y15495303D01*
X8239471Y15420317D01*
X8391694Y15374141D01*
X8550000Y15358549D01*
X9230000Y15358549D01*
X9388306Y15374141D01*
X9540529Y15420317D01*
X9680818Y15495303D01*
X9803783Y15596217D01*
X9904697Y15719182D01*
X9979683Y15859471D01*
X10025859Y16011694D01*
X10041451Y16170000D01*
X10041451Y16410000D01*
X10280000Y16410000D01*
X10280000Y16396735D01*
X10324194Y16174557D01*
X10410884Y15965271D01*
X10536737Y15776918D01*
X10696918Y15616737D01*
X10885271Y15490884D01*
X11094557Y15404194D01*
X11316735Y15360000D01*
X11543265Y15360000D01*
X11765443Y15404194D01*
X11974729Y15490884D01*
X12163082Y15616737D01*
X12323263Y15776918D01*
X12449116Y15965271D01*
X12535806Y16174557D01*
X12580000Y16396735D01*
X12580000Y16410000D01*
X12820000Y16410000D01*
X12820000Y16396735D01*
X12864194Y16174557D01*
X12950884Y15965271D01*
X13076737Y15776918D01*
X13236918Y15616737D01*
X13425271Y15490884D01*
X13634557Y15404194D01*
X13856735Y15360000D01*
X14083265Y15360000D01*
X14305443Y15404194D01*
X14514729Y15490884D01*
X14703082Y15616737D01*
X14863263Y15776918D01*
X14989116Y15965271D01*
X15075806Y16174557D01*
X15120000Y16396735D01*
X15120000Y16410000D01*
X15360000Y16410000D01*
X15360000Y16396735D01*
X15404194Y16174557D01*
X15490884Y15965271D01*
X15558456Y15864141D01*
X14984315Y15290000D01*
X11269635Y15290000D01*
X11249999Y15291934D01*
X11230363Y15290000D01*
X11230353Y15290000D01*
X11171586Y15284212D01*
X11096186Y15261340D01*
X11026697Y15224197D01*
X10965789Y15174211D01*
X10953265Y15158950D01*
X9181052Y13386737D01*
X9165789Y13374211D01*
X9115803Y13313302D01*
X9078660Y13243813D01*
X9062520Y13190605D01*
X9055788Y13168413D01*
X9048065Y13090000D01*
X9050000Y13070353D01*
X9050001Y11909656D01*
X9048065Y11890000D01*
X9055788Y11811587D01*
X9078661Y11736186D01*
X9115803Y11666698D01*
X9153265Y11621050D01*
X9153268Y11621047D01*
X9165790Y11605789D01*
X9181048Y11593267D01*
X10153263Y10621052D01*
X10165789Y10605789D01*
X10210793Y10568855D01*
X10226697Y10555803D01*
X10296186Y10518660D01*
X10371586Y10495788D01*
X10450000Y10488065D01*
X10469647Y10490000D01*
X13434315Y10490000D01*
X14403267Y9521047D01*
X14415789Y9505789D01*
X14431047Y9493267D01*
X14431049Y9493265D01*
X14476697Y9455803D01*
X14546185Y9418660D01*
X14621586Y9395788D01*
X14700000Y9388065D01*
X14719646Y9390000D01*
X17534315Y9390000D01*
X17712791Y9211523D01*
X17721136Y9169571D01*
X17762597Y9069477D01*
X17822787Y8979396D01*
X17899396Y8902787D01*
X17989477Y8842597D01*
X18065738Y8811008D01*
X18056787Y8781502D01*
X18051523Y8764148D01*
X18043800Y8685735D01*
X18045735Y8666088D01*
X18045736Y7890000D01*
X17474264Y7890000D01*
X16520711Y8843553D01*
X16475251Y8880861D01*
X16410366Y8924216D01*
X16358498Y8951940D01*
X16302221Y8969012D01*
X16225684Y8984236D01*
X16167157Y8990000D01*
X14174264Y8990000D01*
X13820711Y9343553D01*
X13775251Y9380861D01*
X13710366Y9424216D01*
X13658498Y9451940D01*
X13602221Y9469012D01*
X13525684Y9484236D01*
X13467157Y9490000D01*
X12434631Y9490000D01*
X12404170Y9496059D01*
X12295830Y9496059D01*
X12189571Y9474923D01*
X12089477Y9433462D01*
X11999396Y9373272D01*
X11922787Y9296663D01*
X11862597Y9206582D01*
X11821136Y9106488D01*
X11800000Y9000229D01*
X11800000Y8891889D01*
X11821136Y8785630D01*
X11862597Y8685536D01*
X11922787Y8595455D01*
X11984978Y8533264D01*
X11996447Y8519289D01*
X12879289Y7636447D01*
X12924749Y7599139D01*
X12989634Y7555784D01*
X13041502Y7528060D01*
X13097779Y7510988D01*
X13174316Y7495764D01*
X13232843Y7490000D01*
X15277185Y7490000D01*
X17819113Y4989744D01*
X17821136Y4979571D01*
X17858238Y4890000D01*
X16638240Y4890000D01*
X16618604Y4891934D01*
X16598968Y4890000D01*
X16598957Y4890000D01*
X16540190Y4884212D01*
X16464790Y4861340D01*
X16414038Y4834212D01*
X16395301Y4824197D01*
X16349653Y4786735D01*
X16349651Y4786733D01*
X16334393Y4774211D01*
X16321871Y4758953D01*
X16102919Y4540000D01*
X15165686Y4540000D01*
X14246737Y5458948D01*
X14234211Y5474211D01*
X14173303Y5524197D01*
X14103814Y5561340D01*
X14028414Y5584212D01*
X13969647Y5590000D01*
X13969646Y5590000D01*
X13950000Y5591935D01*
X13930354Y5590000D01*
X12169635Y5590000D01*
X12149999Y5591934D01*
X12130363Y5590000D01*
X12130353Y5590000D01*
X12071586Y5584212D01*
X11996186Y5561340D01*
X11926697Y5524197D01*
X11926695Y5524196D01*
X11926696Y5524196D01*
X11881049Y5486735D01*
X11881047Y5486733D01*
X11865789Y5474211D01*
X11853267Y5458953D01*
X11534315Y5140000D01*
X11495830Y5140000D01*
X11389571Y5118864D01*
X11289477Y5077403D01*
X11199396Y5017213D01*
X11122787Y4940604D01*
X11062597Y4850523D01*
X11021136Y4750429D01*
X11000000Y4644170D01*
X11000000Y4535830D01*
X11021136Y4429571D01*
X11062597Y4329477D01*
X11122787Y4239396D01*
X11199396Y4162787D01*
X11289477Y4102597D01*
X11319864Y4090010D01*
X10815676Y4090010D01*
X10650000Y4255685D01*
X10650000Y4294170D01*
X10628864Y4400429D01*
X10587403Y4500523D01*
X10527213Y4590604D01*
X10450604Y4667213D01*
X10360523Y4727403D01*
X10315163Y4746192D01*
X10337403Y4779477D01*
X10378864Y4879571D01*
X10400000Y4985830D01*
X10400000Y5094170D01*
X10378864Y5200429D01*
X10337403Y5300523D01*
X10277213Y5390604D01*
X10200604Y5467213D01*
X10110523Y5527403D01*
X10010429Y5568864D01*
X9904170Y5590000D01*
X9795830Y5590000D01*
X9689571Y5568864D01*
X9650000Y5552473D01*
X9650000Y6186091D01*
X9872576Y6186091D01*
X9872576Y6077751D01*
X9893712Y5971492D01*
X9935173Y5871398D01*
X9995363Y5781317D01*
X10071972Y5704708D01*
X10162053Y5644518D01*
X10262147Y5603057D01*
X10368406Y5581921D01*
X10476746Y5581921D01*
X10583005Y5603057D01*
X10683099Y5644518D01*
X10773180Y5704708D01*
X10849789Y5781317D01*
X10909979Y5871398D01*
X10951440Y5971492D01*
X10972576Y6077751D01*
X10972576Y6186091D01*
X10951440Y6292350D01*
X10909979Y6392444D01*
X10849789Y6482525D01*
X10835066Y6497248D01*
X10877213Y6539396D01*
X10937403Y6629477D01*
X10966697Y6700200D01*
X11811790Y6700200D01*
X11811790Y6591860D01*
X11832926Y6485601D01*
X11874387Y6385507D01*
X11934577Y6295426D01*
X12011186Y6218817D01*
X12101267Y6158627D01*
X12201361Y6117166D01*
X12307620Y6096030D01*
X12415960Y6096030D01*
X12522219Y6117166D01*
X12622313Y6158627D01*
X12712394Y6218817D01*
X12789003Y6295426D01*
X12849193Y6385507D01*
X12890654Y6485601D01*
X12911790Y6591860D01*
X12911790Y6700200D01*
X12890654Y6806459D01*
X12849193Y6906553D01*
X12789003Y6996634D01*
X12712394Y7073243D01*
X12622313Y7133433D01*
X12522219Y7174894D01*
X12415960Y7196030D01*
X12307620Y7196030D01*
X12201361Y7174894D01*
X12101267Y7133433D01*
X12011186Y7073243D01*
X11934577Y6996634D01*
X11874387Y6906553D01*
X11832926Y6806459D01*
X11811790Y6700200D01*
X10966697Y6700200D01*
X10978864Y6729571D01*
X11000000Y6835830D01*
X11000000Y6944170D01*
X10978864Y7050429D01*
X10937403Y7150523D01*
X10877213Y7240604D01*
X10800604Y7317213D01*
X10710523Y7377403D01*
X10610429Y7418864D01*
X10504170Y7440000D01*
X10395830Y7440000D01*
X10289571Y7418864D01*
X10189477Y7377403D01*
X10099396Y7317213D01*
X10022787Y7240604D01*
X9962597Y7150523D01*
X9921136Y7050429D01*
X9900000Y6944170D01*
X9900000Y6835830D01*
X9921136Y6729571D01*
X9962597Y6629477D01*
X10022787Y6539396D01*
X10037511Y6524672D01*
X9995363Y6482525D01*
X9935173Y6392444D01*
X9893712Y6292350D01*
X9872576Y6186091D01*
X9650000Y6186091D01*
X9650000Y6870365D01*
X9651934Y6890001D01*
X9650000Y6909637D01*
X9650000Y6909647D01*
X9644212Y6968414D01*
X9621340Y7043814D01*
X9584197Y7113303D01*
X9534211Y7174211D01*
X9518949Y7186736D01*
X9400000Y7305685D01*
X9400000Y7344170D01*
X9378864Y7450429D01*
X9337403Y7550523D01*
X9277213Y7640604D01*
X9200604Y7717213D01*
X9110523Y7777403D01*
X9010429Y7818864D01*
X8904170Y7840000D01*
X8795830Y7840000D01*
X8689571Y7818864D01*
X8589477Y7777403D01*
X8499396Y7717213D01*
X8422787Y7640604D01*
X8362597Y7550523D01*
X8321136Y7450429D01*
X8300000Y7344170D01*
X8300000Y7235830D01*
X8321136Y7129571D01*
X8362597Y7029477D01*
X8422787Y6939396D01*
X8499396Y6862787D01*
X8589477Y6802597D01*
X8689571Y6761136D01*
X8795830Y6740000D01*
X8834315Y6740000D01*
X8850000Y6724315D01*
X8850001Y4259656D01*
X8848065Y4240000D01*
X8855788Y4161587D01*
X8878661Y4086186D01*
X8915803Y4016698D01*
X8953265Y3971050D01*
X8953268Y3971047D01*
X8965790Y3955789D01*
X8981048Y3943267D01*
X9903267Y3021047D01*
X9915789Y3005789D01*
X9931047Y2993267D01*
X9931049Y2993265D01*
X9976697Y2955803D01*
X10046185Y2918660D01*
X10121586Y2895788D01*
X10200000Y2888065D01*
X10219646Y2890000D01*
X12484315Y2890000D01*
X11910172Y2315857D01*
X11765443Y2375806D01*
X11543265Y2420000D01*
X11316735Y2420000D01*
X11094557Y2375806D01*
X10885271Y2289116D01*
X10696918Y2163263D01*
X10536737Y2003082D01*
X10410884Y1814729D01*
X10324194Y1605443D01*
X10280000Y1383265D01*
X10280000Y1370000D01*
X10041451Y1370000D01*
X10041451Y1610000D01*
X10025859Y1768306D01*
X9979683Y1920529D01*
X9904697Y2060818D01*
X9803783Y2183783D01*
X9680818Y2284697D01*
X9540529Y2359683D01*
X9388306Y2405859D01*
X9230000Y2421451D01*
X8550000Y2421451D01*
X8391694Y2405859D01*
X8336553Y2389132D01*
X7450000Y3275685D01*
X7450000Y6670353D01*
X7451935Y6690000D01*
X7447011Y6740000D01*
X7444212Y6768414D01*
X7421340Y6843814D01*
X7400000Y6883738D01*
X7400000Y6944170D01*
X7378864Y7050429D01*
X7337403Y7150523D01*
X7277213Y7240604D01*
X7250000Y7267817D01*
X7250000Y8524315D01*
X7892150Y9166465D01*
X7887694Y9144062D01*
X7887694Y9035722D01*
X7908830Y8929463D01*
X7950291Y8829369D01*
X8010481Y8739288D01*
X8087090Y8662679D01*
X8177171Y8602489D01*
X8277265Y8561028D01*
X8383524Y8539892D01*
X8491864Y8539892D01*
X8586244Y8558665D01*
X8599810Y8525915D01*
X8660000Y8435834D01*
X8736609Y8359225D01*
X8826690Y8299035D01*
X8926784Y8257574D01*
X9033043Y8236438D01*
X9141383Y8236438D01*
X9247642Y8257574D01*
X9347736Y8299035D01*
X9437817Y8359225D01*
X9460654Y8382062D01*
X9525568Y8338688D01*
X9625662Y8297227D01*
X9731921Y8276091D01*
X9840261Y8276091D01*
X9946520Y8297227D01*
X10046614Y8338688D01*
X10136695Y8398878D01*
X10213304Y8475487D01*
X10273494Y8565568D01*
X10283973Y8590866D01*
X10326697Y8555803D01*
X10396185Y8518660D01*
X10471586Y8495788D01*
X10550000Y8488065D01*
X10569647Y8490000D01*
X10572183Y8490000D01*
X10599396Y8462787D01*
X10689477Y8402597D01*
X10789571Y8361136D01*
X10895830Y8340000D01*
X11004170Y8340000D01*
X11110429Y8361136D01*
X11210523Y8402597D01*
X11300604Y8462787D01*
X11377213Y8539396D01*
X11437403Y8629477D01*
X11478864Y8729571D01*
X11500000Y8835830D01*
X11500000Y8944170D01*
X11478864Y9050429D01*
X11437403Y9150523D01*
X11377213Y9240604D01*
X11300604Y9317213D01*
X11210523Y9377403D01*
X11110429Y9418864D01*
X11004170Y9440000D01*
X10895830Y9440000D01*
X10789571Y9418864D01*
X10689477Y9377403D01*
X10652794Y9352892D01*
X10046737Y9958948D01*
X10034211Y9974211D01*
X9973303Y10024197D01*
X9903814Y10061340D01*
X9828414Y10084212D01*
X9769647Y10090000D01*
X9769646Y10090000D01*
X9750000Y10091935D01*
X9730354Y10090000D01*
X7869647Y10090000D01*
X7850000Y10091935D01*
X7830353Y10090000D01*
X7771586Y10084212D01*
X7696186Y10061340D01*
X7626697Y10024197D01*
X7565789Y9974211D01*
X7553263Y9958948D01*
X6581052Y8986737D01*
X6565789Y8974211D01*
X6515803Y8913302D01*
X6478660Y8843813D01*
X6459303Y8780000D01*
X6455788Y8768413D01*
X6448065Y8690000D01*
X6450000Y8670353D01*
X6450001Y7267818D01*
X6422787Y7240604D01*
X6362597Y7150523D01*
X6321136Y7050429D01*
X6300000Y6944170D01*
X6300000Y6835830D01*
X6321136Y6729571D01*
X6362597Y6629477D01*
X6422787Y6539396D01*
X6499396Y6462787D01*
X6589477Y6402597D01*
X6650000Y6377527D01*
X6650001Y3129656D01*
X6648065Y3110000D01*
X6655788Y3031587D01*
X6678661Y2956186D01*
X6715803Y2886698D01*
X6753265Y2841050D01*
X6753268Y2841047D01*
X6765790Y2825789D01*
X6781048Y2813267D01*
X7770868Y1823447D01*
X7754141Y1768306D01*
X7738549Y1610000D01*
X7738549Y1370000D01*
X7550000Y1370000D01*
X7550000Y1388190D01*
X7503884Y1620027D01*
X7413426Y1838413D01*
X7282101Y2034955D01*
X7114955Y2202101D01*
X6918413Y2333426D01*
X6700027Y2423884D01*
X6468190Y2470000D01*
X6231810Y2470000D01*
X5999973Y2423884D01*
X5781587Y2333426D01*
X5585045Y2202101D01*
X5417899Y2034955D01*
X5286574Y1838413D01*
X5196116Y1620027D01*
X5150000Y1388190D01*
X5150000Y1370000D01*
X4898719Y1370000D01*
X4936948Y1499114D01*
X4870596Y1714568D01*
X4763486Y1912938D01*
X4619734Y2086600D01*
X4444864Y2228881D01*
X4245597Y2334312D01*
X4039114Y2396946D01*
X3860000Y2343837D01*
X3860000Y1370000D01*
X3760000Y1370000D01*
X3760000Y2343837D01*
X3580886Y2396946D01*
X3374403Y2334312D01*
X3175136Y2228881D01*
X3000266Y2086600D01*
X2856514Y1912938D01*
X2749404Y1714568D01*
X2683052Y1499114D01*
X2721281Y1370000D01*
X2421451Y1370000D01*
X2421451Y1610000D01*
X2405859Y1768306D01*
X2359683Y1920529D01*
X2284697Y2060818D01*
X2183783Y2183783D01*
X2060818Y2284697D01*
X1920529Y2359683D01*
X1768306Y2405859D01*
X1610000Y2421451D01*
X930000Y2421451D01*
X771694Y2405859D01*
X619471Y2359683D01*
X479182Y2284697D01*
X450000Y2260748D01*
X450000Y6092503D01*
X2573213Y6092503D01*
X2704995Y5891884D01*
X2964726Y5751015D01*
X3246950Y5663522D01*
X3540820Y5632770D01*
X3835043Y5659940D01*
X4118311Y5743988D01*
X4379740Y5881684D01*
X4395005Y5891884D01*
X4526787Y6092503D01*
X3550000Y7069289D01*
X2573213Y6092503D01*
X450000Y6092503D01*
X450000Y7149180D01*
X2042770Y7149180D01*
X2069940Y6854957D01*
X2153988Y6571689D01*
X2291684Y6310260D01*
X2301884Y6294995D01*
X2502503Y6163213D01*
X3479289Y7140000D01*
X3620711Y7140000D01*
X4597497Y6163213D01*
X4798116Y6294995D01*
X4938985Y6554726D01*
X5026478Y6836950D01*
X5057230Y7130820D01*
X5030060Y7425043D01*
X4946012Y7708311D01*
X4808316Y7969740D01*
X4798116Y7985005D01*
X4597497Y8116787D01*
X3620711Y7140000D01*
X3479289Y7140000D01*
X2502503Y8116787D01*
X2301884Y7985005D01*
X2161015Y7725274D01*
X2073522Y7443050D01*
X2042770Y7149180D01*
X450000Y7149180D01*
X450000Y8187497D01*
X2573213Y8187497D01*
X3550000Y7210711D01*
X4526787Y8187497D01*
X4395005Y8388116D01*
X4135274Y8528985D01*
X3853050Y8616478D01*
X3559180Y8647230D01*
X3264957Y8620060D01*
X2981689Y8536012D01*
X2720260Y8398316D01*
X2704995Y8388116D01*
X2573213Y8187497D01*
X450000Y8187497D01*
X450000Y13307157D01*
X1950000Y13307157D01*
X1950000Y9772843D01*
X1955764Y9714316D01*
X1970988Y9637779D01*
X1988060Y9581500D01*
X2015784Y9529634D01*
X2059139Y9464749D01*
X2096447Y9419289D01*
X2479289Y9036447D01*
X2524749Y8999139D01*
X2589634Y8955784D01*
X2641502Y8928060D01*
X2697779Y8910988D01*
X2774316Y8895764D01*
X2832843Y8890000D01*
X4767157Y8890000D01*
X4825684Y8895764D01*
X4902221Y8910988D01*
X4958500Y8928060D01*
X5010366Y8955784D01*
X5075251Y8999139D01*
X5120711Y9036447D01*
X5303553Y9219289D01*
X5340861Y9264749D01*
X5384216Y9329634D01*
X5411940Y9381502D01*
X5429012Y9437779D01*
X5444236Y9514316D01*
X5450000Y9572843D01*
X5450000Y10065736D01*
X5474264Y10090000D01*
X7067157Y10090000D01*
X7125684Y10095764D01*
X7202221Y10110988D01*
X7258500Y10128060D01*
X7310366Y10155784D01*
X7375251Y10199139D01*
X7420711Y10236447D01*
X7803553Y10619289D01*
X7840861Y10664749D01*
X7884216Y10729634D01*
X7911940Y10781502D01*
X7927917Y10834170D01*
X8110000Y10834170D01*
X8110000Y10725830D01*
X8131136Y10619571D01*
X8172597Y10519477D01*
X8232787Y10429396D01*
X8309396Y10352787D01*
X8399477Y10292597D01*
X8499571Y10251136D01*
X8605830Y10230000D01*
X8714170Y10230000D01*
X8820429Y10251136D01*
X8920523Y10292597D01*
X9010604Y10352787D01*
X9087213Y10429396D01*
X9147403Y10519477D01*
X9188864Y10619571D01*
X9210000Y10725830D01*
X9210000Y10834170D01*
X9188864Y10940429D01*
X9147403Y11040523D01*
X9087213Y11130604D01*
X9010604Y11207213D01*
X8920523Y11267403D01*
X8820429Y11308864D01*
X8714170Y11330000D01*
X8605830Y11330000D01*
X8499571Y11308864D01*
X8399477Y11267403D01*
X8309396Y11207213D01*
X8232787Y11130604D01*
X8172597Y11040523D01*
X8131136Y10940429D01*
X8110000Y10834170D01*
X7927917Y10834170D01*
X7929012Y10837779D01*
X7944236Y10914316D01*
X7950000Y10972843D01*
X7950000Y12707157D01*
X7944236Y12765684D01*
X7929012Y12842221D01*
X7911940Y12898500D01*
X7884216Y12950366D01*
X7840861Y13015251D01*
X7803553Y13060711D01*
X6420711Y14443553D01*
X6375251Y14480861D01*
X6310366Y14524216D01*
X6258498Y14551940D01*
X6202221Y14569012D01*
X6125684Y14584236D01*
X6067157Y14590000D01*
X3232843Y14590000D01*
X3174316Y14584236D01*
X3097779Y14569012D01*
X3041500Y14551940D01*
X2989634Y14524216D01*
X2924749Y14480861D01*
X2879289Y14443553D01*
X2096447Y13660711D01*
X2059139Y13615251D01*
X2015784Y13550366D01*
X1988060Y13498498D01*
X1970988Y13442221D01*
X1955764Y13365684D01*
X1950000Y13307157D01*
X450000Y13307157D01*
X450000Y15519252D01*
X479182Y15495303D01*
X619471Y15420317D01*
X771694Y15374141D01*
X930000Y15358549D01*
X1610000Y15358549D01*
X1768306Y15374141D01*
X1920529Y15420317D01*
X2060818Y15495303D01*
X2183783Y15596217D01*
X2284697Y15719182D01*
X2359683Y15859471D01*
X2405859Y16011694D01*
X2421451Y16170000D01*
X2421451Y16410000D01*
X2721281Y16410000D01*
X2683052Y16280886D01*
G37*
X2683052Y16280886D02*
X2749404Y16065432D01*
X2856514Y15867062D01*
X3000266Y15693400D01*
X3175136Y15551119D01*
X3374403Y15445688D01*
X3580886Y15383054D01*
X3760000Y15436163D01*
X3760000Y16410000D01*
X3860000Y16410000D01*
X3860000Y15436163D01*
X4039114Y15383054D01*
X4245597Y15445688D01*
X4444864Y15551119D01*
X4619734Y15693400D01*
X4763486Y15867062D01*
X4870596Y16065432D01*
X4936948Y16280886D01*
X4898719Y16410000D01*
X5150000Y16410000D01*
X5150000Y16391810D01*
X5196116Y16159973D01*
X5286574Y15941587D01*
X5417899Y15745045D01*
X5585045Y15577899D01*
X5781587Y15446574D01*
X5999973Y15356116D01*
X6231810Y15310000D01*
X6468190Y15310000D01*
X6700027Y15356116D01*
X6918413Y15446574D01*
X7114955Y15577899D01*
X7282101Y15745045D01*
X7413426Y15941587D01*
X7503884Y16159973D01*
X7550000Y16391810D01*
X7550000Y16410000D01*
X7738549Y16410000D01*
X7738549Y16170000D01*
X7754141Y16011694D01*
X7800317Y15859471D01*
X7875303Y15719182D01*
X7976217Y15596217D01*
X8099182Y15495303D01*
X8239471Y15420317D01*
X8391694Y15374141D01*
X8550000Y15358549D01*
X9230000Y15358549D01*
X9388306Y15374141D01*
X9540529Y15420317D01*
X9680818Y15495303D01*
X9803783Y15596217D01*
X9904697Y15719182D01*
X9979683Y15859471D01*
X10025859Y16011694D01*
X10041451Y16170000D01*
X10041451Y16410000D01*
X10280000Y16410000D01*
X10280000Y16396735D01*
X10324194Y16174557D01*
X10410884Y15965271D01*
X10536737Y15776918D01*
X10696918Y15616737D01*
X10885271Y15490884D01*
X11094557Y15404194D01*
X11316735Y15360000D01*
X11543265Y15360000D01*
X11765443Y15404194D01*
X11974729Y15490884D01*
X12163082Y15616737D01*
X12323263Y15776918D01*
X12449116Y15965271D01*
X12535806Y16174557D01*
X12580000Y16396735D01*
X12580000Y16410000D01*
X12820000Y16410000D01*
X12820000Y16396735D01*
X12864194Y16174557D01*
X12950884Y15965271D01*
X13076737Y15776918D01*
X13236918Y15616737D01*
X13425271Y15490884D01*
X13634557Y15404194D01*
X13856735Y15360000D01*
X14083265Y15360000D01*
X14305443Y15404194D01*
X14514729Y15490884D01*
X14703082Y15616737D01*
X14863263Y15776918D01*
X14989116Y15965271D01*
X15075806Y16174557D01*
X15120000Y16396735D01*
X15120000Y16410000D01*
X15360000Y16410000D01*
X15360000Y16396735D01*
X15404194Y16174557D01*
X15490884Y15965271D01*
X15558456Y15864141D01*
X14984315Y15290000D01*
X11269635Y15290000D01*
X11249999Y15291934D01*
X11230363Y15290000D01*
X11230353Y15290000D01*
X11171586Y15284212D01*
X11096186Y15261340D01*
X11026697Y15224197D01*
X10965789Y15174211D01*
X10953265Y15158950D01*
X9181052Y13386737D01*
X9165789Y13374211D01*
X9115803Y13313302D01*
X9078660Y13243813D01*
X9062520Y13190605D01*
X9055788Y13168413D01*
X9048065Y13090000D01*
X9050000Y13070353D01*
X9050001Y11909656D01*
X9048065Y11890000D01*
X9055788Y11811587D01*
X9078661Y11736186D01*
X9115803Y11666698D01*
X9153265Y11621050D01*
X9153268Y11621047D01*
X9165790Y11605789D01*
X9181048Y11593267D01*
X10153263Y10621052D01*
X10165789Y10605789D01*
X10210793Y10568855D01*
X10226697Y10555803D01*
X10296186Y10518660D01*
X10371586Y10495788D01*
X10450000Y10488065D01*
X10469647Y10490000D01*
X13434315Y10490000D01*
X14403267Y9521047D01*
X14415789Y9505789D01*
X14431047Y9493267D01*
X14431049Y9493265D01*
X14476697Y9455803D01*
X14546185Y9418660D01*
X14621586Y9395788D01*
X14700000Y9388065D01*
X14719646Y9390000D01*
X17534315Y9390000D01*
X17712791Y9211523D01*
X17721136Y9169571D01*
X17762597Y9069477D01*
X17822787Y8979396D01*
X17899396Y8902787D01*
X17989477Y8842597D01*
X18065738Y8811008D01*
X18056787Y8781502D01*
X18051523Y8764148D01*
X18043800Y8685735D01*
X18045735Y8666088D01*
X18045736Y7890000D01*
X17474264Y7890000D01*
X16520711Y8843553D01*
X16475251Y8880861D01*
X16410366Y8924216D01*
X16358498Y8951940D01*
X16302221Y8969012D01*
X16225684Y8984236D01*
X16167157Y8990000D01*
X14174264Y8990000D01*
X13820711Y9343553D01*
X13775251Y9380861D01*
X13710366Y9424216D01*
X13658498Y9451940D01*
X13602221Y9469012D01*
X13525684Y9484236D01*
X13467157Y9490000D01*
X12434631Y9490000D01*
X12404170Y9496059D01*
X12295830Y9496059D01*
X12189571Y9474923D01*
X12089477Y9433462D01*
X11999396Y9373272D01*
X11922787Y9296663D01*
X11862597Y9206582D01*
X11821136Y9106488D01*
X11800000Y9000229D01*
X11800000Y8891889D01*
X11821136Y8785630D01*
X11862597Y8685536D01*
X11922787Y8595455D01*
X11984978Y8533264D01*
X11996447Y8519289D01*
X12879289Y7636447D01*
X12924749Y7599139D01*
X12989634Y7555784D01*
X13041502Y7528060D01*
X13097779Y7510988D01*
X13174316Y7495764D01*
X13232843Y7490000D01*
X15277185Y7490000D01*
X17819113Y4989744D01*
X17821136Y4979571D01*
X17858238Y4890000D01*
X16638240Y4890000D01*
X16618604Y4891934D01*
X16598968Y4890000D01*
X16598957Y4890000D01*
X16540190Y4884212D01*
X16464790Y4861340D01*
X16414038Y4834212D01*
X16395301Y4824197D01*
X16349653Y4786735D01*
X16349651Y4786733D01*
X16334393Y4774211D01*
X16321871Y4758953D01*
X16102919Y4540000D01*
X15165686Y4540000D01*
X14246737Y5458948D01*
X14234211Y5474211D01*
X14173303Y5524197D01*
X14103814Y5561340D01*
X14028414Y5584212D01*
X13969647Y5590000D01*
X13969646Y5590000D01*
X13950000Y5591935D01*
X13930354Y5590000D01*
X12169635Y5590000D01*
X12149999Y5591934D01*
X12130363Y5590000D01*
X12130353Y5590000D01*
X12071586Y5584212D01*
X11996186Y5561340D01*
X11926697Y5524197D01*
X11926695Y5524196D01*
X11926696Y5524196D01*
X11881049Y5486735D01*
X11881047Y5486733D01*
X11865789Y5474211D01*
X11853267Y5458953D01*
X11534315Y5140000D01*
X11495830Y5140000D01*
X11389571Y5118864D01*
X11289477Y5077403D01*
X11199396Y5017213D01*
X11122787Y4940604D01*
X11062597Y4850523D01*
X11021136Y4750429D01*
X11000000Y4644170D01*
X11000000Y4535830D01*
X11021136Y4429571D01*
X11062597Y4329477D01*
X11122787Y4239396D01*
X11199396Y4162787D01*
X11289477Y4102597D01*
X11319864Y4090010D01*
X10815676Y4090010D01*
X10650000Y4255685D01*
X10650000Y4294170D01*
X10628864Y4400429D01*
X10587403Y4500523D01*
X10527213Y4590604D01*
X10450604Y4667213D01*
X10360523Y4727403D01*
X10315163Y4746192D01*
X10337403Y4779477D01*
X10378864Y4879571D01*
X10400000Y4985830D01*
X10400000Y5094170D01*
X10378864Y5200429D01*
X10337403Y5300523D01*
X10277213Y5390604D01*
X10200604Y5467213D01*
X10110523Y5527403D01*
X10010429Y5568864D01*
X9904170Y5590000D01*
X9795830Y5590000D01*
X9689571Y5568864D01*
X9650000Y5552473D01*
X9650000Y6186091D01*
X9872576Y6186091D01*
X9872576Y6077751D01*
X9893712Y5971492D01*
X9935173Y5871398D01*
X9995363Y5781317D01*
X10071972Y5704708D01*
X10162053Y5644518D01*
X10262147Y5603057D01*
X10368406Y5581921D01*
X10476746Y5581921D01*
X10583005Y5603057D01*
X10683099Y5644518D01*
X10773180Y5704708D01*
X10849789Y5781317D01*
X10909979Y5871398D01*
X10951440Y5971492D01*
X10972576Y6077751D01*
X10972576Y6186091D01*
X10951440Y6292350D01*
X10909979Y6392444D01*
X10849789Y6482525D01*
X10835066Y6497248D01*
X10877213Y6539396D01*
X10937403Y6629477D01*
X10966697Y6700200D01*
X11811790Y6700200D01*
X11811790Y6591860D01*
X11832926Y6485601D01*
X11874387Y6385507D01*
X11934577Y6295426D01*
X12011186Y6218817D01*
X12101267Y6158627D01*
X12201361Y6117166D01*
X12307620Y6096030D01*
X12415960Y6096030D01*
X12522219Y6117166D01*
X12622313Y6158627D01*
X12712394Y6218817D01*
X12789003Y6295426D01*
X12849193Y6385507D01*
X12890654Y6485601D01*
X12911790Y6591860D01*
X12911790Y6700200D01*
X12890654Y6806459D01*
X12849193Y6906553D01*
X12789003Y6996634D01*
X12712394Y7073243D01*
X12622313Y7133433D01*
X12522219Y7174894D01*
X12415960Y7196030D01*
X12307620Y7196030D01*
X12201361Y7174894D01*
X12101267Y7133433D01*
X12011186Y7073243D01*
X11934577Y6996634D01*
X11874387Y6906553D01*
X11832926Y6806459D01*
X11811790Y6700200D01*
X10966697Y6700200D01*
X10978864Y6729571D01*
X11000000Y6835830D01*
X11000000Y6944170D01*
X10978864Y7050429D01*
X10937403Y7150523D01*
X10877213Y7240604D01*
X10800604Y7317213D01*
X10710523Y7377403D01*
X10610429Y7418864D01*
X10504170Y7440000D01*
X10395830Y7440000D01*
X10289571Y7418864D01*
X10189477Y7377403D01*
X10099396Y7317213D01*
X10022787Y7240604D01*
X9962597Y7150523D01*
X9921136Y7050429D01*
X9900000Y6944170D01*
X9900000Y6835830D01*
X9921136Y6729571D01*
X9962597Y6629477D01*
X10022787Y6539396D01*
X10037511Y6524672D01*
X9995363Y6482525D01*
X9935173Y6392444D01*
X9893712Y6292350D01*
X9872576Y6186091D01*
X9650000Y6186091D01*
X9650000Y6870365D01*
X9651934Y6890001D01*
X9650000Y6909637D01*
X9650000Y6909647D01*
X9644212Y6968414D01*
X9621340Y7043814D01*
X9584197Y7113303D01*
X9534211Y7174211D01*
X9518949Y7186736D01*
X9400000Y7305685D01*
X9400000Y7344170D01*
X9378864Y7450429D01*
X9337403Y7550523D01*
X9277213Y7640604D01*
X9200604Y7717213D01*
X9110523Y7777403D01*
X9010429Y7818864D01*
X8904170Y7840000D01*
X8795830Y7840000D01*
X8689571Y7818864D01*
X8589477Y7777403D01*
X8499396Y7717213D01*
X8422787Y7640604D01*
X8362597Y7550523D01*
X8321136Y7450429D01*
X8300000Y7344170D01*
X8300000Y7235830D01*
X8321136Y7129571D01*
X8362597Y7029477D01*
X8422787Y6939396D01*
X8499396Y6862787D01*
X8589477Y6802597D01*
X8689571Y6761136D01*
X8795830Y6740000D01*
X8834315Y6740000D01*
X8850000Y6724315D01*
X8850001Y4259656D01*
X8848065Y4240000D01*
X8855788Y4161587D01*
X8878661Y4086186D01*
X8915803Y4016698D01*
X8953265Y3971050D01*
X8953268Y3971047D01*
X8965790Y3955789D01*
X8981048Y3943267D01*
X9903267Y3021047D01*
X9915789Y3005789D01*
X9931047Y2993267D01*
X9931049Y2993265D01*
X9976697Y2955803D01*
X10046185Y2918660D01*
X10121586Y2895788D01*
X10200000Y2888065D01*
X10219646Y2890000D01*
X12484315Y2890000D01*
X11910172Y2315857D01*
X11765443Y2375806D01*
X11543265Y2420000D01*
X11316735Y2420000D01*
X11094557Y2375806D01*
X10885271Y2289116D01*
X10696918Y2163263D01*
X10536737Y2003082D01*
X10410884Y1814729D01*
X10324194Y1605443D01*
X10280000Y1383265D01*
X10280000Y1370000D01*
X10041451Y1370000D01*
X10041451Y1610000D01*
X10025859Y1768306D01*
X9979683Y1920529D01*
X9904697Y2060818D01*
X9803783Y2183783D01*
X9680818Y2284697D01*
X9540529Y2359683D01*
X9388306Y2405859D01*
X9230000Y2421451D01*
X8550000Y2421451D01*
X8391694Y2405859D01*
X8336553Y2389132D01*
X7450000Y3275685D01*
X7450000Y6670353D01*
X7451935Y6690000D01*
X7447011Y6740000D01*
X7444212Y6768414D01*
X7421340Y6843814D01*
X7400000Y6883738D01*
X7400000Y6944170D01*
X7378864Y7050429D01*
X7337403Y7150523D01*
X7277213Y7240604D01*
X7250000Y7267817D01*
X7250000Y8524315D01*
X7892150Y9166465D01*
X7887694Y9144062D01*
X7887694Y9035722D01*
X7908830Y8929463D01*
X7950291Y8829369D01*
X8010481Y8739288D01*
X8087090Y8662679D01*
X8177171Y8602489D01*
X8277265Y8561028D01*
X8383524Y8539892D01*
X8491864Y8539892D01*
X8586244Y8558665D01*
X8599810Y8525915D01*
X8660000Y8435834D01*
X8736609Y8359225D01*
X8826690Y8299035D01*
X8926784Y8257574D01*
X9033043Y8236438D01*
X9141383Y8236438D01*
X9247642Y8257574D01*
X9347736Y8299035D01*
X9437817Y8359225D01*
X9460654Y8382062D01*
X9525568Y8338688D01*
X9625662Y8297227D01*
X9731921Y8276091D01*
X9840261Y8276091D01*
X9946520Y8297227D01*
X10046614Y8338688D01*
X10136695Y8398878D01*
X10213304Y8475487D01*
X10273494Y8565568D01*
X10283973Y8590866D01*
X10326697Y8555803D01*
X10396185Y8518660D01*
X10471586Y8495788D01*
X10550000Y8488065D01*
X10569647Y8490000D01*
X10572183Y8490000D01*
X10599396Y8462787D01*
X10689477Y8402597D01*
X10789571Y8361136D01*
X10895830Y8340000D01*
X11004170Y8340000D01*
X11110429Y8361136D01*
X11210523Y8402597D01*
X11300604Y8462787D01*
X11377213Y8539396D01*
X11437403Y8629477D01*
X11478864Y8729571D01*
X11500000Y8835830D01*
X11500000Y8944170D01*
X11478864Y9050429D01*
X11437403Y9150523D01*
X11377213Y9240604D01*
X11300604Y9317213D01*
X11210523Y9377403D01*
X11110429Y9418864D01*
X11004170Y9440000D01*
X10895830Y9440000D01*
X10789571Y9418864D01*
X10689477Y9377403D01*
X10652794Y9352892D01*
X10046737Y9958948D01*
X10034211Y9974211D01*
X9973303Y10024197D01*
X9903814Y10061340D01*
X9828414Y10084212D01*
X9769647Y10090000D01*
X9769646Y10090000D01*
X9750000Y10091935D01*
X9730354Y10090000D01*
X7869647Y10090000D01*
X7850000Y10091935D01*
X7830353Y10090000D01*
X7771586Y10084212D01*
X7696186Y10061340D01*
X7626697Y10024197D01*
X7565789Y9974211D01*
X7553263Y9958948D01*
X6581052Y8986737D01*
X6565789Y8974211D01*
X6515803Y8913302D01*
X6478660Y8843813D01*
X6459303Y8780000D01*
X6455788Y8768413D01*
X6448065Y8690000D01*
X6450000Y8670353D01*
X6450001Y7267818D01*
X6422787Y7240604D01*
X6362597Y7150523D01*
X6321136Y7050429D01*
X6300000Y6944170D01*
X6300000Y6835830D01*
X6321136Y6729571D01*
X6362597Y6629477D01*
X6422787Y6539396D01*
X6499396Y6462787D01*
X6589477Y6402597D01*
X6650000Y6377527D01*
X6650001Y3129656D01*
X6648065Y3110000D01*
X6655788Y3031587D01*
X6678661Y2956186D01*
X6715803Y2886698D01*
X6753265Y2841050D01*
X6753268Y2841047D01*
X6765790Y2825789D01*
X6781048Y2813267D01*
X7770868Y1823447D01*
X7754141Y1768306D01*
X7738549Y1610000D01*
X7738549Y1370000D01*
X7550000Y1370000D01*
X7550000Y1388190D01*
X7503884Y1620027D01*
X7413426Y1838413D01*
X7282101Y2034955D01*
X7114955Y2202101D01*
X6918413Y2333426D01*
X6700027Y2423884D01*
X6468190Y2470000D01*
X6231810Y2470000D01*
X5999973Y2423884D01*
X5781587Y2333426D01*
X5585045Y2202101D01*
X5417899Y2034955D01*
X5286574Y1838413D01*
X5196116Y1620027D01*
X5150000Y1388190D01*
X5150000Y1370000D01*
X4898719Y1370000D01*
X4936948Y1499114D01*
X4870596Y1714568D01*
X4763486Y1912938D01*
X4619734Y2086600D01*
X4444864Y2228881D01*
X4245597Y2334312D01*
X4039114Y2396946D01*
X3860000Y2343837D01*
X3860000Y1370000D01*
X3760000Y1370000D01*
X3760000Y2343837D01*
X3580886Y2396946D01*
X3374403Y2334312D01*
X3175136Y2228881D01*
X3000266Y2086600D01*
X2856514Y1912938D01*
X2749404Y1714568D01*
X2683052Y1499114D01*
X2721281Y1370000D01*
X2421451Y1370000D01*
X2421451Y1610000D01*
X2405859Y1768306D01*
X2359683Y1920529D01*
X2284697Y2060818D01*
X2183783Y2183783D01*
X2060818Y2284697D01*
X1920529Y2359683D01*
X1768306Y2405859D01*
X1610000Y2421451D01*
X930000Y2421451D01*
X771694Y2405859D01*
X619471Y2359683D01*
X479182Y2284697D01*
X450000Y2260748D01*
X450000Y6092503D01*
X2573213Y6092503D01*
X2704995Y5891884D01*
X2964726Y5751015D01*
X3246950Y5663522D01*
X3540820Y5632770D01*
X3835043Y5659940D01*
X4118311Y5743988D01*
X4379740Y5881684D01*
X4395005Y5891884D01*
X4526787Y6092503D01*
X3550000Y7069289D01*
X2573213Y6092503D01*
X450000Y6092503D01*
X450000Y7149180D01*
X2042770Y7149180D01*
X2069940Y6854957D01*
X2153988Y6571689D01*
X2291684Y6310260D01*
X2301884Y6294995D01*
X2502503Y6163213D01*
X3479289Y7140000D01*
X3620711Y7140000D01*
X4597497Y6163213D01*
X4798116Y6294995D01*
X4938985Y6554726D01*
X5026478Y6836950D01*
X5057230Y7130820D01*
X5030060Y7425043D01*
X4946012Y7708311D01*
X4808316Y7969740D01*
X4798116Y7985005D01*
X4597497Y8116787D01*
X3620711Y7140000D01*
X3479289Y7140000D01*
X2502503Y8116787D01*
X2301884Y7985005D01*
X2161015Y7725274D01*
X2073522Y7443050D01*
X2042770Y7149180D01*
X450000Y7149180D01*
X450000Y8187497D01*
X2573213Y8187497D01*
X3550000Y7210711D01*
X4526787Y8187497D01*
X4395005Y8388116D01*
X4135274Y8528985D01*
X3853050Y8616478D01*
X3559180Y8647230D01*
X3264957Y8620060D01*
X2981689Y8536012D01*
X2720260Y8398316D01*
X2704995Y8388116D01*
X2573213Y8187497D01*
X450000Y8187497D01*
X450000Y13307157D01*
X1950000Y13307157D01*
X1950000Y9772843D01*
X1955764Y9714316D01*
X1970988Y9637779D01*
X1988060Y9581500D01*
X2015784Y9529634D01*
X2059139Y9464749D01*
X2096447Y9419289D01*
X2479289Y9036447D01*
X2524749Y8999139D01*
X2589634Y8955784D01*
X2641502Y8928060D01*
X2697779Y8910988D01*
X2774316Y8895764D01*
X2832843Y8890000D01*
X4767157Y8890000D01*
X4825684Y8895764D01*
X4902221Y8910988D01*
X4958500Y8928060D01*
X5010366Y8955784D01*
X5075251Y8999139D01*
X5120711Y9036447D01*
X5303553Y9219289D01*
X5340861Y9264749D01*
X5384216Y9329634D01*
X5411940Y9381502D01*
X5429012Y9437779D01*
X5444236Y9514316D01*
X5450000Y9572843D01*
X5450000Y10065736D01*
X5474264Y10090000D01*
X7067157Y10090000D01*
X7125684Y10095764D01*
X7202221Y10110988D01*
X7258500Y10128060D01*
X7310366Y10155784D01*
X7375251Y10199139D01*
X7420711Y10236447D01*
X7803553Y10619289D01*
X7840861Y10664749D01*
X7884216Y10729634D01*
X7911940Y10781502D01*
X7927917Y10834170D01*
X8110000Y10834170D01*
X8110000Y10725830D01*
X8131136Y10619571D01*
X8172597Y10519477D01*
X8232787Y10429396D01*
X8309396Y10352787D01*
X8399477Y10292597D01*
X8499571Y10251136D01*
X8605830Y10230000D01*
X8714170Y10230000D01*
X8820429Y10251136D01*
X8920523Y10292597D01*
X9010604Y10352787D01*
X9087213Y10429396D01*
X9147403Y10519477D01*
X9188864Y10619571D01*
X9210000Y10725830D01*
X9210000Y10834170D01*
X9188864Y10940429D01*
X9147403Y11040523D01*
X9087213Y11130604D01*
X9010604Y11207213D01*
X8920523Y11267403D01*
X8820429Y11308864D01*
X8714170Y11330000D01*
X8605830Y11330000D01*
X8499571Y11308864D01*
X8399477Y11267403D01*
X8309396Y11207213D01*
X8232787Y11130604D01*
X8172597Y11040523D01*
X8131136Y10940429D01*
X8110000Y10834170D01*
X7927917Y10834170D01*
X7929012Y10837779D01*
X7944236Y10914316D01*
X7950000Y10972843D01*
X7950000Y12707157D01*
X7944236Y12765684D01*
X7929012Y12842221D01*
X7911940Y12898500D01*
X7884216Y12950366D01*
X7840861Y13015251D01*
X7803553Y13060711D01*
X6420711Y14443553D01*
X6375251Y14480861D01*
X6310366Y14524216D01*
X6258498Y14551940D01*
X6202221Y14569012D01*
X6125684Y14584236D01*
X6067157Y14590000D01*
X3232843Y14590000D01*
X3174316Y14584236D01*
X3097779Y14569012D01*
X3041500Y14551940D01*
X2989634Y14524216D01*
X2924749Y14480861D01*
X2879289Y14443553D01*
X2096447Y13660711D01*
X2059139Y13615251D01*
X2015784Y13550366D01*
X1988060Y13498498D01*
X1970988Y13442221D01*
X1955764Y13365684D01*
X1950000Y13307157D01*
X450000Y13307157D01*
X450000Y15519252D01*
X479182Y15495303D01*
X619471Y15420317D01*
X771694Y15374141D01*
X930000Y15358549D01*
X1610000Y15358549D01*
X1768306Y15374141D01*
X1920529Y15420317D01*
X2060818Y15495303D01*
X2183783Y15596217D01*
X2284697Y15719182D01*
X2359683Y15859471D01*
X2405859Y16011694D01*
X2421451Y16170000D01*
X2421451Y16410000D01*
X2721281Y16410000D01*
X2683052Y16280886D01*
G36*
X15616737Y2003082D02*
G01*
X15490884Y1814729D01*
X15404194Y1605443D01*
X15360000Y1383265D01*
X15360000Y1370000D01*
X15120000Y1370000D01*
X15120000Y1383265D01*
X15075806Y1605443D01*
X14989116Y1814729D01*
X14863263Y2003082D01*
X14776367Y2089978D01*
X15703633Y2089978D01*
X15616737Y2003082D01*
G37*
X15616737Y2003082D02*
X15490884Y1814729D01*
X15404194Y1605443D01*
X15360000Y1383265D01*
X15360000Y1370000D01*
X15120000Y1370000D01*
X15120000Y1383265D01*
X15075806Y1605443D01*
X14989116Y1814729D01*
X14863263Y2003082D01*
X14776367Y2089978D01*
X15703633Y2089978D01*
X15616737Y2003082D01*
G36*
X18156737Y2003082D02*
G01*
X18030884Y1814729D01*
X17944194Y1605443D01*
X17900000Y1383265D01*
X17900000Y1370000D01*
X17660000Y1370000D01*
X17660000Y1383265D01*
X17615806Y1605443D01*
X17529116Y1814729D01*
X17493587Y1867902D01*
X17715652Y2089967D01*
X18243622Y2089967D01*
X18156737Y2003082D01*
G37*
X18156737Y2003082D02*
X18030884Y1814729D01*
X17944194Y1605443D01*
X17900000Y1383265D01*
X17900000Y1370000D01*
X17660000Y1370000D01*
X17660000Y1383265D01*
X17615806Y1605443D01*
X17529116Y1814729D01*
X17493587Y1867902D01*
X17715652Y2089967D01*
X18243622Y2089967D01*
X18156737Y2003082D01*
G36*
X35680000Y16396735D02*
G01*
X35724194Y16174557D01*
X35810884Y15965271D01*
X35936737Y15776918D01*
X36096918Y15616737D01*
X36285271Y15490884D01*
X36494557Y15404194D01*
X36716735Y15360000D01*
X36943265Y15360000D01*
X37165443Y15404194D01*
X37374729Y15490884D01*
X37563082Y15616737D01*
X37723263Y15776918D01*
X37849116Y15965271D01*
X37935806Y16174557D01*
X37980000Y16396735D01*
X37980000Y16410000D01*
X38170000Y16410000D01*
X38170000Y16391810D01*
X38216116Y16159973D01*
X38306574Y15941587D01*
X38437899Y15745045D01*
X38605045Y15577899D01*
X38801587Y15446574D01*
X39019973Y15356116D01*
X39251810Y15310000D01*
X39488190Y15310000D01*
X39720027Y15356116D01*
X39938413Y15446574D01*
X40134955Y15577899D01*
X40190001Y15632945D01*
X40190001Y13691202D01*
X40118422Y13778422D01*
X39996606Y13878393D01*
X39857628Y13952679D01*
X39706827Y13998424D01*
X39589293Y14010000D01*
X38910707Y14010000D01*
X38793173Y13998424D01*
X38642372Y13952679D01*
X38503394Y13878393D01*
X38381578Y13778422D01*
X38281607Y13656606D01*
X38207321Y13517628D01*
X38161576Y13366827D01*
X38146130Y13210000D01*
X38161576Y13053173D01*
X38207321Y12902372D01*
X38281607Y12763394D01*
X38381578Y12641578D01*
X38503394Y12541607D01*
X38642372Y12467321D01*
X38793173Y12421576D01*
X38910707Y12410000D01*
X39322894Y12410000D01*
X39550000Y12182893D01*
X39550001Y5577108D01*
X39342894Y5370000D01*
X38910707Y5370000D01*
X38793173Y5358424D01*
X38642372Y5312679D01*
X38503394Y5238393D01*
X38381578Y5138422D01*
X38281607Y5016606D01*
X38207321Y4877628D01*
X38161576Y4726827D01*
X38146130Y4570000D01*
X38161576Y4413173D01*
X38207321Y4262372D01*
X38281607Y4123394D01*
X38381578Y4001578D01*
X38503394Y3901607D01*
X38642372Y3827321D01*
X38793173Y3781576D01*
X38910707Y3770000D01*
X39589293Y3770000D01*
X39706827Y3781576D01*
X39857628Y3827321D01*
X39996606Y3901607D01*
X40118422Y4001578D01*
X40190000Y4088797D01*
X40190000Y2147056D01*
X40134955Y2202101D01*
X39938413Y2333426D01*
X39720027Y2423884D01*
X39488190Y2470000D01*
X39251810Y2470000D01*
X39019973Y2423884D01*
X38801587Y2333426D01*
X38605045Y2202101D01*
X38437899Y2034955D01*
X38306574Y1838413D01*
X38216116Y1620027D01*
X38170000Y1388190D01*
X38170000Y1370000D01*
X37980000Y1370000D01*
X37980000Y1383265D01*
X37935806Y1605443D01*
X37849116Y1814729D01*
X37723263Y2003082D01*
X37563082Y2163263D01*
X37374729Y2289116D01*
X37165443Y2375806D01*
X36943265Y2420000D01*
X36716735Y2420000D01*
X36494557Y2375806D01*
X36285271Y2289116D01*
X36096918Y2163263D01*
X35936737Y2003082D01*
X35810884Y1814729D01*
X35724194Y1605443D01*
X35680000Y1383265D01*
X35680000Y1370000D01*
X35378719Y1370000D01*
X35416948Y1499114D01*
X35350596Y1714568D01*
X35243486Y1912938D01*
X35099734Y2086600D01*
X34924864Y2228881D01*
X34725597Y2334312D01*
X34519114Y2396946D01*
X34340000Y2343837D01*
X34340000Y1370000D01*
X34240000Y1370000D01*
X34240000Y2343837D01*
X34060886Y2396946D01*
X33854403Y2334312D01*
X33655136Y2228881D01*
X33480266Y2086600D01*
X33336514Y1912938D01*
X33229404Y1714568D01*
X33163052Y1499114D01*
X33201281Y1370000D01*
X32900000Y1370000D01*
X32900000Y1383265D01*
X32855806Y1605443D01*
X32769116Y1814729D01*
X32643263Y2003082D01*
X32483082Y2163263D01*
X32294729Y2289116D01*
X32085443Y2375806D01*
X31863265Y2420000D01*
X31636735Y2420000D01*
X31414557Y2375806D01*
X31205271Y2289116D01*
X31016918Y2163263D01*
X30929670Y2076015D01*
X29007371Y3998314D01*
X29007371Y4570000D01*
X33716130Y4570000D01*
X33731576Y4413173D01*
X33777321Y4262372D01*
X33851607Y4123394D01*
X33951578Y4001578D01*
X34073394Y3901607D01*
X34212372Y3827321D01*
X34363173Y3781576D01*
X34480707Y3770000D01*
X35659293Y3770000D01*
X35776827Y3781576D01*
X35927628Y3827321D01*
X36066606Y3901607D01*
X36188422Y4001578D01*
X36288393Y4123394D01*
X36362679Y4262372D01*
X36408424Y4413173D01*
X36423870Y4570000D01*
X36408424Y4726827D01*
X36362679Y4877628D01*
X36288393Y5016606D01*
X36188422Y5138422D01*
X36066606Y5238393D01*
X35927628Y5312679D01*
X35776827Y5358424D01*
X35659293Y5370000D01*
X34480707Y5370000D01*
X34363173Y5358424D01*
X34212372Y5312679D01*
X34073394Y5238393D01*
X33951578Y5138422D01*
X33851607Y5016606D01*
X33777321Y4877628D01*
X33731576Y4726827D01*
X33716130Y4570000D01*
X29007371Y4570000D01*
X29007371Y6181686D01*
X31300000Y8474314D01*
X31300001Y7317018D01*
X31297340Y7290000D01*
X31300001Y7262982D01*
X31307959Y7182181D01*
X31328546Y7114316D01*
X31339409Y7078506D01*
X31390479Y6982958D01*
X31441987Y6920196D01*
X31441993Y6920190D01*
X31459211Y6899210D01*
X31480192Y6881991D01*
X31699396Y6662787D01*
X31721975Y6647700D01*
X31742959Y6630479D01*
X31766901Y6617682D01*
X31789477Y6602597D01*
X31814563Y6592206D01*
X31838506Y6579408D01*
X31864484Y6571527D01*
X31889571Y6561136D01*
X31916202Y6555839D01*
X31942181Y6547958D01*
X31969198Y6545297D01*
X31995830Y6540000D01*
X32022989Y6540000D01*
X32050000Y6537340D01*
X32077011Y6540000D01*
X32104170Y6540000D01*
X32130802Y6545297D01*
X32157819Y6547958D01*
X32183798Y6555839D01*
X32210429Y6561136D01*
X32235516Y6571527D01*
X32261494Y6579408D01*
X32285438Y6592206D01*
X32310523Y6602597D01*
X32333096Y6617680D01*
X32357042Y6630479D01*
X32378030Y6647703D01*
X32400604Y6662787D01*
X32419804Y6681987D01*
X32440790Y6699210D01*
X32458013Y6720196D01*
X32477213Y6739396D01*
X32492297Y6761970D01*
X32509521Y6782958D01*
X32522320Y6806904D01*
X32537403Y6829477D01*
X32547794Y6854562D01*
X32560592Y6878506D01*
X32568473Y6904484D01*
X32578864Y6929571D01*
X32584161Y6956202D01*
X32592042Y6982181D01*
X32594703Y7009198D01*
X32600000Y7035830D01*
X32600000Y7062989D01*
X32602660Y7090000D01*
X32600000Y7117011D01*
X32600000Y7144170D01*
X32594703Y7170802D01*
X32592042Y7197819D01*
X32584161Y7223798D01*
X32578864Y7250429D01*
X32568473Y7275516D01*
X32560592Y7301494D01*
X32547794Y7325437D01*
X32537403Y7350523D01*
X32522318Y7373099D01*
X32509521Y7397041D01*
X32492300Y7418025D01*
X32477213Y7440604D01*
X32400602Y7517215D01*
X32400000Y7517816D01*
X32400000Y9144170D01*
X32394703Y9170800D01*
X32392042Y9197819D01*
X32384161Y9223798D01*
X32378864Y9250429D01*
X32368473Y9275516D01*
X32360592Y9301494D01*
X32347794Y9325438D01*
X32337403Y9350523D01*
X32322320Y9373096D01*
X32309521Y9397042D01*
X32292297Y9418030D01*
X32277213Y9440604D01*
X32258013Y9459804D01*
X32240790Y9480790D01*
X32219804Y9498013D01*
X32200604Y9517213D01*
X32178030Y9532297D01*
X32157042Y9549521D01*
X32133097Y9562320D01*
X32110523Y9577403D01*
X32085435Y9587795D01*
X32061493Y9600592D01*
X32035518Y9608471D01*
X32010429Y9618864D01*
X31983796Y9624162D01*
X31957818Y9632042D01*
X31930800Y9634703D01*
X31904170Y9640000D01*
X31877018Y9640000D01*
X31850000Y9642661D01*
X31822982Y9640000D01*
X31795830Y9640000D01*
X31769201Y9634703D01*
X31742181Y9632042D01*
X31716202Y9624161D01*
X31689571Y9618864D01*
X31664484Y9608473D01*
X31638506Y9600592D01*
X31614562Y9587794D01*
X31589477Y9577403D01*
X31566904Y9562320D01*
X31542958Y9549521D01*
X31521970Y9532297D01*
X31499396Y9517213D01*
X31480196Y9498013D01*
X31459210Y9480790D01*
X31450010Y9469580D01*
X31450010Y10844170D01*
X32000000Y10844170D01*
X32000000Y10735830D01*
X32021136Y10629571D01*
X32062597Y10529477D01*
X32122787Y10439396D01*
X32199396Y10362787D01*
X32289477Y10302597D01*
X32389571Y10261136D01*
X32495830Y10240000D01*
X32604170Y10240000D01*
X32710429Y10261136D01*
X32810523Y10302597D01*
X32900604Y10362787D01*
X32977213Y10439396D01*
X33037403Y10529477D01*
X33078864Y10629571D01*
X33100000Y10735830D01*
X33100000Y10807157D01*
X34350000Y10807157D01*
X34350000Y6972843D01*
X34355764Y6914316D01*
X34370988Y6837779D01*
X34388060Y6781500D01*
X34415784Y6729634D01*
X34459139Y6664749D01*
X34496447Y6619289D01*
X34979289Y6136447D01*
X34988408Y6128963D01*
X34975000Y6061557D01*
X34975000Y5938443D01*
X34999019Y5817694D01*
X35046132Y5703952D01*
X35114531Y5601586D01*
X35201586Y5514531D01*
X35303952Y5446132D01*
X35417694Y5399019D01*
X35538443Y5375000D01*
X35661557Y5375000D01*
X35782306Y5399019D01*
X35896048Y5446132D01*
X35998414Y5514531D01*
X36085469Y5601586D01*
X36153868Y5703952D01*
X36200981Y5817694D01*
X36225000Y5938443D01*
X36225000Y6061557D01*
X36224297Y6065092D01*
X36275251Y6099139D01*
X36320711Y6136447D01*
X37003553Y6819289D01*
X37040861Y6864749D01*
X37084216Y6929634D01*
X37111940Y6981502D01*
X37129012Y7037779D01*
X37144236Y7114316D01*
X37150000Y7172843D01*
X37150000Y10607157D01*
X37144236Y10665684D01*
X37129012Y10742221D01*
X37111940Y10798500D01*
X37084216Y10850366D01*
X37040861Y10915251D01*
X37003553Y10960711D01*
X36320711Y11643553D01*
X36275251Y11680861D01*
X36224297Y11714908D01*
X36225000Y11718443D01*
X36225000Y11841557D01*
X36200981Y11962306D01*
X36153868Y12076048D01*
X36085469Y12178414D01*
X35998414Y12265469D01*
X35896048Y12333868D01*
X35782306Y12380981D01*
X35661557Y12405000D01*
X35538443Y12405000D01*
X35417694Y12380981D01*
X35303952Y12333868D01*
X35201586Y12265469D01*
X35114531Y12178414D01*
X35046132Y12076048D01*
X34999019Y11962306D01*
X34975000Y11841557D01*
X34975000Y11718443D01*
X34988408Y11651037D01*
X34979289Y11643553D01*
X34496447Y11160711D01*
X34459139Y11115251D01*
X34415784Y11050366D01*
X34388060Y10998498D01*
X34370988Y10942221D01*
X34355764Y10865684D01*
X34350000Y10807157D01*
X33100000Y10807157D01*
X33100000Y10844170D01*
X33078864Y10950429D01*
X33037403Y11050523D01*
X32977213Y11140604D01*
X32900604Y11217213D01*
X32810523Y11277403D01*
X32710429Y11318864D01*
X32604170Y11340000D01*
X32495830Y11340000D01*
X32389571Y11318864D01*
X32289477Y11277403D01*
X32199396Y11217213D01*
X32122787Y11140604D01*
X32062597Y11050523D01*
X32021136Y10950429D01*
X32000000Y10844170D01*
X31450010Y10844170D01*
X31450010Y11720355D01*
X31451944Y11739991D01*
X31450010Y11759627D01*
X31450010Y11759637D01*
X31444222Y11818404D01*
X31421350Y11893804D01*
X31384207Y11963293D01*
X31359608Y11993267D01*
X31346745Y12008941D01*
X31346743Y12008943D01*
X31334221Y12024201D01*
X31318964Y12036722D01*
X30896737Y12458948D01*
X30884211Y12474211D01*
X30823303Y12524197D01*
X30753814Y12561340D01*
X30678414Y12584212D01*
X30619647Y12590000D01*
X30619646Y12590000D01*
X30600000Y12591935D01*
X30580354Y12590000D01*
X30430614Y12590000D01*
X29539180Y13481433D01*
X29550000Y13535830D01*
X29550000Y13544170D01*
X30300000Y13544170D01*
X30300000Y13435830D01*
X30321136Y13329571D01*
X30362597Y13229477D01*
X30422787Y13139396D01*
X30499396Y13062787D01*
X30589477Y13002597D01*
X30689571Y12961136D01*
X30795830Y12940000D01*
X30904170Y12940000D01*
X31010429Y12961136D01*
X31110523Y13002597D01*
X31200604Y13062787D01*
X31277213Y13139396D01*
X31337403Y13229477D01*
X31364200Y13294170D01*
X31500000Y13294170D01*
X31500000Y13185830D01*
X31521136Y13079571D01*
X31562597Y12979477D01*
X31622787Y12889396D01*
X31699396Y12812787D01*
X31789477Y12752597D01*
X31889571Y12711136D01*
X31995830Y12690000D01*
X32104170Y12690000D01*
X32210429Y12711136D01*
X32310523Y12752597D01*
X32400604Y12812787D01*
X32477213Y12889396D01*
X32537403Y12979477D01*
X32578864Y13079571D01*
X32600000Y13185830D01*
X32600000Y13210000D01*
X33716130Y13210000D01*
X33731576Y13053173D01*
X33777321Y12902372D01*
X33851607Y12763394D01*
X33951578Y12641578D01*
X34073394Y12541607D01*
X34212372Y12467321D01*
X34363173Y12421576D01*
X34480707Y12410000D01*
X35659293Y12410000D01*
X35776827Y12421576D01*
X35927628Y12467321D01*
X36066606Y12541607D01*
X36188422Y12641578D01*
X36288393Y12763394D01*
X36362679Y12902372D01*
X36408424Y13053173D01*
X36423870Y13210000D01*
X36408424Y13366827D01*
X36362679Y13517628D01*
X36288393Y13656606D01*
X36188422Y13778422D01*
X36066606Y13878393D01*
X35927628Y13952679D01*
X35776827Y13998424D01*
X35659293Y14010000D01*
X34480707Y14010000D01*
X34363173Y13998424D01*
X34212372Y13952679D01*
X34073394Y13878393D01*
X33951578Y13778422D01*
X33851607Y13656606D01*
X33777321Y13517628D01*
X33731576Y13366827D01*
X33716130Y13210000D01*
X32600000Y13210000D01*
X32600000Y13294170D01*
X32578864Y13400429D01*
X32537403Y13500523D01*
X32477213Y13590604D01*
X32400604Y13667213D01*
X32310523Y13727403D01*
X32210429Y13768864D01*
X32104170Y13790000D01*
X31995830Y13790000D01*
X31889571Y13768864D01*
X31789477Y13727403D01*
X31699396Y13667213D01*
X31622787Y13590604D01*
X31562597Y13500523D01*
X31521136Y13400429D01*
X31500000Y13294170D01*
X31364200Y13294170D01*
X31378864Y13329571D01*
X31400000Y13435830D01*
X31400000Y13544170D01*
X31378864Y13650429D01*
X31337403Y13750523D01*
X31277213Y13840604D01*
X31200604Y13917213D01*
X31110523Y13977403D01*
X31010429Y14018864D01*
X30904170Y14040000D01*
X30795830Y14040000D01*
X30689571Y14018864D01*
X30589477Y13977403D01*
X30499396Y13917213D01*
X30422787Y13840604D01*
X30362597Y13750523D01*
X30321136Y13650429D01*
X30300000Y13544170D01*
X29550000Y13544170D01*
X29550000Y13644170D01*
X29528864Y13750429D01*
X29487403Y13850523D01*
X29427213Y13940604D01*
X29350604Y14017213D01*
X29260523Y14077403D01*
X29160429Y14118864D01*
X29054170Y14140000D01*
X28945830Y14140000D01*
X28839571Y14118864D01*
X28764216Y14087650D01*
X28734210Y14124212D01*
X28718948Y14136737D01*
X28365685Y14490000D01*
X32830354Y14490000D01*
X32850000Y14488065D01*
X32869646Y14490000D01*
X32869647Y14490000D01*
X32928414Y14495788D01*
X33003814Y14518660D01*
X33073303Y14555803D01*
X33134211Y14605789D01*
X33146737Y14621052D01*
X33937107Y15411422D01*
X33954557Y15404194D01*
X34176735Y15360000D01*
X34403265Y15360000D01*
X34625443Y15404194D01*
X34834729Y15490884D01*
X35023082Y15616737D01*
X35183263Y15776918D01*
X35309116Y15965271D01*
X35395806Y16174557D01*
X35440000Y16396735D01*
X35440000Y16410000D01*
X35680000Y16410000D01*
X35680000Y16396735D01*
G37*
X35680000Y16396735D02*
X35724194Y16174557D01*
X35810884Y15965271D01*
X35936737Y15776918D01*
X36096918Y15616737D01*
X36285271Y15490884D01*
X36494557Y15404194D01*
X36716735Y15360000D01*
X36943265Y15360000D01*
X37165443Y15404194D01*
X37374729Y15490884D01*
X37563082Y15616737D01*
X37723263Y15776918D01*
X37849116Y15965271D01*
X37935806Y16174557D01*
X37980000Y16396735D01*
X37980000Y16410000D01*
X38170000Y16410000D01*
X38170000Y16391810D01*
X38216116Y16159973D01*
X38306574Y15941587D01*
X38437899Y15745045D01*
X38605045Y15577899D01*
X38801587Y15446574D01*
X39019973Y15356116D01*
X39251810Y15310000D01*
X39488190Y15310000D01*
X39720027Y15356116D01*
X39938413Y15446574D01*
X40134955Y15577899D01*
X40190001Y15632945D01*
X40190001Y13691202D01*
X40118422Y13778422D01*
X39996606Y13878393D01*
X39857628Y13952679D01*
X39706827Y13998424D01*
X39589293Y14010000D01*
X38910707Y14010000D01*
X38793173Y13998424D01*
X38642372Y13952679D01*
X38503394Y13878393D01*
X38381578Y13778422D01*
X38281607Y13656606D01*
X38207321Y13517628D01*
X38161576Y13366827D01*
X38146130Y13210000D01*
X38161576Y13053173D01*
X38207321Y12902372D01*
X38281607Y12763394D01*
X38381578Y12641578D01*
X38503394Y12541607D01*
X38642372Y12467321D01*
X38793173Y12421576D01*
X38910707Y12410000D01*
X39322894Y12410000D01*
X39550000Y12182893D01*
X39550001Y5577108D01*
X39342894Y5370000D01*
X38910707Y5370000D01*
X38793173Y5358424D01*
X38642372Y5312679D01*
X38503394Y5238393D01*
X38381578Y5138422D01*
X38281607Y5016606D01*
X38207321Y4877628D01*
X38161576Y4726827D01*
X38146130Y4570000D01*
X38161576Y4413173D01*
X38207321Y4262372D01*
X38281607Y4123394D01*
X38381578Y4001578D01*
X38503394Y3901607D01*
X38642372Y3827321D01*
X38793173Y3781576D01*
X38910707Y3770000D01*
X39589293Y3770000D01*
X39706827Y3781576D01*
X39857628Y3827321D01*
X39996606Y3901607D01*
X40118422Y4001578D01*
X40190000Y4088797D01*
X40190000Y2147056D01*
X40134955Y2202101D01*
X39938413Y2333426D01*
X39720027Y2423884D01*
X39488190Y2470000D01*
X39251810Y2470000D01*
X39019973Y2423884D01*
X38801587Y2333426D01*
X38605045Y2202101D01*
X38437899Y2034955D01*
X38306574Y1838413D01*
X38216116Y1620027D01*
X38170000Y1388190D01*
X38170000Y1370000D01*
X37980000Y1370000D01*
X37980000Y1383265D01*
X37935806Y1605443D01*
X37849116Y1814729D01*
X37723263Y2003082D01*
X37563082Y2163263D01*
X37374729Y2289116D01*
X37165443Y2375806D01*
X36943265Y2420000D01*
X36716735Y2420000D01*
X36494557Y2375806D01*
X36285271Y2289116D01*
X36096918Y2163263D01*
X35936737Y2003082D01*
X35810884Y1814729D01*
X35724194Y1605443D01*
X35680000Y1383265D01*
X35680000Y1370000D01*
X35378719Y1370000D01*
X35416948Y1499114D01*
X35350596Y1714568D01*
X35243486Y1912938D01*
X35099734Y2086600D01*
X34924864Y2228881D01*
X34725597Y2334312D01*
X34519114Y2396946D01*
X34340000Y2343837D01*
X34340000Y1370000D01*
X34240000Y1370000D01*
X34240000Y2343837D01*
X34060886Y2396946D01*
X33854403Y2334312D01*
X33655136Y2228881D01*
X33480266Y2086600D01*
X33336514Y1912938D01*
X33229404Y1714568D01*
X33163052Y1499114D01*
X33201281Y1370000D01*
X32900000Y1370000D01*
X32900000Y1383265D01*
X32855806Y1605443D01*
X32769116Y1814729D01*
X32643263Y2003082D01*
X32483082Y2163263D01*
X32294729Y2289116D01*
X32085443Y2375806D01*
X31863265Y2420000D01*
X31636735Y2420000D01*
X31414557Y2375806D01*
X31205271Y2289116D01*
X31016918Y2163263D01*
X30929670Y2076015D01*
X29007371Y3998314D01*
X29007371Y4570000D01*
X33716130Y4570000D01*
X33731576Y4413173D01*
X33777321Y4262372D01*
X33851607Y4123394D01*
X33951578Y4001578D01*
X34073394Y3901607D01*
X34212372Y3827321D01*
X34363173Y3781576D01*
X34480707Y3770000D01*
X35659293Y3770000D01*
X35776827Y3781576D01*
X35927628Y3827321D01*
X36066606Y3901607D01*
X36188422Y4001578D01*
X36288393Y4123394D01*
X36362679Y4262372D01*
X36408424Y4413173D01*
X36423870Y4570000D01*
X36408424Y4726827D01*
X36362679Y4877628D01*
X36288393Y5016606D01*
X36188422Y5138422D01*
X36066606Y5238393D01*
X35927628Y5312679D01*
X35776827Y5358424D01*
X35659293Y5370000D01*
X34480707Y5370000D01*
X34363173Y5358424D01*
X34212372Y5312679D01*
X34073394Y5238393D01*
X33951578Y5138422D01*
X33851607Y5016606D01*
X33777321Y4877628D01*
X33731576Y4726827D01*
X33716130Y4570000D01*
X29007371Y4570000D01*
X29007371Y6181686D01*
X31300000Y8474314D01*
X31300001Y7317018D01*
X31297340Y7290000D01*
X31300001Y7262982D01*
X31307959Y7182181D01*
X31328546Y7114316D01*
X31339409Y7078506D01*
X31390479Y6982958D01*
X31441987Y6920196D01*
X31441993Y6920190D01*
X31459211Y6899210D01*
X31480192Y6881991D01*
X31699396Y6662787D01*
X31721975Y6647700D01*
X31742959Y6630479D01*
X31766901Y6617682D01*
X31789477Y6602597D01*
X31814563Y6592206D01*
X31838506Y6579408D01*
X31864484Y6571527D01*
X31889571Y6561136D01*
X31916202Y6555839D01*
X31942181Y6547958D01*
X31969198Y6545297D01*
X31995830Y6540000D01*
X32022989Y6540000D01*
X32050000Y6537340D01*
X32077011Y6540000D01*
X32104170Y6540000D01*
X32130802Y6545297D01*
X32157819Y6547958D01*
X32183798Y6555839D01*
X32210429Y6561136D01*
X32235516Y6571527D01*
X32261494Y6579408D01*
X32285438Y6592206D01*
X32310523Y6602597D01*
X32333096Y6617680D01*
X32357042Y6630479D01*
X32378030Y6647703D01*
X32400604Y6662787D01*
X32419804Y6681987D01*
X32440790Y6699210D01*
X32458013Y6720196D01*
X32477213Y6739396D01*
X32492297Y6761970D01*
X32509521Y6782958D01*
X32522320Y6806904D01*
X32537403Y6829477D01*
X32547794Y6854562D01*
X32560592Y6878506D01*
X32568473Y6904484D01*
X32578864Y6929571D01*
X32584161Y6956202D01*
X32592042Y6982181D01*
X32594703Y7009198D01*
X32600000Y7035830D01*
X32600000Y7062989D01*
X32602660Y7090000D01*
X32600000Y7117011D01*
X32600000Y7144170D01*
X32594703Y7170802D01*
X32592042Y7197819D01*
X32584161Y7223798D01*
X32578864Y7250429D01*
X32568473Y7275516D01*
X32560592Y7301494D01*
X32547794Y7325437D01*
X32537403Y7350523D01*
X32522318Y7373099D01*
X32509521Y7397041D01*
X32492300Y7418025D01*
X32477213Y7440604D01*
X32400602Y7517215D01*
X32400000Y7517816D01*
X32400000Y9144170D01*
X32394703Y9170800D01*
X32392042Y9197819D01*
X32384161Y9223798D01*
X32378864Y9250429D01*
X32368473Y9275516D01*
X32360592Y9301494D01*
X32347794Y9325438D01*
X32337403Y9350523D01*
X32322320Y9373096D01*
X32309521Y9397042D01*
X32292297Y9418030D01*
X32277213Y9440604D01*
X32258013Y9459804D01*
X32240790Y9480790D01*
X32219804Y9498013D01*
X32200604Y9517213D01*
X32178030Y9532297D01*
X32157042Y9549521D01*
X32133097Y9562320D01*
X32110523Y9577403D01*
X32085435Y9587795D01*
X32061493Y9600592D01*
X32035518Y9608471D01*
X32010429Y9618864D01*
X31983796Y9624162D01*
X31957818Y9632042D01*
X31930800Y9634703D01*
X31904170Y9640000D01*
X31877018Y9640000D01*
X31850000Y9642661D01*
X31822982Y9640000D01*
X31795830Y9640000D01*
X31769201Y9634703D01*
X31742181Y9632042D01*
X31716202Y9624161D01*
X31689571Y9618864D01*
X31664484Y9608473D01*
X31638506Y9600592D01*
X31614562Y9587794D01*
X31589477Y9577403D01*
X31566904Y9562320D01*
X31542958Y9549521D01*
X31521970Y9532297D01*
X31499396Y9517213D01*
X31480196Y9498013D01*
X31459210Y9480790D01*
X31450010Y9469580D01*
X31450010Y10844170D01*
X32000000Y10844170D01*
X32000000Y10735830D01*
X32021136Y10629571D01*
X32062597Y10529477D01*
X32122787Y10439396D01*
X32199396Y10362787D01*
X32289477Y10302597D01*
X32389571Y10261136D01*
X32495830Y10240000D01*
X32604170Y10240000D01*
X32710429Y10261136D01*
X32810523Y10302597D01*
X32900604Y10362787D01*
X32977213Y10439396D01*
X33037403Y10529477D01*
X33078864Y10629571D01*
X33100000Y10735830D01*
X33100000Y10807157D01*
X34350000Y10807157D01*
X34350000Y6972843D01*
X34355764Y6914316D01*
X34370988Y6837779D01*
X34388060Y6781500D01*
X34415784Y6729634D01*
X34459139Y6664749D01*
X34496447Y6619289D01*
X34979289Y6136447D01*
X34988408Y6128963D01*
X34975000Y6061557D01*
X34975000Y5938443D01*
X34999019Y5817694D01*
X35046132Y5703952D01*
X35114531Y5601586D01*
X35201586Y5514531D01*
X35303952Y5446132D01*
X35417694Y5399019D01*
X35538443Y5375000D01*
X35661557Y5375000D01*
X35782306Y5399019D01*
X35896048Y5446132D01*
X35998414Y5514531D01*
X36085469Y5601586D01*
X36153868Y5703952D01*
X36200981Y5817694D01*
X36225000Y5938443D01*
X36225000Y6061557D01*
X36224297Y6065092D01*
X36275251Y6099139D01*
X36320711Y6136447D01*
X37003553Y6819289D01*
X37040861Y6864749D01*
X37084216Y6929634D01*
X37111940Y6981502D01*
X37129012Y7037779D01*
X37144236Y7114316D01*
X37150000Y7172843D01*
X37150000Y10607157D01*
X37144236Y10665684D01*
X37129012Y10742221D01*
X37111940Y10798500D01*
X37084216Y10850366D01*
X37040861Y10915251D01*
X37003553Y10960711D01*
X36320711Y11643553D01*
X36275251Y11680861D01*
X36224297Y11714908D01*
X36225000Y11718443D01*
X36225000Y11841557D01*
X36200981Y11962306D01*
X36153868Y12076048D01*
X36085469Y12178414D01*
X35998414Y12265469D01*
X35896048Y12333868D01*
X35782306Y12380981D01*
X35661557Y12405000D01*
X35538443Y12405000D01*
X35417694Y12380981D01*
X35303952Y12333868D01*
X35201586Y12265469D01*
X35114531Y12178414D01*
X35046132Y12076048D01*
X34999019Y11962306D01*
X34975000Y11841557D01*
X34975000Y11718443D01*
X34988408Y11651037D01*
X34979289Y11643553D01*
X34496447Y11160711D01*
X34459139Y11115251D01*
X34415784Y11050366D01*
X34388060Y10998498D01*
X34370988Y10942221D01*
X34355764Y10865684D01*
X34350000Y10807157D01*
X33100000Y10807157D01*
X33100000Y10844170D01*
X33078864Y10950429D01*
X33037403Y11050523D01*
X32977213Y11140604D01*
X32900604Y11217213D01*
X32810523Y11277403D01*
X32710429Y11318864D01*
X32604170Y11340000D01*
X32495830Y11340000D01*
X32389571Y11318864D01*
X32289477Y11277403D01*
X32199396Y11217213D01*
X32122787Y11140604D01*
X32062597Y11050523D01*
X32021136Y10950429D01*
X32000000Y10844170D01*
X31450010Y10844170D01*
X31450010Y11720355D01*
X31451944Y11739991D01*
X31450010Y11759627D01*
X31450010Y11759637D01*
X31444222Y11818404D01*
X31421350Y11893804D01*
X31384207Y11963293D01*
X31359608Y11993267D01*
X31346745Y12008941D01*
X31346743Y12008943D01*
X31334221Y12024201D01*
X31318964Y12036722D01*
X30896737Y12458948D01*
X30884211Y12474211D01*
X30823303Y12524197D01*
X30753814Y12561340D01*
X30678414Y12584212D01*
X30619647Y12590000D01*
X30619646Y12590000D01*
X30600000Y12591935D01*
X30580354Y12590000D01*
X30430614Y12590000D01*
X29539180Y13481433D01*
X29550000Y13535830D01*
X29550000Y13544170D01*
X30300000Y13544170D01*
X30300000Y13435830D01*
X30321136Y13329571D01*
X30362597Y13229477D01*
X30422787Y13139396D01*
X30499396Y13062787D01*
X30589477Y13002597D01*
X30689571Y12961136D01*
X30795830Y12940000D01*
X30904170Y12940000D01*
X31010429Y12961136D01*
X31110523Y13002597D01*
X31200604Y13062787D01*
X31277213Y13139396D01*
X31337403Y13229477D01*
X31364200Y13294170D01*
X31500000Y13294170D01*
X31500000Y13185830D01*
X31521136Y13079571D01*
X31562597Y12979477D01*
X31622787Y12889396D01*
X31699396Y12812787D01*
X31789477Y12752597D01*
X31889571Y12711136D01*
X31995830Y12690000D01*
X32104170Y12690000D01*
X32210429Y12711136D01*
X32310523Y12752597D01*
X32400604Y12812787D01*
X32477213Y12889396D01*
X32537403Y12979477D01*
X32578864Y13079571D01*
X32600000Y13185830D01*
X32600000Y13210000D01*
X33716130Y13210000D01*
X33731576Y13053173D01*
X33777321Y12902372D01*
X33851607Y12763394D01*
X33951578Y12641578D01*
X34073394Y12541607D01*
X34212372Y12467321D01*
X34363173Y12421576D01*
X34480707Y12410000D01*
X35659293Y12410000D01*
X35776827Y12421576D01*
X35927628Y12467321D01*
X36066606Y12541607D01*
X36188422Y12641578D01*
X36288393Y12763394D01*
X36362679Y12902372D01*
X36408424Y13053173D01*
X36423870Y13210000D01*
X36408424Y13366827D01*
X36362679Y13517628D01*
X36288393Y13656606D01*
X36188422Y13778422D01*
X36066606Y13878393D01*
X35927628Y13952679D01*
X35776827Y13998424D01*
X35659293Y14010000D01*
X34480707Y14010000D01*
X34363173Y13998424D01*
X34212372Y13952679D01*
X34073394Y13878393D01*
X33951578Y13778422D01*
X33851607Y13656606D01*
X33777321Y13517628D01*
X33731576Y13366827D01*
X33716130Y13210000D01*
X32600000Y13210000D01*
X32600000Y13294170D01*
X32578864Y13400429D01*
X32537403Y13500523D01*
X32477213Y13590604D01*
X32400604Y13667213D01*
X32310523Y13727403D01*
X32210429Y13768864D01*
X32104170Y13790000D01*
X31995830Y13790000D01*
X31889571Y13768864D01*
X31789477Y13727403D01*
X31699396Y13667213D01*
X31622787Y13590604D01*
X31562597Y13500523D01*
X31521136Y13400429D01*
X31500000Y13294170D01*
X31364200Y13294170D01*
X31378864Y13329571D01*
X31400000Y13435830D01*
X31400000Y13544170D01*
X31378864Y13650429D01*
X31337403Y13750523D01*
X31277213Y13840604D01*
X31200604Y13917213D01*
X31110523Y13977403D01*
X31010429Y14018864D01*
X30904170Y14040000D01*
X30795830Y14040000D01*
X30689571Y14018864D01*
X30589477Y13977403D01*
X30499396Y13917213D01*
X30422787Y13840604D01*
X30362597Y13750523D01*
X30321136Y13650429D01*
X30300000Y13544170D01*
X29550000Y13544170D01*
X29550000Y13644170D01*
X29528864Y13750429D01*
X29487403Y13850523D01*
X29427213Y13940604D01*
X29350604Y14017213D01*
X29260523Y14077403D01*
X29160429Y14118864D01*
X29054170Y14140000D01*
X28945830Y14140000D01*
X28839571Y14118864D01*
X28764216Y14087650D01*
X28734210Y14124212D01*
X28718948Y14136737D01*
X28365685Y14490000D01*
X32830354Y14490000D01*
X32850000Y14488065D01*
X32869646Y14490000D01*
X32869647Y14490000D01*
X32928414Y14495788D01*
X33003814Y14518660D01*
X33073303Y14555803D01*
X33134211Y14605789D01*
X33146737Y14621052D01*
X33937107Y15411422D01*
X33954557Y15404194D01*
X34176735Y15360000D01*
X34403265Y15360000D01*
X34625443Y15404194D01*
X34834729Y15490884D01*
X35023082Y15616737D01*
X35183263Y15776918D01*
X35309116Y15965271D01*
X35395806Y16174557D01*
X35440000Y16396735D01*
X35440000Y16410000D01*
X35680000Y16410000D01*
X35680000Y16396735D01*
G36*
X14484304Y4090010D02*
G01*
X11780136Y4090010D01*
X11810523Y4102597D01*
X11900604Y4162787D01*
X11977213Y4239396D01*
X12037403Y4329477D01*
X12078864Y4429571D01*
X12100000Y4535830D01*
X12100000Y4574315D01*
X12315686Y4790000D01*
X13784315Y4790000D01*
X14484304Y4090010D01*
G37*
X14484304Y4090010D02*
X11780136Y4090010D01*
X11810523Y4102597D01*
X11900604Y4162787D01*
X11977213Y4239396D01*
X12037403Y4329477D01*
X12078864Y4429571D01*
X12100000Y4535830D01*
X12100000Y4574315D01*
X12315686Y4790000D01*
X13784315Y4790000D01*
X14484304Y4090010D01*
G36*
X23081048Y9586733D02*
G01*
X23065790Y9574211D01*
X23053268Y9558953D01*
X23053265Y9558950D01*
X23015803Y9513302D01*
X22978661Y9443814D01*
X22955788Y9368413D01*
X22948065Y9290000D01*
X22950001Y9270344D01*
X22950000Y5659647D01*
X22948065Y5640000D01*
X22952612Y5593836D01*
X22955788Y5561587D01*
X22978660Y5486187D01*
X23015803Y5416698D01*
X23065789Y5355789D01*
X23081052Y5343263D01*
X23084315Y5340000D01*
X22769635Y5340000D01*
X22749999Y5341934D01*
X22730363Y5340000D01*
X22730353Y5340000D01*
X22671586Y5334212D01*
X22596186Y5311340D01*
X22526697Y5274197D01*
X22494495Y5247769D01*
X22481049Y5236735D01*
X22481047Y5236733D01*
X22465789Y5224211D01*
X22453267Y5208953D01*
X22134315Y4890000D01*
X19574264Y4890000D01*
X20203553Y5519289D01*
X20240861Y5564749D01*
X20284216Y5629634D01*
X20311940Y5681502D01*
X20329012Y5737779D01*
X20344236Y5814316D01*
X20350000Y5872843D01*
X20350000Y9865736D01*
X20774264Y10290000D01*
X22467157Y10290000D01*
X22525684Y10295764D01*
X22602221Y10310988D01*
X22658500Y10328060D01*
X22710366Y10355784D01*
X22775251Y10399139D01*
X22820711Y10436447D01*
X23974264Y11590000D01*
X25084314Y11590000D01*
X23081048Y9586733D01*
G37*
X23081048Y9586733D02*
X23065790Y9574211D01*
X23053268Y9558953D01*
X23053265Y9558950D01*
X23015803Y9513302D01*
X22978661Y9443814D01*
X22955788Y9368413D01*
X22948065Y9290000D01*
X22950001Y9270344D01*
X22950000Y5659647D01*
X22948065Y5640000D01*
X22952612Y5593836D01*
X22955788Y5561587D01*
X22978660Y5486187D01*
X23015803Y5416698D01*
X23065789Y5355789D01*
X23081052Y5343263D01*
X23084315Y5340000D01*
X22769635Y5340000D01*
X22749999Y5341934D01*
X22730363Y5340000D01*
X22730353Y5340000D01*
X22671586Y5334212D01*
X22596186Y5311340D01*
X22526697Y5274197D01*
X22494495Y5247769D01*
X22481049Y5236735D01*
X22481047Y5236733D01*
X22465789Y5224211D01*
X22453267Y5208953D01*
X22134315Y4890000D01*
X19574264Y4890000D01*
X20203553Y5519289D01*
X20240861Y5564749D01*
X20284216Y5629634D01*
X20311940Y5681502D01*
X20329012Y5737779D01*
X20344236Y5814316D01*
X20350000Y5872843D01*
X20350000Y9865736D01*
X20774264Y10290000D01*
X22467157Y10290000D01*
X22525684Y10295764D01*
X22602221Y10310988D01*
X22658500Y10328060D01*
X22710366Y10355784D01*
X22775251Y10399139D01*
X22820711Y10436447D01*
X23974264Y11590000D01*
X25084314Y11590000D01*
X23081048Y9586733D01*
G36*
X25149979Y6571365D02*
G01*
X24481063Y5902448D01*
X24465800Y5889922D01*
X24415814Y5829013D01*
X24378671Y5759524D01*
X24362371Y5705789D01*
X24355799Y5684124D01*
X24348076Y5605711D01*
X24350011Y5586064D01*
X24350011Y5205674D01*
X23750000Y5805685D01*
X23750000Y9124315D01*
X25149978Y10524293D01*
X25149979Y6571365D01*
G37*
X25149979Y6571365D02*
X24481063Y5902448D01*
X24465800Y5889922D01*
X24415814Y5829013D01*
X24378671Y5759524D01*
X24362371Y5705789D01*
X24355799Y5684124D01*
X24348076Y5605711D01*
X24350011Y5586064D01*
X24350011Y5205674D01*
X23750000Y5805685D01*
X23750000Y9124315D01*
X25149978Y10524293D01*
X25149979Y6571365D01*
G36*
X20440000Y16396735D02*
G01*
X20484194Y16174557D01*
X20570884Y15965271D01*
X20696737Y15776918D01*
X20856918Y15616737D01*
X20896918Y15590010D01*
X20869645Y15590010D01*
X20850009Y15591944D01*
X20830373Y15590010D01*
X20830363Y15590010D01*
X20771596Y15584222D01*
X20696196Y15561350D01*
X20626707Y15524207D01*
X20565799Y15474221D01*
X20553273Y15458958D01*
X19484315Y14390000D01*
X19169643Y14390000D01*
X19149999Y14391935D01*
X19130355Y14390000D01*
X19130353Y14390000D01*
X19071586Y14384212D01*
X18996186Y14361340D01*
X18949127Y14336186D01*
X18926697Y14324197D01*
X18881049Y14286735D01*
X18881047Y14286733D01*
X18865789Y14274211D01*
X18853267Y14258953D01*
X18834314Y14240000D01*
X18795830Y14240000D01*
X18689571Y14218864D01*
X18589477Y14177403D01*
X18499396Y14117213D01*
X18422787Y14040604D01*
X18362597Y13950523D01*
X18321136Y13850429D01*
X18300000Y13744170D01*
X18300000Y13635830D01*
X18321136Y13529571D01*
X18362597Y13429477D01*
X18422787Y13339396D01*
X18499396Y13262787D01*
X18589477Y13202597D01*
X18689571Y13161136D01*
X18795830Y13140000D01*
X18904170Y13140000D01*
X19010429Y13161136D01*
X19011287Y13161491D01*
X19012486Y13158596D01*
X19035318Y13124426D01*
X19007355Y13118864D01*
X18907261Y13077403D01*
X18817180Y13017213D01*
X18740571Y12940604D01*
X18680381Y12850523D01*
X18638920Y12750429D01*
X18617784Y12644170D01*
X18617784Y12535830D01*
X18638920Y12429571D01*
X18680381Y12329477D01*
X18740571Y12239396D01*
X18817180Y12162787D01*
X18907261Y12102597D01*
X19007355Y12061136D01*
X19113614Y12040000D01*
X19175736Y12040000D01*
X18825736Y11690000D01*
X18354174Y11690000D01*
X18354169Y11690001D01*
X18245829Y11690001D01*
X18139570Y11668865D01*
X18039476Y11627404D01*
X17949395Y11567214D01*
X17872786Y11490605D01*
X17812596Y11400524D01*
X17771135Y11300430D01*
X17749999Y11194171D01*
X17749999Y11085831D01*
X17750000Y11085826D01*
X17750000Y11060711D01*
X17755765Y11002182D01*
X17758188Y10990000D01*
X15365685Y10990000D01*
X14600000Y11755685D01*
X14600000Y12388317D01*
X16751683Y14540000D01*
X17780354Y14540000D01*
X17800000Y14538065D01*
X17819646Y14540000D01*
X17819647Y14540000D01*
X17878414Y14545788D01*
X17953814Y14568660D01*
X18023303Y14605803D01*
X18084211Y14655789D01*
X18096737Y14671052D01*
X18810746Y15385061D01*
X18936735Y15360000D01*
X19163265Y15360000D01*
X19385443Y15404194D01*
X19594729Y15490884D01*
X19783082Y15616737D01*
X19943263Y15776918D01*
X20069116Y15965271D01*
X20155806Y16174557D01*
X20200000Y16396735D01*
X20200000Y16410000D01*
X20440000Y16410000D01*
X20440000Y16396735D01*
G37*
X20440000Y16396735D02*
X20484194Y16174557D01*
X20570884Y15965271D01*
X20696737Y15776918D01*
X20856918Y15616737D01*
X20896918Y15590010D01*
X20869645Y15590010D01*
X20850009Y15591944D01*
X20830373Y15590010D01*
X20830363Y15590010D01*
X20771596Y15584222D01*
X20696196Y15561350D01*
X20626707Y15524207D01*
X20565799Y15474221D01*
X20553273Y15458958D01*
X19484315Y14390000D01*
X19169643Y14390000D01*
X19149999Y14391935D01*
X19130355Y14390000D01*
X19130353Y14390000D01*
X19071586Y14384212D01*
X18996186Y14361340D01*
X18949127Y14336186D01*
X18926697Y14324197D01*
X18881049Y14286735D01*
X18881047Y14286733D01*
X18865789Y14274211D01*
X18853267Y14258953D01*
X18834314Y14240000D01*
X18795830Y14240000D01*
X18689571Y14218864D01*
X18589477Y14177403D01*
X18499396Y14117213D01*
X18422787Y14040604D01*
X18362597Y13950523D01*
X18321136Y13850429D01*
X18300000Y13744170D01*
X18300000Y13635830D01*
X18321136Y13529571D01*
X18362597Y13429477D01*
X18422787Y13339396D01*
X18499396Y13262787D01*
X18589477Y13202597D01*
X18689571Y13161136D01*
X18795830Y13140000D01*
X18904170Y13140000D01*
X19010429Y13161136D01*
X19011287Y13161491D01*
X19012486Y13158596D01*
X19035318Y13124426D01*
X19007355Y13118864D01*
X18907261Y13077403D01*
X18817180Y13017213D01*
X18740571Y12940604D01*
X18680381Y12850523D01*
X18638920Y12750429D01*
X18617784Y12644170D01*
X18617784Y12535830D01*
X18638920Y12429571D01*
X18680381Y12329477D01*
X18740571Y12239396D01*
X18817180Y12162787D01*
X18907261Y12102597D01*
X19007355Y12061136D01*
X19113614Y12040000D01*
X19175736Y12040000D01*
X18825736Y11690000D01*
X18354174Y11690000D01*
X18354169Y11690001D01*
X18245829Y11690001D01*
X18139570Y11668865D01*
X18039476Y11627404D01*
X17949395Y11567214D01*
X17872786Y11490605D01*
X17812596Y11400524D01*
X17771135Y11300430D01*
X17749999Y11194171D01*
X17749999Y11085831D01*
X17750000Y11085826D01*
X17750000Y11060711D01*
X17755765Y11002182D01*
X17758188Y10990000D01*
X15365685Y10990000D01*
X14600000Y11755685D01*
X14600000Y12388317D01*
X16751683Y14540000D01*
X17780354Y14540000D01*
X17800000Y14538065D01*
X17819646Y14540000D01*
X17819647Y14540000D01*
X17878414Y14545788D01*
X17953814Y14568660D01*
X18023303Y14605803D01*
X18084211Y14655789D01*
X18096737Y14671052D01*
X18810746Y15385061D01*
X18936735Y15360000D01*
X19163265Y15360000D01*
X19385443Y15404194D01*
X19594729Y15490884D01*
X19783082Y15616737D01*
X19943263Y15776918D01*
X20069116Y15965271D01*
X20155806Y16174557D01*
X20200000Y16396735D01*
X20200000Y16410000D01*
X20440000Y16410000D01*
X20440000Y16396735D01*
G36*
X30111114Y11818660D02*
G01*
X30186514Y11795788D01*
X30264928Y11788065D01*
X30284575Y11790000D01*
X30434315Y11790000D01*
X30650010Y11574304D01*
X30650010Y11041673D01*
X30050000Y11641683D01*
X30050000Y11851326D01*
X30111114Y11818660D01*
G37*
X30111114Y11818660D02*
X30186514Y11795788D01*
X30264928Y11788065D01*
X30284575Y11790000D01*
X30434315Y11790000D01*
X30650010Y11574304D01*
X30650010Y11041673D01*
X30050000Y11641683D01*
X30050000Y11851326D01*
X30111114Y11818660D01*
G36*
X17900000Y16396735D02*
G01*
X17944194Y16174557D01*
X18030884Y15965271D01*
X18122489Y15828174D01*
X17634315Y15340000D01*
X16605645Y15340000D01*
X16585998Y15341935D01*
X16566351Y15340000D01*
X16507584Y15334212D01*
X16432184Y15311340D01*
X16362695Y15274197D01*
X16301787Y15224211D01*
X16289263Y15208950D01*
X13931052Y12850739D01*
X13915789Y12838213D01*
X13865803Y12777304D01*
X13828660Y12707815D01*
X13812535Y12654658D01*
X13805788Y12632415D01*
X13798065Y12554002D01*
X13800000Y12534355D01*
X13800001Y11690000D01*
X10865685Y11690000D01*
X10755265Y11800420D01*
X10760521Y11802597D01*
X10850602Y11862787D01*
X10927211Y11939396D01*
X10987401Y12029477D01*
X11028862Y12129571D01*
X11049998Y12235830D01*
X11049998Y12344170D01*
X11042042Y12384170D01*
X11830000Y12384170D01*
X11830000Y12275830D01*
X11851136Y12169571D01*
X11892597Y12069477D01*
X11952787Y11979396D01*
X12029396Y11902787D01*
X12119477Y11842597D01*
X12219571Y11801136D01*
X12325830Y11780000D01*
X12434170Y11780000D01*
X12540429Y11801136D01*
X12640523Y11842597D01*
X12730604Y11902787D01*
X12807213Y11979396D01*
X12867403Y12069477D01*
X12908864Y12169571D01*
X12930000Y12275830D01*
X12930000Y12384170D01*
X12908864Y12490429D01*
X12867403Y12590523D01*
X12807213Y12680604D01*
X12730604Y12757213D01*
X12640523Y12817403D01*
X12540429Y12858864D01*
X12434170Y12880000D01*
X12325830Y12880000D01*
X12219571Y12858864D01*
X12119477Y12817403D01*
X12029396Y12757213D01*
X11952787Y12680604D01*
X11892597Y12590523D01*
X11851136Y12490429D01*
X11830000Y12384170D01*
X11042042Y12384170D01*
X11028862Y12450429D01*
X10987401Y12550523D01*
X10927211Y12640604D01*
X10850602Y12717213D01*
X10760521Y12777403D01*
X10660427Y12818864D01*
X10554168Y12840000D01*
X10550001Y12840000D01*
X10550001Y12894171D01*
X10528865Y13000430D01*
X10487404Y13100524D01*
X10427214Y13190605D01*
X10350605Y13267214D01*
X10260524Y13327404D01*
X10255267Y13329582D01*
X11415685Y14490000D01*
X15130354Y14490000D01*
X15150000Y14488065D01*
X15169646Y14490000D01*
X15169647Y14490000D01*
X15228414Y14495788D01*
X15303814Y14518660D01*
X15373303Y14555803D01*
X15434211Y14605789D01*
X15446737Y14621052D01*
X16220700Y15395015D01*
X16396735Y15360000D01*
X16623265Y15360000D01*
X16845443Y15404194D01*
X17054729Y15490884D01*
X17243082Y15616737D01*
X17403263Y15776918D01*
X17529116Y15965271D01*
X17615806Y16174557D01*
X17660000Y16396735D01*
X17660000Y16410000D01*
X17900000Y16410000D01*
X17900000Y16396735D01*
G37*
X17900000Y16396735D02*
X17944194Y16174557D01*
X18030884Y15965271D01*
X18122489Y15828174D01*
X17634315Y15340000D01*
X16605645Y15340000D01*
X16585998Y15341935D01*
X16566351Y15340000D01*
X16507584Y15334212D01*
X16432184Y15311340D01*
X16362695Y15274197D01*
X16301787Y15224211D01*
X16289263Y15208950D01*
X13931052Y12850739D01*
X13915789Y12838213D01*
X13865803Y12777304D01*
X13828660Y12707815D01*
X13812535Y12654658D01*
X13805788Y12632415D01*
X13798065Y12554002D01*
X13800000Y12534355D01*
X13800001Y11690000D01*
X10865685Y11690000D01*
X10755265Y11800420D01*
X10760521Y11802597D01*
X10850602Y11862787D01*
X10927211Y11939396D01*
X10987401Y12029477D01*
X11028862Y12129571D01*
X11049998Y12235830D01*
X11049998Y12344170D01*
X11042042Y12384170D01*
X11830000Y12384170D01*
X11830000Y12275830D01*
X11851136Y12169571D01*
X11892597Y12069477D01*
X11952787Y11979396D01*
X12029396Y11902787D01*
X12119477Y11842597D01*
X12219571Y11801136D01*
X12325830Y11780000D01*
X12434170Y11780000D01*
X12540429Y11801136D01*
X12640523Y11842597D01*
X12730604Y11902787D01*
X12807213Y11979396D01*
X12867403Y12069477D01*
X12908864Y12169571D01*
X12930000Y12275830D01*
X12930000Y12384170D01*
X12908864Y12490429D01*
X12867403Y12590523D01*
X12807213Y12680604D01*
X12730604Y12757213D01*
X12640523Y12817403D01*
X12540429Y12858864D01*
X12434170Y12880000D01*
X12325830Y12880000D01*
X12219571Y12858864D01*
X12119477Y12817403D01*
X12029396Y12757213D01*
X11952787Y12680604D01*
X11892597Y12590523D01*
X11851136Y12490429D01*
X11830000Y12384170D01*
X11042042Y12384170D01*
X11028862Y12450429D01*
X10987401Y12550523D01*
X10927211Y12640604D01*
X10850602Y12717213D01*
X10760521Y12777403D01*
X10660427Y12818864D01*
X10554168Y12840000D01*
X10550001Y12840000D01*
X10550001Y12894171D01*
X10528865Y13000430D01*
X10487404Y13100524D01*
X10427214Y13190605D01*
X10350605Y13267214D01*
X10260524Y13327404D01*
X10255267Y13329582D01*
X11415685Y14490000D01*
X15130354Y14490000D01*
X15150000Y14488065D01*
X15169646Y14490000D01*
X15169647Y14490000D01*
X15228414Y14495788D01*
X15303814Y14518660D01*
X15373303Y14555803D01*
X15434211Y14605789D01*
X15446737Y14621052D01*
X16220700Y15395015D01*
X16396735Y15360000D01*
X16623265Y15360000D01*
X16845443Y15404194D01*
X17054729Y15490884D01*
X17243082Y15616737D01*
X17403263Y15776918D01*
X17529116Y15965271D01*
X17615806Y16174557D01*
X17660000Y16396735D01*
X17660000Y16410000D01*
X17900000Y16410000D01*
X17900000Y16396735D01*
G36*
X22980000Y16396735D02*
G01*
X23024194Y16174557D01*
X23110884Y15965271D01*
X23236737Y15776918D01*
X23323644Y15690011D01*
X23069658Y15690011D01*
X23050011Y15691946D01*
X23030364Y15690011D01*
X22971597Y15684223D01*
X22896197Y15661351D01*
X22826708Y15624208D01*
X22765800Y15574222D01*
X22753276Y15558961D01*
X22284315Y15090000D01*
X21815685Y15090000D01*
X21858948Y15133263D01*
X21874211Y15145789D01*
X21924197Y15206697D01*
X21961340Y15276186D01*
X21984212Y15351586D01*
X21990000Y15410353D01*
X21990000Y15410363D01*
X21991934Y15429999D01*
X21991770Y15431668D01*
X22134729Y15490884D01*
X22323082Y15616737D01*
X22483263Y15776918D01*
X22609116Y15965271D01*
X22695806Y16174557D01*
X22740000Y16396735D01*
X22740000Y16410000D01*
X22980000Y16410000D01*
X22980000Y16396735D01*
G37*
X22980000Y16396735D02*
X23024194Y16174557D01*
X23110884Y15965271D01*
X23236737Y15776918D01*
X23323644Y15690011D01*
X23069658Y15690011D01*
X23050011Y15691946D01*
X23030364Y15690011D01*
X22971597Y15684223D01*
X22896197Y15661351D01*
X22826708Y15624208D01*
X22765800Y15574222D01*
X22753276Y15558961D01*
X22284315Y15090000D01*
X21815685Y15090000D01*
X21858948Y15133263D01*
X21874211Y15145789D01*
X21924197Y15206697D01*
X21961340Y15276186D01*
X21984212Y15351586D01*
X21990000Y15410353D01*
X21990000Y15410363D01*
X21991934Y15429999D01*
X21991770Y15431668D01*
X22134729Y15490884D01*
X22323082Y15616737D01*
X22483263Y15776918D01*
X22609116Y15965271D01*
X22695806Y16174557D01*
X22740000Y16396735D01*
X22740000Y16410000D01*
X22980000Y16410000D01*
X22980000Y16396735D01*
G36*
X27649989Y13424325D02*
G01*
X27649989Y13159657D01*
X27648054Y13140011D01*
X27655777Y13061598D01*
X27678650Y12986197D01*
X27715792Y12916709D01*
X27753254Y12871061D01*
X27753257Y12871058D01*
X27765779Y12855800D01*
X27781036Y12843279D01*
X27937369Y12686946D01*
X27923026Y12652319D01*
X27901890Y12546060D01*
X27901890Y12437720D01*
X27923026Y12331461D01*
X27964487Y12231367D01*
X28024677Y12141286D01*
X28101286Y12064677D01*
X28191367Y12004487D01*
X28291461Y11963026D01*
X28397720Y11941890D01*
X28506060Y11941890D01*
X28612319Y11963026D01*
X28712413Y12004487D01*
X28802494Y12064677D01*
X28879103Y12141286D01*
X28910421Y12188157D01*
X29250000Y11848578D01*
X29250001Y11495654D01*
X29248065Y11475998D01*
X29255788Y11397585D01*
X29278661Y11322184D01*
X29315803Y11252696D01*
X29353265Y11207048D01*
X29353268Y11207045D01*
X29365790Y11191787D01*
X29381048Y11179265D01*
X30249999Y10310313D01*
X30250000Y9121385D01*
X28179925Y7051310D01*
X28111540Y7064913D01*
X28003200Y7064913D01*
X27896941Y7043777D01*
X27796847Y7002316D01*
X27706766Y6942126D01*
X27630157Y6865517D01*
X27569967Y6775436D01*
X27528506Y6675342D01*
X27507370Y6569083D01*
X27507370Y6460743D01*
X27528506Y6354484D01*
X27569967Y6254390D01*
X27630157Y6164309D01*
X27706766Y6087700D01*
X27796847Y6027510D01*
X27896941Y5986049D01*
X28003200Y5964913D01*
X28111540Y5964913D01*
X28150000Y5972563D01*
X28150000Y3772843D01*
X28151921Y3753334D01*
X28167145Y3676797D01*
X28172836Y3658038D01*
X28182077Y3640749D01*
X28225432Y3575864D01*
X28237868Y3560710D01*
X29613747Y2184831D01*
X29640577Y2144677D01*
X29650000Y2097306D01*
X29650000Y1099851D01*
X29640577Y1052480D01*
X29619325Y1020675D01*
X29587520Y999423D01*
X29540149Y990000D01*
X28742694Y990000D01*
X28695323Y999423D01*
X28655169Y1026253D01*
X26786253Y2895169D01*
X26759423Y2935323D01*
X26750000Y2982694D01*
X26750000Y5970363D01*
X26751934Y5989999D01*
X26750000Y6009635D01*
X26750000Y8744170D01*
X27600000Y8744170D01*
X27600000Y8635830D01*
X27621136Y8529571D01*
X27662597Y8429477D01*
X27722787Y8339396D01*
X27799396Y8262787D01*
X27889477Y8202597D01*
X27989571Y8161136D01*
X28095830Y8140000D01*
X28204170Y8140000D01*
X28310429Y8161136D01*
X28410523Y8202597D01*
X28500604Y8262787D01*
X28577213Y8339396D01*
X28637403Y8429477D01*
X28678864Y8529571D01*
X28700000Y8635830D01*
X28700000Y8744170D01*
X28678864Y8850429D01*
X28637403Y8950523D01*
X28577213Y9040604D01*
X28500604Y9117213D01*
X28410523Y9177403D01*
X28310429Y9218864D01*
X28204170Y9240000D01*
X28095830Y9240000D01*
X27989571Y9218864D01*
X27889477Y9177403D01*
X27799396Y9117213D01*
X27722787Y9040604D01*
X27662597Y8950523D01*
X27621136Y8850429D01*
X27600000Y8744170D01*
X26750000Y8744170D01*
X26750000Y9451572D01*
X27556932Y10258504D01*
X27565773Y10252597D01*
X27665867Y10211136D01*
X27772126Y10190000D01*
X27880466Y10190000D01*
X27933184Y10200486D01*
X27962597Y10129477D01*
X28022787Y10039396D01*
X28099396Y9962787D01*
X28189477Y9902597D01*
X28289571Y9861136D01*
X28395830Y9840000D01*
X28504170Y9840000D01*
X28610429Y9861136D01*
X28710523Y9902597D01*
X28800604Y9962787D01*
X28877213Y10039396D01*
X28937403Y10129477D01*
X28978864Y10229571D01*
X29000000Y10335830D01*
X29000000Y10444170D01*
X28978864Y10550429D01*
X28937403Y10650523D01*
X28877213Y10740604D01*
X28800604Y10817213D01*
X28710523Y10877403D01*
X28610429Y10918864D01*
X28504170Y10940000D01*
X28395830Y10940000D01*
X28343112Y10929514D01*
X28313699Y11000523D01*
X28253509Y11090604D01*
X28176900Y11167213D01*
X28146600Y11187459D01*
X28174986Y11255988D01*
X28196122Y11362247D01*
X28196122Y11470587D01*
X28174986Y11576846D01*
X28133525Y11676940D01*
X28073335Y11767021D01*
X27996726Y11843630D01*
X27937781Y11883016D01*
X27930333Y11892091D01*
X27915070Y11904617D01*
X27510738Y12308949D01*
X27498212Y12324212D01*
X27469860Y12347480D01*
X27503864Y12429572D01*
X27525000Y12535831D01*
X27525000Y12644171D01*
X27503864Y12750430D01*
X27462403Y12850524D01*
X27402213Y12940605D01*
X27325604Y13017214D01*
X27235523Y13077404D01*
X27135429Y13118865D01*
X27029170Y13140001D01*
X26920830Y13140001D01*
X26814571Y13118865D01*
X26714477Y13077404D01*
X26624396Y13017214D01*
X26593559Y12986377D01*
X26571587Y12984213D01*
X26496187Y12961341D01*
X26426698Y12924198D01*
X26426696Y12924197D01*
X26426697Y12924197D01*
X26381050Y12886736D01*
X26381048Y12886734D01*
X26365790Y12874212D01*
X26353268Y12858954D01*
X25484314Y11990000D01*
X23932843Y11990000D01*
X23913334Y11988079D01*
X23836797Y11972855D01*
X23818038Y11967164D01*
X23800749Y11957923D01*
X23735864Y11914568D01*
X23720710Y11902132D01*
X22544831Y10726253D01*
X22504677Y10699423D01*
X22457306Y10690000D01*
X20732843Y10690000D01*
X20713334Y10688079D01*
X20636797Y10672855D01*
X20618038Y10667164D01*
X20600749Y10657923D01*
X20535864Y10614568D01*
X20520710Y10602132D01*
X20249328Y10330750D01*
X20189571Y10318864D01*
X20089477Y10277403D01*
X19999396Y10217213D01*
X19922787Y10140604D01*
X19862597Y10050523D01*
X19821136Y9950429D01*
X19800000Y9844170D01*
X19800000Y9735830D01*
X19821136Y9629571D01*
X19862597Y9529477D01*
X19922787Y9439396D01*
X19950000Y9412183D01*
X19950000Y7220112D01*
X19921136Y7150429D01*
X19900000Y7044170D01*
X19900000Y6935830D01*
X19921136Y6829571D01*
X19950000Y6759888D01*
X19950000Y5882694D01*
X19940577Y5835323D01*
X19913747Y5795169D01*
X19044831Y4926253D01*
X19004677Y4899423D01*
X18957306Y4890000D01*
X18541622Y4890000D01*
X18494717Y4899229D01*
X18454804Y4925542D01*
X15528496Y7803878D01*
X15513413Y7816075D01*
X15448937Y7858581D01*
X15431591Y7867714D01*
X15413202Y7873210D01*
X15337430Y7888119D01*
X15318124Y7890000D01*
X13242694Y7890000D01*
X13195323Y7899423D01*
X13155169Y7926253D01*
X12286253Y8795169D01*
X12259423Y8835323D01*
X12250000Y8882694D01*
X12250000Y8980149D01*
X12259423Y9027520D01*
X12280675Y9059325D01*
X12312480Y9080577D01*
X12359851Y9090000D01*
X13457306Y9090000D01*
X13504677Y9080577D01*
X13544831Y9053747D01*
X13920710Y8677868D01*
X13935864Y8665432D01*
X14000749Y8622077D01*
X14018037Y8612836D01*
X14036797Y8607145D01*
X14113334Y8591921D01*
X14132843Y8590000D01*
X16157306Y8590000D01*
X16204677Y8580577D01*
X16244831Y8553747D01*
X17220710Y7577868D01*
X17235864Y7565432D01*
X17300749Y7522077D01*
X17318037Y7512836D01*
X17336797Y7507145D01*
X17413334Y7491921D01*
X17432843Y7490000D01*
X17906972Y7490000D01*
X17895735Y7433507D01*
X17895735Y7325167D01*
X17916871Y7218908D01*
X17958332Y7118814D01*
X18018522Y7028733D01*
X18095131Y6952124D01*
X18185212Y6891934D01*
X18285306Y6850473D01*
X18391565Y6829337D01*
X18499905Y6829337D01*
X18606164Y6850473D01*
X18706258Y6891934D01*
X18796339Y6952124D01*
X18872948Y7028733D01*
X18933138Y7118814D01*
X18974599Y7218908D01*
X18995735Y7325167D01*
X18995735Y7433507D01*
X18974599Y7539766D01*
X18933138Y7639860D01*
X18872948Y7729941D01*
X18845735Y7757154D01*
X18845735Y7841550D01*
X18848079Y7853334D01*
X18850000Y7872843D01*
X18850000Y8524315D01*
X19068948Y8743263D01*
X19084211Y8755789D01*
X19134197Y8816697D01*
X19171340Y8886186D01*
X19194212Y8961586D01*
X19200000Y9020353D01*
X19200000Y9020363D01*
X19201934Y9039999D01*
X19200000Y9059635D01*
X19200000Y10266786D01*
X19201935Y10286433D01*
X19198904Y10317213D01*
X19194212Y10364847D01*
X19171340Y10440247D01*
X19134197Y10509736D01*
X19084211Y10570644D01*
X19068949Y10583169D01*
X18793168Y10858950D01*
X18780644Y10874211D01*
X18719736Y10924197D01*
X18650247Y10961340D01*
X18574847Y10984212D01*
X18516080Y10990000D01*
X18516079Y10990000D01*
X18496433Y10991935D01*
X18476787Y10990000D01*
X18230559Y10990000D01*
X18194400Y10997193D01*
X18172096Y11012096D01*
X18157193Y11034400D01*
X18150000Y11070559D01*
X18150000Y11097306D01*
X18159423Y11144677D01*
X18186253Y11184831D01*
X18255169Y11253747D01*
X18295323Y11280577D01*
X18342694Y11290000D01*
X18867157Y11290000D01*
X18886666Y11291921D01*
X18963203Y11307145D01*
X18981962Y11312836D01*
X18999251Y11322077D01*
X19064136Y11365432D01*
X19079290Y11377868D01*
X19955169Y12253747D01*
X19995323Y12280577D01*
X20042694Y12290000D01*
X21204615Y12290000D01*
X21473565Y12021049D01*
X21486087Y12005791D01*
X21501345Y11993269D01*
X21501347Y11993267D01*
X21512381Y11984212D01*
X21546995Y11955805D01*
X21616484Y11918662D01*
X21691884Y11895790D01*
X21750651Y11890002D01*
X21750661Y11890002D01*
X21770297Y11888068D01*
X21789933Y11890002D01*
X22510056Y11890002D01*
X22529702Y11888067D01*
X22549348Y11890002D01*
X22549349Y11890002D01*
X22608116Y11895790D01*
X22683516Y11918662D01*
X22753005Y11955805D01*
X22813913Y12005791D01*
X22826439Y12021054D01*
X23368954Y12563568D01*
X23384211Y12576089D01*
X23434197Y12636997D01*
X23471340Y12706486D01*
X23494212Y12781886D01*
X23500000Y12840653D01*
X23500000Y12840663D01*
X23501934Y12860299D01*
X23500000Y12879935D01*
X23500000Y13274315D01*
X23915675Y13689990D01*
X27384325Y13689990D01*
X27649989Y13424325D01*
G37*
X27649989Y13424325D02*
X27649989Y13159657D01*
X27648054Y13140011D01*
X27655777Y13061598D01*
X27678650Y12986197D01*
X27715792Y12916709D01*
X27753254Y12871061D01*
X27753257Y12871058D01*
X27765779Y12855800D01*
X27781036Y12843279D01*
X27937369Y12686946D01*
X27923026Y12652319D01*
X27901890Y12546060D01*
X27901890Y12437720D01*
X27923026Y12331461D01*
X27964487Y12231367D01*
X28024677Y12141286D01*
X28101286Y12064677D01*
X28191367Y12004487D01*
X28291461Y11963026D01*
X28397720Y11941890D01*
X28506060Y11941890D01*
X28612319Y11963026D01*
X28712413Y12004487D01*
X28802494Y12064677D01*
X28879103Y12141286D01*
X28910421Y12188157D01*
X29250000Y11848578D01*
X29250001Y11495654D01*
X29248065Y11475998D01*
X29255788Y11397585D01*
X29278661Y11322184D01*
X29315803Y11252696D01*
X29353265Y11207048D01*
X29353268Y11207045D01*
X29365790Y11191787D01*
X29381048Y11179265D01*
X30249999Y10310313D01*
X30250000Y9121385D01*
X28179925Y7051310D01*
X28111540Y7064913D01*
X28003200Y7064913D01*
X27896941Y7043777D01*
X27796847Y7002316D01*
X27706766Y6942126D01*
X27630157Y6865517D01*
X27569967Y6775436D01*
X27528506Y6675342D01*
X27507370Y6569083D01*
X27507370Y6460743D01*
X27528506Y6354484D01*
X27569967Y6254390D01*
X27630157Y6164309D01*
X27706766Y6087700D01*
X27796847Y6027510D01*
X27896941Y5986049D01*
X28003200Y5964913D01*
X28111540Y5964913D01*
X28150000Y5972563D01*
X28150000Y3772843D01*
X28151921Y3753334D01*
X28167145Y3676797D01*
X28172836Y3658038D01*
X28182077Y3640749D01*
X28225432Y3575864D01*
X28237868Y3560710D01*
X29613747Y2184831D01*
X29640577Y2144677D01*
X29650000Y2097306D01*
X29650000Y1099851D01*
X29640577Y1052480D01*
X29619325Y1020675D01*
X29587520Y999423D01*
X29540149Y990000D01*
X28742694Y990000D01*
X28695323Y999423D01*
X28655169Y1026253D01*
X26786253Y2895169D01*
X26759423Y2935323D01*
X26750000Y2982694D01*
X26750000Y5970363D01*
X26751934Y5989999D01*
X26750000Y6009635D01*
X26750000Y8744170D01*
X27600000Y8744170D01*
X27600000Y8635830D01*
X27621136Y8529571D01*
X27662597Y8429477D01*
X27722787Y8339396D01*
X27799396Y8262787D01*
X27889477Y8202597D01*
X27989571Y8161136D01*
X28095830Y8140000D01*
X28204170Y8140000D01*
X28310429Y8161136D01*
X28410523Y8202597D01*
X28500604Y8262787D01*
X28577213Y8339396D01*
X28637403Y8429477D01*
X28678864Y8529571D01*
X28700000Y8635830D01*
X28700000Y8744170D01*
X28678864Y8850429D01*
X28637403Y8950523D01*
X28577213Y9040604D01*
X28500604Y9117213D01*
X28410523Y9177403D01*
X28310429Y9218864D01*
X28204170Y9240000D01*
X28095830Y9240000D01*
X27989571Y9218864D01*
X27889477Y9177403D01*
X27799396Y9117213D01*
X27722787Y9040604D01*
X27662597Y8950523D01*
X27621136Y8850429D01*
X27600000Y8744170D01*
X26750000Y8744170D01*
X26750000Y9451572D01*
X27556932Y10258504D01*
X27565773Y10252597D01*
X27665867Y10211136D01*
X27772126Y10190000D01*
X27880466Y10190000D01*
X27933184Y10200486D01*
X27962597Y10129477D01*
X28022787Y10039396D01*
X28099396Y9962787D01*
X28189477Y9902597D01*
X28289571Y9861136D01*
X28395830Y9840000D01*
X28504170Y9840000D01*
X28610429Y9861136D01*
X28710523Y9902597D01*
X28800604Y9962787D01*
X28877213Y10039396D01*
X28937403Y10129477D01*
X28978864Y10229571D01*
X29000000Y10335830D01*
X29000000Y10444170D01*
X28978864Y10550429D01*
X28937403Y10650523D01*
X28877213Y10740604D01*
X28800604Y10817213D01*
X28710523Y10877403D01*
X28610429Y10918864D01*
X28504170Y10940000D01*
X28395830Y10940000D01*
X28343112Y10929514D01*
X28313699Y11000523D01*
X28253509Y11090604D01*
X28176900Y11167213D01*
X28146600Y11187459D01*
X28174986Y11255988D01*
X28196122Y11362247D01*
X28196122Y11470587D01*
X28174986Y11576846D01*
X28133525Y11676940D01*
X28073335Y11767021D01*
X27996726Y11843630D01*
X27937781Y11883016D01*
X27930333Y11892091D01*
X27915070Y11904617D01*
X27510738Y12308949D01*
X27498212Y12324212D01*
X27469860Y12347480D01*
X27503864Y12429572D01*
X27525000Y12535831D01*
X27525000Y12644171D01*
X27503864Y12750430D01*
X27462403Y12850524D01*
X27402213Y12940605D01*
X27325604Y13017214D01*
X27235523Y13077404D01*
X27135429Y13118865D01*
X27029170Y13140001D01*
X26920830Y13140001D01*
X26814571Y13118865D01*
X26714477Y13077404D01*
X26624396Y13017214D01*
X26593559Y12986377D01*
X26571587Y12984213D01*
X26496187Y12961341D01*
X26426698Y12924198D01*
X26426696Y12924197D01*
X26426697Y12924197D01*
X26381050Y12886736D01*
X26381048Y12886734D01*
X26365790Y12874212D01*
X26353268Y12858954D01*
X25484314Y11990000D01*
X23932843Y11990000D01*
X23913334Y11988079D01*
X23836797Y11972855D01*
X23818038Y11967164D01*
X23800749Y11957923D01*
X23735864Y11914568D01*
X23720710Y11902132D01*
X22544831Y10726253D01*
X22504677Y10699423D01*
X22457306Y10690000D01*
X20732843Y10690000D01*
X20713334Y10688079D01*
X20636797Y10672855D01*
X20618038Y10667164D01*
X20600749Y10657923D01*
X20535864Y10614568D01*
X20520710Y10602132D01*
X20249328Y10330750D01*
X20189571Y10318864D01*
X20089477Y10277403D01*
X19999396Y10217213D01*
X19922787Y10140604D01*
X19862597Y10050523D01*
X19821136Y9950429D01*
X19800000Y9844170D01*
X19800000Y9735830D01*
X19821136Y9629571D01*
X19862597Y9529477D01*
X19922787Y9439396D01*
X19950000Y9412183D01*
X19950000Y7220112D01*
X19921136Y7150429D01*
X19900000Y7044170D01*
X19900000Y6935830D01*
X19921136Y6829571D01*
X19950000Y6759888D01*
X19950000Y5882694D01*
X19940577Y5835323D01*
X19913747Y5795169D01*
X19044831Y4926253D01*
X19004677Y4899423D01*
X18957306Y4890000D01*
X18541622Y4890000D01*
X18494717Y4899229D01*
X18454804Y4925542D01*
X15528496Y7803878D01*
X15513413Y7816075D01*
X15448937Y7858581D01*
X15431591Y7867714D01*
X15413202Y7873210D01*
X15337430Y7888119D01*
X15318124Y7890000D01*
X13242694Y7890000D01*
X13195323Y7899423D01*
X13155169Y7926253D01*
X12286253Y8795169D01*
X12259423Y8835323D01*
X12250000Y8882694D01*
X12250000Y8980149D01*
X12259423Y9027520D01*
X12280675Y9059325D01*
X12312480Y9080577D01*
X12359851Y9090000D01*
X13457306Y9090000D01*
X13504677Y9080577D01*
X13544831Y9053747D01*
X13920710Y8677868D01*
X13935864Y8665432D01*
X14000749Y8622077D01*
X14018037Y8612836D01*
X14036797Y8607145D01*
X14113334Y8591921D01*
X14132843Y8590000D01*
X16157306Y8590000D01*
X16204677Y8580577D01*
X16244831Y8553747D01*
X17220710Y7577868D01*
X17235864Y7565432D01*
X17300749Y7522077D01*
X17318037Y7512836D01*
X17336797Y7507145D01*
X17413334Y7491921D01*
X17432843Y7490000D01*
X17906972Y7490000D01*
X17895735Y7433507D01*
X17895735Y7325167D01*
X17916871Y7218908D01*
X17958332Y7118814D01*
X18018522Y7028733D01*
X18095131Y6952124D01*
X18185212Y6891934D01*
X18285306Y6850473D01*
X18391565Y6829337D01*
X18499905Y6829337D01*
X18606164Y6850473D01*
X18706258Y6891934D01*
X18796339Y6952124D01*
X18872948Y7028733D01*
X18933138Y7118814D01*
X18974599Y7218908D01*
X18995735Y7325167D01*
X18995735Y7433507D01*
X18974599Y7539766D01*
X18933138Y7639860D01*
X18872948Y7729941D01*
X18845735Y7757154D01*
X18845735Y7841550D01*
X18848079Y7853334D01*
X18850000Y7872843D01*
X18850000Y8524315D01*
X19068948Y8743263D01*
X19084211Y8755789D01*
X19134197Y8816697D01*
X19171340Y8886186D01*
X19194212Y8961586D01*
X19200000Y9020353D01*
X19200000Y9020363D01*
X19201934Y9039999D01*
X19200000Y9059635D01*
X19200000Y10266786D01*
X19201935Y10286433D01*
X19198904Y10317213D01*
X19194212Y10364847D01*
X19171340Y10440247D01*
X19134197Y10509736D01*
X19084211Y10570644D01*
X19068949Y10583169D01*
X18793168Y10858950D01*
X18780644Y10874211D01*
X18719736Y10924197D01*
X18650247Y10961340D01*
X18574847Y10984212D01*
X18516080Y10990000D01*
X18516079Y10990000D01*
X18496433Y10991935D01*
X18476787Y10990000D01*
X18230559Y10990000D01*
X18194400Y10997193D01*
X18172096Y11012096D01*
X18157193Y11034400D01*
X18150000Y11070559D01*
X18150000Y11097306D01*
X18159423Y11144677D01*
X18186253Y11184831D01*
X18255169Y11253747D01*
X18295323Y11280577D01*
X18342694Y11290000D01*
X18867157Y11290000D01*
X18886666Y11291921D01*
X18963203Y11307145D01*
X18981962Y11312836D01*
X18999251Y11322077D01*
X19064136Y11365432D01*
X19079290Y11377868D01*
X19955169Y12253747D01*
X19995323Y12280577D01*
X20042694Y12290000D01*
X21204615Y12290000D01*
X21473565Y12021049D01*
X21486087Y12005791D01*
X21501345Y11993269D01*
X21501347Y11993267D01*
X21512381Y11984212D01*
X21546995Y11955805D01*
X21616484Y11918662D01*
X21691884Y11895790D01*
X21750651Y11890002D01*
X21750661Y11890002D01*
X21770297Y11888068D01*
X21789933Y11890002D01*
X22510056Y11890002D01*
X22529702Y11888067D01*
X22549348Y11890002D01*
X22549349Y11890002D01*
X22608116Y11895790D01*
X22683516Y11918662D01*
X22753005Y11955805D01*
X22813913Y12005791D01*
X22826439Y12021054D01*
X23368954Y12563568D01*
X23384211Y12576089D01*
X23434197Y12636997D01*
X23471340Y12706486D01*
X23494212Y12781886D01*
X23500000Y12840653D01*
X23500000Y12840663D01*
X23501934Y12860299D01*
X23500000Y12879935D01*
X23500000Y13274315D01*
X23915675Y13689990D01*
X27384325Y13689990D01*
X27649989Y13424325D01*
G36*
X6104677Y14180577D02*
G01*
X6144831Y14153747D01*
X7513747Y12784831D01*
X7540577Y12744677D01*
X7550000Y12697306D01*
X7550000Y10982694D01*
X7540577Y10935323D01*
X7513747Y10895169D01*
X7144831Y10526253D01*
X7104677Y10499423D01*
X7057306Y10490000D01*
X5432843Y10490000D01*
X5413334Y10488079D01*
X5336797Y10472855D01*
X5318038Y10467164D01*
X5300749Y10457923D01*
X5235864Y10414568D01*
X5220710Y10402132D01*
X5137868Y10319290D01*
X5125432Y10304136D01*
X5082077Y10239251D01*
X5072836Y10221963D01*
X5067145Y10203203D01*
X5051921Y10126666D01*
X5050000Y10107157D01*
X5050000Y9582694D01*
X5040577Y9535323D01*
X5013747Y9495169D01*
X4844831Y9326253D01*
X4804677Y9299423D01*
X4757306Y9290000D01*
X2842694Y9290000D01*
X2795323Y9299423D01*
X2755169Y9326253D01*
X2386253Y9695169D01*
X2359423Y9735323D01*
X2350000Y9782694D01*
X2350000Y13297306D01*
X2359423Y13344677D01*
X2386253Y13384831D01*
X3155169Y14153747D01*
X3195323Y14180577D01*
X3242694Y14190000D01*
X6057306Y14190000D01*
X6104677Y14180577D01*
G37*
X6104677Y14180577D02*
X6144831Y14153747D01*
X7513747Y12784831D01*
X7540577Y12744677D01*
X7550000Y12697306D01*
X7550000Y10982694D01*
X7540577Y10935323D01*
X7513747Y10895169D01*
X7144831Y10526253D01*
X7104677Y10499423D01*
X7057306Y10490000D01*
X5432843Y10490000D01*
X5413334Y10488079D01*
X5336797Y10472855D01*
X5318038Y10467164D01*
X5300749Y10457923D01*
X5235864Y10414568D01*
X5220710Y10402132D01*
X5137868Y10319290D01*
X5125432Y10304136D01*
X5082077Y10239251D01*
X5072836Y10221963D01*
X5067145Y10203203D01*
X5051921Y10126666D01*
X5050000Y10107157D01*
X5050000Y9582694D01*
X5040577Y9535323D01*
X5013747Y9495169D01*
X4844831Y9326253D01*
X4804677Y9299423D01*
X4757306Y9290000D01*
X2842694Y9290000D01*
X2795323Y9299423D01*
X2755169Y9326253D01*
X2386253Y9695169D01*
X2359423Y9735323D01*
X2350000Y9782694D01*
X2350000Y13297306D01*
X2359423Y13344677D01*
X2386253Y13384831D01*
X3155169Y14153747D01*
X3195323Y14180577D01*
X3242694Y14190000D01*
X6057306Y14190000D01*
X6104677Y14180577D01*
G36*
X36713747Y10684831D02*
G01*
X36740577Y10644677D01*
X36750000Y10597306D01*
X36750000Y7182694D01*
X36740577Y7135323D01*
X36713747Y7095169D01*
X36051231Y6432652D01*
X35998414Y6485469D01*
X35896048Y6553868D01*
X35782306Y6600981D01*
X35661557Y6625000D01*
X35538443Y6625000D01*
X35417694Y6600981D01*
X35303952Y6553868D01*
X35201586Y6485469D01*
X35198770Y6482652D01*
X34786253Y6895169D01*
X34759423Y6935323D01*
X34750000Y6982694D01*
X34750000Y10797306D01*
X34759423Y10844677D01*
X34786253Y10884831D01*
X35198770Y11297347D01*
X35201586Y11294531D01*
X35303952Y11226132D01*
X35417694Y11179019D01*
X35538443Y11155000D01*
X35661557Y11155000D01*
X35782306Y11179019D01*
X35896048Y11226132D01*
X35998414Y11294531D01*
X36051231Y11347347D01*
X36713747Y10684831D01*
G37*
X36713747Y10684831D02*
X36740577Y10644677D01*
X36750000Y10597306D01*
X36750000Y7182694D01*
X36740577Y7135323D01*
X36713747Y7095169D01*
X36051231Y6432652D01*
X35998414Y6485469D01*
X35896048Y6553868D01*
X35782306Y6600981D01*
X35661557Y6625000D01*
X35538443Y6625000D01*
X35417694Y6600981D01*
X35303952Y6553868D01*
X35201586Y6485469D01*
X35198770Y6482652D01*
X34786253Y6895169D01*
X34759423Y6935323D01*
X34750000Y6982694D01*
X34750000Y10797306D01*
X34759423Y10844677D01*
X34786253Y10884831D01*
X35198770Y11297347D01*
X35201586Y11294531D01*
X35303952Y11226132D01*
X35417694Y11179019D01*
X35538443Y11155000D01*
X35661557Y11155000D01*
X35782306Y11179019D01*
X35896048Y11226132D01*
X35998414Y11294531D01*
X36051231Y11347347D01*
X36713747Y10684831D01*
M02*
