G04 #@! TF.GenerationSoftware,KiCad,Pcbnew,(5.1.5)-3*
G04 #@! TF.CreationDate,2021-01-27T12:55:09+11:00*
G04 #@! TF.ProjectId,PD_Micro,50445f4d-6963-4726-9f2e-6b696361645f,rev?*
G04 #@! TF.SameCoordinates,PX7ce2370PY67d8790*
G04 #@! TF.FileFunction,Soldermask,Top*
G04 #@! TF.FilePolarity,Negative*
%FSLAX46Y46*%
G04 Gerber Fmt 4.6, Leading zero omitted, Abs format (unit mm)*
G04 Created by KiCad (PCBNEW (5.1.5)-3) date 2021-01-27 12:55:09*
%MOMM*%
%LPD*%
G04 APERTURE LIST*
%ADD10C,0.100000*%
G04 APERTURE END LIST*
D10*
G36*
X39652937Y2202724D02*
G01*
X39829465Y2129603D01*
X39829467Y2129602D01*
X39988339Y2023448D01*
X40123448Y1888339D01*
X40149572Y1849241D01*
X40229603Y1729465D01*
X40302724Y1552937D01*
X40340000Y1365538D01*
X40340000Y1174462D01*
X40302724Y987063D01*
X40229603Y810535D01*
X40229602Y810533D01*
X40123448Y651661D01*
X39988339Y516552D01*
X39829467Y410398D01*
X39829466Y410397D01*
X39829465Y410397D01*
X39652937Y337276D01*
X39465538Y300000D01*
X39274462Y300000D01*
X39087063Y337276D01*
X38910535Y410397D01*
X38910534Y410397D01*
X38910533Y410398D01*
X38751661Y516552D01*
X38616552Y651661D01*
X38510398Y810533D01*
X38510397Y810535D01*
X38437276Y987063D01*
X38400000Y1174462D01*
X38400000Y1365538D01*
X38437276Y1552937D01*
X38510397Y1729465D01*
X38590428Y1849241D01*
X38616552Y1888339D01*
X38751661Y2023448D01*
X38910533Y2129602D01*
X38910535Y2129603D01*
X39087063Y2202724D01*
X39274462Y2240000D01*
X39465538Y2240000D01*
X39652937Y2202724D01*
G37*
G36*
X6632937Y2202724D02*
G01*
X6809465Y2129603D01*
X6809467Y2129602D01*
X6968339Y2023448D01*
X7103448Y1888339D01*
X7129572Y1849241D01*
X7209603Y1729465D01*
X7282724Y1552937D01*
X7320000Y1365538D01*
X7320000Y1174462D01*
X7282724Y987063D01*
X7209603Y810535D01*
X7209602Y810533D01*
X7103448Y651661D01*
X6968339Y516552D01*
X6809467Y410398D01*
X6809466Y410397D01*
X6809465Y410397D01*
X6632937Y337276D01*
X6445538Y300000D01*
X6254462Y300000D01*
X6067063Y337276D01*
X5890535Y410397D01*
X5890534Y410397D01*
X5890533Y410398D01*
X5731661Y516552D01*
X5596552Y651661D01*
X5490398Y810533D01*
X5490397Y810535D01*
X5417276Y987063D01*
X5380000Y1174462D01*
X5380000Y1365538D01*
X5417276Y1552937D01*
X5490397Y1729465D01*
X5570428Y1849241D01*
X5596552Y1888339D01*
X5731661Y2023448D01*
X5890533Y2129602D01*
X5890535Y2129603D01*
X6067063Y2202724D01*
X6254462Y2240000D01*
X6445538Y2240000D01*
X6632937Y2202724D01*
G37*
G36*
X11698353Y2154645D02*
G01*
X11865782Y2085294D01*
X11940612Y2035294D01*
X12016466Y1984610D01*
X12144610Y1856466D01*
X12191816Y1785817D01*
X12245294Y1705782D01*
X12314645Y1538353D01*
X12350000Y1360613D01*
X12350000Y1179387D01*
X12314645Y1001647D01*
X12245294Y834218D01*
X12245293Y834217D01*
X12144610Y683534D01*
X12016466Y555390D01*
X11958341Y516552D01*
X11865782Y454706D01*
X11698353Y385355D01*
X11520613Y350000D01*
X11339387Y350000D01*
X11161647Y385355D01*
X10994218Y454706D01*
X10901659Y516552D01*
X10843534Y555390D01*
X10715390Y683534D01*
X10614707Y834217D01*
X10614706Y834218D01*
X10545355Y1001647D01*
X10510000Y1179387D01*
X10510000Y1360613D01*
X10545355Y1538353D01*
X10614706Y1705782D01*
X10668184Y1785817D01*
X10715390Y1856466D01*
X10843534Y1984610D01*
X10919388Y2035294D01*
X10994218Y2085294D01*
X11161647Y2154645D01*
X11339387Y2190000D01*
X11520613Y2190000D01*
X11698353Y2154645D01*
G37*
G36*
X4078353Y2154645D02*
G01*
X4245782Y2085294D01*
X4320612Y2035294D01*
X4396466Y1984610D01*
X4524610Y1856466D01*
X4571816Y1785817D01*
X4625294Y1705782D01*
X4694645Y1538353D01*
X4730000Y1360613D01*
X4730000Y1179387D01*
X4694645Y1001647D01*
X4625294Y834218D01*
X4625293Y834217D01*
X4524610Y683534D01*
X4396466Y555390D01*
X4338341Y516552D01*
X4245782Y454706D01*
X4078353Y385355D01*
X3900613Y350000D01*
X3719387Y350000D01*
X3541647Y385355D01*
X3374218Y454706D01*
X3281659Y516552D01*
X3223534Y555390D01*
X3095390Y683534D01*
X2994707Y834217D01*
X2994706Y834218D01*
X2925355Y1001647D01*
X2890000Y1179387D01*
X2890000Y1360613D01*
X2925355Y1538353D01*
X2994706Y1705782D01*
X3048184Y1785817D01*
X3095390Y1856466D01*
X3223534Y1984610D01*
X3299388Y2035294D01*
X3374218Y2085294D01*
X3541647Y2154645D01*
X3719387Y2190000D01*
X3900613Y2190000D01*
X4078353Y2154645D01*
G37*
G36*
X1785817Y2179761D02*
G01*
X1879877Y2151228D01*
X1966559Y2104896D01*
X2042540Y2042540D01*
X2104896Y1966559D01*
X2151228Y1879877D01*
X2179761Y1785817D01*
X2190000Y1681860D01*
X2190000Y858140D01*
X2179761Y754183D01*
X2151228Y660123D01*
X2104896Y573441D01*
X2042540Y497460D01*
X1966559Y435104D01*
X1879877Y388772D01*
X1785817Y360239D01*
X1681860Y350000D01*
X858140Y350000D01*
X754183Y360239D01*
X660123Y388772D01*
X573441Y435104D01*
X497460Y497460D01*
X435104Y573441D01*
X388772Y660123D01*
X360239Y754183D01*
X350000Y858140D01*
X350000Y1681860D01*
X360239Y1785817D01*
X388772Y1879877D01*
X435104Y1966559D01*
X497460Y2042540D01*
X573441Y2104896D01*
X660123Y2151228D01*
X754183Y2179761D01*
X858140Y2190000D01*
X1681860Y2190000D01*
X1785817Y2179761D01*
G37*
G36*
X9405817Y2179761D02*
G01*
X9499877Y2151228D01*
X9586559Y2104896D01*
X9662540Y2042540D01*
X9724896Y1966559D01*
X9771228Y1879877D01*
X9799761Y1785817D01*
X9810000Y1681860D01*
X9810000Y858140D01*
X9799761Y754183D01*
X9771228Y660123D01*
X9724896Y573441D01*
X9662540Y497460D01*
X9586559Y435104D01*
X9499877Y388772D01*
X9405817Y360239D01*
X9301860Y350000D01*
X8478140Y350000D01*
X8374183Y360239D01*
X8280123Y388772D01*
X8193441Y435104D01*
X8117460Y497460D01*
X8055104Y573441D01*
X8008772Y660123D01*
X7980239Y754183D01*
X7970000Y858140D01*
X7970000Y1681860D01*
X7980239Y1785817D01*
X8008772Y1879877D01*
X8055104Y1966559D01*
X8117460Y2042540D01*
X8193441Y2104896D01*
X8280123Y2151228D01*
X8374183Y2179761D01*
X8478140Y2190000D01*
X9301860Y2190000D01*
X9405817Y2179761D01*
G37*
G36*
X14238353Y2154645D02*
G01*
X14405782Y2085294D01*
X14480612Y2035294D01*
X14556466Y1984610D01*
X14684610Y1856466D01*
X14731816Y1785817D01*
X14785294Y1705782D01*
X14854645Y1538353D01*
X14890000Y1360613D01*
X14890000Y1179387D01*
X14854645Y1001647D01*
X14785294Y834218D01*
X14785293Y834217D01*
X14684610Y683534D01*
X14556466Y555390D01*
X14498341Y516552D01*
X14405782Y454706D01*
X14238353Y385355D01*
X14060613Y350000D01*
X13879387Y350000D01*
X13701647Y385355D01*
X13534218Y454706D01*
X13441659Y516552D01*
X13383534Y555390D01*
X13255390Y683534D01*
X13154707Y834217D01*
X13154706Y834218D01*
X13085355Y1001647D01*
X13050000Y1179387D01*
X13050000Y1360613D01*
X13085355Y1538353D01*
X13154706Y1705782D01*
X13208184Y1785817D01*
X13255390Y1856466D01*
X13383534Y1984610D01*
X13459388Y2035294D01*
X13534218Y2085294D01*
X13701647Y2154645D01*
X13879387Y2190000D01*
X14060613Y2190000D01*
X14238353Y2154645D01*
G37*
G36*
X16778353Y2154645D02*
G01*
X16945782Y2085294D01*
X17020612Y2035294D01*
X17096466Y1984610D01*
X17224610Y1856466D01*
X17271816Y1785817D01*
X17325294Y1705782D01*
X17394645Y1538353D01*
X17430000Y1360613D01*
X17430000Y1179387D01*
X17394645Y1001647D01*
X17325294Y834218D01*
X17325293Y834217D01*
X17224610Y683534D01*
X17096466Y555390D01*
X17038341Y516552D01*
X16945782Y454706D01*
X16778353Y385355D01*
X16600613Y350000D01*
X16419387Y350000D01*
X16241647Y385355D01*
X16074218Y454706D01*
X15981659Y516552D01*
X15923534Y555390D01*
X15795390Y683534D01*
X15694707Y834217D01*
X15694706Y834218D01*
X15625355Y1001647D01*
X15590000Y1179387D01*
X15590000Y1360613D01*
X15625355Y1538353D01*
X15694706Y1705782D01*
X15748184Y1785817D01*
X15795390Y1856466D01*
X15923534Y1984610D01*
X15999388Y2035294D01*
X16074218Y2085294D01*
X16241647Y2154645D01*
X16419387Y2190000D01*
X16600613Y2190000D01*
X16778353Y2154645D01*
G37*
G36*
X19318353Y2154645D02*
G01*
X19485782Y2085294D01*
X19560612Y2035294D01*
X19636466Y1984610D01*
X19764610Y1856466D01*
X19811816Y1785817D01*
X19865294Y1705782D01*
X19934645Y1538353D01*
X19970000Y1360613D01*
X19970000Y1179387D01*
X19934645Y1001647D01*
X19865294Y834218D01*
X19865293Y834217D01*
X19764610Y683534D01*
X19636466Y555390D01*
X19578341Y516552D01*
X19485782Y454706D01*
X19318353Y385355D01*
X19140613Y350000D01*
X18959387Y350000D01*
X18781647Y385355D01*
X18614218Y454706D01*
X18521659Y516552D01*
X18463534Y555390D01*
X18335390Y683534D01*
X18234707Y834217D01*
X18234706Y834218D01*
X18165355Y1001647D01*
X18130000Y1179387D01*
X18130000Y1360613D01*
X18165355Y1538353D01*
X18234706Y1705782D01*
X18288184Y1785817D01*
X18335390Y1856466D01*
X18463534Y1984610D01*
X18539388Y2035294D01*
X18614218Y2085294D01*
X18781647Y2154645D01*
X18959387Y2190000D01*
X19140613Y2190000D01*
X19318353Y2154645D01*
G37*
G36*
X21858353Y2154645D02*
G01*
X22025782Y2085294D01*
X22100612Y2035294D01*
X22176466Y1984610D01*
X22304610Y1856466D01*
X22351816Y1785817D01*
X22405294Y1705782D01*
X22474645Y1538353D01*
X22510000Y1360613D01*
X22510000Y1179387D01*
X22474645Y1001647D01*
X22405294Y834218D01*
X22405293Y834217D01*
X22304610Y683534D01*
X22176466Y555390D01*
X22118341Y516552D01*
X22025782Y454706D01*
X21858353Y385355D01*
X21680613Y350000D01*
X21499387Y350000D01*
X21321647Y385355D01*
X21154218Y454706D01*
X21061659Y516552D01*
X21003534Y555390D01*
X20875390Y683534D01*
X20774707Y834217D01*
X20774706Y834218D01*
X20705355Y1001647D01*
X20670000Y1179387D01*
X20670000Y1360613D01*
X20705355Y1538353D01*
X20774706Y1705782D01*
X20828184Y1785817D01*
X20875390Y1856466D01*
X21003534Y1984610D01*
X21079388Y2035294D01*
X21154218Y2085294D01*
X21321647Y2154645D01*
X21499387Y2190000D01*
X21680613Y2190000D01*
X21858353Y2154645D01*
G37*
G36*
X24398353Y2154645D02*
G01*
X24565782Y2085294D01*
X24640612Y2035294D01*
X24716466Y1984610D01*
X24844610Y1856466D01*
X24891816Y1785817D01*
X24945294Y1705782D01*
X25014645Y1538353D01*
X25050000Y1360613D01*
X25050000Y1179387D01*
X25014645Y1001647D01*
X24945294Y834218D01*
X24945293Y834217D01*
X24844610Y683534D01*
X24716466Y555390D01*
X24658341Y516552D01*
X24565782Y454706D01*
X24398353Y385355D01*
X24220613Y350000D01*
X24039387Y350000D01*
X23861647Y385355D01*
X23694218Y454706D01*
X23601659Y516552D01*
X23543534Y555390D01*
X23415390Y683534D01*
X23314707Y834217D01*
X23314706Y834218D01*
X23245355Y1001647D01*
X23210000Y1179387D01*
X23210000Y1360613D01*
X23245355Y1538353D01*
X23314706Y1705782D01*
X23368184Y1785817D01*
X23415390Y1856466D01*
X23543534Y1984610D01*
X23619388Y2035294D01*
X23694218Y2085294D01*
X23861647Y2154645D01*
X24039387Y2190000D01*
X24220613Y2190000D01*
X24398353Y2154645D01*
G37*
G36*
X26938353Y2154645D02*
G01*
X27105782Y2085294D01*
X27180612Y2035294D01*
X27256466Y1984610D01*
X27384610Y1856466D01*
X27431816Y1785817D01*
X27485294Y1705782D01*
X27554645Y1538353D01*
X27590000Y1360613D01*
X27590000Y1179387D01*
X27554645Y1001647D01*
X27485294Y834218D01*
X27485293Y834217D01*
X27384610Y683534D01*
X27256466Y555390D01*
X27198341Y516552D01*
X27105782Y454706D01*
X26938353Y385355D01*
X26760613Y350000D01*
X26579387Y350000D01*
X26401647Y385355D01*
X26234218Y454706D01*
X26141659Y516552D01*
X26083534Y555390D01*
X25955390Y683534D01*
X25854707Y834217D01*
X25854706Y834218D01*
X25785355Y1001647D01*
X25750000Y1179387D01*
X25750000Y1360613D01*
X25785355Y1538353D01*
X25854706Y1705782D01*
X25908184Y1785817D01*
X25955390Y1856466D01*
X26083534Y1984610D01*
X26159388Y2035294D01*
X26234218Y2085294D01*
X26401647Y2154645D01*
X26579387Y2190000D01*
X26760613Y2190000D01*
X26938353Y2154645D01*
G37*
G36*
X29478353Y2154645D02*
G01*
X29645782Y2085294D01*
X29720612Y2035294D01*
X29796466Y1984610D01*
X29924610Y1856466D01*
X29971816Y1785817D01*
X30025294Y1705782D01*
X30094645Y1538353D01*
X30130000Y1360613D01*
X30130000Y1179387D01*
X30094645Y1001647D01*
X30025294Y834218D01*
X30025293Y834217D01*
X29924610Y683534D01*
X29796466Y555390D01*
X29738341Y516552D01*
X29645782Y454706D01*
X29478353Y385355D01*
X29300613Y350000D01*
X29119387Y350000D01*
X28941647Y385355D01*
X28774218Y454706D01*
X28681659Y516552D01*
X28623534Y555390D01*
X28495390Y683534D01*
X28394707Y834217D01*
X28394706Y834218D01*
X28325355Y1001647D01*
X28290000Y1179387D01*
X28290000Y1360613D01*
X28325355Y1538353D01*
X28394706Y1705782D01*
X28448184Y1785817D01*
X28495390Y1856466D01*
X28623534Y1984610D01*
X28699388Y2035294D01*
X28774218Y2085294D01*
X28941647Y2154645D01*
X29119387Y2190000D01*
X29300613Y2190000D01*
X29478353Y2154645D01*
G37*
G36*
X32018353Y2154645D02*
G01*
X32185782Y2085294D01*
X32260612Y2035294D01*
X32336466Y1984610D01*
X32464610Y1856466D01*
X32511816Y1785817D01*
X32565294Y1705782D01*
X32634645Y1538353D01*
X32670000Y1360613D01*
X32670000Y1179387D01*
X32634645Y1001647D01*
X32565294Y834218D01*
X32565293Y834217D01*
X32464610Y683534D01*
X32336466Y555390D01*
X32278341Y516552D01*
X32185782Y454706D01*
X32018353Y385355D01*
X31840613Y350000D01*
X31659387Y350000D01*
X31481647Y385355D01*
X31314218Y454706D01*
X31221659Y516552D01*
X31163534Y555390D01*
X31035390Y683534D01*
X30934707Y834217D01*
X30934706Y834218D01*
X30865355Y1001647D01*
X30830000Y1179387D01*
X30830000Y1360613D01*
X30865355Y1538353D01*
X30934706Y1705782D01*
X30988184Y1785817D01*
X31035390Y1856466D01*
X31163534Y1984610D01*
X31239388Y2035294D01*
X31314218Y2085294D01*
X31481647Y2154645D01*
X31659387Y2190000D01*
X31840613Y2190000D01*
X32018353Y2154645D01*
G37*
G36*
X34558353Y2154645D02*
G01*
X34725782Y2085294D01*
X34800612Y2035294D01*
X34876466Y1984610D01*
X35004610Y1856466D01*
X35051816Y1785817D01*
X35105294Y1705782D01*
X35174645Y1538353D01*
X35210000Y1360613D01*
X35210000Y1179387D01*
X35174645Y1001647D01*
X35105294Y834218D01*
X35105293Y834217D01*
X35004610Y683534D01*
X34876466Y555390D01*
X34818341Y516552D01*
X34725782Y454706D01*
X34558353Y385355D01*
X34380613Y350000D01*
X34199387Y350000D01*
X34021647Y385355D01*
X33854218Y454706D01*
X33761659Y516552D01*
X33703534Y555390D01*
X33575390Y683534D01*
X33474707Y834217D01*
X33474706Y834218D01*
X33405355Y1001647D01*
X33370000Y1179387D01*
X33370000Y1360613D01*
X33405355Y1538353D01*
X33474706Y1705782D01*
X33528184Y1785817D01*
X33575390Y1856466D01*
X33703534Y1984610D01*
X33779388Y2035294D01*
X33854218Y2085294D01*
X34021647Y2154645D01*
X34199387Y2190000D01*
X34380613Y2190000D01*
X34558353Y2154645D01*
G37*
G36*
X37098353Y2154645D02*
G01*
X37265782Y2085294D01*
X37340612Y2035294D01*
X37416466Y1984610D01*
X37544610Y1856466D01*
X37591816Y1785817D01*
X37645294Y1705782D01*
X37714645Y1538353D01*
X37750000Y1360613D01*
X37750000Y1179387D01*
X37714645Y1001647D01*
X37645294Y834218D01*
X37645293Y834217D01*
X37544610Y683534D01*
X37416466Y555390D01*
X37358341Y516552D01*
X37265782Y454706D01*
X37098353Y385355D01*
X36920613Y350000D01*
X36739387Y350000D01*
X36561647Y385355D01*
X36394218Y454706D01*
X36301659Y516552D01*
X36243534Y555390D01*
X36115390Y683534D01*
X36014707Y834217D01*
X36014706Y834218D01*
X35945355Y1001647D01*
X35910000Y1179387D01*
X35910000Y1360613D01*
X35945355Y1538353D01*
X36014706Y1705782D01*
X36068184Y1785817D01*
X36115390Y1856466D01*
X36243534Y1984610D01*
X36319388Y2035294D01*
X36394218Y2085294D01*
X36561647Y2154645D01*
X36739387Y2190000D01*
X36920613Y2190000D01*
X37098353Y2154645D01*
G37*
G36*
X23888891Y4008667D02*
G01*
X23896004Y4006509D01*
X23902552Y4003009D01*
X23908296Y3998296D01*
X23913009Y3992552D01*
X23916509Y3986004D01*
X23918667Y3978891D01*
X23920000Y3965357D01*
X23920000Y3014643D01*
X23918667Y3001109D01*
X23916509Y2993996D01*
X23913009Y2987448D01*
X23908296Y2981704D01*
X23902552Y2976991D01*
X23896004Y2973491D01*
X23888891Y2971333D01*
X23875357Y2970000D01*
X23124643Y2970000D01*
X23111109Y2971333D01*
X23103996Y2973491D01*
X23097448Y2976991D01*
X23091704Y2981704D01*
X23086991Y2987448D01*
X23083491Y2993996D01*
X23081333Y3001109D01*
X23080000Y3014643D01*
X23080000Y3965357D01*
X23081333Y3978891D01*
X23083491Y3986004D01*
X23086991Y3992552D01*
X23091704Y3998296D01*
X23097448Y4003009D01*
X23103996Y4006509D01*
X23111109Y4008667D01*
X23124643Y4010000D01*
X23875357Y4010000D01*
X23888891Y4008667D01*
G37*
G36*
X25388891Y4008667D02*
G01*
X25396004Y4006509D01*
X25402552Y4003009D01*
X25408296Y3998296D01*
X25413009Y3992552D01*
X25416509Y3986004D01*
X25418667Y3978891D01*
X25420000Y3965357D01*
X25420000Y3014643D01*
X25418667Y3001109D01*
X25416509Y2993996D01*
X25413009Y2987448D01*
X25408296Y2981704D01*
X25402552Y2976991D01*
X25396004Y2973491D01*
X25388891Y2971333D01*
X25375357Y2970000D01*
X24624643Y2970000D01*
X24611109Y2971333D01*
X24603996Y2973491D01*
X24597448Y2976991D01*
X24591704Y2981704D01*
X24586991Y2987448D01*
X24583491Y2993996D01*
X24581333Y3001109D01*
X24580000Y3014643D01*
X24580000Y3965357D01*
X24581333Y3978891D01*
X24583491Y3986004D01*
X24586991Y3992552D01*
X24591704Y3998296D01*
X24597448Y4003009D01*
X24603996Y4006509D01*
X24611109Y4008667D01*
X24624643Y4010000D01*
X25375357Y4010000D01*
X25388891Y4008667D01*
G37*
G36*
X27920000Y3120000D02*
G01*
X26580000Y3120000D01*
X26580000Y4160000D01*
X27920000Y4160000D01*
X27920000Y3120000D01*
G37*
G36*
X31920000Y3120000D02*
G01*
X30580000Y3120000D01*
X30580000Y4160000D01*
X31920000Y4160000D01*
X31920000Y3120000D01*
G37*
G36*
X18888891Y4158667D02*
G01*
X18896004Y4156509D01*
X18902552Y4153009D01*
X18908296Y4148296D01*
X18913009Y4142552D01*
X18916509Y4136004D01*
X18918667Y4128891D01*
X18920000Y4115357D01*
X18920000Y3164643D01*
X18918667Y3151109D01*
X18916509Y3143996D01*
X18913009Y3137448D01*
X18908296Y3131704D01*
X18902552Y3126991D01*
X18896004Y3123491D01*
X18888891Y3121333D01*
X18875357Y3120000D01*
X18124643Y3120000D01*
X18111109Y3121333D01*
X18103996Y3123491D01*
X18097448Y3126991D01*
X18091704Y3131704D01*
X18086991Y3137448D01*
X18083491Y3143996D01*
X18081333Y3151109D01*
X18080000Y3164643D01*
X18080000Y4115357D01*
X18081333Y4128891D01*
X18083491Y4136004D01*
X18086991Y4142552D01*
X18091704Y4148296D01*
X18097448Y4153009D01*
X18103996Y4156509D01*
X18111109Y4158667D01*
X18124643Y4160000D01*
X18875357Y4160000D01*
X18888891Y4158667D01*
G37*
G36*
X20388891Y4158667D02*
G01*
X20396004Y4156509D01*
X20402552Y4153009D01*
X20408296Y4148296D01*
X20413009Y4142552D01*
X20416509Y4136004D01*
X20418667Y4128891D01*
X20420000Y4115357D01*
X20420000Y3164643D01*
X20418667Y3151109D01*
X20416509Y3143996D01*
X20413009Y3137448D01*
X20408296Y3131704D01*
X20402552Y3126991D01*
X20396004Y3123491D01*
X20388891Y3121333D01*
X20375357Y3120000D01*
X19624643Y3120000D01*
X19611109Y3121333D01*
X19603996Y3123491D01*
X19597448Y3126991D01*
X19591704Y3131704D01*
X19586991Y3137448D01*
X19583491Y3143996D01*
X19581333Y3151109D01*
X19580000Y3164643D01*
X19580000Y4115357D01*
X19581333Y4128891D01*
X19583491Y4136004D01*
X19586991Y4142552D01*
X19591704Y4148296D01*
X19597448Y4153009D01*
X19603996Y4156509D01*
X19611109Y4158667D01*
X19624643Y4160000D01*
X20375357Y4160000D01*
X20388891Y4158667D01*
G37*
G36*
X9440941Y4305732D02*
G01*
X9476710Y4294882D01*
X9509666Y4277266D01*
X9538557Y4253557D01*
X9562266Y4224666D01*
X9579882Y4191710D01*
X9590732Y4155941D01*
X9595000Y4112609D01*
X9595000Y3492391D01*
X9590732Y3449059D01*
X9579882Y3413290D01*
X9562266Y3380334D01*
X9538557Y3351443D01*
X9509666Y3327734D01*
X9476710Y3310118D01*
X9440941Y3299268D01*
X9397609Y3295000D01*
X8702391Y3295000D01*
X8659059Y3299268D01*
X8623290Y3310118D01*
X8590334Y3327734D01*
X8561443Y3351443D01*
X8537734Y3380334D01*
X8520118Y3413290D01*
X8509268Y3449059D01*
X8505000Y3492391D01*
X8505000Y4112609D01*
X8509268Y4155941D01*
X8520118Y4191710D01*
X8537734Y4224666D01*
X8561443Y4253557D01*
X8590334Y4277266D01*
X8623290Y4294882D01*
X8659059Y4305732D01*
X8702391Y4310000D01*
X9397609Y4310000D01*
X9440941Y4305732D01*
G37*
G36*
X4552673Y4682803D02*
G01*
X4568221Y4678086D01*
X4582552Y4670426D01*
X4595115Y4660115D01*
X4605426Y4647552D01*
X4613086Y4633221D01*
X4617803Y4617673D01*
X4620000Y4595362D01*
X4620000Y3384638D01*
X4617803Y3362327D01*
X4613086Y3346779D01*
X4605426Y3332448D01*
X4595115Y3319885D01*
X4582552Y3309574D01*
X4568221Y3301914D01*
X4552673Y3297197D01*
X4530362Y3295000D01*
X3569638Y3295000D01*
X3547327Y3297197D01*
X3531779Y3301914D01*
X3517448Y3309574D01*
X3504885Y3319885D01*
X3494574Y3332448D01*
X3486914Y3346779D01*
X3482197Y3362327D01*
X3480000Y3384638D01*
X3480000Y4595362D01*
X3482197Y4617673D01*
X3486914Y4633221D01*
X3494574Y4647552D01*
X3504885Y4660115D01*
X3517448Y4670426D01*
X3531779Y4678086D01*
X3547327Y4682803D01*
X3569638Y4685000D01*
X4530362Y4685000D01*
X4552673Y4682803D01*
G37*
G36*
X6552673Y4682803D02*
G01*
X6568221Y4678086D01*
X6582552Y4670426D01*
X6595115Y4660115D01*
X6605426Y4647552D01*
X6613086Y4633221D01*
X6617803Y4617673D01*
X6620000Y4595362D01*
X6620000Y3384638D01*
X6617803Y3362327D01*
X6613086Y3346779D01*
X6605426Y3332448D01*
X6595115Y3319885D01*
X6582552Y3309574D01*
X6568221Y3301914D01*
X6552673Y3297197D01*
X6530362Y3295000D01*
X5569638Y3295000D01*
X5547327Y3297197D01*
X5531779Y3301914D01*
X5517448Y3309574D01*
X5504885Y3319885D01*
X5494574Y3332448D01*
X5486914Y3346779D01*
X5482197Y3362327D01*
X5480000Y3384638D01*
X5480000Y4595362D01*
X5482197Y4617673D01*
X5486914Y4633221D01*
X5494574Y4647552D01*
X5504885Y4660115D01*
X5517448Y4670426D01*
X5531779Y4678086D01*
X5547327Y4682803D01*
X5569638Y4685000D01*
X6530362Y4685000D01*
X6552673Y4682803D01*
G37*
G36*
X13040941Y4305732D02*
G01*
X13076710Y4294882D01*
X13109666Y4277266D01*
X13138557Y4253557D01*
X13162266Y4224666D01*
X13179882Y4191710D01*
X13190732Y4155941D01*
X13195000Y4112609D01*
X13195000Y3492391D01*
X13190732Y3449059D01*
X13179882Y3413290D01*
X13162266Y3380334D01*
X13138557Y3351443D01*
X13109666Y3327734D01*
X13076710Y3310118D01*
X13040941Y3299268D01*
X12997609Y3295000D01*
X12302391Y3295000D01*
X12259059Y3299268D01*
X12223290Y3310118D01*
X12190334Y3327734D01*
X12161443Y3351443D01*
X12137734Y3380334D01*
X12120118Y3413290D01*
X12109268Y3449059D01*
X12105000Y3492391D01*
X12105000Y4112609D01*
X12109268Y4155941D01*
X12120118Y4191710D01*
X12137734Y4224666D01*
X12161443Y4253557D01*
X12190334Y4277266D01*
X12223290Y4294882D01*
X12259059Y4305732D01*
X12302391Y4310000D01*
X12997609Y4310000D01*
X13040941Y4305732D01*
G37*
G36*
X16640941Y4305732D02*
G01*
X16676710Y4294882D01*
X16709666Y4277266D01*
X16738557Y4253557D01*
X16762266Y4224666D01*
X16779882Y4191710D01*
X16790732Y4155941D01*
X16795000Y4112609D01*
X16795000Y3492391D01*
X16790732Y3449059D01*
X16779882Y3413290D01*
X16762266Y3380334D01*
X16738557Y3351443D01*
X16709666Y3327734D01*
X16676710Y3310118D01*
X16640941Y3299268D01*
X16597609Y3295000D01*
X15902391Y3295000D01*
X15859059Y3299268D01*
X15823290Y3310118D01*
X15790334Y3327734D01*
X15761443Y3351443D01*
X15737734Y3380334D01*
X15720118Y3413290D01*
X15709268Y3449059D01*
X15705000Y3492391D01*
X15705000Y4112609D01*
X15709268Y4155941D01*
X15720118Y4191710D01*
X15737734Y4224666D01*
X15761443Y4253557D01*
X15790334Y4277266D01*
X15823290Y4294882D01*
X15859059Y4305732D01*
X15902391Y4310000D01*
X16597609Y4310000D01*
X16640941Y4305732D01*
G37*
G36*
X11240941Y4305732D02*
G01*
X11276710Y4294882D01*
X11309666Y4277266D01*
X11338557Y4253557D01*
X11362266Y4224666D01*
X11379882Y4191710D01*
X11390732Y4155941D01*
X11395000Y4112609D01*
X11395000Y3492391D01*
X11390732Y3449059D01*
X11379882Y3413290D01*
X11362266Y3380334D01*
X11338557Y3351443D01*
X11309666Y3327734D01*
X11276710Y3310118D01*
X11240941Y3299268D01*
X11197609Y3295000D01*
X10502391Y3295000D01*
X10459059Y3299268D01*
X10423290Y3310118D01*
X10390334Y3327734D01*
X10361443Y3351443D01*
X10337734Y3380334D01*
X10320118Y3413290D01*
X10309268Y3449059D01*
X10305000Y3492391D01*
X10305000Y4112609D01*
X10309268Y4155941D01*
X10320118Y4191710D01*
X10337734Y4224666D01*
X10361443Y4253557D01*
X10390334Y4277266D01*
X10423290Y4294882D01*
X10459059Y4305732D01*
X10502391Y4310000D01*
X11197609Y4310000D01*
X11240941Y4305732D01*
G37*
G36*
X14840941Y4305732D02*
G01*
X14876710Y4294882D01*
X14909666Y4277266D01*
X14938557Y4253557D01*
X14962266Y4224666D01*
X14979882Y4191710D01*
X14990732Y4155941D01*
X14995000Y4112609D01*
X14995000Y3492391D01*
X14990732Y3449059D01*
X14979882Y3413290D01*
X14962266Y3380334D01*
X14938557Y3351443D01*
X14909666Y3327734D01*
X14876710Y3310118D01*
X14840941Y3299268D01*
X14797609Y3295000D01*
X14102391Y3295000D01*
X14059059Y3299268D01*
X14023290Y3310118D01*
X13990334Y3327734D01*
X13961443Y3351443D01*
X13937734Y3380334D01*
X13920118Y3413290D01*
X13909268Y3449059D01*
X13905000Y3492391D01*
X13905000Y4112609D01*
X13909268Y4155941D01*
X13920118Y4191710D01*
X13937734Y4224666D01*
X13961443Y4253557D01*
X13990334Y4277266D01*
X14023290Y4294882D01*
X14059059Y4305732D01*
X14102391Y4310000D01*
X14797609Y4310000D01*
X14840941Y4305732D01*
G37*
G36*
X35675908Y13777251D02*
G01*
X35731739Y13771752D01*
X35839185Y13739158D01*
X35938207Y13686230D01*
X36025000Y13615000D01*
X36096230Y13528207D01*
X36149158Y13429185D01*
X36181752Y13321739D01*
X36192757Y13210000D01*
X36181752Y13098261D01*
X36149158Y12990815D01*
X36096230Y12891793D01*
X36025000Y12805000D01*
X35938207Y12733770D01*
X35839185Y12680842D01*
X35731739Y12648248D01*
X35675908Y12642749D01*
X35647994Y12640000D01*
X35074999Y12640000D01*
X35050613Y12637598D01*
X35027164Y12630485D01*
X35005553Y12618934D01*
X34986611Y12603389D01*
X34971066Y12584447D01*
X34959515Y12562836D01*
X34952402Y12539387D01*
X34950000Y12515001D01*
X34950000Y5264999D01*
X34952402Y5240613D01*
X34959515Y5217164D01*
X34971066Y5195553D01*
X34986611Y5176611D01*
X35005553Y5161066D01*
X35027164Y5149515D01*
X35050613Y5142402D01*
X35074999Y5140000D01*
X35647994Y5140000D01*
X35675908Y5137251D01*
X35731739Y5131752D01*
X35839185Y5099158D01*
X35938207Y5046230D01*
X36025000Y4975000D01*
X36096230Y4888207D01*
X36149158Y4789185D01*
X36181752Y4681739D01*
X36192757Y4570000D01*
X36181752Y4458261D01*
X36149158Y4350815D01*
X36096230Y4251793D01*
X36025000Y4165000D01*
X35938207Y4093770D01*
X35839185Y4040842D01*
X35731739Y4008248D01*
X35678545Y4003009D01*
X35647994Y4000000D01*
X34492006Y4000000D01*
X34461455Y4003009D01*
X34408261Y4008248D01*
X34300815Y4040842D01*
X34201793Y4093770D01*
X34115000Y4165000D01*
X34043770Y4251793D01*
X33990842Y4350815D01*
X33958248Y4458261D01*
X33947243Y4570000D01*
X33958248Y4681739D01*
X33990842Y4789185D01*
X34043770Y4888207D01*
X34115000Y4975000D01*
X34201793Y5046230D01*
X34250494Y5072261D01*
X34270869Y5085875D01*
X34288196Y5103202D01*
X34301810Y5123576D01*
X34311187Y5146215D01*
X34315968Y5170248D01*
X34315968Y5194752D01*
X34311188Y5218786D01*
X34301811Y5241424D01*
X34288197Y5261799D01*
X34270870Y5279126D01*
X34250496Y5292740D01*
X34227857Y5302117D01*
X34203824Y5306898D01*
X34191571Y5307500D01*
X33360000Y5307500D01*
X33360000Y12472500D01*
X34191571Y12472500D01*
X34215957Y12474902D01*
X34239406Y12482015D01*
X34261017Y12493566D01*
X34279959Y12509111D01*
X34295504Y12528053D01*
X34307055Y12549664D01*
X34314168Y12573113D01*
X34316570Y12597499D01*
X34314168Y12621885D01*
X34307055Y12645334D01*
X34295504Y12666945D01*
X34279959Y12685887D01*
X34261017Y12701432D01*
X34250494Y12707739D01*
X34201795Y12733769D01*
X34201793Y12733770D01*
X34115000Y12805000D01*
X34043770Y12891793D01*
X33990842Y12990815D01*
X33958248Y13098261D01*
X33947243Y13210000D01*
X33958248Y13321739D01*
X33990842Y13429185D01*
X34043770Y13528207D01*
X34115000Y13615000D01*
X34201793Y13686230D01*
X34300815Y13739158D01*
X34408261Y13771752D01*
X34464092Y13777251D01*
X34492006Y13780000D01*
X35647994Y13780000D01*
X35675908Y13777251D01*
G37*
G36*
X39605908Y5137251D02*
G01*
X39661739Y5131752D01*
X39769185Y5099158D01*
X39868207Y5046230D01*
X39955000Y4975000D01*
X40026230Y4888207D01*
X40079158Y4789185D01*
X40111752Y4681739D01*
X40122757Y4570000D01*
X40111752Y4458261D01*
X40079158Y4350815D01*
X40026230Y4251793D01*
X39955000Y4165000D01*
X39868207Y4093770D01*
X39769185Y4040842D01*
X39661739Y4008248D01*
X39608545Y4003009D01*
X39577994Y4000000D01*
X38922006Y4000000D01*
X38891455Y4003009D01*
X38838261Y4008248D01*
X38730815Y4040842D01*
X38631793Y4093770D01*
X38545000Y4165000D01*
X38473770Y4251793D01*
X38420842Y4350815D01*
X38388248Y4458261D01*
X38377243Y4570000D01*
X38388248Y4681739D01*
X38420842Y4789185D01*
X38473770Y4888207D01*
X38545000Y4975000D01*
X38631793Y5046230D01*
X38730815Y5099158D01*
X38838261Y5131752D01*
X38894092Y5137251D01*
X38922006Y5140000D01*
X39577994Y5140000D01*
X39605908Y5137251D01*
G37*
G36*
X27920000Y4620000D02*
G01*
X26580000Y4620000D01*
X26580000Y5660000D01*
X27920000Y5660000D01*
X27920000Y4620000D01*
G37*
G36*
X31920000Y4620000D02*
G01*
X30580000Y4620000D01*
X30580000Y5660000D01*
X31920000Y5660000D01*
X31920000Y4620000D01*
G37*
G36*
X11240941Y5880732D02*
G01*
X11276710Y5869882D01*
X11309666Y5852266D01*
X11338557Y5828557D01*
X11362266Y5799666D01*
X11379882Y5766710D01*
X11390732Y5730941D01*
X11395000Y5687609D01*
X11395000Y5067391D01*
X11390732Y5024059D01*
X11379882Y4988290D01*
X11362266Y4955334D01*
X11338557Y4926443D01*
X11309666Y4902734D01*
X11276710Y4885118D01*
X11240941Y4874268D01*
X11197609Y4870000D01*
X10502391Y4870000D01*
X10459059Y4874268D01*
X10423290Y4885118D01*
X10390334Y4902734D01*
X10361443Y4926443D01*
X10337734Y4955334D01*
X10320118Y4988290D01*
X10309268Y5024059D01*
X10305000Y5067391D01*
X10305000Y5687609D01*
X10309268Y5730941D01*
X10320118Y5766710D01*
X10337734Y5799666D01*
X10361443Y5828557D01*
X10390334Y5852266D01*
X10423290Y5869882D01*
X10459059Y5880732D01*
X10502391Y5885000D01*
X11197609Y5885000D01*
X11240941Y5880732D01*
G37*
G36*
X9440941Y5880732D02*
G01*
X9476710Y5869882D01*
X9509666Y5852266D01*
X9538557Y5828557D01*
X9562266Y5799666D01*
X9579882Y5766710D01*
X9590732Y5730941D01*
X9595000Y5687609D01*
X9595000Y5067391D01*
X9590732Y5024059D01*
X9579882Y4988290D01*
X9562266Y4955334D01*
X9538557Y4926443D01*
X9509666Y4902734D01*
X9476710Y4885118D01*
X9440941Y4874268D01*
X9397609Y4870000D01*
X8702391Y4870000D01*
X8659059Y4874268D01*
X8623290Y4885118D01*
X8590334Y4902734D01*
X8561443Y4926443D01*
X8537734Y4955334D01*
X8520118Y4988290D01*
X8509268Y5024059D01*
X8505000Y5067391D01*
X8505000Y5687609D01*
X8509268Y5730941D01*
X8520118Y5766710D01*
X8537734Y5799666D01*
X8561443Y5828557D01*
X8590334Y5852266D01*
X8623290Y5869882D01*
X8659059Y5880732D01*
X8702391Y5885000D01*
X9397609Y5885000D01*
X9440941Y5880732D01*
G37*
G36*
X14840941Y5880732D02*
G01*
X14876710Y5869882D01*
X14909666Y5852266D01*
X14938557Y5828557D01*
X14962266Y5799666D01*
X14979882Y5766710D01*
X14990732Y5730941D01*
X14995000Y5687609D01*
X14995000Y5067391D01*
X14990732Y5024059D01*
X14979882Y4988290D01*
X14962266Y4955334D01*
X14938557Y4926443D01*
X14909666Y4902734D01*
X14876710Y4885118D01*
X14840941Y4874268D01*
X14797609Y4870000D01*
X14102391Y4870000D01*
X14059059Y4874268D01*
X14023290Y4885118D01*
X13990334Y4902734D01*
X13961443Y4926443D01*
X13937734Y4955334D01*
X13920118Y4988290D01*
X13909268Y5024059D01*
X13905000Y5067391D01*
X13905000Y5687609D01*
X13909268Y5730941D01*
X13920118Y5766710D01*
X13937734Y5799666D01*
X13961443Y5828557D01*
X13990334Y5852266D01*
X14023290Y5869882D01*
X14059059Y5880732D01*
X14102391Y5885000D01*
X14797609Y5885000D01*
X14840941Y5880732D01*
G37*
G36*
X13040941Y5880732D02*
G01*
X13076710Y5869882D01*
X13109666Y5852266D01*
X13138557Y5828557D01*
X13162266Y5799666D01*
X13179882Y5766710D01*
X13190732Y5730941D01*
X13195000Y5687609D01*
X13195000Y5067391D01*
X13190732Y5024059D01*
X13179882Y4988290D01*
X13162266Y4955334D01*
X13138557Y4926443D01*
X13109666Y4902734D01*
X13076710Y4885118D01*
X13040941Y4874268D01*
X12997609Y4870000D01*
X12302391Y4870000D01*
X12259059Y4874268D01*
X12223290Y4885118D01*
X12190334Y4902734D01*
X12161443Y4926443D01*
X12137734Y4955334D01*
X12120118Y4988290D01*
X12109268Y5024059D01*
X12105000Y5067391D01*
X12105000Y5687609D01*
X12109268Y5730941D01*
X12120118Y5766710D01*
X12137734Y5799666D01*
X12161443Y5828557D01*
X12190334Y5852266D01*
X12223290Y5869882D01*
X12259059Y5880732D01*
X12302391Y5885000D01*
X12997609Y5885000D01*
X13040941Y5880732D01*
G37*
G36*
X16640941Y5880732D02*
G01*
X16676710Y5869882D01*
X16709666Y5852266D01*
X16738557Y5828557D01*
X16762266Y5799666D01*
X16779882Y5766710D01*
X16790732Y5730941D01*
X16795000Y5687609D01*
X16795000Y5067391D01*
X16790732Y5024059D01*
X16779882Y4988290D01*
X16762266Y4955334D01*
X16738557Y4926443D01*
X16709666Y4902734D01*
X16676710Y4885118D01*
X16640941Y4874268D01*
X16597609Y4870000D01*
X15902391Y4870000D01*
X15859059Y4874268D01*
X15823290Y4885118D01*
X15790334Y4902734D01*
X15761443Y4926443D01*
X15737734Y4955334D01*
X15720118Y4988290D01*
X15709268Y5024059D01*
X15705000Y5067391D01*
X15705000Y5687609D01*
X15709268Y5730941D01*
X15720118Y5766710D01*
X15737734Y5799666D01*
X15761443Y5828557D01*
X15790334Y5852266D01*
X15823290Y5869882D01*
X15859059Y5880732D01*
X15902391Y5885000D01*
X16597609Y5885000D01*
X16640941Y5880732D01*
G37*
G36*
X20316708Y12833735D02*
G01*
X20323162Y12831777D01*
X20338714Y12823464D01*
X20341084Y12821881D01*
X20363723Y12812505D01*
X20387757Y12807726D01*
X20412261Y12807728D01*
X20436294Y12812510D01*
X20458932Y12821889D01*
X20461304Y12823474D01*
X20476838Y12831777D01*
X20483292Y12833735D01*
X20496138Y12835000D01*
X20803862Y12835000D01*
X20816708Y12833735D01*
X20823162Y12831777D01*
X20838714Y12823464D01*
X20841084Y12821881D01*
X20863723Y12812505D01*
X20887757Y12807726D01*
X20912261Y12807728D01*
X20936294Y12812510D01*
X20958932Y12821889D01*
X20961304Y12823474D01*
X20976838Y12831777D01*
X20983292Y12833735D01*
X20996138Y12835000D01*
X21303862Y12835000D01*
X21316708Y12833735D01*
X21323162Y12831777D01*
X21338714Y12823464D01*
X21341084Y12821881D01*
X21363723Y12812505D01*
X21387757Y12807726D01*
X21412261Y12807728D01*
X21436294Y12812510D01*
X21458932Y12821889D01*
X21461304Y12823474D01*
X21476838Y12831777D01*
X21483292Y12833735D01*
X21496138Y12835000D01*
X21803862Y12835000D01*
X21816708Y12833735D01*
X21823162Y12831777D01*
X21838714Y12823464D01*
X21841084Y12821881D01*
X21863723Y12812505D01*
X21887757Y12807726D01*
X21912261Y12807728D01*
X21936294Y12812510D01*
X21958932Y12821889D01*
X21961304Y12823474D01*
X21976838Y12831777D01*
X21983292Y12833735D01*
X21996138Y12835000D01*
X22303862Y12835000D01*
X22316708Y12833735D01*
X22323162Y12831777D01*
X22338714Y12823464D01*
X22341084Y12821881D01*
X22363723Y12812505D01*
X22387757Y12807726D01*
X22412261Y12807728D01*
X22436294Y12812510D01*
X22458932Y12821889D01*
X22461304Y12823474D01*
X22476838Y12831777D01*
X22483292Y12833735D01*
X22496138Y12835000D01*
X22803862Y12835000D01*
X22816708Y12833735D01*
X22823162Y12831777D01*
X22838714Y12823464D01*
X22841084Y12821881D01*
X22863723Y12812505D01*
X22887757Y12807726D01*
X22912261Y12807728D01*
X22936294Y12812510D01*
X22958932Y12821889D01*
X22961304Y12823474D01*
X22976838Y12831777D01*
X22983292Y12833735D01*
X22996138Y12835000D01*
X23303862Y12835000D01*
X23316708Y12833735D01*
X23323162Y12831777D01*
X23338714Y12823464D01*
X23341084Y12821881D01*
X23363723Y12812505D01*
X23387757Y12807726D01*
X23412261Y12807728D01*
X23436294Y12812510D01*
X23458932Y12821889D01*
X23461304Y12823474D01*
X23476838Y12831777D01*
X23483292Y12833735D01*
X23496138Y12835000D01*
X23803862Y12835000D01*
X23816708Y12833735D01*
X23823162Y12831777D01*
X23838714Y12823464D01*
X23841084Y12821881D01*
X23863723Y12812505D01*
X23887757Y12807726D01*
X23912261Y12807728D01*
X23936294Y12812510D01*
X23958932Y12821889D01*
X23961304Y12823474D01*
X23976838Y12831777D01*
X23983292Y12833735D01*
X23996138Y12835000D01*
X24303862Y12835000D01*
X24316708Y12833735D01*
X24323162Y12831777D01*
X24338714Y12823464D01*
X24341084Y12821881D01*
X24363723Y12812505D01*
X24387757Y12807726D01*
X24412261Y12807728D01*
X24436294Y12812510D01*
X24458932Y12821889D01*
X24461304Y12823474D01*
X24476838Y12831777D01*
X24483292Y12833735D01*
X24496138Y12835000D01*
X24803862Y12835000D01*
X24816708Y12833735D01*
X24823162Y12831777D01*
X24838714Y12823464D01*
X24841084Y12821881D01*
X24863723Y12812505D01*
X24887757Y12807726D01*
X24912261Y12807728D01*
X24936294Y12812510D01*
X24958932Y12821889D01*
X24961304Y12823474D01*
X24976838Y12831777D01*
X24983292Y12833735D01*
X24996138Y12835000D01*
X25303862Y12835000D01*
X25316708Y12833735D01*
X25323162Y12831777D01*
X25329110Y12828598D01*
X25334321Y12824321D01*
X25338598Y12819110D01*
X25341777Y12813162D01*
X25343735Y12806708D01*
X25345000Y12793862D01*
X25345000Y11709999D01*
X25347402Y11685613D01*
X25354515Y11662164D01*
X25366066Y11640553D01*
X25381611Y11621611D01*
X25400553Y11606066D01*
X25422164Y11594515D01*
X25445613Y11587402D01*
X25469999Y11585000D01*
X26553862Y11585000D01*
X26566708Y11583735D01*
X26573162Y11581777D01*
X26579110Y11578598D01*
X26584321Y11574321D01*
X26588598Y11569110D01*
X26591777Y11563162D01*
X26593735Y11556708D01*
X26595000Y11543862D01*
X26595000Y11236138D01*
X26593735Y11223292D01*
X26591777Y11216838D01*
X26583464Y11201286D01*
X26581881Y11198916D01*
X26572505Y11176277D01*
X26567726Y11152243D01*
X26567728Y11127739D01*
X26572510Y11103706D01*
X26581889Y11081068D01*
X26583474Y11078696D01*
X26591777Y11063162D01*
X26593735Y11056708D01*
X26595000Y11043862D01*
X26595000Y10736138D01*
X26593735Y10723292D01*
X26591777Y10716838D01*
X26583464Y10701286D01*
X26581881Y10698916D01*
X26572505Y10676277D01*
X26567726Y10652243D01*
X26567728Y10627739D01*
X26572510Y10603706D01*
X26581889Y10581068D01*
X26583474Y10578696D01*
X26591777Y10563162D01*
X26593735Y10556708D01*
X26595000Y10543862D01*
X26595000Y10236138D01*
X26593735Y10223292D01*
X26591777Y10216838D01*
X26583464Y10201286D01*
X26581881Y10198916D01*
X26572505Y10176277D01*
X26567726Y10152243D01*
X26567728Y10127739D01*
X26572510Y10103706D01*
X26581889Y10081068D01*
X26583474Y10078696D01*
X26591777Y10063162D01*
X26593735Y10056708D01*
X26595000Y10043862D01*
X26595000Y9736138D01*
X26593735Y9723292D01*
X26591777Y9716838D01*
X26583464Y9701286D01*
X26581881Y9698916D01*
X26572505Y9676277D01*
X26567726Y9652243D01*
X26567728Y9627739D01*
X26572510Y9603706D01*
X26581889Y9581068D01*
X26583474Y9578696D01*
X26591777Y9563162D01*
X26593735Y9556708D01*
X26595000Y9543862D01*
X26595000Y9236138D01*
X26593735Y9223292D01*
X26591777Y9216838D01*
X26583464Y9201286D01*
X26581881Y9198916D01*
X26572505Y9176277D01*
X26567726Y9152243D01*
X26567728Y9127739D01*
X26572510Y9103706D01*
X26581889Y9081068D01*
X26583474Y9078696D01*
X26591777Y9063162D01*
X26593735Y9056708D01*
X26595000Y9043862D01*
X26595000Y8736138D01*
X26593735Y8723292D01*
X26591777Y8716838D01*
X26583464Y8701286D01*
X26581881Y8698916D01*
X26572505Y8676277D01*
X26567726Y8652243D01*
X26567728Y8627739D01*
X26572510Y8603706D01*
X26581889Y8581068D01*
X26583474Y8578696D01*
X26591777Y8563162D01*
X26593735Y8556708D01*
X26595000Y8543862D01*
X26595000Y8236138D01*
X26593735Y8223292D01*
X26591777Y8216838D01*
X26583464Y8201286D01*
X26581881Y8198916D01*
X26572505Y8176277D01*
X26567726Y8152243D01*
X26567728Y8127739D01*
X26572510Y8103706D01*
X26581889Y8081068D01*
X26583474Y8078696D01*
X26591777Y8063162D01*
X26593735Y8056708D01*
X26595000Y8043862D01*
X26595000Y7736138D01*
X26593735Y7723292D01*
X26591777Y7716838D01*
X26583464Y7701286D01*
X26581881Y7698916D01*
X26572505Y7676277D01*
X26567726Y7652243D01*
X26567728Y7627739D01*
X26572510Y7603706D01*
X26581889Y7581068D01*
X26583474Y7578696D01*
X26591777Y7563162D01*
X26593735Y7556708D01*
X26595000Y7543862D01*
X26595000Y7236138D01*
X26593735Y7223292D01*
X26591777Y7216838D01*
X26583464Y7201286D01*
X26581881Y7198916D01*
X26572505Y7176277D01*
X26567726Y7152243D01*
X26567728Y7127739D01*
X26572510Y7103706D01*
X26581889Y7081068D01*
X26583474Y7078696D01*
X26591777Y7063162D01*
X26593735Y7056708D01*
X26595000Y7043862D01*
X26595000Y6736138D01*
X26593735Y6723292D01*
X26591777Y6716838D01*
X26583464Y6701286D01*
X26581881Y6698916D01*
X26572505Y6676277D01*
X26567726Y6652243D01*
X26567728Y6627739D01*
X26572510Y6603706D01*
X26581889Y6581068D01*
X26583474Y6578696D01*
X26591777Y6563162D01*
X26593735Y6556708D01*
X26595000Y6543862D01*
X26595000Y6236138D01*
X26593735Y6223292D01*
X26591777Y6216838D01*
X26588598Y6210890D01*
X26584321Y6205679D01*
X26579110Y6201402D01*
X26573162Y6198223D01*
X26566708Y6196265D01*
X26553862Y6195000D01*
X25469999Y6195000D01*
X25445613Y6192598D01*
X25422164Y6185485D01*
X25400553Y6173934D01*
X25381611Y6158389D01*
X25366066Y6139447D01*
X25354515Y6117836D01*
X25347402Y6094387D01*
X25345000Y6070001D01*
X25345000Y4986138D01*
X25343735Y4973292D01*
X25341777Y4966838D01*
X25338598Y4960890D01*
X25334321Y4955679D01*
X25329110Y4951402D01*
X25323162Y4948223D01*
X25316708Y4946265D01*
X25303862Y4945000D01*
X24996138Y4945000D01*
X24983292Y4946265D01*
X24976838Y4948223D01*
X24961286Y4956536D01*
X24958916Y4958119D01*
X24936277Y4967495D01*
X24912243Y4972274D01*
X24887739Y4972272D01*
X24863706Y4967490D01*
X24841068Y4958111D01*
X24838696Y4956526D01*
X24823162Y4948223D01*
X24816708Y4946265D01*
X24803862Y4945000D01*
X24496138Y4945000D01*
X24483292Y4946265D01*
X24476838Y4948223D01*
X24461286Y4956536D01*
X24458916Y4958119D01*
X24436277Y4967495D01*
X24412243Y4972274D01*
X24387739Y4972272D01*
X24363706Y4967490D01*
X24341068Y4958111D01*
X24338696Y4956526D01*
X24323162Y4948223D01*
X24316708Y4946265D01*
X24303862Y4945000D01*
X23996138Y4945000D01*
X23983292Y4946265D01*
X23976838Y4948223D01*
X23961286Y4956536D01*
X23958916Y4958119D01*
X23936277Y4967495D01*
X23912243Y4972274D01*
X23887739Y4972272D01*
X23863706Y4967490D01*
X23841068Y4958111D01*
X23838696Y4956526D01*
X23823162Y4948223D01*
X23816708Y4946265D01*
X23803862Y4945000D01*
X23496138Y4945000D01*
X23483292Y4946265D01*
X23476838Y4948223D01*
X23461286Y4956536D01*
X23458916Y4958119D01*
X23436277Y4967495D01*
X23412243Y4972274D01*
X23387739Y4972272D01*
X23363706Y4967490D01*
X23341068Y4958111D01*
X23338696Y4956526D01*
X23323162Y4948223D01*
X23316708Y4946265D01*
X23303862Y4945000D01*
X22996138Y4945000D01*
X22983292Y4946265D01*
X22976838Y4948223D01*
X22961286Y4956536D01*
X22958916Y4958119D01*
X22936277Y4967495D01*
X22912243Y4972274D01*
X22887739Y4972272D01*
X22863706Y4967490D01*
X22841068Y4958111D01*
X22838696Y4956526D01*
X22823162Y4948223D01*
X22816708Y4946265D01*
X22803862Y4945000D01*
X22496138Y4945000D01*
X22483292Y4946265D01*
X22476838Y4948223D01*
X22461286Y4956536D01*
X22458916Y4958119D01*
X22436277Y4967495D01*
X22412243Y4972274D01*
X22387739Y4972272D01*
X22363706Y4967490D01*
X22341068Y4958111D01*
X22338696Y4956526D01*
X22323162Y4948223D01*
X22316708Y4946265D01*
X22303862Y4945000D01*
X21996138Y4945000D01*
X21983292Y4946265D01*
X21976838Y4948223D01*
X21961286Y4956536D01*
X21958916Y4958119D01*
X21936277Y4967495D01*
X21912243Y4972274D01*
X21887739Y4972272D01*
X21863706Y4967490D01*
X21841068Y4958111D01*
X21838696Y4956526D01*
X21823162Y4948223D01*
X21816708Y4946265D01*
X21803862Y4945000D01*
X21496138Y4945000D01*
X21483292Y4946265D01*
X21476838Y4948223D01*
X21461286Y4956536D01*
X21458916Y4958119D01*
X21436277Y4967495D01*
X21412243Y4972274D01*
X21387739Y4972272D01*
X21363706Y4967490D01*
X21341068Y4958111D01*
X21338696Y4956526D01*
X21323162Y4948223D01*
X21316708Y4946265D01*
X21303862Y4945000D01*
X20996138Y4945000D01*
X20983292Y4946265D01*
X20976838Y4948223D01*
X20961286Y4956536D01*
X20958916Y4958119D01*
X20936277Y4967495D01*
X20912243Y4972274D01*
X20887739Y4972272D01*
X20863706Y4967490D01*
X20841068Y4958111D01*
X20838696Y4956526D01*
X20823162Y4948223D01*
X20816708Y4946265D01*
X20803862Y4945000D01*
X20496138Y4945000D01*
X20483292Y4946265D01*
X20476838Y4948223D01*
X20461286Y4956536D01*
X20458916Y4958119D01*
X20436277Y4967495D01*
X20412243Y4972274D01*
X20387739Y4972272D01*
X20363706Y4967490D01*
X20341068Y4958111D01*
X20338696Y4956526D01*
X20323162Y4948223D01*
X20316708Y4946265D01*
X20303862Y4945000D01*
X19996138Y4945000D01*
X19983292Y4946265D01*
X19976838Y4948223D01*
X19970890Y4951402D01*
X19965679Y4955679D01*
X19961402Y4960890D01*
X19958223Y4966838D01*
X19956265Y4973292D01*
X19955000Y4986138D01*
X19955000Y6070001D01*
X19952598Y6094387D01*
X19945485Y6117836D01*
X19933934Y6139447D01*
X19918389Y6158389D01*
X19899447Y6173934D01*
X19877836Y6185485D01*
X19854387Y6192598D01*
X19830001Y6195000D01*
X18746138Y6195000D01*
X18733292Y6196265D01*
X18726838Y6198223D01*
X18720890Y6201402D01*
X18715679Y6205679D01*
X18711402Y6210890D01*
X18708223Y6216838D01*
X18706265Y6223292D01*
X18705000Y6236138D01*
X18705000Y6543862D01*
X18706265Y6556708D01*
X18708223Y6563162D01*
X18716536Y6578714D01*
X18718119Y6581084D01*
X18727495Y6603723D01*
X18732274Y6627757D01*
X18732272Y6652261D01*
X18727490Y6676294D01*
X18718111Y6698932D01*
X18716526Y6701304D01*
X18708223Y6716838D01*
X18706265Y6723292D01*
X18705000Y6736138D01*
X18705000Y7043862D01*
X18706265Y7056708D01*
X18708223Y7063162D01*
X18716536Y7078714D01*
X18718119Y7081084D01*
X18727495Y7103723D01*
X18732274Y7127757D01*
X18732272Y7152261D01*
X18727490Y7176294D01*
X18718111Y7198932D01*
X18716526Y7201304D01*
X18708223Y7216838D01*
X18706265Y7223292D01*
X18705000Y7236138D01*
X18705000Y7543862D01*
X18706265Y7556708D01*
X18708223Y7563162D01*
X18716536Y7578714D01*
X18718119Y7581084D01*
X18727495Y7603723D01*
X18732274Y7627757D01*
X18732272Y7652261D01*
X18727490Y7676294D01*
X18718111Y7698932D01*
X18716526Y7701304D01*
X18708223Y7716838D01*
X18706265Y7723292D01*
X18705000Y7736138D01*
X18705000Y8043862D01*
X18706265Y8056708D01*
X18708223Y8063162D01*
X18716536Y8078714D01*
X18718119Y8081084D01*
X18727495Y8103723D01*
X18732274Y8127757D01*
X18732272Y8152261D01*
X18727490Y8176294D01*
X18718111Y8198932D01*
X18716526Y8201304D01*
X18708223Y8216838D01*
X18706265Y8223292D01*
X18705000Y8236138D01*
X18705000Y8543862D01*
X18706265Y8556708D01*
X18708223Y8563162D01*
X18716536Y8578714D01*
X18718119Y8581084D01*
X18727495Y8603723D01*
X18732274Y8627757D01*
X18732272Y8652261D01*
X18727490Y8676294D01*
X18718111Y8698932D01*
X18716526Y8701304D01*
X18708223Y8716838D01*
X18706265Y8723292D01*
X18705000Y8736138D01*
X18705000Y9043862D01*
X18706265Y9056708D01*
X18708223Y9063162D01*
X18716536Y9078714D01*
X18718119Y9081084D01*
X18727495Y9103723D01*
X18732274Y9127757D01*
X18732272Y9152261D01*
X18727490Y9176294D01*
X18718111Y9198932D01*
X18716526Y9201304D01*
X18708223Y9216838D01*
X18706265Y9223292D01*
X18705000Y9236138D01*
X18705000Y9543862D01*
X18706265Y9556708D01*
X18708223Y9563162D01*
X18716536Y9578714D01*
X18718119Y9581084D01*
X18727495Y9603723D01*
X18732274Y9627757D01*
X18732272Y9652261D01*
X18727490Y9676294D01*
X18718111Y9698932D01*
X18716526Y9701304D01*
X18708223Y9716838D01*
X18706265Y9723292D01*
X18705000Y9736138D01*
X18705000Y10043862D01*
X18706265Y10056708D01*
X18708223Y10063162D01*
X18716536Y10078714D01*
X18718119Y10081084D01*
X18727495Y10103723D01*
X18732274Y10127757D01*
X18732272Y10152261D01*
X18727490Y10176294D01*
X18718111Y10198932D01*
X18716526Y10201304D01*
X18708223Y10216838D01*
X18706265Y10223292D01*
X18705000Y10236138D01*
X18705000Y10543862D01*
X18706265Y10556708D01*
X18708223Y10563162D01*
X18716536Y10578714D01*
X18718119Y10581084D01*
X18727495Y10603723D01*
X18732274Y10627757D01*
X18732272Y10652261D01*
X18727490Y10676294D01*
X18718111Y10698932D01*
X18716526Y10701304D01*
X18708223Y10716838D01*
X18706265Y10723292D01*
X18705000Y10736138D01*
X18705000Y11043862D01*
X18706265Y11056708D01*
X18708223Y11063162D01*
X18716536Y11078714D01*
X18718119Y11081084D01*
X18727495Y11103723D01*
X18732274Y11127757D01*
X18732272Y11152261D01*
X18727490Y11176294D01*
X18718111Y11198932D01*
X18716526Y11201304D01*
X18708223Y11216838D01*
X18706265Y11223292D01*
X18705000Y11236138D01*
X18705000Y11543862D01*
X18706265Y11556708D01*
X18708223Y11563162D01*
X18711402Y11569110D01*
X18715679Y11574321D01*
X18720890Y11578598D01*
X18726838Y11581777D01*
X18733292Y11583735D01*
X18746138Y11585000D01*
X19830001Y11585000D01*
X19854387Y11587402D01*
X19877836Y11594515D01*
X19899447Y11606066D01*
X19918389Y11621611D01*
X19933934Y11640553D01*
X19945485Y11662164D01*
X19952598Y11685613D01*
X19955000Y11709999D01*
X19955000Y12793862D01*
X19956265Y12806708D01*
X19958223Y12813162D01*
X19961402Y12819110D01*
X19965679Y12824321D01*
X19970890Y12828598D01*
X19976838Y12831777D01*
X19983292Y12833735D01*
X19996138Y12835000D01*
X20303862Y12835000D01*
X20316708Y12833735D01*
G37*
G36*
X35715216Y6379821D02*
G01*
X35787104Y6350044D01*
X35851795Y6306819D01*
X35906819Y6251795D01*
X35950044Y6187104D01*
X35979821Y6115216D01*
X35995000Y6038905D01*
X35995000Y5961095D01*
X35979821Y5884784D01*
X35950044Y5812896D01*
X35906819Y5748205D01*
X35851795Y5693181D01*
X35787104Y5649956D01*
X35715216Y5620179D01*
X35638905Y5605000D01*
X35561095Y5605000D01*
X35484784Y5620179D01*
X35412896Y5649956D01*
X35348205Y5693181D01*
X35293181Y5748205D01*
X35249956Y5812896D01*
X35220179Y5884784D01*
X35205000Y5961095D01*
X35205000Y6038905D01*
X35220179Y6115216D01*
X35249956Y6187104D01*
X35293181Y6251795D01*
X35348205Y6306819D01*
X35412896Y6350044D01*
X35484784Y6379821D01*
X35561095Y6395000D01*
X35638905Y6395000D01*
X35715216Y6379821D01*
G37*
G36*
X3797765Y8385597D02*
G01*
X3920445Y8361195D01*
X4151571Y8265459D01*
X4254217Y8196873D01*
X4359577Y8126474D01*
X4536474Y7949577D01*
X4596327Y7860000D01*
X4672500Y7746000D01*
X4675460Y7741569D01*
X4683806Y7721419D01*
X4771195Y7510445D01*
X4795598Y7387764D01*
X4819376Y7268224D01*
X4820000Y7265084D01*
X4820000Y7014916D01*
X4771195Y6769555D01*
X4712460Y6627757D01*
X4677710Y6543862D01*
X4675459Y6538429D01*
X4641429Y6487500D01*
X4536474Y6330423D01*
X4359577Y6153526D01*
X4338506Y6139447D01*
X4151571Y6014541D01*
X3920445Y5918805D01*
X3797764Y5894402D01*
X3675085Y5870000D01*
X3424915Y5870000D01*
X3302236Y5894402D01*
X3179555Y5918805D01*
X2948429Y6014541D01*
X2761494Y6139447D01*
X2740423Y6153526D01*
X2563526Y6330423D01*
X2458571Y6487500D01*
X2424541Y6538429D01*
X2422291Y6543862D01*
X2387540Y6627757D01*
X2328805Y6769555D01*
X2280000Y7014916D01*
X2280000Y7265084D01*
X2280625Y7268224D01*
X2304403Y7387765D01*
X2328805Y7510445D01*
X2416194Y7721419D01*
X2424540Y7741569D01*
X2427501Y7746000D01*
X2503673Y7860000D01*
X2563526Y7949577D01*
X2740423Y8126474D01*
X2845783Y8196873D01*
X2948429Y8265459D01*
X3179555Y8361195D01*
X3302235Y8385597D01*
X3424915Y8410000D01*
X3675085Y8410000D01*
X3797765Y8385597D01*
G37*
G36*
X30019987Y7309987D02*
G01*
X30020000Y7309857D01*
X30020000Y6270143D01*
X30019987Y6270013D01*
X30019857Y6270000D01*
X29080143Y6270000D01*
X29080013Y6270013D01*
X29080000Y6270143D01*
X29080000Y7309857D01*
X29080013Y7309987D01*
X29080143Y7310000D01*
X30019857Y7310000D01*
X30019987Y7309987D01*
G37*
G36*
X31619987Y7309987D02*
G01*
X31620000Y7309857D01*
X31620000Y6270143D01*
X31619987Y6270013D01*
X31619857Y6270000D01*
X30680143Y6270000D01*
X30680013Y6270013D01*
X30680000Y6270143D01*
X30680000Y7309857D01*
X30680013Y7309987D01*
X30680143Y7310000D01*
X31619857Y7310000D01*
X31619987Y7309987D01*
G37*
G36*
X28638891Y8458667D02*
G01*
X28646004Y8456509D01*
X28652552Y8453009D01*
X28658296Y8448296D01*
X28663009Y8442552D01*
X28666509Y8436004D01*
X28668667Y8428891D01*
X28670000Y8415357D01*
X28670000Y7664643D01*
X28668667Y7651109D01*
X28666509Y7643996D01*
X28663009Y7637448D01*
X28658296Y7631704D01*
X28652552Y7626991D01*
X28646004Y7623491D01*
X28638891Y7621333D01*
X28625357Y7620000D01*
X27674643Y7620000D01*
X27661109Y7621333D01*
X27653996Y7623491D01*
X27647448Y7626991D01*
X27641704Y7631704D01*
X27636991Y7637448D01*
X27633491Y7643996D01*
X27631333Y7651109D01*
X27630000Y7664643D01*
X27630000Y8415357D01*
X27631333Y8428891D01*
X27633491Y8436004D01*
X27636991Y8442552D01*
X27641704Y8448296D01*
X27647448Y8453009D01*
X27653996Y8456509D01*
X27661109Y8458667D01*
X27674643Y8460000D01*
X28625357Y8460000D01*
X28638891Y8458667D01*
G37*
G36*
X30019987Y8809987D02*
G01*
X30020000Y8809857D01*
X30020000Y7770143D01*
X30019987Y7770013D01*
X30019857Y7770000D01*
X29080143Y7770000D01*
X29080013Y7770013D01*
X29080000Y7770143D01*
X29080000Y8809857D01*
X29080013Y8809987D01*
X29080143Y8810000D01*
X30019857Y8810000D01*
X30019987Y8809987D01*
G37*
G36*
X31619987Y8809987D02*
G01*
X31620000Y8809857D01*
X31620000Y7770143D01*
X31619987Y7770013D01*
X31619857Y7770000D01*
X30680143Y7770000D01*
X30680013Y7770013D01*
X30680000Y7770143D01*
X30680000Y8809857D01*
X30680013Y8809987D01*
X30680143Y8810000D01*
X31619857Y8810000D01*
X31619987Y8809987D01*
G37*
G36*
X28638891Y9958667D02*
G01*
X28646004Y9956509D01*
X28652552Y9953009D01*
X28658296Y9948296D01*
X28663009Y9942552D01*
X28666509Y9936004D01*
X28668667Y9928891D01*
X28670000Y9915357D01*
X28670000Y9164643D01*
X28668667Y9151109D01*
X28666509Y9143996D01*
X28663009Y9137448D01*
X28658296Y9131704D01*
X28652552Y9126991D01*
X28646004Y9123491D01*
X28638891Y9121333D01*
X28625357Y9120000D01*
X27674643Y9120000D01*
X27661109Y9121333D01*
X27653996Y9123491D01*
X27647448Y9126991D01*
X27641704Y9131704D01*
X27636991Y9137448D01*
X27633491Y9143996D01*
X27631333Y9151109D01*
X27630000Y9164643D01*
X27630000Y9915357D01*
X27631333Y9928891D01*
X27633491Y9936004D01*
X27636991Y9942552D01*
X27641704Y9948296D01*
X27647448Y9953009D01*
X27653996Y9956509D01*
X27661109Y9958667D01*
X27674643Y9960000D01*
X28625357Y9960000D01*
X28638891Y9958667D01*
G37*
G36*
X4359067Y11898407D02*
G01*
X4466359Y11865860D01*
X4565227Y11813014D01*
X4651891Y11741891D01*
X4723014Y11655227D01*
X4775860Y11556359D01*
X4808407Y11449067D01*
X4820000Y11331360D01*
X4820000Y9948640D01*
X4808407Y9830933D01*
X4775860Y9723641D01*
X4723014Y9624773D01*
X4651891Y9538109D01*
X4565227Y9466986D01*
X4466359Y9414140D01*
X4359067Y9381593D01*
X4241360Y9370000D01*
X2858640Y9370000D01*
X2740933Y9381593D01*
X2633641Y9414140D01*
X2534773Y9466986D01*
X2448109Y9538109D01*
X2376986Y9624773D01*
X2324140Y9723641D01*
X2291593Y9830933D01*
X2280000Y9948640D01*
X2280000Y11331360D01*
X2291593Y11449067D01*
X2324140Y11556359D01*
X2376986Y11655227D01*
X2448109Y11741891D01*
X2534773Y11813014D01*
X2633641Y11865860D01*
X2740933Y11898407D01*
X2858640Y11910000D01*
X4241360Y11910000D01*
X4359067Y11898407D01*
G37*
G36*
X11240941Y10405732D02*
G01*
X11276710Y10394882D01*
X11309666Y10377266D01*
X11338557Y10353557D01*
X11362266Y10324666D01*
X11379882Y10291710D01*
X11390732Y10255941D01*
X11395000Y10212609D01*
X11395000Y9592391D01*
X11390732Y9549059D01*
X11379882Y9513290D01*
X11362266Y9480334D01*
X11338557Y9451443D01*
X11309666Y9427734D01*
X11276710Y9410118D01*
X11240941Y9399268D01*
X11197609Y9395000D01*
X10502391Y9395000D01*
X10459059Y9399268D01*
X10423290Y9410118D01*
X10390334Y9427734D01*
X10361443Y9451443D01*
X10337734Y9480334D01*
X10320118Y9513290D01*
X10309268Y9549059D01*
X10305000Y9592391D01*
X10305000Y10212609D01*
X10309268Y10255941D01*
X10320118Y10291710D01*
X10337734Y10324666D01*
X10361443Y10353557D01*
X10390334Y10377266D01*
X10423290Y10394882D01*
X10459059Y10405732D01*
X10502391Y10410000D01*
X11197609Y10410000D01*
X11240941Y10405732D01*
G37*
G36*
X13040941Y10405732D02*
G01*
X13076710Y10394882D01*
X13109666Y10377266D01*
X13138557Y10353557D01*
X13162266Y10324666D01*
X13179882Y10291710D01*
X13190732Y10255941D01*
X13195000Y10212609D01*
X13195000Y9592391D01*
X13190732Y9549059D01*
X13179882Y9513290D01*
X13162266Y9480334D01*
X13138557Y9451443D01*
X13109666Y9427734D01*
X13076710Y9410118D01*
X13040941Y9399268D01*
X12997609Y9395000D01*
X12302391Y9395000D01*
X12259059Y9399268D01*
X12223290Y9410118D01*
X12190334Y9427734D01*
X12161443Y9451443D01*
X12137734Y9480334D01*
X12120118Y9513290D01*
X12109268Y9549059D01*
X12105000Y9592391D01*
X12105000Y10212609D01*
X12109268Y10255941D01*
X12120118Y10291710D01*
X12137734Y10324666D01*
X12161443Y10353557D01*
X12190334Y10377266D01*
X12223290Y10394882D01*
X12259059Y10405732D01*
X12302391Y10410000D01*
X12997609Y10410000D01*
X13040941Y10405732D01*
G37*
G36*
X9440941Y10405732D02*
G01*
X9476710Y10394882D01*
X9509666Y10377266D01*
X9538557Y10353557D01*
X9562266Y10324666D01*
X9579882Y10291710D01*
X9590732Y10255941D01*
X9595000Y10212609D01*
X9595000Y9592391D01*
X9590732Y9549059D01*
X9579882Y9513290D01*
X9562266Y9480334D01*
X9538557Y9451443D01*
X9509666Y9427734D01*
X9476710Y9410118D01*
X9440941Y9399268D01*
X9397609Y9395000D01*
X8702391Y9395000D01*
X8659059Y9399268D01*
X8623290Y9410118D01*
X8590334Y9427734D01*
X8561443Y9451443D01*
X8537734Y9480334D01*
X8520118Y9513290D01*
X8509268Y9549059D01*
X8505000Y9592391D01*
X8505000Y10212609D01*
X8509268Y10255941D01*
X8520118Y10291710D01*
X8537734Y10324666D01*
X8561443Y10353557D01*
X8590334Y10377266D01*
X8623290Y10394882D01*
X8659059Y10405732D01*
X8702391Y10410000D01*
X9397609Y10410000D01*
X9440941Y10405732D01*
G37*
G36*
X29728075Y10757812D02*
G01*
X29743533Y10753122D01*
X29757775Y10745510D01*
X29770261Y10735263D01*
X29778372Y10725380D01*
X29795699Y10708052D01*
X29816073Y10694438D01*
X29838712Y10685060D01*
X29862745Y10680279D01*
X29887249Y10680279D01*
X29911282Y10685059D01*
X29933921Y10694435D01*
X29954296Y10708048D01*
X29971628Y10725380D01*
X29979739Y10735263D01*
X29992225Y10745510D01*
X30006467Y10753122D01*
X30021925Y10757812D01*
X30044141Y10760000D01*
X30655859Y10760000D01*
X30678075Y10757812D01*
X30693533Y10753122D01*
X30707775Y10745510D01*
X30720261Y10735263D01*
X30728372Y10725380D01*
X30745699Y10708052D01*
X30766073Y10694438D01*
X30788712Y10685060D01*
X30812745Y10680279D01*
X30837249Y10680279D01*
X30861282Y10685059D01*
X30883921Y10694435D01*
X30904296Y10708048D01*
X30921628Y10725380D01*
X30929739Y10735263D01*
X30942225Y10745510D01*
X30956467Y10753122D01*
X30971925Y10757812D01*
X30994141Y10760000D01*
X31605859Y10760000D01*
X31628075Y10757812D01*
X31643533Y10753122D01*
X31657775Y10745510D01*
X31670262Y10735262D01*
X31680510Y10722775D01*
X31688122Y10708533D01*
X31692812Y10693075D01*
X31695000Y10670859D01*
X31695000Y9509141D01*
X31692812Y9486925D01*
X31688122Y9471467D01*
X31680510Y9457225D01*
X31670262Y9444738D01*
X31657775Y9434490D01*
X31643533Y9426878D01*
X31628075Y9422188D01*
X31605859Y9420000D01*
X30994141Y9420000D01*
X30971925Y9422188D01*
X30956467Y9426878D01*
X30942225Y9434490D01*
X30929739Y9444737D01*
X30921628Y9454620D01*
X30904301Y9471948D01*
X30883927Y9485562D01*
X30861288Y9494940D01*
X30837255Y9499721D01*
X30812751Y9499721D01*
X30788718Y9494941D01*
X30766079Y9485565D01*
X30745704Y9471952D01*
X30728372Y9454620D01*
X30720261Y9444737D01*
X30707775Y9434490D01*
X30693533Y9426878D01*
X30678075Y9422188D01*
X30655859Y9420000D01*
X30044141Y9420000D01*
X30021925Y9422188D01*
X30006467Y9426878D01*
X29992225Y9434490D01*
X29979739Y9444737D01*
X29971628Y9454620D01*
X29954301Y9471948D01*
X29933927Y9485562D01*
X29911288Y9494940D01*
X29887255Y9499721D01*
X29862751Y9499721D01*
X29838718Y9494941D01*
X29816079Y9485565D01*
X29795704Y9471952D01*
X29778372Y9454620D01*
X29770261Y9444737D01*
X29757775Y9434490D01*
X29743533Y9426878D01*
X29728075Y9422188D01*
X29705859Y9420000D01*
X29094141Y9420000D01*
X29071925Y9422188D01*
X29056467Y9426878D01*
X29042225Y9434490D01*
X29029738Y9444738D01*
X29019490Y9457225D01*
X29011878Y9471467D01*
X29007188Y9486925D01*
X29005000Y9509141D01*
X29005000Y10670859D01*
X29007188Y10693075D01*
X29011878Y10708533D01*
X29019490Y10722775D01*
X29029738Y10735262D01*
X29042225Y10745510D01*
X29056467Y10753122D01*
X29071925Y10757812D01*
X29094141Y10760000D01*
X29705859Y10760000D01*
X29728075Y10757812D01*
G37*
G36*
X17250565Y11158946D02*
G01*
X17254952Y11157615D01*
X17258996Y11155453D01*
X17262543Y11152543D01*
X17265453Y11148996D01*
X17267615Y11144952D01*
X17268946Y11140565D01*
X17270000Y11129860D01*
X17270000Y9650140D01*
X17268946Y9639435D01*
X17267615Y9635048D01*
X17265453Y9631004D01*
X17262543Y9627457D01*
X17258996Y9624547D01*
X17254952Y9622385D01*
X17250565Y9621054D01*
X17239860Y9620000D01*
X16060140Y9620000D01*
X16049435Y9621054D01*
X16045048Y9622385D01*
X16041004Y9624547D01*
X16037457Y9627457D01*
X16034547Y9631004D01*
X16032385Y9635048D01*
X16031054Y9639435D01*
X16030000Y9650140D01*
X16030000Y11129860D01*
X16031054Y11140565D01*
X16032385Y11144952D01*
X16034547Y11148996D01*
X16037457Y11152543D01*
X16041004Y11155453D01*
X16045048Y11157615D01*
X16049435Y11158946D01*
X16060140Y11160000D01*
X17239860Y11160000D01*
X17250565Y11158946D01*
G37*
G36*
X15450565Y11158946D02*
G01*
X15454952Y11157615D01*
X15458996Y11155453D01*
X15462543Y11152543D01*
X15465453Y11148996D01*
X15467615Y11144952D01*
X15468946Y11140565D01*
X15470000Y11129860D01*
X15470000Y9650140D01*
X15468946Y9639435D01*
X15467615Y9635048D01*
X15465453Y9631004D01*
X15462543Y9627457D01*
X15458996Y9624547D01*
X15454952Y9622385D01*
X15450565Y9621054D01*
X15439860Y9620000D01*
X14260140Y9620000D01*
X14249435Y9621054D01*
X14245048Y9622385D01*
X14241004Y9624547D01*
X14237457Y9627457D01*
X14234547Y9631004D01*
X14232385Y9635048D01*
X14231054Y9639435D01*
X14230000Y9650140D01*
X14230000Y11129860D01*
X14231054Y11140565D01*
X14232385Y11144952D01*
X14234547Y11148996D01*
X14237457Y11152543D01*
X14241004Y11155453D01*
X14245048Y11157615D01*
X14249435Y11158946D01*
X14260140Y11160000D01*
X15439860Y11160000D01*
X15450565Y11158946D01*
G37*
G36*
X11240941Y11980732D02*
G01*
X11276710Y11969882D01*
X11309666Y11952266D01*
X11338557Y11928557D01*
X11362266Y11899666D01*
X11379882Y11866710D01*
X11390732Y11830941D01*
X11395000Y11787609D01*
X11395000Y11167391D01*
X11390732Y11124059D01*
X11379882Y11088290D01*
X11362266Y11055334D01*
X11338557Y11026443D01*
X11309666Y11002734D01*
X11276710Y10985118D01*
X11240941Y10974268D01*
X11197609Y10970000D01*
X10502391Y10970000D01*
X10459059Y10974268D01*
X10423290Y10985118D01*
X10390334Y11002734D01*
X10361443Y11026443D01*
X10337734Y11055334D01*
X10320118Y11088290D01*
X10309268Y11124059D01*
X10305000Y11167391D01*
X10305000Y11787609D01*
X10309268Y11830941D01*
X10320118Y11866710D01*
X10337734Y11899666D01*
X10361443Y11928557D01*
X10390334Y11952266D01*
X10423290Y11969882D01*
X10459059Y11980732D01*
X10502391Y11985000D01*
X11197609Y11985000D01*
X11240941Y11980732D01*
G37*
G36*
X9440941Y11980732D02*
G01*
X9476710Y11969882D01*
X9509666Y11952266D01*
X9538557Y11928557D01*
X9562266Y11899666D01*
X9579882Y11866710D01*
X9590732Y11830941D01*
X9595000Y11787609D01*
X9595000Y11167391D01*
X9590732Y11124059D01*
X9579882Y11088290D01*
X9562266Y11055334D01*
X9538557Y11026443D01*
X9509666Y11002734D01*
X9476710Y10985118D01*
X9440941Y10974268D01*
X9397609Y10970000D01*
X8702391Y10970000D01*
X8659059Y10974268D01*
X8623290Y10985118D01*
X8590334Y11002734D01*
X8561443Y11026443D01*
X8537734Y11055334D01*
X8520118Y11088290D01*
X8509268Y11124059D01*
X8505000Y11167391D01*
X8505000Y11787609D01*
X8509268Y11830941D01*
X8520118Y11866710D01*
X8537734Y11899666D01*
X8561443Y11928557D01*
X8590334Y11952266D01*
X8623290Y11969882D01*
X8659059Y11980732D01*
X8702391Y11985000D01*
X9397609Y11985000D01*
X9440941Y11980732D01*
G37*
G36*
X13040941Y11980732D02*
G01*
X13076710Y11969882D01*
X13109666Y11952266D01*
X13138557Y11928557D01*
X13162266Y11899666D01*
X13179882Y11866710D01*
X13190732Y11830941D01*
X13195000Y11787609D01*
X13195000Y11167391D01*
X13190732Y11124059D01*
X13179882Y11088290D01*
X13162266Y11055334D01*
X13138557Y11026443D01*
X13109666Y11002734D01*
X13076710Y10985118D01*
X13040941Y10974268D01*
X12997609Y10970000D01*
X12302391Y10970000D01*
X12259059Y10974268D01*
X12223290Y10985118D01*
X12190334Y11002734D01*
X12161443Y11026443D01*
X12137734Y11055334D01*
X12120118Y11088290D01*
X12109268Y11124059D01*
X12105000Y11167391D01*
X12105000Y11787609D01*
X12109268Y11830941D01*
X12120118Y11866710D01*
X12137734Y11899666D01*
X12161443Y11928557D01*
X12190334Y11952266D01*
X12223290Y11969882D01*
X12259059Y11980732D01*
X12302391Y11985000D01*
X12997609Y11985000D01*
X13040941Y11980732D01*
G37*
G36*
X35715216Y12159821D02*
G01*
X35787104Y12130044D01*
X35851795Y12086819D01*
X35906819Y12031795D01*
X35950044Y11967104D01*
X35979821Y11895216D01*
X35995000Y11818905D01*
X35995000Y11741095D01*
X35979821Y11664784D01*
X35950044Y11592896D01*
X35906819Y11528205D01*
X35851795Y11473181D01*
X35787104Y11429956D01*
X35715216Y11400179D01*
X35638905Y11385000D01*
X35561095Y11385000D01*
X35484784Y11400179D01*
X35412896Y11429956D01*
X35348205Y11473181D01*
X35293181Y11528205D01*
X35249956Y11592896D01*
X35220179Y11664784D01*
X35205000Y11741095D01*
X35205000Y11818905D01*
X35220179Y11895216D01*
X35249956Y11967104D01*
X35293181Y12031795D01*
X35348205Y12086819D01*
X35412896Y12130044D01*
X35484784Y12159821D01*
X35561095Y12175000D01*
X35638905Y12175000D01*
X35715216Y12159821D01*
G37*
G36*
X15450565Y13358946D02*
G01*
X15454952Y13357615D01*
X15458996Y13355453D01*
X15462543Y13352543D01*
X15465453Y13348996D01*
X15467615Y13344952D01*
X15468946Y13340565D01*
X15470000Y13329860D01*
X15470000Y11850140D01*
X15468946Y11839435D01*
X15467615Y11835048D01*
X15465453Y11831004D01*
X15462543Y11827457D01*
X15458996Y11824547D01*
X15454952Y11822385D01*
X15450565Y11821054D01*
X15439860Y11820000D01*
X14260140Y11820000D01*
X14249435Y11821054D01*
X14245048Y11822385D01*
X14241004Y11824547D01*
X14237457Y11827457D01*
X14234547Y11831004D01*
X14232385Y11835048D01*
X14231054Y11839435D01*
X14230000Y11850140D01*
X14230000Y13329860D01*
X14231054Y13340565D01*
X14232385Y13344952D01*
X14234547Y13348996D01*
X14237457Y13352543D01*
X14241004Y13355453D01*
X14245048Y13357615D01*
X14249435Y13358946D01*
X14260140Y13360000D01*
X15439860Y13360000D01*
X15450565Y13358946D01*
G37*
G36*
X29728075Y13157812D02*
G01*
X29743533Y13153122D01*
X29757775Y13145510D01*
X29770261Y13135263D01*
X29778372Y13125380D01*
X29795699Y13108052D01*
X29816073Y13094438D01*
X29838712Y13085060D01*
X29862745Y13080279D01*
X29887249Y13080279D01*
X29911282Y13085059D01*
X29933921Y13094435D01*
X29954296Y13108048D01*
X29971628Y13125380D01*
X29979739Y13135263D01*
X29992225Y13145510D01*
X30006467Y13153122D01*
X30021925Y13157812D01*
X30044141Y13160000D01*
X30655859Y13160000D01*
X30678075Y13157812D01*
X30693533Y13153122D01*
X30707775Y13145510D01*
X30720261Y13135263D01*
X30728372Y13125380D01*
X30745699Y13108052D01*
X30766073Y13094438D01*
X30788712Y13085060D01*
X30812745Y13080279D01*
X30837249Y13080279D01*
X30861282Y13085059D01*
X30883921Y13094435D01*
X30904296Y13108048D01*
X30921628Y13125380D01*
X30929739Y13135263D01*
X30942225Y13145510D01*
X30956467Y13153122D01*
X30971925Y13157812D01*
X30994141Y13160000D01*
X31605859Y13160000D01*
X31628075Y13157812D01*
X31643533Y13153122D01*
X31657775Y13145510D01*
X31670262Y13135262D01*
X31680510Y13122775D01*
X31688122Y13108533D01*
X31692812Y13093075D01*
X31695000Y13070859D01*
X31695000Y11909141D01*
X31692812Y11886925D01*
X31688122Y11871467D01*
X31680510Y11857225D01*
X31670262Y11844738D01*
X31657775Y11834490D01*
X31643533Y11826878D01*
X31628075Y11822188D01*
X31605859Y11820000D01*
X30994141Y11820000D01*
X30971925Y11822188D01*
X30956467Y11826878D01*
X30942225Y11834490D01*
X30929739Y11844737D01*
X30921628Y11854620D01*
X30904301Y11871948D01*
X30883927Y11885562D01*
X30861288Y11894940D01*
X30837255Y11899721D01*
X30812751Y11899721D01*
X30788718Y11894941D01*
X30766079Y11885565D01*
X30745704Y11871952D01*
X30728372Y11854620D01*
X30720261Y11844737D01*
X30707775Y11834490D01*
X30693533Y11826878D01*
X30678075Y11822188D01*
X30655859Y11820000D01*
X30044141Y11820000D01*
X30021925Y11822188D01*
X30006467Y11826878D01*
X29992225Y11834490D01*
X29979739Y11844737D01*
X29971628Y11854620D01*
X29954301Y11871948D01*
X29933927Y11885562D01*
X29911288Y11894940D01*
X29887255Y11899721D01*
X29862751Y11899721D01*
X29838718Y11894941D01*
X29816079Y11885565D01*
X29795704Y11871952D01*
X29778372Y11854620D01*
X29770261Y11844737D01*
X29757775Y11834490D01*
X29743533Y11826878D01*
X29728075Y11822188D01*
X29705859Y11820000D01*
X29094141Y11820000D01*
X29071925Y11822188D01*
X29056467Y11826878D01*
X29042225Y11834490D01*
X29029738Y11844738D01*
X29019490Y11857225D01*
X29011878Y11871467D01*
X29007188Y11886925D01*
X29005000Y11909141D01*
X29005000Y13070859D01*
X29007188Y13093075D01*
X29011878Y13108533D01*
X29019490Y13122775D01*
X29029738Y13135262D01*
X29042225Y13145510D01*
X29056467Y13153122D01*
X29071925Y13157812D01*
X29094141Y13160000D01*
X29705859Y13160000D01*
X29728075Y13157812D01*
G37*
G36*
X17250565Y13358946D02*
G01*
X17254952Y13357615D01*
X17258996Y13355453D01*
X17262543Y13352543D01*
X17265453Y13348996D01*
X17267615Y13344952D01*
X17268946Y13340565D01*
X17270000Y13329860D01*
X17270000Y11850140D01*
X17268946Y11839435D01*
X17267615Y11835048D01*
X17265453Y11831004D01*
X17262543Y11827457D01*
X17258996Y11824547D01*
X17254952Y11822385D01*
X17250565Y11821054D01*
X17239860Y11820000D01*
X16060140Y11820000D01*
X16049435Y11821054D01*
X16045048Y11822385D01*
X16041004Y11824547D01*
X16037457Y11827457D01*
X16034547Y11831004D01*
X16032385Y11835048D01*
X16031054Y11839435D01*
X16030000Y11850140D01*
X16030000Y13329860D01*
X16031054Y13340565D01*
X16032385Y13344952D01*
X16034547Y13348996D01*
X16037457Y13352543D01*
X16041004Y13355453D01*
X16045048Y13357615D01*
X16049435Y13358946D01*
X16060140Y13360000D01*
X17239860Y13360000D01*
X17250565Y13358946D01*
G37*
G36*
X39605908Y13777251D02*
G01*
X39661739Y13771752D01*
X39769185Y13739158D01*
X39868207Y13686230D01*
X39955000Y13615000D01*
X40026230Y13528207D01*
X40079158Y13429185D01*
X40111752Y13321739D01*
X40122757Y13210000D01*
X40111752Y13098261D01*
X40079158Y12990815D01*
X40026230Y12891793D01*
X39955000Y12805000D01*
X39868207Y12733770D01*
X39769185Y12680842D01*
X39661739Y12648248D01*
X39605908Y12642749D01*
X39577994Y12640000D01*
X38922006Y12640000D01*
X38894092Y12642749D01*
X38838261Y12648248D01*
X38730815Y12680842D01*
X38631793Y12733770D01*
X38545000Y12805000D01*
X38473770Y12891793D01*
X38420842Y12990815D01*
X38388248Y13098261D01*
X38377243Y13210000D01*
X38388248Y13321739D01*
X38420842Y13429185D01*
X38473770Y13528207D01*
X38545000Y13615000D01*
X38631793Y13686230D01*
X38730815Y13739158D01*
X38838261Y13771752D01*
X38894092Y13777251D01*
X38922006Y13780000D01*
X39577994Y13780000D01*
X39605908Y13777251D01*
G37*
G36*
X3920000Y13120000D02*
G01*
X2880000Y13120000D01*
X2880000Y14460000D01*
X3920000Y14460000D01*
X3920000Y13120000D01*
G37*
G36*
X7220000Y13120000D02*
G01*
X6180000Y13120000D01*
X6180000Y14460000D01*
X7220000Y14460000D01*
X7220000Y13120000D01*
G37*
G36*
X24719987Y14709987D02*
G01*
X24720000Y14709857D01*
X24720000Y13670143D01*
X24719987Y13670013D01*
X24719857Y13670000D01*
X23780143Y13670000D01*
X23780013Y13670013D01*
X23780000Y13670143D01*
X23780000Y14709857D01*
X23780013Y14709987D01*
X23780143Y14710000D01*
X24719857Y14710000D01*
X24719987Y14709987D01*
G37*
G36*
X26319987Y14709987D02*
G01*
X26320000Y14709857D01*
X26320000Y13670143D01*
X26319987Y13670013D01*
X26319857Y13670000D01*
X25380143Y13670000D01*
X25380013Y13670013D01*
X25380000Y13670143D01*
X25380000Y14709857D01*
X25380013Y14709987D01*
X25380143Y14710000D01*
X26319857Y14710000D01*
X26319987Y14709987D01*
G37*
G36*
X14932003Y14459100D02*
G01*
X14934889Y14458224D01*
X14937551Y14456802D01*
X14939885Y14454885D01*
X14941802Y14452551D01*
X14943224Y14449889D01*
X14944100Y14447003D01*
X14945000Y14437862D01*
X14945000Y13742138D01*
X14944100Y13732997D01*
X14943224Y13730111D01*
X14941802Y13727449D01*
X14939885Y13725115D01*
X14937551Y13723198D01*
X14934889Y13721776D01*
X14932003Y13720900D01*
X14922862Y13720000D01*
X14277138Y13720000D01*
X14267997Y13720900D01*
X14265111Y13721776D01*
X14262449Y13723198D01*
X14260115Y13725115D01*
X14258198Y13727449D01*
X14256776Y13730111D01*
X14255900Y13732997D01*
X14255000Y13742138D01*
X14255000Y14437862D01*
X14255900Y14447003D01*
X14256776Y14449889D01*
X14258198Y14452551D01*
X14260115Y14454885D01*
X14262449Y14456802D01*
X14265111Y14458224D01*
X14267997Y14459100D01*
X14277138Y14460000D01*
X14922862Y14460000D01*
X14932003Y14459100D01*
G37*
G36*
X15932003Y14459100D02*
G01*
X15934889Y14458224D01*
X15937551Y14456802D01*
X15939885Y14454885D01*
X15941802Y14452551D01*
X15943224Y14449889D01*
X15944100Y14447003D01*
X15945000Y14437862D01*
X15945000Y13742138D01*
X15944100Y13732997D01*
X15943224Y13730111D01*
X15941802Y13727449D01*
X15939885Y13725115D01*
X15937551Y13723198D01*
X15934889Y13721776D01*
X15932003Y13720900D01*
X15922862Y13720000D01*
X15277138Y13720000D01*
X15267997Y13720900D01*
X15265111Y13721776D01*
X15262449Y13723198D01*
X15260115Y13725115D01*
X15258198Y13727449D01*
X15256776Y13730111D01*
X15255900Y13732997D01*
X15255000Y13742138D01*
X15255000Y14437862D01*
X15255900Y14447003D01*
X15256776Y14449889D01*
X15258198Y14452551D01*
X15260115Y14454885D01*
X15262449Y14456802D01*
X15265111Y14458224D01*
X15267997Y14459100D01*
X15277138Y14460000D01*
X15922862Y14460000D01*
X15932003Y14459100D01*
G37*
G36*
X17182003Y14459100D02*
G01*
X17184889Y14458224D01*
X17187551Y14456802D01*
X17189885Y14454885D01*
X17191802Y14452551D01*
X17193224Y14449889D01*
X17194100Y14447003D01*
X17195000Y14437862D01*
X17195000Y13742138D01*
X17194100Y13732997D01*
X17193224Y13730111D01*
X17191802Y13727449D01*
X17189885Y13725115D01*
X17187551Y13723198D01*
X17184889Y13721776D01*
X17182003Y13720900D01*
X17172862Y13720000D01*
X16527138Y13720000D01*
X16517997Y13720900D01*
X16515111Y13721776D01*
X16512449Y13723198D01*
X16510115Y13725115D01*
X16508198Y13727449D01*
X16506776Y13730111D01*
X16505900Y13732997D01*
X16505000Y13742138D01*
X16505000Y14437862D01*
X16505900Y14447003D01*
X16506776Y14449889D01*
X16508198Y14452551D01*
X16510115Y14454885D01*
X16512449Y14456802D01*
X16515111Y14458224D01*
X16517997Y14459100D01*
X16527138Y14460000D01*
X17172862Y14460000D01*
X17182003Y14459100D01*
G37*
G36*
X18182003Y14459100D02*
G01*
X18184889Y14458224D01*
X18187551Y14456802D01*
X18189885Y14454885D01*
X18191802Y14452551D01*
X18193224Y14449889D01*
X18194100Y14447003D01*
X18195000Y14437862D01*
X18195000Y13742138D01*
X18194100Y13732997D01*
X18193224Y13730111D01*
X18191802Y13727449D01*
X18189885Y13725115D01*
X18187551Y13723198D01*
X18184889Y13721776D01*
X18182003Y13720900D01*
X18172862Y13720000D01*
X17527138Y13720000D01*
X17517997Y13720900D01*
X17515111Y13721776D01*
X17512449Y13723198D01*
X17510115Y13725115D01*
X17508198Y13727449D01*
X17506776Y13730111D01*
X17505900Y13732997D01*
X17505000Y13742138D01*
X17505000Y14437862D01*
X17505900Y14447003D01*
X17506776Y14449889D01*
X17508198Y14452551D01*
X17510115Y14454885D01*
X17512449Y14456802D01*
X17515111Y14458224D01*
X17517997Y14459100D01*
X17527138Y14460000D01*
X18172862Y14460000D01*
X18182003Y14459100D01*
G37*
G36*
X33590941Y14930732D02*
G01*
X33626710Y14919882D01*
X33659666Y14902266D01*
X33688557Y14878557D01*
X33712266Y14849666D01*
X33729882Y14816710D01*
X33740732Y14780941D01*
X33745000Y14737609D01*
X33745000Y14042391D01*
X33740732Y13999059D01*
X33729882Y13963290D01*
X33712266Y13930334D01*
X33688557Y13901443D01*
X33659666Y13877734D01*
X33626710Y13860118D01*
X33590941Y13849268D01*
X33547609Y13845000D01*
X32927391Y13845000D01*
X32884059Y13849268D01*
X32848290Y13860118D01*
X32815334Y13877734D01*
X32786443Y13901443D01*
X32762734Y13930334D01*
X32745118Y13963290D01*
X32734268Y13999059D01*
X32730000Y14042391D01*
X32730000Y14737609D01*
X32734268Y14780941D01*
X32745118Y14816710D01*
X32762734Y14849666D01*
X32786443Y14878557D01*
X32815334Y14902266D01*
X32848290Y14919882D01*
X32884059Y14930732D01*
X32927391Y14935000D01*
X33547609Y14935000D01*
X33590941Y14930732D01*
G37*
G36*
X28715941Y14930732D02*
G01*
X28751710Y14919882D01*
X28784666Y14902266D01*
X28813557Y14878557D01*
X28837266Y14849666D01*
X28854882Y14816710D01*
X28865732Y14780941D01*
X28870000Y14737609D01*
X28870000Y14042391D01*
X28865732Y13999059D01*
X28854882Y13963290D01*
X28837266Y13930334D01*
X28813557Y13901443D01*
X28784666Y13877734D01*
X28751710Y13860118D01*
X28715941Y13849268D01*
X28672609Y13845000D01*
X28052391Y13845000D01*
X28009059Y13849268D01*
X27973290Y13860118D01*
X27940334Y13877734D01*
X27911443Y13901443D01*
X27887734Y13930334D01*
X27870118Y13963290D01*
X27859268Y13999059D01*
X27855000Y14042391D01*
X27855000Y14737609D01*
X27859268Y14780941D01*
X27870118Y14816710D01*
X27887734Y14849666D01*
X27911443Y14878557D01*
X27940334Y14902266D01*
X27973290Y14919882D01*
X28009059Y14930732D01*
X28052391Y14935000D01*
X28672609Y14935000D01*
X28715941Y14930732D01*
G37*
G36*
X32015941Y14930732D02*
G01*
X32051710Y14919882D01*
X32084666Y14902266D01*
X32113557Y14878557D01*
X32137266Y14849666D01*
X32154882Y14816710D01*
X32165732Y14780941D01*
X32170000Y14737609D01*
X32170000Y14042391D01*
X32165732Y13999059D01*
X32154882Y13963290D01*
X32137266Y13930334D01*
X32113557Y13901443D01*
X32084666Y13877734D01*
X32051710Y13860118D01*
X32015941Y13849268D01*
X31972609Y13845000D01*
X31352391Y13845000D01*
X31309059Y13849268D01*
X31273290Y13860118D01*
X31240334Y13877734D01*
X31211443Y13901443D01*
X31187734Y13930334D01*
X31170118Y13963290D01*
X31159268Y13999059D01*
X31155000Y14042391D01*
X31155000Y14737609D01*
X31159268Y14780941D01*
X31170118Y14816710D01*
X31187734Y14849666D01*
X31211443Y14878557D01*
X31240334Y14902266D01*
X31273290Y14919882D01*
X31309059Y14930732D01*
X31352391Y14935000D01*
X31972609Y14935000D01*
X32015941Y14930732D01*
G37*
G36*
X30290941Y14930732D02*
G01*
X30326710Y14919882D01*
X30359666Y14902266D01*
X30388557Y14878557D01*
X30412266Y14849666D01*
X30429882Y14816710D01*
X30440732Y14780941D01*
X30445000Y14737609D01*
X30445000Y14042391D01*
X30440732Y13999059D01*
X30429882Y13963290D01*
X30412266Y13930334D01*
X30388557Y13901443D01*
X30359666Y13877734D01*
X30326710Y13860118D01*
X30290941Y13849268D01*
X30247609Y13845000D01*
X29627391Y13845000D01*
X29584059Y13849268D01*
X29548290Y13860118D01*
X29515334Y13877734D01*
X29486443Y13901443D01*
X29462734Y13930334D01*
X29445118Y13963290D01*
X29434268Y13999059D01*
X29430000Y14042391D01*
X29430000Y14737609D01*
X29434268Y14780941D01*
X29445118Y14816710D01*
X29462734Y14849666D01*
X29486443Y14878557D01*
X29515334Y14902266D01*
X29548290Y14919882D01*
X29584059Y14930732D01*
X29627391Y14935000D01*
X30247609Y14935000D01*
X30290941Y14930732D01*
G37*
G36*
X39652937Y17442724D02*
G01*
X39829465Y17369603D01*
X39829467Y17369602D01*
X39988339Y17263448D01*
X40123448Y17128339D01*
X40149572Y17089241D01*
X40229603Y16969465D01*
X40302724Y16792937D01*
X40340000Y16605538D01*
X40340000Y16414462D01*
X40302724Y16227063D01*
X40229603Y16050535D01*
X40229602Y16050533D01*
X40123448Y15891661D01*
X39988339Y15756552D01*
X39829467Y15650398D01*
X39829466Y15650397D01*
X39829465Y15650397D01*
X39652937Y15577276D01*
X39465538Y15540000D01*
X39274462Y15540000D01*
X39087063Y15577276D01*
X38910535Y15650397D01*
X38910534Y15650397D01*
X38910533Y15650398D01*
X38751661Y15756552D01*
X38616552Y15891661D01*
X38510398Y16050533D01*
X38510397Y16050535D01*
X38437276Y16227063D01*
X38400000Y16414462D01*
X38400000Y16605538D01*
X38437276Y16792937D01*
X38510397Y16969465D01*
X38590428Y17089241D01*
X38616552Y17128339D01*
X38751661Y17263448D01*
X38910533Y17369602D01*
X38910535Y17369603D01*
X39087063Y17442724D01*
X39274462Y17480000D01*
X39465538Y17480000D01*
X39652937Y17442724D01*
G37*
G36*
X6632937Y17442724D02*
G01*
X6809465Y17369603D01*
X6809467Y17369602D01*
X6968339Y17263448D01*
X7103448Y17128339D01*
X7129572Y17089241D01*
X7209603Y16969465D01*
X7282724Y16792937D01*
X7320000Y16605538D01*
X7320000Y16414462D01*
X7282724Y16227063D01*
X7209603Y16050535D01*
X7209602Y16050533D01*
X7103448Y15891661D01*
X6968339Y15756552D01*
X6809467Y15650398D01*
X6809466Y15650397D01*
X6809465Y15650397D01*
X6632937Y15577276D01*
X6445538Y15540000D01*
X6254462Y15540000D01*
X6067063Y15577276D01*
X5890535Y15650397D01*
X5890534Y15650397D01*
X5890533Y15650398D01*
X5731661Y15756552D01*
X5596552Y15891661D01*
X5490398Y16050533D01*
X5490397Y16050535D01*
X5417276Y16227063D01*
X5380000Y16414462D01*
X5380000Y16605538D01*
X5417276Y16792937D01*
X5490397Y16969465D01*
X5570428Y17089241D01*
X5596552Y17128339D01*
X5731661Y17263448D01*
X5890533Y17369602D01*
X5890535Y17369603D01*
X6067063Y17442724D01*
X6254462Y17480000D01*
X6445538Y17480000D01*
X6632937Y17442724D01*
G37*
G36*
X24398353Y17394645D02*
G01*
X24565782Y17325294D01*
X24640612Y17275294D01*
X24716466Y17224610D01*
X24844610Y17096466D01*
X24891816Y17025817D01*
X24945294Y16945782D01*
X25014645Y16778353D01*
X25050000Y16600613D01*
X25050000Y16419387D01*
X25014645Y16241647D01*
X24945294Y16074218D01*
X24945293Y16074217D01*
X24844610Y15923534D01*
X24716466Y15795390D01*
X24658341Y15756552D01*
X24565782Y15694706D01*
X24398353Y15625355D01*
X24220613Y15590000D01*
X24039387Y15590000D01*
X23861647Y15625355D01*
X23694218Y15694706D01*
X23601659Y15756552D01*
X23543534Y15795390D01*
X23415390Y15923534D01*
X23314707Y16074217D01*
X23314706Y16074218D01*
X23245355Y16241647D01*
X23210000Y16419387D01*
X23210000Y16600613D01*
X23245355Y16778353D01*
X23314706Y16945782D01*
X23368184Y17025817D01*
X23415390Y17096466D01*
X23543534Y17224610D01*
X23619388Y17275294D01*
X23694218Y17325294D01*
X23861647Y17394645D01*
X24039387Y17430000D01*
X24220613Y17430000D01*
X24398353Y17394645D01*
G37*
G36*
X21858353Y17394645D02*
G01*
X22025782Y17325294D01*
X22100612Y17275294D01*
X22176466Y17224610D01*
X22304610Y17096466D01*
X22351816Y17025817D01*
X22405294Y16945782D01*
X22474645Y16778353D01*
X22510000Y16600613D01*
X22510000Y16419387D01*
X22474645Y16241647D01*
X22405294Y16074218D01*
X22405293Y16074217D01*
X22304610Y15923534D01*
X22176466Y15795390D01*
X22118341Y15756552D01*
X22025782Y15694706D01*
X21858353Y15625355D01*
X21680613Y15590000D01*
X21499387Y15590000D01*
X21321647Y15625355D01*
X21154218Y15694706D01*
X21061659Y15756552D01*
X21003534Y15795390D01*
X20875390Y15923534D01*
X20774707Y16074217D01*
X20774706Y16074218D01*
X20705355Y16241647D01*
X20670000Y16419387D01*
X20670000Y16600613D01*
X20705355Y16778353D01*
X20774706Y16945782D01*
X20828184Y17025817D01*
X20875390Y17096466D01*
X21003534Y17224610D01*
X21079388Y17275294D01*
X21154218Y17325294D01*
X21321647Y17394645D01*
X21499387Y17430000D01*
X21680613Y17430000D01*
X21858353Y17394645D01*
G37*
G36*
X19318353Y17394645D02*
G01*
X19485782Y17325294D01*
X19560612Y17275294D01*
X19636466Y17224610D01*
X19764610Y17096466D01*
X19811816Y17025817D01*
X19865294Y16945782D01*
X19934645Y16778353D01*
X19970000Y16600613D01*
X19970000Y16419387D01*
X19934645Y16241647D01*
X19865294Y16074218D01*
X19865293Y16074217D01*
X19764610Y15923534D01*
X19636466Y15795390D01*
X19578341Y15756552D01*
X19485782Y15694706D01*
X19318353Y15625355D01*
X19140613Y15590000D01*
X18959387Y15590000D01*
X18781647Y15625355D01*
X18614218Y15694706D01*
X18521659Y15756552D01*
X18463534Y15795390D01*
X18335390Y15923534D01*
X18234707Y16074217D01*
X18234706Y16074218D01*
X18165355Y16241647D01*
X18130000Y16419387D01*
X18130000Y16600613D01*
X18165355Y16778353D01*
X18234706Y16945782D01*
X18288184Y17025817D01*
X18335390Y17096466D01*
X18463534Y17224610D01*
X18539388Y17275294D01*
X18614218Y17325294D01*
X18781647Y17394645D01*
X18959387Y17430000D01*
X19140613Y17430000D01*
X19318353Y17394645D01*
G37*
G36*
X29478353Y17394645D02*
G01*
X29645782Y17325294D01*
X29720612Y17275294D01*
X29796466Y17224610D01*
X29924610Y17096466D01*
X29971816Y17025817D01*
X30025294Y16945782D01*
X30094645Y16778353D01*
X30130000Y16600613D01*
X30130000Y16419387D01*
X30094645Y16241647D01*
X30025294Y16074218D01*
X30025293Y16074217D01*
X29924610Y15923534D01*
X29796466Y15795390D01*
X29738341Y15756552D01*
X29645782Y15694706D01*
X29478353Y15625355D01*
X29300613Y15590000D01*
X29119387Y15590000D01*
X28941647Y15625355D01*
X28774218Y15694706D01*
X28681659Y15756552D01*
X28623534Y15795390D01*
X28495390Y15923534D01*
X28394707Y16074217D01*
X28394706Y16074218D01*
X28325355Y16241647D01*
X28290000Y16419387D01*
X28290000Y16600613D01*
X28325355Y16778353D01*
X28394706Y16945782D01*
X28448184Y17025817D01*
X28495390Y17096466D01*
X28623534Y17224610D01*
X28699388Y17275294D01*
X28774218Y17325294D01*
X28941647Y17394645D01*
X29119387Y17430000D01*
X29300613Y17430000D01*
X29478353Y17394645D01*
G37*
G36*
X16778353Y17394645D02*
G01*
X16945782Y17325294D01*
X17020612Y17275294D01*
X17096466Y17224610D01*
X17224610Y17096466D01*
X17271816Y17025817D01*
X17325294Y16945782D01*
X17394645Y16778353D01*
X17430000Y16600613D01*
X17430000Y16419387D01*
X17394645Y16241647D01*
X17325294Y16074218D01*
X17325293Y16074217D01*
X17224610Y15923534D01*
X17096466Y15795390D01*
X17038341Y15756552D01*
X16945782Y15694706D01*
X16778353Y15625355D01*
X16600613Y15590000D01*
X16419387Y15590000D01*
X16241647Y15625355D01*
X16074218Y15694706D01*
X15981659Y15756552D01*
X15923534Y15795390D01*
X15795390Y15923534D01*
X15694707Y16074217D01*
X15694706Y16074218D01*
X15625355Y16241647D01*
X15590000Y16419387D01*
X15590000Y16600613D01*
X15625355Y16778353D01*
X15694706Y16945782D01*
X15748184Y17025817D01*
X15795390Y17096466D01*
X15923534Y17224610D01*
X15999388Y17275294D01*
X16074218Y17325294D01*
X16241647Y17394645D01*
X16419387Y17430000D01*
X16600613Y17430000D01*
X16778353Y17394645D01*
G37*
G36*
X14238353Y17394645D02*
G01*
X14405782Y17325294D01*
X14480612Y17275294D01*
X14556466Y17224610D01*
X14684610Y17096466D01*
X14731816Y17025817D01*
X14785294Y16945782D01*
X14854645Y16778353D01*
X14890000Y16600613D01*
X14890000Y16419387D01*
X14854645Y16241647D01*
X14785294Y16074218D01*
X14785293Y16074217D01*
X14684610Y15923534D01*
X14556466Y15795390D01*
X14498341Y15756552D01*
X14405782Y15694706D01*
X14238353Y15625355D01*
X14060613Y15590000D01*
X13879387Y15590000D01*
X13701647Y15625355D01*
X13534218Y15694706D01*
X13441659Y15756552D01*
X13383534Y15795390D01*
X13255390Y15923534D01*
X13154707Y16074217D01*
X13154706Y16074218D01*
X13085355Y16241647D01*
X13050000Y16419387D01*
X13050000Y16600613D01*
X13085355Y16778353D01*
X13154706Y16945782D01*
X13208184Y17025817D01*
X13255390Y17096466D01*
X13383534Y17224610D01*
X13459388Y17275294D01*
X13534218Y17325294D01*
X13701647Y17394645D01*
X13879387Y17430000D01*
X14060613Y17430000D01*
X14238353Y17394645D01*
G37*
G36*
X32018353Y17394645D02*
G01*
X32185782Y17325294D01*
X32260612Y17275294D01*
X32336466Y17224610D01*
X32464610Y17096466D01*
X32511816Y17025817D01*
X32565294Y16945782D01*
X32634645Y16778353D01*
X32670000Y16600613D01*
X32670000Y16419387D01*
X32634645Y16241647D01*
X32565294Y16074218D01*
X32565293Y16074217D01*
X32464610Y15923534D01*
X32336466Y15795390D01*
X32278341Y15756552D01*
X32185782Y15694706D01*
X32018353Y15625355D01*
X31840613Y15590000D01*
X31659387Y15590000D01*
X31481647Y15625355D01*
X31314218Y15694706D01*
X31221659Y15756552D01*
X31163534Y15795390D01*
X31035390Y15923534D01*
X30934707Y16074217D01*
X30934706Y16074218D01*
X30865355Y16241647D01*
X30830000Y16419387D01*
X30830000Y16600613D01*
X30865355Y16778353D01*
X30934706Y16945782D01*
X30988184Y17025817D01*
X31035390Y17096466D01*
X31163534Y17224610D01*
X31239388Y17275294D01*
X31314218Y17325294D01*
X31481647Y17394645D01*
X31659387Y17430000D01*
X31840613Y17430000D01*
X32018353Y17394645D01*
G37*
G36*
X34558353Y17394645D02*
G01*
X34725782Y17325294D01*
X34800612Y17275294D01*
X34876466Y17224610D01*
X35004610Y17096466D01*
X35051816Y17025817D01*
X35105294Y16945782D01*
X35174645Y16778353D01*
X35210000Y16600613D01*
X35210000Y16419387D01*
X35174645Y16241647D01*
X35105294Y16074218D01*
X35105293Y16074217D01*
X35004610Y15923534D01*
X34876466Y15795390D01*
X34818341Y15756552D01*
X34725782Y15694706D01*
X34558353Y15625355D01*
X34380613Y15590000D01*
X34199387Y15590000D01*
X34021647Y15625355D01*
X33854218Y15694706D01*
X33761659Y15756552D01*
X33703534Y15795390D01*
X33575390Y15923534D01*
X33474707Y16074217D01*
X33474706Y16074218D01*
X33405355Y16241647D01*
X33370000Y16419387D01*
X33370000Y16600613D01*
X33405355Y16778353D01*
X33474706Y16945782D01*
X33528184Y17025817D01*
X33575390Y17096466D01*
X33703534Y17224610D01*
X33779388Y17275294D01*
X33854218Y17325294D01*
X34021647Y17394645D01*
X34199387Y17430000D01*
X34380613Y17430000D01*
X34558353Y17394645D01*
G37*
G36*
X37098353Y17394645D02*
G01*
X37265782Y17325294D01*
X37340612Y17275294D01*
X37416466Y17224610D01*
X37544610Y17096466D01*
X37591816Y17025817D01*
X37645294Y16945782D01*
X37714645Y16778353D01*
X37750000Y16600613D01*
X37750000Y16419387D01*
X37714645Y16241647D01*
X37645294Y16074218D01*
X37645293Y16074217D01*
X37544610Y15923534D01*
X37416466Y15795390D01*
X37358341Y15756552D01*
X37265782Y15694706D01*
X37098353Y15625355D01*
X36920613Y15590000D01*
X36739387Y15590000D01*
X36561647Y15625355D01*
X36394218Y15694706D01*
X36301659Y15756552D01*
X36243534Y15795390D01*
X36115390Y15923534D01*
X36014707Y16074217D01*
X36014706Y16074218D01*
X35945355Y16241647D01*
X35910000Y16419387D01*
X35910000Y16600613D01*
X35945355Y16778353D01*
X36014706Y16945782D01*
X36068184Y17025817D01*
X36115390Y17096466D01*
X36243534Y17224610D01*
X36319388Y17275294D01*
X36394218Y17325294D01*
X36561647Y17394645D01*
X36739387Y17430000D01*
X36920613Y17430000D01*
X37098353Y17394645D01*
G37*
G36*
X4078353Y17394645D02*
G01*
X4245782Y17325294D01*
X4320612Y17275294D01*
X4396466Y17224610D01*
X4524610Y17096466D01*
X4571816Y17025817D01*
X4625294Y16945782D01*
X4694645Y16778353D01*
X4730000Y16600613D01*
X4730000Y16419387D01*
X4694645Y16241647D01*
X4625294Y16074218D01*
X4625293Y16074217D01*
X4524610Y15923534D01*
X4396466Y15795390D01*
X4338341Y15756552D01*
X4245782Y15694706D01*
X4078353Y15625355D01*
X3900613Y15590000D01*
X3719387Y15590000D01*
X3541647Y15625355D01*
X3374218Y15694706D01*
X3281659Y15756552D01*
X3223534Y15795390D01*
X3095390Y15923534D01*
X2994707Y16074217D01*
X2994706Y16074218D01*
X2925355Y16241647D01*
X2890000Y16419387D01*
X2890000Y16600613D01*
X2925355Y16778353D01*
X2994706Y16945782D01*
X3048184Y17025817D01*
X3095390Y17096466D01*
X3223534Y17224610D01*
X3299388Y17275294D01*
X3374218Y17325294D01*
X3541647Y17394645D01*
X3719387Y17430000D01*
X3900613Y17430000D01*
X4078353Y17394645D01*
G37*
G36*
X1785817Y17419761D02*
G01*
X1879877Y17391228D01*
X1966559Y17344896D01*
X2042540Y17282540D01*
X2104896Y17206559D01*
X2151228Y17119877D01*
X2179761Y17025817D01*
X2190000Y16921860D01*
X2190000Y16098140D01*
X2179761Y15994183D01*
X2151228Y15900123D01*
X2104896Y15813441D01*
X2042540Y15737460D01*
X1966559Y15675104D01*
X1879877Y15628772D01*
X1785817Y15600239D01*
X1681860Y15590000D01*
X858140Y15590000D01*
X754183Y15600239D01*
X660123Y15628772D01*
X573441Y15675104D01*
X497460Y15737460D01*
X435104Y15813441D01*
X388772Y15900123D01*
X360239Y15994183D01*
X350000Y16098140D01*
X350000Y16921860D01*
X360239Y17025817D01*
X388772Y17119877D01*
X435104Y17206559D01*
X497460Y17282540D01*
X573441Y17344896D01*
X660123Y17391228D01*
X754183Y17419761D01*
X858140Y17430000D01*
X1681860Y17430000D01*
X1785817Y17419761D01*
G37*
G36*
X9405817Y17419761D02*
G01*
X9499877Y17391228D01*
X9586559Y17344896D01*
X9662540Y17282540D01*
X9724896Y17206559D01*
X9771228Y17119877D01*
X9799761Y17025817D01*
X9810000Y16921860D01*
X9810000Y16098140D01*
X9799761Y15994183D01*
X9771228Y15900123D01*
X9724896Y15813441D01*
X9662540Y15737460D01*
X9586559Y15675104D01*
X9499877Y15628772D01*
X9405817Y15600239D01*
X9301860Y15590000D01*
X8478140Y15590000D01*
X8374183Y15600239D01*
X8280123Y15628772D01*
X8193441Y15675104D01*
X8117460Y15737460D01*
X8055104Y15813441D01*
X8008772Y15900123D01*
X7980239Y15994183D01*
X7970000Y16098140D01*
X7970000Y16921860D01*
X7980239Y17025817D01*
X8008772Y17119877D01*
X8055104Y17206559D01*
X8117460Y17282540D01*
X8193441Y17344896D01*
X8280123Y17391228D01*
X8374183Y17419761D01*
X8478140Y17430000D01*
X9301860Y17430000D01*
X9405817Y17419761D01*
G37*
G36*
X11698353Y17394645D02*
G01*
X11865782Y17325294D01*
X11940612Y17275294D01*
X12016466Y17224610D01*
X12144610Y17096466D01*
X12191816Y17025817D01*
X12245294Y16945782D01*
X12314645Y16778353D01*
X12350000Y16600613D01*
X12350000Y16419387D01*
X12314645Y16241647D01*
X12245294Y16074218D01*
X12245293Y16074217D01*
X12144610Y15923534D01*
X12016466Y15795390D01*
X11958341Y15756552D01*
X11865782Y15694706D01*
X11698353Y15625355D01*
X11520613Y15590000D01*
X11339387Y15590000D01*
X11161647Y15625355D01*
X10994218Y15694706D01*
X10901659Y15756552D01*
X10843534Y15795390D01*
X10715390Y15923534D01*
X10614707Y16074217D01*
X10614706Y16074218D01*
X10545355Y16241647D01*
X10510000Y16419387D01*
X10510000Y16600613D01*
X10545355Y16778353D01*
X10614706Y16945782D01*
X10668184Y17025817D01*
X10715390Y17096466D01*
X10843534Y17224610D01*
X10919388Y17275294D01*
X10994218Y17325294D01*
X11161647Y17394645D01*
X11339387Y17430000D01*
X11520613Y17430000D01*
X11698353Y17394645D01*
G37*
G36*
X26938353Y17394645D02*
G01*
X27105782Y17325294D01*
X27180612Y17275294D01*
X27256466Y17224610D01*
X27384610Y17096466D01*
X27431816Y17025817D01*
X27485294Y16945782D01*
X27554645Y16778353D01*
X27590000Y16600613D01*
X27590000Y16419387D01*
X27554645Y16241647D01*
X27485294Y16074218D01*
X27485293Y16074217D01*
X27384610Y15923534D01*
X27256466Y15795390D01*
X27198341Y15756552D01*
X27105782Y15694706D01*
X26938353Y15625355D01*
X26760613Y15590000D01*
X26579387Y15590000D01*
X26401647Y15625355D01*
X26234218Y15694706D01*
X26141659Y15756552D01*
X26083534Y15795390D01*
X25955390Y15923534D01*
X25854707Y16074217D01*
X25854706Y16074218D01*
X25785355Y16241647D01*
X25750000Y16419387D01*
X25750000Y16600613D01*
X25785355Y16778353D01*
X25854706Y16945782D01*
X25908184Y17025817D01*
X25955390Y17096466D01*
X26083534Y17224610D01*
X26159388Y17275294D01*
X26234218Y17325294D01*
X26401647Y17394645D01*
X26579387Y17430000D01*
X26760613Y17430000D01*
X26938353Y17394645D01*
G37*
M02*
