G04 #@! TF.GenerationSoftware,KiCad,Pcbnew,(5.1.5)-3*
G04 #@! TF.CreationDate,2021-01-27T12:55:09+11:00*
G04 #@! TF.ProjectId,PD_Micro,50445f4d-6963-4726-9f2e-6b696361645f,rev?*
G04 #@! TF.SameCoordinates,PX7ce2370PY67d8790*
G04 #@! TF.FileFunction,Legend,Bot*
G04 #@! TF.FilePolarity,Positive*
%FSLAX46Y46*%
G04 Gerber Fmt 4.6, Leading zero omitted, Abs format (unit mm)*
G04 Created by KiCad (PCBNEW (5.1.5)-3) date 2021-01-27 12:55:09*
%MOMM*%
%LPD*%
G04 APERTURE LIST*
%ADD10C,0.150000*%
%ADD11C,0.300000*%
%ADD12C,0.120000*%
%ADD13C,0.200000*%
%ADD14C,0.400000*%
G04 APERTURE END LIST*
D10*
X27521428Y13266191D02*
X27407142Y13228096D01*
X27216666Y13228096D01*
X27140476Y13266191D01*
X27102380Y13304286D01*
X27064285Y13380477D01*
X27064285Y13456667D01*
X27102380Y13532858D01*
X27140476Y13570953D01*
X27216666Y13609048D01*
X27369047Y13647143D01*
X27445238Y13685239D01*
X27483333Y13723334D01*
X27521428Y13799524D01*
X27521428Y13875715D01*
X27483333Y13951905D01*
X27445238Y13990000D01*
X27369047Y14028096D01*
X27178571Y14028096D01*
X27064285Y13990000D01*
X26721428Y13228096D02*
X26721428Y14028096D01*
X26530952Y14028096D01*
X26416666Y13990000D01*
X26340476Y13913810D01*
X26302380Y13837620D01*
X26264285Y13685239D01*
X26264285Y13570953D01*
X26302380Y13418572D01*
X26340476Y13342381D01*
X26416666Y13266191D01*
X26530952Y13228096D01*
X26721428Y13228096D01*
X25959523Y13456667D02*
X25578571Y13456667D01*
X26035714Y13228096D02*
X25769047Y14028096D01*
X25502380Y13228096D01*
X2883333Y14928096D02*
X2650000Y14128096D01*
X2416666Y14928096D01*
X2050000Y14928096D02*
X1916666Y14928096D01*
X1850000Y14890000D01*
X1783333Y14813810D01*
X1750000Y14661429D01*
X1750000Y14394762D01*
X1783333Y14242381D01*
X1850000Y14166191D01*
X1916666Y14128096D01*
X2050000Y14128096D01*
X2116666Y14166191D01*
X2183333Y14242381D01*
X2216666Y14394762D01*
X2216666Y14661429D01*
X2183333Y14813810D01*
X2116666Y14890000D01*
X2050000Y14928096D01*
X1450000Y14928096D02*
X1450000Y14280477D01*
X1416666Y14204286D01*
X1383333Y14166191D01*
X1316666Y14128096D01*
X1183333Y14128096D01*
X1116666Y14166191D01*
X1083333Y14204286D01*
X1050000Y14280477D01*
X1050000Y14928096D01*
X816666Y14928096D02*
X416666Y14928096D01*
X616666Y14128096D02*
X616666Y14928096D01*
X5159523Y14890000D02*
X5235714Y14928096D01*
X5350000Y14928096D01*
X5464285Y14890000D01*
X5540476Y14813810D01*
X5578571Y14737620D01*
X5616666Y14585239D01*
X5616666Y14470953D01*
X5578571Y14318572D01*
X5540476Y14242381D01*
X5464285Y14166191D01*
X5350000Y14128096D01*
X5273809Y14128096D01*
X5159523Y14166191D01*
X5121428Y14204286D01*
X5121428Y14470953D01*
X5273809Y14470953D01*
X4778571Y14128096D02*
X4778571Y14928096D01*
X4321428Y14128096D01*
X4321428Y14928096D01*
X3940476Y14128096D02*
X3940476Y14928096D01*
X3750000Y14928096D01*
X3635714Y14890000D01*
X3559523Y14813810D01*
X3521428Y14737620D01*
X3483333Y14585239D01*
X3483333Y14470953D01*
X3521428Y14318572D01*
X3559523Y14242381D01*
X3635714Y14166191D01*
X3750000Y14128096D01*
X3940476Y14128096D01*
X2883333Y3628096D02*
X2650000Y2828096D01*
X2416666Y3628096D01*
X2050000Y3628096D02*
X1916666Y3628096D01*
X1850000Y3590000D01*
X1783333Y3513810D01*
X1750000Y3361429D01*
X1750000Y3094762D01*
X1783333Y2942381D01*
X1850000Y2866191D01*
X1916666Y2828096D01*
X2050000Y2828096D01*
X2116666Y2866191D01*
X2183333Y2942381D01*
X2216666Y3094762D01*
X2216666Y3361429D01*
X2183333Y3513810D01*
X2116666Y3590000D01*
X2050000Y3628096D01*
X1450000Y3628096D02*
X1450000Y2980477D01*
X1416666Y2904286D01*
X1383333Y2866191D01*
X1316666Y2828096D01*
X1183333Y2828096D01*
X1116666Y2866191D01*
X1083333Y2904286D01*
X1050000Y2980477D01*
X1050000Y3628096D01*
X816666Y3628096D02*
X416666Y3628096D01*
X616666Y2828096D02*
X616666Y3628096D01*
X5159523Y3590000D02*
X5235714Y3628096D01*
X5350000Y3628096D01*
X5464285Y3590000D01*
X5540476Y3513810D01*
X5578571Y3437620D01*
X5616666Y3285239D01*
X5616666Y3170953D01*
X5578571Y3018572D01*
X5540476Y2942381D01*
X5464285Y2866191D01*
X5350000Y2828096D01*
X5273809Y2828096D01*
X5159523Y2866191D01*
X5121428Y2904286D01*
X5121428Y3170953D01*
X5273809Y3170953D01*
X4778571Y2828096D02*
X4778571Y3628096D01*
X4321428Y2828096D01*
X4321428Y3628096D01*
X3940476Y2828096D02*
X3940476Y3628096D01*
X3750000Y3628096D01*
X3635714Y3590000D01*
X3559523Y3513810D01*
X3521428Y3437620D01*
X3483333Y3285239D01*
X3483333Y3170953D01*
X3521428Y3018572D01*
X3559523Y2942381D01*
X3635714Y2866191D01*
X3750000Y2828096D01*
X3940476Y2828096D01*
X39250000Y7190000D02*
X39250000Y6890000D01*
X39250000Y9290000D02*
X39250000Y8890000D01*
X38811904Y6409048D02*
X38811904Y6332858D01*
X38850000Y6256667D01*
X38888095Y6218572D01*
X38964285Y6180477D01*
X39116666Y6142381D01*
X39307142Y6142381D01*
X39459523Y6180477D01*
X39535714Y6218572D01*
X39573809Y6256667D01*
X39611904Y6332858D01*
X39611904Y6409048D01*
X39573809Y6485239D01*
X39535714Y6523334D01*
X39459523Y6561429D01*
X39307142Y6599524D01*
X39116666Y6599524D01*
X38964285Y6561429D01*
X38888095Y6523334D01*
X38850000Y6485239D01*
X38811904Y6409048D01*
X39611904Y5380477D02*
X39611904Y5837620D01*
X39611904Y5609048D02*
X38811904Y5609048D01*
X38926190Y5685239D01*
X39002380Y5761429D01*
X39040476Y5837620D01*
X38811904Y8409048D02*
X38811904Y8332858D01*
X38850000Y8256667D01*
X38888095Y8218572D01*
X38964285Y8180477D01*
X39116666Y8142381D01*
X39307142Y8142381D01*
X39459523Y8180477D01*
X39535714Y8218572D01*
X39573809Y8256667D01*
X39611904Y8332858D01*
X39611904Y8409048D01*
X39573809Y8485239D01*
X39535714Y8523334D01*
X39459523Y8561429D01*
X39307142Y8599524D01*
X39116666Y8599524D01*
X38964285Y8561429D01*
X38888095Y8523334D01*
X38850000Y8485239D01*
X38811904Y8409048D01*
X38811904Y7456667D02*
X38811904Y7609048D01*
X38850000Y7685239D01*
X38888095Y7723334D01*
X39002380Y7799524D01*
X39154761Y7837620D01*
X39459523Y7837620D01*
X39535714Y7799524D01*
X39573809Y7761429D01*
X39611904Y7685239D01*
X39611904Y7532858D01*
X39573809Y7456667D01*
X39535714Y7418572D01*
X39459523Y7380477D01*
X39269047Y7380477D01*
X39192857Y7418572D01*
X39154761Y7456667D01*
X39116666Y7532858D01*
X39116666Y7685239D01*
X39154761Y7761429D01*
X39192857Y7799524D01*
X39269047Y7837620D01*
X25002380Y13266191D02*
X24888095Y13228096D01*
X24697619Y13228096D01*
X24621428Y13266191D01*
X24583333Y13304286D01*
X24545238Y13380477D01*
X24545238Y13456667D01*
X24583333Y13532858D01*
X24621428Y13570953D01*
X24697619Y13609048D01*
X24850000Y13647143D01*
X24926190Y13685239D01*
X24964285Y13723334D01*
X25002380Y13799524D01*
X25002380Y13875715D01*
X24964285Y13951905D01*
X24926190Y13990000D01*
X24850000Y14028096D01*
X24659523Y14028096D01*
X24545238Y13990000D01*
X23745238Y13304286D02*
X23783333Y13266191D01*
X23897619Y13228096D01*
X23973809Y13228096D01*
X24088095Y13266191D01*
X24164285Y13342381D01*
X24202380Y13418572D01*
X24240476Y13570953D01*
X24240476Y13685239D01*
X24202380Y13837620D01*
X24164285Y13913810D01*
X24088095Y13990000D01*
X23973809Y14028096D01*
X23897619Y14028096D01*
X23783333Y13990000D01*
X23745238Y13951905D01*
X23021428Y13228096D02*
X23402380Y13228096D01*
X23402380Y14028096D01*
X37259523Y14928096D02*
X36802380Y14928096D01*
X37030952Y14128096D02*
X37030952Y14928096D01*
X36611904Y14928096D02*
X36078571Y14128096D01*
X36078571Y14928096D02*
X36611904Y14128096D01*
X34483333Y14128096D02*
X34750000Y14509048D01*
X34940476Y14128096D02*
X34940476Y14928096D01*
X34635714Y14928096D01*
X34559523Y14890000D01*
X34521428Y14851905D01*
X34483333Y14775715D01*
X34483333Y14661429D01*
X34521428Y14585239D01*
X34559523Y14547143D01*
X34635714Y14509048D01*
X34940476Y14509048D01*
X34216666Y14928096D02*
X33683333Y14128096D01*
X33683333Y14928096D02*
X34216666Y14128096D01*
X32459523Y14890000D02*
X32535714Y14928096D01*
X32650000Y14928096D01*
X32764285Y14890000D01*
X32840476Y14813810D01*
X32878571Y14737620D01*
X32916666Y14585239D01*
X32916666Y14470953D01*
X32878571Y14318572D01*
X32840476Y14242381D01*
X32764285Y14166191D01*
X32650000Y14128096D01*
X32573809Y14128096D01*
X32459523Y14166191D01*
X32421428Y14204286D01*
X32421428Y14470953D01*
X32573809Y14470953D01*
X32078571Y14128096D02*
X32078571Y14928096D01*
X31621428Y14128096D01*
X31621428Y14928096D01*
X31240476Y14128096D02*
X31240476Y14928096D01*
X31050000Y14928096D01*
X30935714Y14890000D01*
X30859523Y14813810D01*
X30821428Y14737620D01*
X30783333Y14585239D01*
X30783333Y14470953D01*
X30821428Y14318572D01*
X30859523Y14242381D01*
X30935714Y14166191D01*
X31050000Y14128096D01*
X31240476Y14128096D01*
X29659523Y14890000D02*
X29735714Y14928096D01*
X29850000Y14928096D01*
X29964285Y14890000D01*
X30040476Y14813810D01*
X30078571Y14737620D01*
X30116666Y14585239D01*
X30116666Y14470953D01*
X30078571Y14318572D01*
X30040476Y14242381D01*
X29964285Y14166191D01*
X29850000Y14128096D01*
X29773809Y14128096D01*
X29659523Y14166191D01*
X29621428Y14204286D01*
X29621428Y14470953D01*
X29773809Y14470953D01*
X29278571Y14128096D02*
X29278571Y14928096D01*
X28821428Y14128096D01*
X28821428Y14928096D01*
X28440476Y14128096D02*
X28440476Y14928096D01*
X28250000Y14928096D01*
X28135714Y14890000D01*
X28059523Y14813810D01*
X28021428Y14737620D01*
X27983333Y14585239D01*
X27983333Y14470953D01*
X28021428Y14318572D01*
X28059523Y14242381D01*
X28135714Y14166191D01*
X28250000Y14128096D01*
X28440476Y14128096D01*
X27140476Y14328096D02*
X27140476Y15128096D01*
X26950000Y15128096D01*
X26835714Y15090000D01*
X26759523Y15013810D01*
X26721428Y14937620D01*
X26683333Y14785239D01*
X26683333Y14670953D01*
X26721428Y14518572D01*
X26759523Y14442381D01*
X26835714Y14366191D01*
X26950000Y14328096D01*
X27140476Y14328096D01*
X26378571Y15051905D02*
X26340476Y15090000D01*
X26264285Y15128096D01*
X26073809Y15128096D01*
X25997619Y15090000D01*
X25959523Y15051905D01*
X25921428Y14975715D01*
X25921428Y14899524D01*
X25959523Y14785239D01*
X26416666Y14328096D01*
X25921428Y14328096D01*
X24740476Y14338096D02*
X24740476Y15138096D01*
X24550000Y15138096D01*
X24435714Y15100000D01*
X24359523Y15023810D01*
X24321428Y14947620D01*
X24283333Y14795239D01*
X24283333Y14680953D01*
X24321428Y14528572D01*
X24359523Y14452381D01*
X24435714Y14376191D01*
X24550000Y14338096D01*
X24740476Y14338096D01*
X24016666Y15138096D02*
X23521428Y15138096D01*
X23788095Y14833334D01*
X23673809Y14833334D01*
X23597619Y14795239D01*
X23559523Y14757143D01*
X23521428Y14680953D01*
X23521428Y14490477D01*
X23559523Y14414286D01*
X23597619Y14376191D01*
X23673809Y14338096D01*
X23902380Y14338096D01*
X23978571Y14376191D01*
X24016666Y14414286D01*
X22140476Y14128096D02*
X22140476Y14928096D01*
X21950000Y14928096D01*
X21835714Y14890000D01*
X21759523Y14813810D01*
X21721428Y14737620D01*
X21683333Y14585239D01*
X21683333Y14470953D01*
X21721428Y14318572D01*
X21759523Y14242381D01*
X21835714Y14166191D01*
X21950000Y14128096D01*
X22140476Y14128096D01*
X20997619Y14661429D02*
X20997619Y14128096D01*
X21188095Y14966191D02*
X21378571Y14394762D01*
X20883333Y14394762D01*
X19640476Y14128096D02*
X19640476Y14928096D01*
X19450000Y14928096D01*
X19335714Y14890000D01*
X19259523Y14813810D01*
X19221428Y14737620D01*
X19183333Y14585239D01*
X19183333Y14470953D01*
X19221428Y14318572D01*
X19259523Y14242381D01*
X19335714Y14166191D01*
X19450000Y14128096D01*
X19640476Y14128096D01*
X18459523Y14928096D02*
X18840476Y14928096D01*
X18878571Y14547143D01*
X18840476Y14585239D01*
X18764285Y14623334D01*
X18573809Y14623334D01*
X18497619Y14585239D01*
X18459523Y14547143D01*
X18421428Y14470953D01*
X18421428Y14280477D01*
X18459523Y14204286D01*
X18497619Y14166191D01*
X18573809Y14128096D01*
X18764285Y14128096D01*
X18840476Y14166191D01*
X18878571Y14204286D01*
X17440476Y14128096D02*
X17440476Y14928096D01*
X17250000Y14928096D01*
X17135714Y14890000D01*
X17059523Y14813810D01*
X17021428Y14737620D01*
X16983333Y14585239D01*
X16983333Y14470953D01*
X17021428Y14318572D01*
X17059523Y14242381D01*
X17135714Y14166191D01*
X17250000Y14128096D01*
X17440476Y14128096D01*
X16297619Y14928096D02*
X16450000Y14928096D01*
X16526190Y14890000D01*
X16564285Y14851905D01*
X16640476Y14737620D01*
X16678571Y14585239D01*
X16678571Y14280477D01*
X16640476Y14204286D01*
X16602380Y14166191D01*
X16526190Y14128096D01*
X16373809Y14128096D01*
X16297619Y14166191D01*
X16259523Y14204286D01*
X16221428Y14280477D01*
X16221428Y14470953D01*
X16259523Y14547143D01*
X16297619Y14585239D01*
X16373809Y14623334D01*
X16526190Y14623334D01*
X16602380Y14585239D01*
X16640476Y14547143D01*
X16678571Y14470953D01*
X14440476Y14128096D02*
X14440476Y14928096D01*
X14250000Y14928096D01*
X14135714Y14890000D01*
X14059523Y14813810D01*
X14021428Y14737620D01*
X13983333Y14585239D01*
X13983333Y14470953D01*
X14021428Y14318572D01*
X14059523Y14242381D01*
X14135714Y14166191D01*
X14250000Y14128096D01*
X14440476Y14128096D01*
X13716666Y14928096D02*
X13183333Y14928096D01*
X13526190Y14128096D01*
X11940476Y14128096D02*
X11940476Y14928096D01*
X11750000Y14928096D01*
X11635714Y14890000D01*
X11559523Y14813810D01*
X11521428Y14737620D01*
X11483333Y14585239D01*
X11483333Y14470953D01*
X11521428Y14318572D01*
X11559523Y14242381D01*
X11635714Y14166191D01*
X11750000Y14128096D01*
X11940476Y14128096D01*
X11026190Y14585239D02*
X11102380Y14623334D01*
X11140476Y14661429D01*
X11178571Y14737620D01*
X11178571Y14775715D01*
X11140476Y14851905D01*
X11102380Y14890000D01*
X11026190Y14928096D01*
X10873809Y14928096D01*
X10797619Y14890000D01*
X10759523Y14851905D01*
X10721428Y14775715D01*
X10721428Y14737620D01*
X10759523Y14661429D01*
X10797619Y14623334D01*
X10873809Y14585239D01*
X11026190Y14585239D01*
X11102380Y14547143D01*
X11140476Y14509048D01*
X11178571Y14432858D01*
X11178571Y14280477D01*
X11140476Y14204286D01*
X11102380Y14166191D01*
X11026190Y14128096D01*
X10873809Y14128096D01*
X10797619Y14166191D01*
X10759523Y14204286D01*
X10721428Y14280477D01*
X10721428Y14432858D01*
X10759523Y14509048D01*
X10797619Y14547143D01*
X10873809Y14585239D01*
X9490476Y14128096D02*
X9490476Y14928096D01*
X9300000Y14928096D01*
X9185714Y14890000D01*
X9109523Y14813810D01*
X9071428Y14737620D01*
X9033333Y14585239D01*
X9033333Y14470953D01*
X9071428Y14318572D01*
X9109523Y14242381D01*
X9185714Y14166191D01*
X9300000Y14128096D01*
X9490476Y14128096D01*
X8652380Y14128096D02*
X8500000Y14128096D01*
X8423809Y14166191D01*
X8385714Y14204286D01*
X8309523Y14318572D01*
X8271428Y14470953D01*
X8271428Y14775715D01*
X8309523Y14851905D01*
X8347619Y14890000D01*
X8423809Y14928096D01*
X8576190Y14928096D01*
X8652380Y14890000D01*
X8690476Y14851905D01*
X8728571Y14775715D01*
X8728571Y14585239D01*
X8690476Y14509048D01*
X8652380Y14470953D01*
X8576190Y14432858D01*
X8423809Y14432858D01*
X8347619Y14470953D01*
X8309523Y14509048D01*
X8271428Y14585239D01*
X32088095Y2828096D02*
X32354761Y3209048D01*
X32545238Y2828096D02*
X32545238Y3628096D01*
X32240476Y3628096D01*
X32164285Y3590000D01*
X32126190Y3551905D01*
X32088095Y3475715D01*
X32088095Y3361429D01*
X32126190Y3285239D01*
X32164285Y3247143D01*
X32240476Y3209048D01*
X32545238Y3209048D01*
X31783333Y2866191D02*
X31669047Y2828096D01*
X31478571Y2828096D01*
X31402380Y2866191D01*
X31364285Y2904286D01*
X31326190Y2980477D01*
X31326190Y3056667D01*
X31364285Y3132858D01*
X31402380Y3170953D01*
X31478571Y3209048D01*
X31630952Y3247143D01*
X31707142Y3285239D01*
X31745238Y3323334D01*
X31783333Y3399524D01*
X31783333Y3475715D01*
X31745238Y3551905D01*
X31707142Y3590000D01*
X31630952Y3628096D01*
X31440476Y3628096D01*
X31326190Y3590000D01*
X31097619Y3628096D02*
X30640476Y3628096D01*
X30869047Y2828096D02*
X30869047Y3628096D01*
X38333333Y3628096D02*
X38100000Y2828096D01*
X37866666Y3628096D01*
X37400000Y3247143D02*
X37300000Y3209048D01*
X37266666Y3170953D01*
X37233333Y3094762D01*
X37233333Y2980477D01*
X37266666Y2904286D01*
X37300000Y2866191D01*
X37366666Y2828096D01*
X37633333Y2828096D01*
X37633333Y3628096D01*
X37400000Y3628096D01*
X37333333Y3590000D01*
X37300000Y3551905D01*
X37266666Y3475715D01*
X37266666Y3399524D01*
X37300000Y3323334D01*
X37333333Y3285239D01*
X37400000Y3247143D01*
X37633333Y3247143D01*
X36933333Y3628096D02*
X36933333Y2980477D01*
X36900000Y2904286D01*
X36866666Y2866191D01*
X36800000Y2828096D01*
X36666666Y2828096D01*
X36600000Y2866191D01*
X36566666Y2904286D01*
X36533333Y2980477D01*
X36533333Y3628096D01*
X36233333Y2866191D02*
X36133333Y2828096D01*
X35966666Y2828096D01*
X35900000Y2866191D01*
X35866666Y2904286D01*
X35833333Y2980477D01*
X35833333Y3056667D01*
X35866666Y3132858D01*
X35900000Y3170953D01*
X35966666Y3209048D01*
X36100000Y3247143D01*
X36166666Y3285239D01*
X36200000Y3323334D01*
X36233333Y3399524D01*
X36233333Y3475715D01*
X36200000Y3551905D01*
X36166666Y3590000D01*
X36100000Y3628096D01*
X35933333Y3628096D01*
X35833333Y3590000D01*
X34859523Y3590000D02*
X34935714Y3628096D01*
X35050000Y3628096D01*
X35164285Y3590000D01*
X35240476Y3513810D01*
X35278571Y3437620D01*
X35316666Y3285239D01*
X35316666Y3170953D01*
X35278571Y3018572D01*
X35240476Y2942381D01*
X35164285Y2866191D01*
X35050000Y2828096D01*
X34973809Y2828096D01*
X34859523Y2866191D01*
X34821428Y2904286D01*
X34821428Y3170953D01*
X34973809Y3170953D01*
X34478571Y2828096D02*
X34478571Y3628096D01*
X34021428Y2828096D01*
X34021428Y3628096D01*
X33640476Y2828096D02*
X33640476Y3628096D01*
X33450000Y3628096D01*
X33335714Y3590000D01*
X33259523Y3513810D01*
X33221428Y3437620D01*
X33183333Y3285239D01*
X33183333Y3170953D01*
X33221428Y3018572D01*
X33259523Y2942381D01*
X33335714Y2866191D01*
X33450000Y2828096D01*
X33640476Y2828096D01*
X29302380Y3628096D02*
X29683333Y3628096D01*
X29721428Y3247143D01*
X29683333Y3285239D01*
X29607142Y3323334D01*
X29416666Y3323334D01*
X29340476Y3285239D01*
X29302380Y3247143D01*
X29264285Y3170953D01*
X29264285Y2980477D01*
X29302380Y2904286D01*
X29340476Y2866191D01*
X29416666Y2828096D01*
X29607142Y2828096D01*
X29683333Y2866191D01*
X29721428Y2904286D01*
X29035714Y3628096D02*
X28769047Y2828096D01*
X28502380Y3628096D01*
X27221428Y3056667D02*
X26840476Y3056667D01*
X27297619Y2828096D02*
X27030952Y3628096D01*
X26764285Y2828096D01*
X26573809Y3628096D02*
X26078571Y3628096D01*
X26345238Y3323334D01*
X26230952Y3323334D01*
X26154761Y3285239D01*
X26116666Y3247143D01*
X26078571Y3170953D01*
X26078571Y2980477D01*
X26116666Y2904286D01*
X26154761Y2866191D01*
X26230952Y2828096D01*
X26459523Y2828096D01*
X26535714Y2866191D01*
X26573809Y2904286D01*
X24721428Y3056667D02*
X24340476Y3056667D01*
X24797619Y2828096D02*
X24530952Y3628096D01*
X24264285Y2828096D01*
X24035714Y3551905D02*
X23997619Y3590000D01*
X23921428Y3628096D01*
X23730952Y3628096D01*
X23654761Y3590000D01*
X23616666Y3551905D01*
X23578571Y3475715D01*
X23578571Y3399524D01*
X23616666Y3285239D01*
X24073809Y2828096D01*
X23578571Y2828096D01*
X22021428Y3056667D02*
X21640476Y3056667D01*
X22097619Y2828096D02*
X21830952Y3628096D01*
X21564285Y2828096D01*
X20878571Y2828096D02*
X21335714Y2828096D01*
X21107142Y2828096D02*
X21107142Y3628096D01*
X21183333Y3513810D01*
X21259523Y3437620D01*
X21335714Y3399524D01*
X19621428Y3056667D02*
X19240476Y3056667D01*
X19697619Y2828096D02*
X19430952Y3628096D01*
X19164285Y2828096D01*
X18745238Y3628096D02*
X18669047Y3628096D01*
X18592857Y3590000D01*
X18554761Y3551905D01*
X18516666Y3475715D01*
X18478571Y3323334D01*
X18478571Y3132858D01*
X18516666Y2980477D01*
X18554761Y2904286D01*
X18592857Y2866191D01*
X18669047Y2828096D01*
X18745238Y2828096D01*
X18821428Y2866191D01*
X18859523Y2904286D01*
X18897619Y2980477D01*
X18935714Y3132858D01*
X18935714Y3323334D01*
X18897619Y3475715D01*
X18859523Y3551905D01*
X18821428Y3590000D01*
X18745238Y3628096D01*
X9621428Y2828096D02*
X9621428Y3628096D01*
X9430952Y3628096D01*
X9316666Y3590000D01*
X9240476Y3513810D01*
X9202380Y3437620D01*
X9164285Y3285239D01*
X9164285Y3170953D01*
X9202380Y3018572D01*
X9240476Y2942381D01*
X9316666Y2866191D01*
X9430952Y2828096D01*
X9621428Y2828096D01*
X8402380Y2828096D02*
X8859523Y2828096D01*
X8630952Y2828096D02*
X8630952Y3628096D01*
X8707142Y3513810D01*
X8783333Y3437620D01*
X8859523Y3399524D01*
X7907142Y3628096D02*
X7830952Y3628096D01*
X7754761Y3590000D01*
X7716666Y3551905D01*
X7678571Y3475715D01*
X7640476Y3323334D01*
X7640476Y3132858D01*
X7678571Y2980477D01*
X7716666Y2904286D01*
X7754761Y2866191D01*
X7830952Y2828096D01*
X7907142Y2828096D01*
X7983333Y2866191D01*
X8021428Y2904286D01*
X8059523Y2980477D01*
X8097619Y3132858D01*
X8097619Y3323334D01*
X8059523Y3475715D01*
X8021428Y3551905D01*
X7983333Y3590000D01*
X7907142Y3628096D01*
X17878571Y2866191D02*
X17764285Y2828096D01*
X17573809Y2828096D01*
X17497619Y2866191D01*
X17459523Y2904286D01*
X17421428Y2980477D01*
X17421428Y3056667D01*
X17459523Y3132858D01*
X17497619Y3170953D01*
X17573809Y3209048D01*
X17726190Y3247143D01*
X17802380Y3285239D01*
X17840476Y3323334D01*
X17878571Y3399524D01*
X17878571Y3475715D01*
X17840476Y3551905D01*
X17802380Y3590000D01*
X17726190Y3628096D01*
X17535714Y3628096D01*
X17421428Y3590000D01*
X16621428Y2904286D02*
X16659523Y2866191D01*
X16773809Y2828096D01*
X16850000Y2828096D01*
X16964285Y2866191D01*
X17040476Y2942381D01*
X17078571Y3018572D01*
X17116666Y3170953D01*
X17116666Y3285239D01*
X17078571Y3437620D01*
X17040476Y3513810D01*
X16964285Y3590000D01*
X16850000Y3628096D01*
X16773809Y3628096D01*
X16659523Y3590000D01*
X16621428Y3551905D01*
X16278571Y2828096D02*
X16278571Y3628096D01*
X15821428Y2828096D02*
X16164285Y3285239D01*
X15821428Y3628096D02*
X16278571Y3170953D01*
X15250000Y2828096D02*
X15250000Y3628096D01*
X15016666Y3056667D01*
X14783333Y3628096D01*
X14783333Y2828096D01*
X14450000Y2828096D02*
X14450000Y3628096D01*
X14150000Y2866191D02*
X14050000Y2828096D01*
X13883333Y2828096D01*
X13816666Y2866191D01*
X13783333Y2904286D01*
X13750000Y2980477D01*
X13750000Y3056667D01*
X13783333Y3132858D01*
X13816666Y3170953D01*
X13883333Y3209048D01*
X14016666Y3247143D01*
X14083333Y3285239D01*
X14116666Y3323334D01*
X14150000Y3399524D01*
X14150000Y3475715D01*
X14116666Y3551905D01*
X14083333Y3590000D01*
X14016666Y3628096D01*
X13850000Y3628096D01*
X13750000Y3590000D01*
X13316666Y3628096D02*
X13183333Y3628096D01*
X13116666Y3590000D01*
X13050000Y3513810D01*
X13016666Y3361429D01*
X13016666Y3094762D01*
X13050000Y2942381D01*
X13116666Y2866191D01*
X13183333Y2828096D01*
X13316666Y2828096D01*
X13383333Y2866191D01*
X13450000Y2942381D01*
X13483333Y3094762D01*
X13483333Y3361429D01*
X13450000Y3513810D01*
X13383333Y3590000D01*
X13316666Y3628096D01*
X12450000Y2828096D02*
X12450000Y3628096D01*
X12216666Y3056667D01*
X11983333Y3628096D01*
X11983333Y2828096D01*
X11516666Y3628096D02*
X11383333Y3628096D01*
X11316666Y3590000D01*
X11250000Y3513810D01*
X11216666Y3361429D01*
X11216666Y3094762D01*
X11250000Y2942381D01*
X11316666Y2866191D01*
X11383333Y2828096D01*
X11516666Y2828096D01*
X11583333Y2866191D01*
X11650000Y2942381D01*
X11683333Y3094762D01*
X11683333Y3361429D01*
X11650000Y3513810D01*
X11583333Y3590000D01*
X11516666Y3628096D01*
X10950000Y2866191D02*
X10850000Y2828096D01*
X10683333Y2828096D01*
X10616666Y2866191D01*
X10583333Y2904286D01*
X10550000Y2980477D01*
X10550000Y3056667D01*
X10583333Y3132858D01*
X10616666Y3170953D01*
X10683333Y3209048D01*
X10816666Y3247143D01*
X10883333Y3285239D01*
X10916666Y3323334D01*
X10950000Y3399524D01*
X10950000Y3475715D01*
X10916666Y3551905D01*
X10883333Y3590000D01*
X10816666Y3628096D01*
X10650000Y3628096D01*
X10550000Y3590000D01*
X10250000Y2828096D02*
X10250000Y3628096D01*
D11*
X1705000Y10592858D02*
X562143Y10592858D01*
X1133571Y10021429D02*
X1133571Y11164286D01*
X1192857Y6552143D02*
X1192857Y7695000D01*
D10*
X38888095Y12261429D02*
X38850000Y12223334D01*
X38811904Y12147143D01*
X38811904Y11956667D01*
X38850000Y11880477D01*
X38888095Y11842381D01*
X38964285Y11804286D01*
X39040476Y11804286D01*
X39154761Y11842381D01*
X39611904Y12299524D01*
X39611904Y11804286D01*
X38811904Y11309048D02*
X38811904Y11232858D01*
X38850000Y11156667D01*
X38888095Y11118572D01*
X38964285Y11080477D01*
X39116666Y11042381D01*
X39307142Y11042381D01*
X39459523Y11080477D01*
X39535714Y11118572D01*
X39573809Y11156667D01*
X39611904Y11232858D01*
X39611904Y11309048D01*
X39573809Y11385239D01*
X39535714Y11423334D01*
X39459523Y11461429D01*
X39307142Y11499524D01*
X39116666Y11499524D01*
X38964285Y11461429D01*
X38888095Y11423334D01*
X38850000Y11385239D01*
X38811904Y11309048D01*
X38888095Y10737620D02*
X38850000Y10699524D01*
X38811904Y10623334D01*
X38811904Y10432858D01*
X38850000Y10356667D01*
X38888095Y10318572D01*
X38964285Y10280477D01*
X39040476Y10280477D01*
X39154761Y10318572D01*
X39611904Y10775715D01*
X39611904Y10280477D01*
X38811904Y9785239D02*
X38811904Y9709048D01*
X38850000Y9632858D01*
X38888095Y9594762D01*
X38964285Y9556667D01*
X39116666Y9518572D01*
X39307142Y9518572D01*
X39459523Y9556667D01*
X39535714Y9594762D01*
X39573809Y9632858D01*
X39611904Y9709048D01*
X39611904Y9785239D01*
X39573809Y9861429D01*
X39535714Y9899524D01*
X39459523Y9937620D01*
X39307142Y9975715D01*
X39116666Y9975715D01*
X38964285Y9937620D01*
X38888095Y9899524D01*
X38850000Y9861429D01*
X38811904Y9785239D01*
D11*
X37892857Y12661429D02*
X36692857Y12661429D01*
X36692857Y12204286D01*
X36750000Y12090000D01*
X36807142Y12032858D01*
X36921428Y11975715D01*
X37092857Y11975715D01*
X37207142Y12032858D01*
X37264285Y12090000D01*
X37321428Y12204286D01*
X37321428Y12661429D01*
X37892857Y11461429D02*
X36692857Y11461429D01*
X36692857Y11175715D01*
X36750000Y11004286D01*
X36864285Y10890000D01*
X36978571Y10832858D01*
X37207142Y10775715D01*
X37378571Y10775715D01*
X37607142Y10832858D01*
X37721428Y10890000D01*
X37835714Y11004286D01*
X37892857Y11175715D01*
X37892857Y11461429D01*
X37892857Y9347143D02*
X36692857Y9347143D01*
X37550000Y8947143D01*
X36692857Y8547143D01*
X37892857Y8547143D01*
X37892857Y7975715D02*
X37092857Y7975715D01*
X36692857Y7975715D02*
X36750000Y8032858D01*
X36807142Y7975715D01*
X36750000Y7918572D01*
X36692857Y7975715D01*
X36807142Y7975715D01*
X37835714Y6890000D02*
X37892857Y7004286D01*
X37892857Y7232858D01*
X37835714Y7347143D01*
X37778571Y7404286D01*
X37664285Y7461429D01*
X37321428Y7461429D01*
X37207142Y7404286D01*
X37150000Y7347143D01*
X37092857Y7232858D01*
X37092857Y7004286D01*
X37150000Y6890000D01*
X37892857Y6375715D02*
X37092857Y6375715D01*
X37321428Y6375715D02*
X37207142Y6318572D01*
X37150000Y6261429D01*
X37092857Y6147143D01*
X37092857Y6032858D01*
X37892857Y5461429D02*
X37835714Y5575715D01*
X37778571Y5632858D01*
X37664285Y5690000D01*
X37321428Y5690000D01*
X37207142Y5632858D01*
X37150000Y5575715D01*
X37092857Y5461429D01*
X37092857Y5290000D01*
X37150000Y5175715D01*
X37207142Y5118572D01*
X37321428Y5061429D01*
X37664285Y5061429D01*
X37778571Y5118572D01*
X37835714Y5175715D01*
X37892857Y5290000D01*
X37892857Y5461429D01*
D12*
X18650000Y9040000D02*
X18650000Y5040000D01*
X22850000Y9040000D02*
X22850000Y5040000D01*
D13*
X8050000Y13140000D02*
X8050000Y12890000D01*
X8050000Y13140000D02*
X5450000Y13140000D01*
X5450000Y13140000D02*
X5450000Y12890000D01*
X5450000Y10440000D02*
X5450000Y10690000D01*
X8050000Y10440000D02*
X8050000Y10690000D01*
X5450000Y10440000D02*
X8050000Y10440000D01*
D11*
X8600000Y13140000D02*
G75*
G03X8600000Y13140000I-150000J0D01*
G01*
D12*
X26720000Y10712500D02*
X26720000Y10922500D01*
X23980000Y10712500D02*
X23980000Y10922500D01*
D14*
X27050000Y7852500D02*
G75*
G03X27050000Y7852500I-100000J0D01*
G01*
D12*
X26720000Y8392500D02*
X26720000Y8182500D01*
X26720000Y10922500D02*
X26260000Y10922500D01*
X23980000Y8392500D02*
X23980000Y8182500D01*
X23980000Y8182500D02*
X24440000Y8182500D01*
X23980000Y10922500D02*
X24440000Y10922500D01*
D10*
X7430000Y4890000D02*
X6050000Y4890000D01*
X6050000Y7090000D02*
X8050000Y7090000D01*
X6050000Y7090000D02*
X6050000Y6490000D01*
X6050000Y5490000D02*
X6050000Y4890000D01*
X7250000Y8540000D02*
X6250000Y8540000D01*
X6250000Y7440000D02*
X7250000Y7440000D01*
X6250000Y8940000D02*
X7250000Y8940000D01*
X7250000Y10040000D02*
X6250000Y10040000D01*
X14700000Y8265000D02*
X16625000Y8265000D01*
X15475000Y11515000D02*
X16625000Y11515000D01*
D11*
X14550000Y8490000D02*
G75*
G03X14550000Y8490000I-100000J0D01*
G01*
D12*
X29550000Y6440000D02*
X30550000Y6440000D01*
X30550000Y7540000D02*
X29550000Y7540000D01*
X29550000Y8040000D02*
X30550000Y8040000D01*
X30550000Y9140000D02*
X29550000Y9140000D01*
X23950000Y5340000D02*
X24950000Y5340000D01*
X24950000Y6440000D02*
X23950000Y6440000D01*
D10*
X14600000Y13040000D02*
X13600000Y13040000D01*
X13600000Y11940000D02*
X14600000Y11940000D01*
X17500000Y13040000D02*
X16500000Y13040000D01*
X16500000Y11940000D02*
X17500000Y11940000D01*
X15850000Y6090000D02*
X16850000Y6090000D01*
X16850000Y4690000D02*
X15850000Y4690000D01*
X24500000Y12890000D02*
X25500000Y12890000D01*
X25500000Y11490000D02*
X24500000Y11490000D01*
X16850000Y6490000D02*
X15850000Y6490000D01*
X15850000Y7890000D02*
X16850000Y7890000D01*
X20750000Y10340000D02*
X21750000Y10340000D01*
X21750000Y11440000D02*
X20750000Y11440000D01*
X20750000Y11840000D02*
X21750000Y11840000D01*
X21750000Y12940000D02*
X20750000Y12940000D01*
D12*
X26000000Y6890000D02*
X26000000Y5890000D01*
X27100000Y5890000D02*
X27100000Y6890000D01*
D10*
X30550000Y13090000D02*
X29550000Y13090000D01*
X29550000Y11990000D02*
X30550000Y11990000D01*
X30550000Y11190000D02*
X29550000Y11190000D01*
X29550000Y10090000D02*
X30550000Y10090000D01*
D12*
X9950000Y8570000D02*
X10950000Y8570000D01*
X9950000Y5210000D02*
X10950000Y5210000D01*
X9950000Y12570000D02*
X10950000Y12570000D01*
X9950000Y9210000D02*
X10950000Y9210000D01*
D10*
X34450000Y8640000D02*
X33450000Y8640000D01*
X33450000Y7540000D02*
X34450000Y7540000D01*
D12*
X34550000Y10240000D02*
X33550000Y10240000D01*
X33550000Y9140000D02*
X34550000Y9140000D01*
D10*
X29150000Y6090000D02*
X30150000Y6090000D01*
X30150000Y4690000D02*
X29150000Y4690000D01*
X14350000Y6890000D02*
X14350000Y5890000D01*
X12950000Y5890000D02*
X12950000Y6890000D01*
X12750000Y9490000D02*
X12750000Y10490000D01*
X14150000Y10490000D02*
X14150000Y9490000D01*
X23961904Y7323334D02*
X23961904Y7704286D01*
X23161904Y7704286D01*
X23961904Y6637620D02*
X23961904Y7094762D01*
X23961904Y6866191D02*
X23161904Y6866191D01*
X23276190Y6942381D01*
X23352380Y7018572D01*
X23390476Y7094762D01*
X4426190Y12151905D02*
X4502380Y12190000D01*
X4578571Y12266191D01*
X4692857Y12380477D01*
X4769047Y12418572D01*
X4845238Y12418572D01*
X4807142Y12228096D02*
X4883333Y12266191D01*
X4959523Y12342381D01*
X4997619Y12494762D01*
X4997619Y12761429D01*
X4959523Y12913810D01*
X4883333Y12990000D01*
X4807142Y13028096D01*
X4654761Y13028096D01*
X4578571Y12990000D01*
X4502380Y12913810D01*
X4464285Y12761429D01*
X4464285Y12494762D01*
X4502380Y12342381D01*
X4578571Y12266191D01*
X4654761Y12228096D01*
X4807142Y12228096D01*
X3702380Y12228096D02*
X4159523Y12228096D01*
X3930952Y12228096D02*
X3930952Y13028096D01*
X4007142Y12913810D01*
X4083333Y12837620D01*
X4159523Y12799524D01*
X25859523Y7678096D02*
X25859523Y7030477D01*
X25821428Y6954286D01*
X25783333Y6916191D01*
X25707142Y6878096D01*
X25554761Y6878096D01*
X25478571Y6916191D01*
X25440476Y6954286D01*
X25402380Y7030477D01*
X25402380Y7678096D01*
X24678571Y7411429D02*
X24678571Y6878096D01*
X24869047Y7716191D02*
X25059523Y7144762D01*
X24564285Y7144762D01*
X4826190Y4551905D02*
X4902380Y4590000D01*
X4978571Y4666191D01*
X5092857Y4780477D01*
X5169047Y4818572D01*
X5245238Y4818572D01*
X5207142Y4628096D02*
X5283333Y4666191D01*
X5359523Y4742381D01*
X5397619Y4894762D01*
X5397619Y5161429D01*
X5359523Y5313810D01*
X5283333Y5390000D01*
X5207142Y5428096D01*
X5054761Y5428096D01*
X4978571Y5390000D01*
X4902380Y5313810D01*
X4864285Y5161429D01*
X4864285Y4894762D01*
X4902380Y4742381D01*
X4978571Y4666191D01*
X5054761Y4628096D01*
X5207142Y4628096D01*
X4559523Y5351905D02*
X4521428Y5390000D01*
X4445238Y5428096D01*
X4254761Y5428096D01*
X4178571Y5390000D01*
X4140476Y5351905D01*
X4102380Y5275715D01*
X4102380Y5199524D01*
X4140476Y5085239D01*
X4597619Y4628096D01*
X4102380Y4628096D01*
X6883333Y3628096D02*
X7150000Y4009048D01*
X7340476Y3628096D02*
X7340476Y4428096D01*
X7035714Y4428096D01*
X6959523Y4390000D01*
X6921428Y4351905D01*
X6883333Y4275715D01*
X6883333Y4161429D01*
X6921428Y4085239D01*
X6959523Y4047143D01*
X7035714Y4009048D01*
X7340476Y4009048D01*
X6616666Y4428096D02*
X6121428Y4428096D01*
X6388095Y4123334D01*
X6273809Y4123334D01*
X6197619Y4085239D01*
X6159523Y4047143D01*
X6121428Y3970953D01*
X6121428Y3780477D01*
X6159523Y3704286D01*
X6197619Y3666191D01*
X6273809Y3628096D01*
X6502380Y3628096D01*
X6578571Y3666191D01*
X6616666Y3704286D01*
X6883333Y13428096D02*
X7150000Y13809048D01*
X7340476Y13428096D02*
X7340476Y14228096D01*
X7035714Y14228096D01*
X6959523Y14190000D01*
X6921428Y14151905D01*
X6883333Y14075715D01*
X6883333Y13961429D01*
X6921428Y13885239D01*
X6959523Y13847143D01*
X7035714Y13809048D01*
X7340476Y13809048D01*
X6121428Y13428096D02*
X6578571Y13428096D01*
X6350000Y13428096D02*
X6350000Y14228096D01*
X6426190Y14113810D01*
X6502380Y14037620D01*
X6578571Y13999524D01*
X18859523Y10528096D02*
X18859523Y9880477D01*
X18821428Y9804286D01*
X18783333Y9766191D01*
X18707142Y9728096D01*
X18554761Y9728096D01*
X18478571Y9766191D01*
X18440476Y9804286D01*
X18402380Y9880477D01*
X18402380Y10528096D01*
X17602380Y9728096D02*
X18059523Y9728096D01*
X17830952Y9728096D02*
X17830952Y10528096D01*
X17907142Y10413810D01*
X17983333Y10337620D01*
X18059523Y10299524D01*
X31514285Y6875715D02*
X31476190Y6837620D01*
X31438095Y6723334D01*
X31438095Y6647143D01*
X31476190Y6532858D01*
X31552380Y6456667D01*
X31628571Y6418572D01*
X31780952Y6380477D01*
X31895238Y6380477D01*
X32047619Y6418572D01*
X32123809Y6456667D01*
X32200000Y6532858D01*
X32238095Y6647143D01*
X32238095Y6723334D01*
X32200000Y6837620D01*
X32161904Y6875715D01*
X31438095Y7637620D02*
X31438095Y7180477D01*
X31438095Y7409048D02*
X32238095Y7409048D01*
X32123809Y7332858D01*
X32047619Y7256667D01*
X32009523Y7180477D01*
X32238095Y7904286D02*
X32238095Y8437620D01*
X31438095Y8094762D01*
X28585714Y8904286D02*
X28623809Y8942381D01*
X28661904Y9056667D01*
X28661904Y9132858D01*
X28623809Y9247143D01*
X28547619Y9323334D01*
X28471428Y9361429D01*
X28319047Y9399524D01*
X28204761Y9399524D01*
X28052380Y9361429D01*
X27976190Y9323334D01*
X27900000Y9247143D01*
X27861904Y9132858D01*
X27861904Y9056667D01*
X27900000Y8942381D01*
X27938095Y8904286D01*
X28661904Y8142381D02*
X28661904Y8599524D01*
X28661904Y8370953D02*
X27861904Y8370953D01*
X27976190Y8447143D01*
X28052380Y8523334D01*
X28090476Y8599524D01*
X27861904Y7456667D02*
X27861904Y7609048D01*
X27900000Y7685239D01*
X27938095Y7723334D01*
X28052380Y7799524D01*
X28204761Y7837620D01*
X28509523Y7837620D01*
X28585714Y7799524D01*
X28623809Y7761429D01*
X28661904Y7685239D01*
X28661904Y7532858D01*
X28623809Y7456667D01*
X28585714Y7418572D01*
X28509523Y7380477D01*
X28319047Y7380477D01*
X28242857Y7418572D01*
X28204761Y7456667D01*
X28166666Y7532858D01*
X28166666Y7685239D01*
X28204761Y7761429D01*
X28242857Y7799524D01*
X28319047Y7837620D01*
X24614285Y4354286D02*
X24652380Y4316191D01*
X24766666Y4278096D01*
X24842857Y4278096D01*
X24957142Y4316191D01*
X25033333Y4392381D01*
X25071428Y4468572D01*
X25109523Y4620953D01*
X25109523Y4735239D01*
X25071428Y4887620D01*
X25033333Y4963810D01*
X24957142Y5040000D01*
X24842857Y5078096D01*
X24766666Y5078096D01*
X24652380Y5040000D01*
X24614285Y5001905D01*
X23852380Y4278096D02*
X24309523Y4278096D01*
X24080952Y4278096D02*
X24080952Y5078096D01*
X24157142Y4963810D01*
X24233333Y4887620D01*
X24309523Y4849524D01*
X23128571Y5078096D02*
X23509523Y5078096D01*
X23547619Y4697143D01*
X23509523Y4735239D01*
X23433333Y4773334D01*
X23242857Y4773334D01*
X23166666Y4735239D01*
X23128571Y4697143D01*
X23090476Y4620953D01*
X23090476Y4430477D01*
X23128571Y4354286D01*
X23166666Y4316191D01*
X23242857Y4278096D01*
X23433333Y4278096D01*
X23509523Y4316191D01*
X23547619Y4354286D01*
X12233333Y12728096D02*
X12500000Y13109048D01*
X12690476Y12728096D02*
X12690476Y13528096D01*
X12385714Y13528096D01*
X12309523Y13490000D01*
X12271428Y13451905D01*
X12233333Y13375715D01*
X12233333Y13261429D01*
X12271428Y13185239D01*
X12309523Y13147143D01*
X12385714Y13109048D01*
X12690476Y13109048D01*
X11547619Y13261429D02*
X11547619Y12728096D01*
X11738095Y13566191D02*
X11928571Y12994762D01*
X11433333Y12994762D01*
X19183333Y12078096D02*
X19450000Y12459048D01*
X19640476Y12078096D02*
X19640476Y12878096D01*
X19335714Y12878096D01*
X19259523Y12840000D01*
X19221428Y12801905D01*
X19183333Y12725715D01*
X19183333Y12611429D01*
X19221428Y12535239D01*
X19259523Y12497143D01*
X19335714Y12459048D01*
X19640476Y12459048D01*
X18878571Y12801905D02*
X18840476Y12840000D01*
X18764285Y12878096D01*
X18573809Y12878096D01*
X18497619Y12840000D01*
X18459523Y12801905D01*
X18421428Y12725715D01*
X18421428Y12649524D01*
X18459523Y12535239D01*
X18916666Y12078096D01*
X18421428Y12078096D01*
X27483333Y11604286D02*
X27521428Y11566191D01*
X27635714Y11528096D01*
X27711904Y11528096D01*
X27826190Y11566191D01*
X27902380Y11642381D01*
X27940476Y11718572D01*
X27978571Y11870953D01*
X27978571Y11985239D01*
X27940476Y12137620D01*
X27902380Y12213810D01*
X27826190Y12290000D01*
X27711904Y12328096D01*
X27635714Y12328096D01*
X27521428Y12290000D01*
X27483333Y12251905D01*
X27216666Y12328096D02*
X26721428Y12328096D01*
X26988095Y12023334D01*
X26873809Y12023334D01*
X26797619Y11985239D01*
X26759523Y11947143D01*
X26721428Y11870953D01*
X26721428Y11680477D01*
X26759523Y11604286D01*
X26797619Y11566191D01*
X26873809Y11528096D01*
X27102380Y11528096D01*
X27178571Y11566191D01*
X27216666Y11604286D01*
X17564285Y8556667D02*
X17526190Y8518572D01*
X17488095Y8404286D01*
X17488095Y8328096D01*
X17526190Y8213810D01*
X17602380Y8137620D01*
X17678571Y8099524D01*
X17830952Y8061429D01*
X17945238Y8061429D01*
X18097619Y8099524D01*
X18173809Y8137620D01*
X18250000Y8213810D01*
X18288095Y8328096D01*
X18288095Y8404286D01*
X18250000Y8518572D01*
X18211904Y8556667D01*
X17488095Y9318572D02*
X17488095Y8861429D01*
X17488095Y9090000D02*
X18288095Y9090000D01*
X18173809Y9013810D01*
X18097619Y8937620D01*
X18059523Y8861429D01*
X19264285Y10828096D02*
X19530952Y11209048D01*
X19721428Y10828096D02*
X19721428Y11628096D01*
X19416666Y11628096D01*
X19340476Y11590000D01*
X19302380Y11551905D01*
X19264285Y11475715D01*
X19264285Y11361429D01*
X19302380Y11285239D01*
X19340476Y11247143D01*
X19416666Y11209048D01*
X19721428Y11209048D01*
X18502380Y10828096D02*
X18959523Y10828096D01*
X18730952Y10828096D02*
X18730952Y11628096D01*
X18807142Y11513810D01*
X18883333Y11437620D01*
X18959523Y11399524D01*
X18197619Y11551905D02*
X18159523Y11590000D01*
X18083333Y11628096D01*
X17892857Y11628096D01*
X17816666Y11590000D01*
X17778571Y11551905D01*
X17740476Y11475715D01*
X17740476Y11399524D01*
X17778571Y11285239D01*
X18235714Y10828096D01*
X17740476Y10828096D01*
X22788095Y10075715D02*
X23169047Y9809048D01*
X22788095Y9618572D02*
X23588095Y9618572D01*
X23588095Y9923334D01*
X23550000Y9999524D01*
X23511904Y10037620D01*
X23435714Y10075715D01*
X23321428Y10075715D01*
X23245238Y10037620D01*
X23207142Y9999524D01*
X23169047Y9923334D01*
X23169047Y9618572D01*
X22788095Y10837620D02*
X22788095Y10380477D01*
X22788095Y10609048D02*
X23588095Y10609048D01*
X23473809Y10532858D01*
X23397619Y10456667D01*
X23359523Y10380477D01*
X22788095Y11599524D02*
X22788095Y11142381D01*
X22788095Y11370953D02*
X23588095Y11370953D01*
X23473809Y11294762D01*
X23397619Y11218572D01*
X23359523Y11142381D01*
X27214285Y4354286D02*
X27252380Y4316191D01*
X27366666Y4278096D01*
X27442857Y4278096D01*
X27557142Y4316191D01*
X27633333Y4392381D01*
X27671428Y4468572D01*
X27709523Y4620953D01*
X27709523Y4735239D01*
X27671428Y4887620D01*
X27633333Y4963810D01*
X27557142Y5040000D01*
X27442857Y5078096D01*
X27366666Y5078096D01*
X27252380Y5040000D01*
X27214285Y5001905D01*
X26452380Y4278096D02*
X26909523Y4278096D01*
X26680952Y4278096D02*
X26680952Y5078096D01*
X26757142Y4963810D01*
X26833333Y4887620D01*
X26909523Y4849524D01*
X26185714Y5078096D02*
X25690476Y5078096D01*
X25957142Y4773334D01*
X25842857Y4773334D01*
X25766666Y4735239D01*
X25728571Y4697143D01*
X25690476Y4620953D01*
X25690476Y4430477D01*
X25728571Y4354286D01*
X25766666Y4316191D01*
X25842857Y4278096D01*
X26071428Y4278096D01*
X26147619Y4316191D01*
X26185714Y4354286D01*
X33123690Y12178096D02*
X33390357Y12559048D01*
X33580833Y12178096D02*
X33580833Y12978096D01*
X33276071Y12978096D01*
X33199880Y12940000D01*
X33161785Y12901905D01*
X33123690Y12825715D01*
X33123690Y12711429D01*
X33161785Y12635239D01*
X33199880Y12597143D01*
X33276071Y12559048D01*
X33580833Y12559048D01*
X32361785Y12178096D02*
X32818928Y12178096D01*
X32590357Y12178096D02*
X32590357Y12978096D01*
X32666547Y12863810D01*
X32742738Y12787620D01*
X32818928Y12749524D01*
X31866547Y12978096D02*
X31790357Y12978096D01*
X31714166Y12940000D01*
X31676071Y12901905D01*
X31637976Y12825715D01*
X31599880Y12673334D01*
X31599880Y12482858D01*
X31637976Y12330477D01*
X31676071Y12254286D01*
X31714166Y12216191D01*
X31790357Y12178096D01*
X31866547Y12178096D01*
X31942738Y12216191D01*
X31980833Y12254286D01*
X32018928Y12330477D01*
X32057023Y12482858D01*
X32057023Y12673334D01*
X32018928Y12825715D01*
X31980833Y12901905D01*
X31942738Y12940000D01*
X31866547Y12978096D01*
X31638095Y10506667D02*
X32019047Y10240000D01*
X31638095Y10049524D02*
X32438095Y10049524D01*
X32438095Y10354286D01*
X32400000Y10430477D01*
X32361904Y10468572D01*
X32285714Y10506667D01*
X32171428Y10506667D01*
X32095238Y10468572D01*
X32057142Y10430477D01*
X32019047Y10354286D01*
X32019047Y10049524D01*
X32438095Y11192381D02*
X32438095Y11040000D01*
X32400000Y10963810D01*
X32361904Y10925715D01*
X32247619Y10849524D01*
X32095238Y10811429D01*
X31790476Y10811429D01*
X31714285Y10849524D01*
X31676190Y10887620D01*
X31638095Y10963810D01*
X31638095Y11116191D01*
X31676190Y11192381D01*
X31714285Y11230477D01*
X31790476Y11268572D01*
X31980952Y11268572D01*
X32057142Y11230477D01*
X32095238Y11192381D01*
X32133333Y11116191D01*
X32133333Y10963810D01*
X32095238Y10887620D01*
X32057142Y10849524D01*
X31980952Y10811429D01*
X10402380Y4128096D02*
X10669047Y4509048D01*
X10859523Y4128096D02*
X10859523Y4928096D01*
X10554761Y4928096D01*
X10478571Y4890000D01*
X10440476Y4851905D01*
X10402380Y4775715D01*
X10402380Y4661429D01*
X10440476Y4585239D01*
X10478571Y4547143D01*
X10554761Y4509048D01*
X10859523Y4509048D01*
X10059523Y4128096D02*
X10059523Y4928096D01*
X9602380Y4128096D01*
X9602380Y4928096D01*
X9259523Y4851905D02*
X9221428Y4890000D01*
X9145238Y4928096D01*
X8954761Y4928096D01*
X8878571Y4890000D01*
X8840476Y4851905D01*
X8802380Y4775715D01*
X8802380Y4699524D01*
X8840476Y4585239D01*
X9297619Y4128096D01*
X8802380Y4128096D01*
X10402380Y12838096D02*
X10669047Y13219048D01*
X10859523Y12838096D02*
X10859523Y13638096D01*
X10554761Y13638096D01*
X10478571Y13600000D01*
X10440476Y13561905D01*
X10402380Y13485715D01*
X10402380Y13371429D01*
X10440476Y13295239D01*
X10478571Y13257143D01*
X10554761Y13219048D01*
X10859523Y13219048D01*
X10059523Y12838096D02*
X10059523Y13638096D01*
X9602380Y12838096D01*
X9602380Y13638096D01*
X8802380Y12838096D02*
X9259523Y12838096D01*
X9030952Y12838096D02*
X9030952Y13638096D01*
X9107142Y13523810D01*
X9183333Y13447620D01*
X9259523Y13409524D01*
X34783333Y6428096D02*
X35050000Y6809048D01*
X35240476Y6428096D02*
X35240476Y7228096D01*
X34935714Y7228096D01*
X34859523Y7190000D01*
X34821428Y7151905D01*
X34783333Y7075715D01*
X34783333Y6961429D01*
X34821428Y6885239D01*
X34859523Y6847143D01*
X34935714Y6809048D01*
X35240476Y6809048D01*
X34402380Y6428096D02*
X34250000Y6428096D01*
X34173809Y6466191D01*
X34135714Y6504286D01*
X34059523Y6618572D01*
X34021428Y6770953D01*
X34021428Y7075715D01*
X34059523Y7151905D01*
X34097619Y7190000D01*
X34173809Y7228096D01*
X34326190Y7228096D01*
X34402380Y7190000D01*
X34440476Y7151905D01*
X34478571Y7075715D01*
X34478571Y6885239D01*
X34440476Y6809048D01*
X34402380Y6770953D01*
X34326190Y6732858D01*
X34173809Y6732858D01*
X34097619Y6770953D01*
X34059523Y6809048D01*
X34021428Y6885239D01*
X34914285Y10604286D02*
X34952380Y10566191D01*
X35066666Y10528096D01*
X35142857Y10528096D01*
X35257142Y10566191D01*
X35333333Y10642381D01*
X35371428Y10718572D01*
X35409523Y10870953D01*
X35409523Y10985239D01*
X35371428Y11137620D01*
X35333333Y11213810D01*
X35257142Y11290000D01*
X35142857Y11328096D01*
X35066666Y11328096D01*
X34952380Y11290000D01*
X34914285Y11251905D01*
X34152380Y10528096D02*
X34609523Y10528096D01*
X34380952Y10528096D02*
X34380952Y11328096D01*
X34457142Y11213810D01*
X34533333Y11137620D01*
X34609523Y11099524D01*
X33847619Y11251905D02*
X33809523Y11290000D01*
X33733333Y11328096D01*
X33542857Y11328096D01*
X33466666Y11290000D01*
X33428571Y11251905D01*
X33390476Y11175715D01*
X33390476Y11099524D01*
X33428571Y10985239D01*
X33885714Y10528096D01*
X33390476Y10528096D01*
X32361785Y5054286D02*
X32399880Y5016191D01*
X32514166Y4978096D01*
X32590357Y4978096D01*
X32704642Y5016191D01*
X32780833Y5092381D01*
X32818928Y5168572D01*
X32857023Y5320953D01*
X32857023Y5435239D01*
X32818928Y5587620D01*
X32780833Y5663810D01*
X32704642Y5740000D01*
X32590357Y5778096D01*
X32514166Y5778096D01*
X32399880Y5740000D01*
X32361785Y5701905D01*
X31904642Y5435239D02*
X31980833Y5473334D01*
X32018928Y5511429D01*
X32057023Y5587620D01*
X32057023Y5625715D01*
X32018928Y5701905D01*
X31980833Y5740000D01*
X31904642Y5778096D01*
X31752261Y5778096D01*
X31676071Y5740000D01*
X31637976Y5701905D01*
X31599880Y5625715D01*
X31599880Y5587620D01*
X31637976Y5511429D01*
X31676071Y5473334D01*
X31752261Y5435239D01*
X31904642Y5435239D01*
X31980833Y5397143D01*
X32018928Y5359048D01*
X32057023Y5282858D01*
X32057023Y5130477D01*
X32018928Y5054286D01*
X31980833Y5016191D01*
X31904642Y4978096D01*
X31752261Y4978096D01*
X31676071Y5016191D01*
X31637976Y5054286D01*
X31599880Y5130477D01*
X31599880Y5282858D01*
X31637976Y5359048D01*
X31676071Y5397143D01*
X31752261Y5435239D01*
X12333333Y4354286D02*
X12371428Y4316191D01*
X12485714Y4278096D01*
X12561904Y4278096D01*
X12676190Y4316191D01*
X12752380Y4392381D01*
X12790476Y4468572D01*
X12828571Y4620953D01*
X12828571Y4735239D01*
X12790476Y4887620D01*
X12752380Y4963810D01*
X12676190Y5040000D01*
X12561904Y5078096D01*
X12485714Y5078096D01*
X12371428Y5040000D01*
X12333333Y5001905D01*
X12066666Y5078096D02*
X11533333Y5078096D01*
X11876190Y4278096D01*
X12735714Y7923334D02*
X12773809Y7961429D01*
X12811904Y8075715D01*
X12811904Y8151905D01*
X12773809Y8266191D01*
X12697619Y8342381D01*
X12621428Y8380477D01*
X12469047Y8418572D01*
X12354761Y8418572D01*
X12202380Y8380477D01*
X12126190Y8342381D01*
X12050000Y8266191D01*
X12011904Y8151905D01*
X12011904Y8075715D01*
X12050000Y7961429D01*
X12088095Y7923334D01*
X12011904Y7237620D02*
X12011904Y7390000D01*
X12050000Y7466191D01*
X12088095Y7504286D01*
X12202380Y7580477D01*
X12354761Y7618572D01*
X12659523Y7618572D01*
X12735714Y7580477D01*
X12773809Y7542381D01*
X12811904Y7466191D01*
X12811904Y7313810D01*
X12773809Y7237620D01*
X12735714Y7199524D01*
X12659523Y7161429D01*
X12469047Y7161429D01*
X12392857Y7199524D01*
X12354761Y7237620D01*
X12316666Y7313810D01*
X12316666Y7466191D01*
X12354761Y7542381D01*
X12392857Y7580477D01*
X12469047Y7618572D01*
M02*
