G04 #@! TF.GenerationSoftware,KiCad,Pcbnew,(5.1.5)-3*
G04 #@! TF.CreationDate,2021-01-27T12:55:09+11:00*
G04 #@! TF.ProjectId,PD_Micro,50445f4d-6963-4726-9f2e-6b696361645f,rev?*
G04 #@! TF.SameCoordinates,PX7ce2370PY67d8790*
G04 #@! TF.FileFunction,Paste,Bot*
G04 #@! TF.FilePolarity,Positive*
%FSLAX46Y46*%
G04 Gerber Fmt 4.6, Leading zero omitted, Abs format (unit mm)*
G04 Created by KiCad (PCBNEW (5.1.5)-3) date 2021-01-27 12:55:09*
%MOMM*%
%LPD*%
G04 APERTURE LIST*
%ADD10C,0.100000*%
%ADD11R,0.700000X0.380000*%
%ADD12R,0.550000X0.550000*%
%ADD13R,0.300000X0.580000*%
%ADD14R,0.580000X0.300000*%
%ADD15R,0.500000X0.250000*%
%ADD16R,0.650000X0.610000*%
%ADD17R,0.800000X0.500000*%
%ADD18R,0.800000X0.400000*%
G04 APERTURE END LIST*
D10*
G36*
X22573722Y6239326D02*
G01*
X22587313Y6237310D01*
X22600640Y6233972D01*
X22613576Y6229343D01*
X22625996Y6223469D01*
X22637780Y6216406D01*
X22648815Y6208221D01*
X22658995Y6198995D01*
X22668221Y6188815D01*
X22676406Y6177780D01*
X22683469Y6165996D01*
X22689343Y6153576D01*
X22693972Y6140640D01*
X22697310Y6127313D01*
X22699326Y6113722D01*
X22700000Y6100000D01*
X22700000Y4980000D01*
X22699326Y4966278D01*
X22697310Y4952687D01*
X22693972Y4939360D01*
X22689343Y4926424D01*
X22683469Y4914004D01*
X22676406Y4902220D01*
X22668221Y4891185D01*
X22658995Y4881005D01*
X22648815Y4871779D01*
X22637780Y4863594D01*
X22625996Y4856531D01*
X22613576Y4850657D01*
X22600640Y4846028D01*
X22587313Y4842690D01*
X22573722Y4840674D01*
X22560000Y4840000D01*
X18940000Y4840000D01*
X18926278Y4840674D01*
X18912687Y4842690D01*
X18899360Y4846028D01*
X18886424Y4850657D01*
X18874004Y4856531D01*
X18862220Y4863594D01*
X18851185Y4871779D01*
X18841005Y4881005D01*
X18831779Y4891185D01*
X18823594Y4902220D01*
X18816531Y4914004D01*
X18810657Y4926424D01*
X18806028Y4939360D01*
X18802690Y4952687D01*
X18800674Y4966278D01*
X18800000Y4980000D01*
X18800000Y6100000D01*
X18800674Y6113722D01*
X18802690Y6127313D01*
X18806028Y6140640D01*
X18810657Y6153576D01*
X18816531Y6165996D01*
X18823594Y6177780D01*
X18831779Y6188815D01*
X18841005Y6198995D01*
X18851185Y6208221D01*
X18862220Y6216406D01*
X18874004Y6223469D01*
X18886424Y6229343D01*
X18899360Y6233972D01*
X18912687Y6237310D01*
X18926278Y6239326D01*
X18940000Y6240000D01*
X22560000Y6240000D01*
X22573722Y6239326D01*
G37*
G36*
X22573722Y9239326D02*
G01*
X22587313Y9237310D01*
X22600640Y9233972D01*
X22613576Y9229343D01*
X22625996Y9223469D01*
X22637780Y9216406D01*
X22648815Y9208221D01*
X22658995Y9198995D01*
X22668221Y9188815D01*
X22676406Y9177780D01*
X22683469Y9165996D01*
X22689343Y9153576D01*
X22693972Y9140640D01*
X22697310Y9127313D01*
X22699326Y9113722D01*
X22700000Y9100000D01*
X22700000Y7980000D01*
X22699326Y7966278D01*
X22697310Y7952687D01*
X22693972Y7939360D01*
X22689343Y7926424D01*
X22683469Y7914004D01*
X22676406Y7902220D01*
X22668221Y7891185D01*
X22658995Y7881005D01*
X22648815Y7871779D01*
X22637780Y7863594D01*
X22625996Y7856531D01*
X22613576Y7850657D01*
X22600640Y7846028D01*
X22587313Y7842690D01*
X22573722Y7840674D01*
X22560000Y7840000D01*
X18940000Y7840000D01*
X18926278Y7840674D01*
X18912687Y7842690D01*
X18899360Y7846028D01*
X18886424Y7850657D01*
X18874004Y7856531D01*
X18862220Y7863594D01*
X18851185Y7871779D01*
X18841005Y7881005D01*
X18831779Y7891185D01*
X18823594Y7902220D01*
X18816531Y7914004D01*
X18810657Y7926424D01*
X18806028Y7939360D01*
X18802690Y7952687D01*
X18800674Y7966278D01*
X18800000Y7980000D01*
X18800000Y9100000D01*
X18800674Y9113722D01*
X18802690Y9127313D01*
X18806028Y9140640D01*
X18810657Y9153576D01*
X18816531Y9165996D01*
X18823594Y9177780D01*
X18831779Y9188815D01*
X18841005Y9198995D01*
X18851185Y9208221D01*
X18862220Y9216406D01*
X18874004Y9223469D01*
X18886424Y9229343D01*
X18899360Y9233972D01*
X18912687Y9237310D01*
X18926278Y9239326D01*
X18940000Y9240000D01*
X22560000Y9240000D01*
X22573722Y9239326D01*
G37*
D11*
X7850000Y12440000D03*
X7850000Y11790000D03*
X7850000Y11140000D03*
X5650000Y11140000D03*
X5650000Y11790000D03*
X5650000Y12440000D03*
D10*
G36*
X6845709Y12299422D02*
G01*
X6857363Y12297693D01*
X6868792Y12294830D01*
X6879886Y12290861D01*
X6890536Y12285824D01*
X6900642Y12279766D01*
X6910106Y12272748D01*
X6918836Y12264836D01*
X6926748Y12256106D01*
X6933766Y12246642D01*
X6939824Y12236536D01*
X6944861Y12225886D01*
X6948830Y12214792D01*
X6951693Y12203363D01*
X6953422Y12191709D01*
X6954000Y12179941D01*
X6954000Y11400059D01*
X6953422Y11388291D01*
X6951693Y11376637D01*
X6948830Y11365208D01*
X6944861Y11354114D01*
X6939824Y11343464D01*
X6933766Y11333358D01*
X6926748Y11323894D01*
X6918836Y11315164D01*
X6910106Y11307252D01*
X6900642Y11300234D01*
X6890536Y11294176D01*
X6879886Y11289139D01*
X6868792Y11285170D01*
X6857363Y11282307D01*
X6845709Y11280578D01*
X6833941Y11280000D01*
X6246059Y11280000D01*
X6234291Y11280578D01*
X6222637Y11282307D01*
X6211208Y11285170D01*
X6200114Y11289139D01*
X6189464Y11294176D01*
X6179358Y11300234D01*
X6169894Y11307252D01*
X6161164Y11315164D01*
X6153252Y11323894D01*
X6146234Y11333358D01*
X6140176Y11343464D01*
X6135139Y11354114D01*
X6131170Y11365208D01*
X6128307Y11376637D01*
X6126578Y11388291D01*
X6126000Y11400059D01*
X6126000Y12179941D01*
X6126578Y12191709D01*
X6128307Y12203363D01*
X6131170Y12214792D01*
X6135139Y12225886D01*
X6140176Y12236536D01*
X6146234Y12246642D01*
X6153252Y12256106D01*
X6161164Y12264836D01*
X6169894Y12272748D01*
X6179358Y12279766D01*
X6189464Y12285824D01*
X6200114Y12290861D01*
X6211208Y12294830D01*
X6222637Y12297693D01*
X6234291Y12299422D01*
X6246059Y12300000D01*
X6833941Y12300000D01*
X6845709Y12299422D01*
G37*
D12*
X24987500Y9915000D03*
D13*
X25850000Y10767500D03*
D12*
X25712500Y9190000D03*
X25712500Y9915000D03*
D14*
X26565000Y8802500D03*
D13*
X24850000Y10767500D03*
D14*
X26565000Y9302500D03*
X24135000Y9802500D03*
X24135000Y10302500D03*
X24135000Y9302500D03*
D13*
X25350000Y10767500D03*
D14*
X24135000Y8802500D03*
D13*
X25850000Y8337500D03*
D14*
X26565000Y10302500D03*
X26565000Y9802500D03*
D13*
X25350000Y8337500D03*
X24850000Y8337500D03*
D12*
X24987500Y9190000D03*
D10*
G36*
X8037252Y6889398D02*
G01*
X8049386Y6887598D01*
X8061286Y6884618D01*
X8072835Y6880485D01*
X8083925Y6875240D01*
X8094446Y6868934D01*
X8104299Y6861626D01*
X8113388Y6853388D01*
X8121626Y6844299D01*
X8128934Y6834446D01*
X8135240Y6823925D01*
X8140485Y6812835D01*
X8144618Y6801286D01*
X8147598Y6789386D01*
X8149398Y6777252D01*
X8150000Y6765000D01*
X8150000Y6515000D01*
X8149398Y6502748D01*
X8147598Y6490614D01*
X8144618Y6478714D01*
X8140485Y6467165D01*
X8135240Y6456075D01*
X8128934Y6445554D01*
X8121626Y6435701D01*
X8113388Y6426612D01*
X8104299Y6418374D01*
X8094446Y6411066D01*
X8083925Y6404760D01*
X8072835Y6399515D01*
X8061286Y6395382D01*
X8049386Y6392402D01*
X8037252Y6390602D01*
X8025000Y6390000D01*
X7475000Y6390000D01*
X7462748Y6390602D01*
X7450614Y6392402D01*
X7438714Y6395382D01*
X7427165Y6399515D01*
X7416075Y6404760D01*
X7405554Y6411066D01*
X7395701Y6418374D01*
X7386612Y6426612D01*
X7378374Y6435701D01*
X7371066Y6445554D01*
X7364760Y6456075D01*
X7359515Y6467165D01*
X7355382Y6478714D01*
X7352402Y6490614D01*
X7350602Y6502748D01*
X7350000Y6515000D01*
X7350000Y6765000D01*
X7350602Y6777252D01*
X7352402Y6789386D01*
X7355382Y6801286D01*
X7359515Y6812835D01*
X7364760Y6823925D01*
X7371066Y6834446D01*
X7378374Y6844299D01*
X7386612Y6853388D01*
X7395701Y6861626D01*
X7405554Y6868934D01*
X7416075Y6875240D01*
X7427165Y6880485D01*
X7438714Y6884618D01*
X7450614Y6887598D01*
X7462748Y6889398D01*
X7475000Y6890000D01*
X8025000Y6890000D01*
X8037252Y6889398D01*
G37*
G36*
X8037252Y5589398D02*
G01*
X8049386Y5587598D01*
X8061286Y5584618D01*
X8072835Y5580485D01*
X8083925Y5575240D01*
X8094446Y5568934D01*
X8104299Y5561626D01*
X8113388Y5553388D01*
X8121626Y5544299D01*
X8128934Y5534446D01*
X8135240Y5523925D01*
X8140485Y5512835D01*
X8144618Y5501286D01*
X8147598Y5489386D01*
X8149398Y5477252D01*
X8150000Y5465000D01*
X8150000Y5215000D01*
X8149398Y5202748D01*
X8147598Y5190614D01*
X8144618Y5178714D01*
X8140485Y5167165D01*
X8135240Y5156075D01*
X8128934Y5145554D01*
X8121626Y5135701D01*
X8113388Y5126612D01*
X8104299Y5118374D01*
X8094446Y5111066D01*
X8083925Y5104760D01*
X8072835Y5099515D01*
X8061286Y5095382D01*
X8049386Y5092402D01*
X8037252Y5090602D01*
X8025000Y5090000D01*
X7475000Y5090000D01*
X7462748Y5090602D01*
X7450614Y5092402D01*
X7438714Y5095382D01*
X7427165Y5099515D01*
X7416075Y5104760D01*
X7405554Y5111066D01*
X7395701Y5118374D01*
X7386612Y5126612D01*
X7378374Y5135701D01*
X7371066Y5145554D01*
X7364760Y5156075D01*
X7359515Y5167165D01*
X7355382Y5178714D01*
X7352402Y5190614D01*
X7350602Y5202748D01*
X7350000Y5215000D01*
X7350000Y5465000D01*
X7350602Y5477252D01*
X7352402Y5489386D01*
X7355382Y5501286D01*
X7359515Y5512835D01*
X7364760Y5523925D01*
X7371066Y5534446D01*
X7378374Y5544299D01*
X7386612Y5553388D01*
X7395701Y5561626D01*
X7405554Y5568934D01*
X7416075Y5575240D01*
X7427165Y5580485D01*
X7438714Y5584618D01*
X7450614Y5587598D01*
X7462748Y5589398D01*
X7475000Y5590000D01*
X8025000Y5590000D01*
X8037252Y5589398D01*
G37*
G36*
X6037252Y6239398D02*
G01*
X6049386Y6237598D01*
X6061286Y6234618D01*
X6072835Y6230485D01*
X6083925Y6225240D01*
X6094446Y6218934D01*
X6104299Y6211626D01*
X6113388Y6203388D01*
X6121626Y6194299D01*
X6128934Y6184446D01*
X6135240Y6173925D01*
X6140485Y6162835D01*
X6144618Y6151286D01*
X6147598Y6139386D01*
X6149398Y6127252D01*
X6150000Y6115000D01*
X6150000Y5865000D01*
X6149398Y5852748D01*
X6147598Y5840614D01*
X6144618Y5828714D01*
X6140485Y5817165D01*
X6135240Y5806075D01*
X6128934Y5795554D01*
X6121626Y5785701D01*
X6113388Y5776612D01*
X6104299Y5768374D01*
X6094446Y5761066D01*
X6083925Y5754760D01*
X6072835Y5749515D01*
X6061286Y5745382D01*
X6049386Y5742402D01*
X6037252Y5740602D01*
X6025000Y5740000D01*
X5475000Y5740000D01*
X5462748Y5740602D01*
X5450614Y5742402D01*
X5438714Y5745382D01*
X5427165Y5749515D01*
X5416075Y5754760D01*
X5405554Y5761066D01*
X5395701Y5768374D01*
X5386612Y5776612D01*
X5378374Y5785701D01*
X5371066Y5795554D01*
X5364760Y5806075D01*
X5359515Y5817165D01*
X5355382Y5828714D01*
X5352402Y5840614D01*
X5350602Y5852748D01*
X5350000Y5865000D01*
X5350000Y6115000D01*
X5350602Y6127252D01*
X5352402Y6139386D01*
X5355382Y6151286D01*
X5359515Y6162835D01*
X5364760Y6173925D01*
X5371066Y6184446D01*
X5378374Y6194299D01*
X5386612Y6203388D01*
X5395701Y6211626D01*
X5405554Y6218934D01*
X5416075Y6225240D01*
X5427165Y6230485D01*
X5438714Y6234618D01*
X5450614Y6237598D01*
X5462748Y6239398D01*
X5475000Y6240000D01*
X6025000Y6240000D01*
X6037252Y6239398D01*
G37*
G36*
X7877841Y8439615D02*
G01*
X7885607Y8438463D01*
X7893223Y8436555D01*
X7900615Y8433910D01*
X7907712Y8430554D01*
X7914446Y8426518D01*
X7920751Y8421841D01*
X7926569Y8416569D01*
X7931841Y8410751D01*
X7936518Y8404446D01*
X7940554Y8397712D01*
X7943910Y8390615D01*
X7946555Y8383223D01*
X7948463Y8375607D01*
X7949615Y8367841D01*
X7950000Y8360000D01*
X7950000Y7620000D01*
X7949615Y7612159D01*
X7948463Y7604393D01*
X7946555Y7596777D01*
X7943910Y7589385D01*
X7940554Y7582288D01*
X7936518Y7575554D01*
X7931841Y7569249D01*
X7926569Y7563431D01*
X7920751Y7558159D01*
X7914446Y7553482D01*
X7907712Y7549446D01*
X7900615Y7546090D01*
X7893223Y7543445D01*
X7885607Y7541537D01*
X7877841Y7540385D01*
X7870000Y7540000D01*
X7230000Y7540000D01*
X7222159Y7540385D01*
X7214393Y7541537D01*
X7206777Y7543445D01*
X7199385Y7546090D01*
X7192288Y7549446D01*
X7185554Y7553482D01*
X7179249Y7558159D01*
X7173431Y7563431D01*
X7168159Y7569249D01*
X7163482Y7575554D01*
X7159446Y7582288D01*
X7156090Y7589385D01*
X7153445Y7596777D01*
X7151537Y7604393D01*
X7150385Y7612159D01*
X7150000Y7620000D01*
X7150000Y8360000D01*
X7150385Y8367841D01*
X7151537Y8375607D01*
X7153445Y8383223D01*
X7156090Y8390615D01*
X7159446Y8397712D01*
X7163482Y8404446D01*
X7168159Y8410751D01*
X7173431Y8416569D01*
X7179249Y8421841D01*
X7185554Y8426518D01*
X7192288Y8430554D01*
X7199385Y8433910D01*
X7206777Y8436555D01*
X7214393Y8438463D01*
X7222159Y8439615D01*
X7230000Y8440000D01*
X7870000Y8440000D01*
X7877841Y8439615D01*
G37*
G36*
X6277841Y8439615D02*
G01*
X6285607Y8438463D01*
X6293223Y8436555D01*
X6300615Y8433910D01*
X6307712Y8430554D01*
X6314446Y8426518D01*
X6320751Y8421841D01*
X6326569Y8416569D01*
X6331841Y8410751D01*
X6336518Y8404446D01*
X6340554Y8397712D01*
X6343910Y8390615D01*
X6346555Y8383223D01*
X6348463Y8375607D01*
X6349615Y8367841D01*
X6350000Y8360000D01*
X6350000Y7620000D01*
X6349615Y7612159D01*
X6348463Y7604393D01*
X6346555Y7596777D01*
X6343910Y7589385D01*
X6340554Y7582288D01*
X6336518Y7575554D01*
X6331841Y7569249D01*
X6326569Y7563431D01*
X6320751Y7558159D01*
X6314446Y7553482D01*
X6307712Y7549446D01*
X6300615Y7546090D01*
X6293223Y7543445D01*
X6285607Y7541537D01*
X6277841Y7540385D01*
X6270000Y7540000D01*
X5630000Y7540000D01*
X5622159Y7540385D01*
X5614393Y7541537D01*
X5606777Y7543445D01*
X5599385Y7546090D01*
X5592288Y7549446D01*
X5585554Y7553482D01*
X5579249Y7558159D01*
X5573431Y7563431D01*
X5568159Y7569249D01*
X5563482Y7575554D01*
X5559446Y7582288D01*
X5556090Y7589385D01*
X5553445Y7596777D01*
X5551537Y7604393D01*
X5550385Y7612159D01*
X5550000Y7620000D01*
X5550000Y8360000D01*
X5550385Y8367841D01*
X5551537Y8375607D01*
X5553445Y8383223D01*
X5556090Y8390615D01*
X5559446Y8397712D01*
X5563482Y8404446D01*
X5568159Y8410751D01*
X5573431Y8416569D01*
X5579249Y8421841D01*
X5585554Y8426518D01*
X5592288Y8430554D01*
X5599385Y8433910D01*
X5606777Y8436555D01*
X5614393Y8438463D01*
X5622159Y8439615D01*
X5630000Y8440000D01*
X6270000Y8440000D01*
X6277841Y8439615D01*
G37*
G36*
X6277841Y9939615D02*
G01*
X6285607Y9938463D01*
X6293223Y9936555D01*
X6300615Y9933910D01*
X6307712Y9930554D01*
X6314446Y9926518D01*
X6320751Y9921841D01*
X6326569Y9916569D01*
X6331841Y9910751D01*
X6336518Y9904446D01*
X6340554Y9897712D01*
X6343910Y9890615D01*
X6346555Y9883223D01*
X6348463Y9875607D01*
X6349615Y9867841D01*
X6350000Y9860000D01*
X6350000Y9120000D01*
X6349615Y9112159D01*
X6348463Y9104393D01*
X6346555Y9096777D01*
X6343910Y9089385D01*
X6340554Y9082288D01*
X6336518Y9075554D01*
X6331841Y9069249D01*
X6326569Y9063431D01*
X6320751Y9058159D01*
X6314446Y9053482D01*
X6307712Y9049446D01*
X6300615Y9046090D01*
X6293223Y9043445D01*
X6285607Y9041537D01*
X6277841Y9040385D01*
X6270000Y9040000D01*
X5630000Y9040000D01*
X5622159Y9040385D01*
X5614393Y9041537D01*
X5606777Y9043445D01*
X5599385Y9046090D01*
X5592288Y9049446D01*
X5585554Y9053482D01*
X5579249Y9058159D01*
X5573431Y9063431D01*
X5568159Y9069249D01*
X5563482Y9075554D01*
X5559446Y9082288D01*
X5556090Y9089385D01*
X5553445Y9096777D01*
X5551537Y9104393D01*
X5550385Y9112159D01*
X5550000Y9120000D01*
X5550000Y9860000D01*
X5550385Y9867841D01*
X5551537Y9875607D01*
X5553445Y9883223D01*
X5556090Y9890615D01*
X5559446Y9897712D01*
X5563482Y9904446D01*
X5568159Y9910751D01*
X5573431Y9916569D01*
X5579249Y9921841D01*
X5585554Y9926518D01*
X5592288Y9930554D01*
X5599385Y9933910D01*
X5606777Y9936555D01*
X5614393Y9938463D01*
X5622159Y9939615D01*
X5630000Y9940000D01*
X6270000Y9940000D01*
X6277841Y9939615D01*
G37*
G36*
X7877841Y9939615D02*
G01*
X7885607Y9938463D01*
X7893223Y9936555D01*
X7900615Y9933910D01*
X7907712Y9930554D01*
X7914446Y9926518D01*
X7920751Y9921841D01*
X7926569Y9916569D01*
X7931841Y9910751D01*
X7936518Y9904446D01*
X7940554Y9897712D01*
X7943910Y9890615D01*
X7946555Y9883223D01*
X7948463Y9875607D01*
X7949615Y9867841D01*
X7950000Y9860000D01*
X7950000Y9120000D01*
X7949615Y9112159D01*
X7948463Y9104393D01*
X7946555Y9096777D01*
X7943910Y9089385D01*
X7940554Y9082288D01*
X7936518Y9075554D01*
X7931841Y9069249D01*
X7926569Y9063431D01*
X7920751Y9058159D01*
X7914446Y9053482D01*
X7907712Y9049446D01*
X7900615Y9046090D01*
X7893223Y9043445D01*
X7885607Y9041537D01*
X7877841Y9040385D01*
X7870000Y9040000D01*
X7230000Y9040000D01*
X7222159Y9040385D01*
X7214393Y9041537D01*
X7206777Y9043445D01*
X7199385Y9046090D01*
X7192288Y9049446D01*
X7185554Y9053482D01*
X7179249Y9058159D01*
X7173431Y9063431D01*
X7168159Y9069249D01*
X7163482Y9075554D01*
X7159446Y9082288D01*
X7156090Y9089385D01*
X7153445Y9096777D01*
X7151537Y9104393D01*
X7150385Y9112159D01*
X7150000Y9120000D01*
X7150000Y9860000D01*
X7150385Y9867841D01*
X7151537Y9875607D01*
X7153445Y9883223D01*
X7156090Y9890615D01*
X7159446Y9897712D01*
X7163482Y9904446D01*
X7168159Y9910751D01*
X7173431Y9916569D01*
X7179249Y9921841D01*
X7185554Y9926518D01*
X7192288Y9930554D01*
X7199385Y9933910D01*
X7206777Y9936555D01*
X7214393Y9938463D01*
X7222159Y9939615D01*
X7230000Y9940000D01*
X7870000Y9940000D01*
X7877841Y9939615D01*
G37*
D15*
X15100000Y8890000D03*
X15100000Y9390000D03*
X15100000Y9890000D03*
X15100000Y10390000D03*
X15100000Y10890000D03*
X17000000Y10890000D03*
X17000000Y10390000D03*
X17000000Y9890000D03*
X17000000Y9390000D03*
X17000000Y8890000D03*
D16*
X16050000Y10690000D03*
X16050000Y9890000D03*
X16050000Y9090000D03*
D10*
G36*
X29555292Y7439494D02*
G01*
X29565484Y7437982D01*
X29575480Y7435479D01*
X29585182Y7432007D01*
X29594497Y7427602D01*
X29603335Y7422304D01*
X29611611Y7416166D01*
X29619246Y7409246D01*
X29626166Y7401611D01*
X29632304Y7393335D01*
X29637602Y7384497D01*
X29642007Y7375182D01*
X29645479Y7365480D01*
X29647982Y7355484D01*
X29649494Y7345292D01*
X29650000Y7335000D01*
X29650000Y6645000D01*
X29649494Y6634708D01*
X29647982Y6624516D01*
X29645479Y6614520D01*
X29642007Y6604818D01*
X29637602Y6595503D01*
X29632304Y6586665D01*
X29626166Y6578389D01*
X29619246Y6570754D01*
X29611611Y6563834D01*
X29603335Y6557696D01*
X29594497Y6552398D01*
X29585182Y6547993D01*
X29575480Y6544521D01*
X29565484Y6542018D01*
X29555292Y6540506D01*
X29545000Y6540000D01*
X29055000Y6540000D01*
X29044708Y6540506D01*
X29034516Y6542018D01*
X29024520Y6544521D01*
X29014818Y6547993D01*
X29005503Y6552398D01*
X28996665Y6557696D01*
X28988389Y6563834D01*
X28980754Y6570754D01*
X28973834Y6578389D01*
X28967696Y6586665D01*
X28962398Y6595503D01*
X28957993Y6604818D01*
X28954521Y6614520D01*
X28952018Y6624516D01*
X28950506Y6634708D01*
X28950000Y6645000D01*
X28950000Y7335000D01*
X28950506Y7345292D01*
X28952018Y7355484D01*
X28954521Y7365480D01*
X28957993Y7375182D01*
X28962398Y7384497D01*
X28967696Y7393335D01*
X28973834Y7401611D01*
X28980754Y7409246D01*
X28988389Y7416166D01*
X28996665Y7422304D01*
X29005503Y7427602D01*
X29014818Y7432007D01*
X29024520Y7435479D01*
X29034516Y7437982D01*
X29044708Y7439494D01*
X29055000Y7440000D01*
X29545000Y7440000D01*
X29555292Y7439494D01*
G37*
G36*
X31055292Y7439494D02*
G01*
X31065484Y7437982D01*
X31075480Y7435479D01*
X31085182Y7432007D01*
X31094497Y7427602D01*
X31103335Y7422304D01*
X31111611Y7416166D01*
X31119246Y7409246D01*
X31126166Y7401611D01*
X31132304Y7393335D01*
X31137602Y7384497D01*
X31142007Y7375182D01*
X31145479Y7365480D01*
X31147982Y7355484D01*
X31149494Y7345292D01*
X31150000Y7335000D01*
X31150000Y6645000D01*
X31149494Y6634708D01*
X31147982Y6624516D01*
X31145479Y6614520D01*
X31142007Y6604818D01*
X31137602Y6595503D01*
X31132304Y6586665D01*
X31126166Y6578389D01*
X31119246Y6570754D01*
X31111611Y6563834D01*
X31103335Y6557696D01*
X31094497Y6552398D01*
X31085182Y6547993D01*
X31075480Y6544521D01*
X31065484Y6542018D01*
X31055292Y6540506D01*
X31045000Y6540000D01*
X30555000Y6540000D01*
X30544708Y6540506D01*
X30534516Y6542018D01*
X30524520Y6544521D01*
X30514818Y6547993D01*
X30505503Y6552398D01*
X30496665Y6557696D01*
X30488389Y6563834D01*
X30480754Y6570754D01*
X30473834Y6578389D01*
X30467696Y6586665D01*
X30462398Y6595503D01*
X30457993Y6604818D01*
X30454521Y6614520D01*
X30452018Y6624516D01*
X30450506Y6634708D01*
X30450000Y6645000D01*
X30450000Y7335000D01*
X30450506Y7345292D01*
X30452018Y7355484D01*
X30454521Y7365480D01*
X30457993Y7375182D01*
X30462398Y7384497D01*
X30467696Y7393335D01*
X30473834Y7401611D01*
X30480754Y7409246D01*
X30488389Y7416166D01*
X30496665Y7422304D01*
X30505503Y7427602D01*
X30514818Y7432007D01*
X30524520Y7435479D01*
X30534516Y7437982D01*
X30544708Y7439494D01*
X30555000Y7440000D01*
X31045000Y7440000D01*
X31055292Y7439494D01*
G37*
G36*
X29555292Y9039494D02*
G01*
X29565484Y9037982D01*
X29575480Y9035479D01*
X29585182Y9032007D01*
X29594497Y9027602D01*
X29603335Y9022304D01*
X29611611Y9016166D01*
X29619246Y9009246D01*
X29626166Y9001611D01*
X29632304Y8993335D01*
X29637602Y8984497D01*
X29642007Y8975182D01*
X29645479Y8965480D01*
X29647982Y8955484D01*
X29649494Y8945292D01*
X29650000Y8935000D01*
X29650000Y8245000D01*
X29649494Y8234708D01*
X29647982Y8224516D01*
X29645479Y8214520D01*
X29642007Y8204818D01*
X29637602Y8195503D01*
X29632304Y8186665D01*
X29626166Y8178389D01*
X29619246Y8170754D01*
X29611611Y8163834D01*
X29603335Y8157696D01*
X29594497Y8152398D01*
X29585182Y8147993D01*
X29575480Y8144521D01*
X29565484Y8142018D01*
X29555292Y8140506D01*
X29545000Y8140000D01*
X29055000Y8140000D01*
X29044708Y8140506D01*
X29034516Y8142018D01*
X29024520Y8144521D01*
X29014818Y8147993D01*
X29005503Y8152398D01*
X28996665Y8157696D01*
X28988389Y8163834D01*
X28980754Y8170754D01*
X28973834Y8178389D01*
X28967696Y8186665D01*
X28962398Y8195503D01*
X28957993Y8204818D01*
X28954521Y8214520D01*
X28952018Y8224516D01*
X28950506Y8234708D01*
X28950000Y8245000D01*
X28950000Y8935000D01*
X28950506Y8945292D01*
X28952018Y8955484D01*
X28954521Y8965480D01*
X28957993Y8975182D01*
X28962398Y8984497D01*
X28967696Y8993335D01*
X28973834Y9001611D01*
X28980754Y9009246D01*
X28988389Y9016166D01*
X28996665Y9022304D01*
X29005503Y9027602D01*
X29014818Y9032007D01*
X29024520Y9035479D01*
X29034516Y9037982D01*
X29044708Y9039494D01*
X29055000Y9040000D01*
X29545000Y9040000D01*
X29555292Y9039494D01*
G37*
G36*
X31055292Y9039494D02*
G01*
X31065484Y9037982D01*
X31075480Y9035479D01*
X31085182Y9032007D01*
X31094497Y9027602D01*
X31103335Y9022304D01*
X31111611Y9016166D01*
X31119246Y9009246D01*
X31126166Y9001611D01*
X31132304Y8993335D01*
X31137602Y8984497D01*
X31142007Y8975182D01*
X31145479Y8965480D01*
X31147982Y8955484D01*
X31149494Y8945292D01*
X31150000Y8935000D01*
X31150000Y8245000D01*
X31149494Y8234708D01*
X31147982Y8224516D01*
X31145479Y8214520D01*
X31142007Y8204818D01*
X31137602Y8195503D01*
X31132304Y8186665D01*
X31126166Y8178389D01*
X31119246Y8170754D01*
X31111611Y8163834D01*
X31103335Y8157696D01*
X31094497Y8152398D01*
X31085182Y8147993D01*
X31075480Y8144521D01*
X31065484Y8142018D01*
X31055292Y8140506D01*
X31045000Y8140000D01*
X30555000Y8140000D01*
X30544708Y8140506D01*
X30534516Y8142018D01*
X30524520Y8144521D01*
X30514818Y8147993D01*
X30505503Y8152398D01*
X30496665Y8157696D01*
X30488389Y8163834D01*
X30480754Y8170754D01*
X30473834Y8178389D01*
X30467696Y8186665D01*
X30462398Y8195503D01*
X30457993Y8204818D01*
X30454521Y8214520D01*
X30452018Y8224516D01*
X30450506Y8234708D01*
X30450000Y8245000D01*
X30450000Y8935000D01*
X30450506Y8945292D01*
X30452018Y8955484D01*
X30454521Y8965480D01*
X30457993Y8975182D01*
X30462398Y8984497D01*
X30467696Y8993335D01*
X30473834Y9001611D01*
X30480754Y9009246D01*
X30488389Y9016166D01*
X30496665Y9022304D01*
X30505503Y9027602D01*
X30514818Y9032007D01*
X30524520Y9035479D01*
X30534516Y9037982D01*
X30544708Y9039494D01*
X30555000Y9040000D01*
X31045000Y9040000D01*
X31055292Y9039494D01*
G37*
G36*
X23955292Y6339494D02*
G01*
X23965484Y6337982D01*
X23975480Y6335479D01*
X23985182Y6332007D01*
X23994497Y6327602D01*
X24003335Y6322304D01*
X24011611Y6316166D01*
X24019246Y6309246D01*
X24026166Y6301611D01*
X24032304Y6293335D01*
X24037602Y6284497D01*
X24042007Y6275182D01*
X24045479Y6265480D01*
X24047982Y6255484D01*
X24049494Y6245292D01*
X24050000Y6235000D01*
X24050000Y5545000D01*
X24049494Y5534708D01*
X24047982Y5524516D01*
X24045479Y5514520D01*
X24042007Y5504818D01*
X24037602Y5495503D01*
X24032304Y5486665D01*
X24026166Y5478389D01*
X24019246Y5470754D01*
X24011611Y5463834D01*
X24003335Y5457696D01*
X23994497Y5452398D01*
X23985182Y5447993D01*
X23975480Y5444521D01*
X23965484Y5442018D01*
X23955292Y5440506D01*
X23945000Y5440000D01*
X23455000Y5440000D01*
X23444708Y5440506D01*
X23434516Y5442018D01*
X23424520Y5444521D01*
X23414818Y5447993D01*
X23405503Y5452398D01*
X23396665Y5457696D01*
X23388389Y5463834D01*
X23380754Y5470754D01*
X23373834Y5478389D01*
X23367696Y5486665D01*
X23362398Y5495503D01*
X23357993Y5504818D01*
X23354521Y5514520D01*
X23352018Y5524516D01*
X23350506Y5534708D01*
X23350000Y5545000D01*
X23350000Y6235000D01*
X23350506Y6245292D01*
X23352018Y6255484D01*
X23354521Y6265480D01*
X23357993Y6275182D01*
X23362398Y6284497D01*
X23367696Y6293335D01*
X23373834Y6301611D01*
X23380754Y6309246D01*
X23388389Y6316166D01*
X23396665Y6322304D01*
X23405503Y6327602D01*
X23414818Y6332007D01*
X23424520Y6335479D01*
X23434516Y6337982D01*
X23444708Y6339494D01*
X23455000Y6340000D01*
X23945000Y6340000D01*
X23955292Y6339494D01*
G37*
G36*
X25455292Y6339494D02*
G01*
X25465484Y6337982D01*
X25475480Y6335479D01*
X25485182Y6332007D01*
X25494497Y6327602D01*
X25503335Y6322304D01*
X25511611Y6316166D01*
X25519246Y6309246D01*
X25526166Y6301611D01*
X25532304Y6293335D01*
X25537602Y6284497D01*
X25542007Y6275182D01*
X25545479Y6265480D01*
X25547982Y6255484D01*
X25549494Y6245292D01*
X25550000Y6235000D01*
X25550000Y5545000D01*
X25549494Y5534708D01*
X25547982Y5524516D01*
X25545479Y5514520D01*
X25542007Y5504818D01*
X25537602Y5495503D01*
X25532304Y5486665D01*
X25526166Y5478389D01*
X25519246Y5470754D01*
X25511611Y5463834D01*
X25503335Y5457696D01*
X25494497Y5452398D01*
X25485182Y5447993D01*
X25475480Y5444521D01*
X25465484Y5442018D01*
X25455292Y5440506D01*
X25445000Y5440000D01*
X24955000Y5440000D01*
X24944708Y5440506D01*
X24934516Y5442018D01*
X24924520Y5444521D01*
X24914818Y5447993D01*
X24905503Y5452398D01*
X24896665Y5457696D01*
X24888389Y5463834D01*
X24880754Y5470754D01*
X24873834Y5478389D01*
X24867696Y5486665D01*
X24862398Y5495503D01*
X24857993Y5504818D01*
X24854521Y5514520D01*
X24852018Y5524516D01*
X24850506Y5534708D01*
X24850000Y5545000D01*
X24850000Y6235000D01*
X24850506Y6245292D01*
X24852018Y6255484D01*
X24854521Y6265480D01*
X24857993Y6275182D01*
X24862398Y6284497D01*
X24867696Y6293335D01*
X24873834Y6301611D01*
X24880754Y6309246D01*
X24888389Y6316166D01*
X24896665Y6322304D01*
X24905503Y6327602D01*
X24914818Y6332007D01*
X24924520Y6335479D01*
X24934516Y6337982D01*
X24944708Y6339494D01*
X24955000Y6340000D01*
X25445000Y6340000D01*
X25455292Y6339494D01*
G37*
G36*
X15227841Y12939615D02*
G01*
X15235607Y12938463D01*
X15243223Y12936555D01*
X15250615Y12933910D01*
X15257712Y12930554D01*
X15264446Y12926518D01*
X15270751Y12921841D01*
X15276569Y12916569D01*
X15281841Y12910751D01*
X15286518Y12904446D01*
X15290554Y12897712D01*
X15293910Y12890615D01*
X15296555Y12883223D01*
X15298463Y12875607D01*
X15299615Y12867841D01*
X15300000Y12860000D01*
X15300000Y12120000D01*
X15299615Y12112159D01*
X15298463Y12104393D01*
X15296555Y12096777D01*
X15293910Y12089385D01*
X15290554Y12082288D01*
X15286518Y12075554D01*
X15281841Y12069249D01*
X15276569Y12063431D01*
X15270751Y12058159D01*
X15264446Y12053482D01*
X15257712Y12049446D01*
X15250615Y12046090D01*
X15243223Y12043445D01*
X15235607Y12041537D01*
X15227841Y12040385D01*
X15220000Y12040000D01*
X14580000Y12040000D01*
X14572159Y12040385D01*
X14564393Y12041537D01*
X14556777Y12043445D01*
X14549385Y12046090D01*
X14542288Y12049446D01*
X14535554Y12053482D01*
X14529249Y12058159D01*
X14523431Y12063431D01*
X14518159Y12069249D01*
X14513482Y12075554D01*
X14509446Y12082288D01*
X14506090Y12089385D01*
X14503445Y12096777D01*
X14501537Y12104393D01*
X14500385Y12112159D01*
X14500000Y12120000D01*
X14500000Y12860000D01*
X14500385Y12867841D01*
X14501537Y12875607D01*
X14503445Y12883223D01*
X14506090Y12890615D01*
X14509446Y12897712D01*
X14513482Y12904446D01*
X14518159Y12910751D01*
X14523431Y12916569D01*
X14529249Y12921841D01*
X14535554Y12926518D01*
X14542288Y12930554D01*
X14549385Y12933910D01*
X14556777Y12936555D01*
X14564393Y12938463D01*
X14572159Y12939615D01*
X14580000Y12940000D01*
X15220000Y12940000D01*
X15227841Y12939615D01*
G37*
G36*
X13627841Y12939615D02*
G01*
X13635607Y12938463D01*
X13643223Y12936555D01*
X13650615Y12933910D01*
X13657712Y12930554D01*
X13664446Y12926518D01*
X13670751Y12921841D01*
X13676569Y12916569D01*
X13681841Y12910751D01*
X13686518Y12904446D01*
X13690554Y12897712D01*
X13693910Y12890615D01*
X13696555Y12883223D01*
X13698463Y12875607D01*
X13699615Y12867841D01*
X13700000Y12860000D01*
X13700000Y12120000D01*
X13699615Y12112159D01*
X13698463Y12104393D01*
X13696555Y12096777D01*
X13693910Y12089385D01*
X13690554Y12082288D01*
X13686518Y12075554D01*
X13681841Y12069249D01*
X13676569Y12063431D01*
X13670751Y12058159D01*
X13664446Y12053482D01*
X13657712Y12049446D01*
X13650615Y12046090D01*
X13643223Y12043445D01*
X13635607Y12041537D01*
X13627841Y12040385D01*
X13620000Y12040000D01*
X12980000Y12040000D01*
X12972159Y12040385D01*
X12964393Y12041537D01*
X12956777Y12043445D01*
X12949385Y12046090D01*
X12942288Y12049446D01*
X12935554Y12053482D01*
X12929249Y12058159D01*
X12923431Y12063431D01*
X12918159Y12069249D01*
X12913482Y12075554D01*
X12909446Y12082288D01*
X12906090Y12089385D01*
X12903445Y12096777D01*
X12901537Y12104393D01*
X12900385Y12112159D01*
X12900000Y12120000D01*
X12900000Y12860000D01*
X12900385Y12867841D01*
X12901537Y12875607D01*
X12903445Y12883223D01*
X12906090Y12890615D01*
X12909446Y12897712D01*
X12913482Y12904446D01*
X12918159Y12910751D01*
X12923431Y12916569D01*
X12929249Y12921841D01*
X12935554Y12926518D01*
X12942288Y12930554D01*
X12949385Y12933910D01*
X12956777Y12936555D01*
X12964393Y12938463D01*
X12972159Y12939615D01*
X12980000Y12940000D01*
X13620000Y12940000D01*
X13627841Y12939615D01*
G37*
G36*
X18127841Y12939615D02*
G01*
X18135607Y12938463D01*
X18143223Y12936555D01*
X18150615Y12933910D01*
X18157712Y12930554D01*
X18164446Y12926518D01*
X18170751Y12921841D01*
X18176569Y12916569D01*
X18181841Y12910751D01*
X18186518Y12904446D01*
X18190554Y12897712D01*
X18193910Y12890615D01*
X18196555Y12883223D01*
X18198463Y12875607D01*
X18199615Y12867841D01*
X18200000Y12860000D01*
X18200000Y12120000D01*
X18199615Y12112159D01*
X18198463Y12104393D01*
X18196555Y12096777D01*
X18193910Y12089385D01*
X18190554Y12082288D01*
X18186518Y12075554D01*
X18181841Y12069249D01*
X18176569Y12063431D01*
X18170751Y12058159D01*
X18164446Y12053482D01*
X18157712Y12049446D01*
X18150615Y12046090D01*
X18143223Y12043445D01*
X18135607Y12041537D01*
X18127841Y12040385D01*
X18120000Y12040000D01*
X17480000Y12040000D01*
X17472159Y12040385D01*
X17464393Y12041537D01*
X17456777Y12043445D01*
X17449385Y12046090D01*
X17442288Y12049446D01*
X17435554Y12053482D01*
X17429249Y12058159D01*
X17423431Y12063431D01*
X17418159Y12069249D01*
X17413482Y12075554D01*
X17409446Y12082288D01*
X17406090Y12089385D01*
X17403445Y12096777D01*
X17401537Y12104393D01*
X17400385Y12112159D01*
X17400000Y12120000D01*
X17400000Y12860000D01*
X17400385Y12867841D01*
X17401537Y12875607D01*
X17403445Y12883223D01*
X17406090Y12890615D01*
X17409446Y12897712D01*
X17413482Y12904446D01*
X17418159Y12910751D01*
X17423431Y12916569D01*
X17429249Y12921841D01*
X17435554Y12926518D01*
X17442288Y12930554D01*
X17449385Y12933910D01*
X17456777Y12936555D01*
X17464393Y12938463D01*
X17472159Y12939615D01*
X17480000Y12940000D01*
X18120000Y12940000D01*
X18127841Y12939615D01*
G37*
G36*
X16527841Y12939615D02*
G01*
X16535607Y12938463D01*
X16543223Y12936555D01*
X16550615Y12933910D01*
X16557712Y12930554D01*
X16564446Y12926518D01*
X16570751Y12921841D01*
X16576569Y12916569D01*
X16581841Y12910751D01*
X16586518Y12904446D01*
X16590554Y12897712D01*
X16593910Y12890615D01*
X16596555Y12883223D01*
X16598463Y12875607D01*
X16599615Y12867841D01*
X16600000Y12860000D01*
X16600000Y12120000D01*
X16599615Y12112159D01*
X16598463Y12104393D01*
X16596555Y12096777D01*
X16593910Y12089385D01*
X16590554Y12082288D01*
X16586518Y12075554D01*
X16581841Y12069249D01*
X16576569Y12063431D01*
X16570751Y12058159D01*
X16564446Y12053482D01*
X16557712Y12049446D01*
X16550615Y12046090D01*
X16543223Y12043445D01*
X16535607Y12041537D01*
X16527841Y12040385D01*
X16520000Y12040000D01*
X15880000Y12040000D01*
X15872159Y12040385D01*
X15864393Y12041537D01*
X15856777Y12043445D01*
X15849385Y12046090D01*
X15842288Y12049446D01*
X15835554Y12053482D01*
X15829249Y12058159D01*
X15823431Y12063431D01*
X15818159Y12069249D01*
X15813482Y12075554D01*
X15809446Y12082288D01*
X15806090Y12089385D01*
X15803445Y12096777D01*
X15801537Y12104393D01*
X15800385Y12112159D01*
X15800000Y12120000D01*
X15800000Y12860000D01*
X15800385Y12867841D01*
X15801537Y12875607D01*
X15803445Y12883223D01*
X15806090Y12890615D01*
X15809446Y12897712D01*
X15813482Y12904446D01*
X15818159Y12910751D01*
X15823431Y12916569D01*
X15829249Y12921841D01*
X15835554Y12926518D01*
X15842288Y12930554D01*
X15849385Y12933910D01*
X15856777Y12936555D01*
X15864393Y12938463D01*
X15872159Y12939615D01*
X15880000Y12940000D01*
X16520000Y12940000D01*
X16527841Y12939615D01*
G37*
G36*
X17714703Y6014278D02*
G01*
X17729264Y6012118D01*
X17743543Y6008541D01*
X17757403Y6003582D01*
X17770710Y5997288D01*
X17783336Y5989720D01*
X17795159Y5980952D01*
X17806066Y5971066D01*
X17815952Y5960159D01*
X17824720Y5948336D01*
X17832288Y5935710D01*
X17838582Y5922403D01*
X17843541Y5908543D01*
X17847118Y5894264D01*
X17849278Y5879703D01*
X17850000Y5865000D01*
X17850000Y4915000D01*
X17849278Y4900297D01*
X17847118Y4885736D01*
X17843541Y4871457D01*
X17838582Y4857597D01*
X17832288Y4844290D01*
X17824720Y4831664D01*
X17815952Y4819841D01*
X17806066Y4808934D01*
X17795159Y4799048D01*
X17783336Y4790280D01*
X17770710Y4782712D01*
X17757403Y4776418D01*
X17743543Y4771459D01*
X17729264Y4767882D01*
X17714703Y4765722D01*
X17700000Y4765000D01*
X17000000Y4765000D01*
X16985297Y4765722D01*
X16970736Y4767882D01*
X16956457Y4771459D01*
X16942597Y4776418D01*
X16929290Y4782712D01*
X16916664Y4790280D01*
X16904841Y4799048D01*
X16893934Y4808934D01*
X16884048Y4819841D01*
X16875280Y4831664D01*
X16867712Y4844290D01*
X16861418Y4857597D01*
X16856459Y4871457D01*
X16852882Y4885736D01*
X16850722Y4900297D01*
X16850000Y4915000D01*
X16850000Y5865000D01*
X16850722Y5879703D01*
X16852882Y5894264D01*
X16856459Y5908543D01*
X16861418Y5922403D01*
X16867712Y5935710D01*
X16875280Y5948336D01*
X16884048Y5960159D01*
X16893934Y5971066D01*
X16904841Y5980952D01*
X16916664Y5989720D01*
X16929290Y5997288D01*
X16942597Y6003582D01*
X16956457Y6008541D01*
X16970736Y6012118D01*
X16985297Y6014278D01*
X17000000Y6015000D01*
X17700000Y6015000D01*
X17714703Y6014278D01*
G37*
G36*
X15714703Y6014278D02*
G01*
X15729264Y6012118D01*
X15743543Y6008541D01*
X15757403Y6003582D01*
X15770710Y5997288D01*
X15783336Y5989720D01*
X15795159Y5980952D01*
X15806066Y5971066D01*
X15815952Y5960159D01*
X15824720Y5948336D01*
X15832288Y5935710D01*
X15838582Y5922403D01*
X15843541Y5908543D01*
X15847118Y5894264D01*
X15849278Y5879703D01*
X15850000Y5865000D01*
X15850000Y4915000D01*
X15849278Y4900297D01*
X15847118Y4885736D01*
X15843541Y4871457D01*
X15838582Y4857597D01*
X15832288Y4844290D01*
X15824720Y4831664D01*
X15815952Y4819841D01*
X15806066Y4808934D01*
X15795159Y4799048D01*
X15783336Y4790280D01*
X15770710Y4782712D01*
X15757403Y4776418D01*
X15743543Y4771459D01*
X15729264Y4767882D01*
X15714703Y4765722D01*
X15700000Y4765000D01*
X15000000Y4765000D01*
X14985297Y4765722D01*
X14970736Y4767882D01*
X14956457Y4771459D01*
X14942597Y4776418D01*
X14929290Y4782712D01*
X14916664Y4790280D01*
X14904841Y4799048D01*
X14893934Y4808934D01*
X14884048Y4819841D01*
X14875280Y4831664D01*
X14867712Y4844290D01*
X14861418Y4857597D01*
X14856459Y4871457D01*
X14852882Y4885736D01*
X14850722Y4900297D01*
X14850000Y4915000D01*
X14850000Y5865000D01*
X14850722Y5879703D01*
X14852882Y5894264D01*
X14856459Y5908543D01*
X14861418Y5922403D01*
X14867712Y5935710D01*
X14875280Y5948336D01*
X14884048Y5960159D01*
X14893934Y5971066D01*
X14904841Y5980952D01*
X14916664Y5989720D01*
X14929290Y5997288D01*
X14942597Y6003582D01*
X14956457Y6008541D01*
X14970736Y6012118D01*
X14985297Y6014278D01*
X15000000Y6015000D01*
X15700000Y6015000D01*
X15714703Y6014278D01*
G37*
G36*
X26364703Y12814278D02*
G01*
X26379264Y12812118D01*
X26393543Y12808541D01*
X26407403Y12803582D01*
X26420710Y12797288D01*
X26433336Y12789720D01*
X26445159Y12780952D01*
X26456066Y12771066D01*
X26465952Y12760159D01*
X26474720Y12748336D01*
X26482288Y12735710D01*
X26488582Y12722403D01*
X26493541Y12708543D01*
X26497118Y12694264D01*
X26499278Y12679703D01*
X26500000Y12665000D01*
X26500000Y11715000D01*
X26499278Y11700297D01*
X26497118Y11685736D01*
X26493541Y11671457D01*
X26488582Y11657597D01*
X26482288Y11644290D01*
X26474720Y11631664D01*
X26465952Y11619841D01*
X26456066Y11608934D01*
X26445159Y11599048D01*
X26433336Y11590280D01*
X26420710Y11582712D01*
X26407403Y11576418D01*
X26393543Y11571459D01*
X26379264Y11567882D01*
X26364703Y11565722D01*
X26350000Y11565000D01*
X25650000Y11565000D01*
X25635297Y11565722D01*
X25620736Y11567882D01*
X25606457Y11571459D01*
X25592597Y11576418D01*
X25579290Y11582712D01*
X25566664Y11590280D01*
X25554841Y11599048D01*
X25543934Y11608934D01*
X25534048Y11619841D01*
X25525280Y11631664D01*
X25517712Y11644290D01*
X25511418Y11657597D01*
X25506459Y11671457D01*
X25502882Y11685736D01*
X25500722Y11700297D01*
X25500000Y11715000D01*
X25500000Y12665000D01*
X25500722Y12679703D01*
X25502882Y12694264D01*
X25506459Y12708543D01*
X25511418Y12722403D01*
X25517712Y12735710D01*
X25525280Y12748336D01*
X25534048Y12760159D01*
X25543934Y12771066D01*
X25554841Y12780952D01*
X25566664Y12789720D01*
X25579290Y12797288D01*
X25592597Y12803582D01*
X25606457Y12808541D01*
X25620736Y12812118D01*
X25635297Y12814278D01*
X25650000Y12815000D01*
X26350000Y12815000D01*
X26364703Y12814278D01*
G37*
G36*
X24364703Y12814278D02*
G01*
X24379264Y12812118D01*
X24393543Y12808541D01*
X24407403Y12803582D01*
X24420710Y12797288D01*
X24433336Y12789720D01*
X24445159Y12780952D01*
X24456066Y12771066D01*
X24465952Y12760159D01*
X24474720Y12748336D01*
X24482288Y12735710D01*
X24488582Y12722403D01*
X24493541Y12708543D01*
X24497118Y12694264D01*
X24499278Y12679703D01*
X24500000Y12665000D01*
X24500000Y11715000D01*
X24499278Y11700297D01*
X24497118Y11685736D01*
X24493541Y11671457D01*
X24488582Y11657597D01*
X24482288Y11644290D01*
X24474720Y11631664D01*
X24465952Y11619841D01*
X24456066Y11608934D01*
X24445159Y11599048D01*
X24433336Y11590280D01*
X24420710Y11582712D01*
X24407403Y11576418D01*
X24393543Y11571459D01*
X24379264Y11567882D01*
X24364703Y11565722D01*
X24350000Y11565000D01*
X23650000Y11565000D01*
X23635297Y11565722D01*
X23620736Y11567882D01*
X23606457Y11571459D01*
X23592597Y11576418D01*
X23579290Y11582712D01*
X23566664Y11590280D01*
X23554841Y11599048D01*
X23543934Y11608934D01*
X23534048Y11619841D01*
X23525280Y11631664D01*
X23517712Y11644290D01*
X23511418Y11657597D01*
X23506459Y11671457D01*
X23502882Y11685736D01*
X23500722Y11700297D01*
X23500000Y11715000D01*
X23500000Y12665000D01*
X23500722Y12679703D01*
X23502882Y12694264D01*
X23506459Y12708543D01*
X23511418Y12722403D01*
X23517712Y12735710D01*
X23525280Y12748336D01*
X23534048Y12760159D01*
X23543934Y12771066D01*
X23554841Y12780952D01*
X23566664Y12789720D01*
X23579290Y12797288D01*
X23592597Y12803582D01*
X23606457Y12808541D01*
X23620736Y12812118D01*
X23635297Y12814278D01*
X23650000Y12815000D01*
X24350000Y12815000D01*
X24364703Y12814278D01*
G37*
G36*
X15714703Y7814278D02*
G01*
X15729264Y7812118D01*
X15743543Y7808541D01*
X15757403Y7803582D01*
X15770710Y7797288D01*
X15783336Y7789720D01*
X15795159Y7780952D01*
X15806066Y7771066D01*
X15815952Y7760159D01*
X15824720Y7748336D01*
X15832288Y7735710D01*
X15838582Y7722403D01*
X15843541Y7708543D01*
X15847118Y7694264D01*
X15849278Y7679703D01*
X15850000Y7665000D01*
X15850000Y6715000D01*
X15849278Y6700297D01*
X15847118Y6685736D01*
X15843541Y6671457D01*
X15838582Y6657597D01*
X15832288Y6644290D01*
X15824720Y6631664D01*
X15815952Y6619841D01*
X15806066Y6608934D01*
X15795159Y6599048D01*
X15783336Y6590280D01*
X15770710Y6582712D01*
X15757403Y6576418D01*
X15743543Y6571459D01*
X15729264Y6567882D01*
X15714703Y6565722D01*
X15700000Y6565000D01*
X15000000Y6565000D01*
X14985297Y6565722D01*
X14970736Y6567882D01*
X14956457Y6571459D01*
X14942597Y6576418D01*
X14929290Y6582712D01*
X14916664Y6590280D01*
X14904841Y6599048D01*
X14893934Y6608934D01*
X14884048Y6619841D01*
X14875280Y6631664D01*
X14867712Y6644290D01*
X14861418Y6657597D01*
X14856459Y6671457D01*
X14852882Y6685736D01*
X14850722Y6700297D01*
X14850000Y6715000D01*
X14850000Y7665000D01*
X14850722Y7679703D01*
X14852882Y7694264D01*
X14856459Y7708543D01*
X14861418Y7722403D01*
X14867712Y7735710D01*
X14875280Y7748336D01*
X14884048Y7760159D01*
X14893934Y7771066D01*
X14904841Y7780952D01*
X14916664Y7789720D01*
X14929290Y7797288D01*
X14942597Y7803582D01*
X14956457Y7808541D01*
X14970736Y7812118D01*
X14985297Y7814278D01*
X15000000Y7815000D01*
X15700000Y7815000D01*
X15714703Y7814278D01*
G37*
G36*
X17714703Y7814278D02*
G01*
X17729264Y7812118D01*
X17743543Y7808541D01*
X17757403Y7803582D01*
X17770710Y7797288D01*
X17783336Y7789720D01*
X17795159Y7780952D01*
X17806066Y7771066D01*
X17815952Y7760159D01*
X17824720Y7748336D01*
X17832288Y7735710D01*
X17838582Y7722403D01*
X17843541Y7708543D01*
X17847118Y7694264D01*
X17849278Y7679703D01*
X17850000Y7665000D01*
X17850000Y6715000D01*
X17849278Y6700297D01*
X17847118Y6685736D01*
X17843541Y6671457D01*
X17838582Y6657597D01*
X17832288Y6644290D01*
X17824720Y6631664D01*
X17815952Y6619841D01*
X17806066Y6608934D01*
X17795159Y6599048D01*
X17783336Y6590280D01*
X17770710Y6582712D01*
X17757403Y6576418D01*
X17743543Y6571459D01*
X17729264Y6567882D01*
X17714703Y6565722D01*
X17700000Y6565000D01*
X17000000Y6565000D01*
X16985297Y6565722D01*
X16970736Y6567882D01*
X16956457Y6571459D01*
X16942597Y6576418D01*
X16929290Y6582712D01*
X16916664Y6590280D01*
X16904841Y6599048D01*
X16893934Y6608934D01*
X16884048Y6619841D01*
X16875280Y6631664D01*
X16867712Y6644290D01*
X16861418Y6657597D01*
X16856459Y6671457D01*
X16852882Y6685736D01*
X16850722Y6700297D01*
X16850000Y6715000D01*
X16850000Y7665000D01*
X16850722Y7679703D01*
X16852882Y7694264D01*
X16856459Y7708543D01*
X16861418Y7722403D01*
X16867712Y7735710D01*
X16875280Y7748336D01*
X16884048Y7760159D01*
X16893934Y7771066D01*
X16904841Y7780952D01*
X16916664Y7789720D01*
X16929290Y7797288D01*
X16942597Y7803582D01*
X16956457Y7808541D01*
X16970736Y7812118D01*
X16985297Y7814278D01*
X17000000Y7815000D01*
X17700000Y7815000D01*
X17714703Y7814278D01*
G37*
G36*
X20777841Y11339615D02*
G01*
X20785607Y11338463D01*
X20793223Y11336555D01*
X20800615Y11333910D01*
X20807712Y11330554D01*
X20814446Y11326518D01*
X20820751Y11321841D01*
X20826569Y11316569D01*
X20831841Y11310751D01*
X20836518Y11304446D01*
X20840554Y11297712D01*
X20843910Y11290615D01*
X20846555Y11283223D01*
X20848463Y11275607D01*
X20849615Y11267841D01*
X20850000Y11260000D01*
X20850000Y10520000D01*
X20849615Y10512159D01*
X20848463Y10504393D01*
X20846555Y10496777D01*
X20843910Y10489385D01*
X20840554Y10482288D01*
X20836518Y10475554D01*
X20831841Y10469249D01*
X20826569Y10463431D01*
X20820751Y10458159D01*
X20814446Y10453482D01*
X20807712Y10449446D01*
X20800615Y10446090D01*
X20793223Y10443445D01*
X20785607Y10441537D01*
X20777841Y10440385D01*
X20770000Y10440000D01*
X20130000Y10440000D01*
X20122159Y10440385D01*
X20114393Y10441537D01*
X20106777Y10443445D01*
X20099385Y10446090D01*
X20092288Y10449446D01*
X20085554Y10453482D01*
X20079249Y10458159D01*
X20073431Y10463431D01*
X20068159Y10469249D01*
X20063482Y10475554D01*
X20059446Y10482288D01*
X20056090Y10489385D01*
X20053445Y10496777D01*
X20051537Y10504393D01*
X20050385Y10512159D01*
X20050000Y10520000D01*
X20050000Y11260000D01*
X20050385Y11267841D01*
X20051537Y11275607D01*
X20053445Y11283223D01*
X20056090Y11290615D01*
X20059446Y11297712D01*
X20063482Y11304446D01*
X20068159Y11310751D01*
X20073431Y11316569D01*
X20079249Y11321841D01*
X20085554Y11326518D01*
X20092288Y11330554D01*
X20099385Y11333910D01*
X20106777Y11336555D01*
X20114393Y11338463D01*
X20122159Y11339615D01*
X20130000Y11340000D01*
X20770000Y11340000D01*
X20777841Y11339615D01*
G37*
G36*
X22377841Y11339615D02*
G01*
X22385607Y11338463D01*
X22393223Y11336555D01*
X22400615Y11333910D01*
X22407712Y11330554D01*
X22414446Y11326518D01*
X22420751Y11321841D01*
X22426569Y11316569D01*
X22431841Y11310751D01*
X22436518Y11304446D01*
X22440554Y11297712D01*
X22443910Y11290615D01*
X22446555Y11283223D01*
X22448463Y11275607D01*
X22449615Y11267841D01*
X22450000Y11260000D01*
X22450000Y10520000D01*
X22449615Y10512159D01*
X22448463Y10504393D01*
X22446555Y10496777D01*
X22443910Y10489385D01*
X22440554Y10482288D01*
X22436518Y10475554D01*
X22431841Y10469249D01*
X22426569Y10463431D01*
X22420751Y10458159D01*
X22414446Y10453482D01*
X22407712Y10449446D01*
X22400615Y10446090D01*
X22393223Y10443445D01*
X22385607Y10441537D01*
X22377841Y10440385D01*
X22370000Y10440000D01*
X21730000Y10440000D01*
X21722159Y10440385D01*
X21714393Y10441537D01*
X21706777Y10443445D01*
X21699385Y10446090D01*
X21692288Y10449446D01*
X21685554Y10453482D01*
X21679249Y10458159D01*
X21673431Y10463431D01*
X21668159Y10469249D01*
X21663482Y10475554D01*
X21659446Y10482288D01*
X21656090Y10489385D01*
X21653445Y10496777D01*
X21651537Y10504393D01*
X21650385Y10512159D01*
X21650000Y10520000D01*
X21650000Y11260000D01*
X21650385Y11267841D01*
X21651537Y11275607D01*
X21653445Y11283223D01*
X21656090Y11290615D01*
X21659446Y11297712D01*
X21663482Y11304446D01*
X21668159Y11310751D01*
X21673431Y11316569D01*
X21679249Y11321841D01*
X21685554Y11326518D01*
X21692288Y11330554D01*
X21699385Y11333910D01*
X21706777Y11336555D01*
X21714393Y11338463D01*
X21722159Y11339615D01*
X21730000Y11340000D01*
X22370000Y11340000D01*
X22377841Y11339615D01*
G37*
G36*
X20777841Y12839615D02*
G01*
X20785607Y12838463D01*
X20793223Y12836555D01*
X20800615Y12833910D01*
X20807712Y12830554D01*
X20814446Y12826518D01*
X20820751Y12821841D01*
X20826569Y12816569D01*
X20831841Y12810751D01*
X20836518Y12804446D01*
X20840554Y12797712D01*
X20843910Y12790615D01*
X20846555Y12783223D01*
X20848463Y12775607D01*
X20849615Y12767841D01*
X20850000Y12760000D01*
X20850000Y12020000D01*
X20849615Y12012159D01*
X20848463Y12004393D01*
X20846555Y11996777D01*
X20843910Y11989385D01*
X20840554Y11982288D01*
X20836518Y11975554D01*
X20831841Y11969249D01*
X20826569Y11963431D01*
X20820751Y11958159D01*
X20814446Y11953482D01*
X20807712Y11949446D01*
X20800615Y11946090D01*
X20793223Y11943445D01*
X20785607Y11941537D01*
X20777841Y11940385D01*
X20770000Y11940000D01*
X20130000Y11940000D01*
X20122159Y11940385D01*
X20114393Y11941537D01*
X20106777Y11943445D01*
X20099385Y11946090D01*
X20092288Y11949446D01*
X20085554Y11953482D01*
X20079249Y11958159D01*
X20073431Y11963431D01*
X20068159Y11969249D01*
X20063482Y11975554D01*
X20059446Y11982288D01*
X20056090Y11989385D01*
X20053445Y11996777D01*
X20051537Y12004393D01*
X20050385Y12012159D01*
X20050000Y12020000D01*
X20050000Y12760000D01*
X20050385Y12767841D01*
X20051537Y12775607D01*
X20053445Y12783223D01*
X20056090Y12790615D01*
X20059446Y12797712D01*
X20063482Y12804446D01*
X20068159Y12810751D01*
X20073431Y12816569D01*
X20079249Y12821841D01*
X20085554Y12826518D01*
X20092288Y12830554D01*
X20099385Y12833910D01*
X20106777Y12836555D01*
X20114393Y12838463D01*
X20122159Y12839615D01*
X20130000Y12840000D01*
X20770000Y12840000D01*
X20777841Y12839615D01*
G37*
G36*
X22377841Y12839615D02*
G01*
X22385607Y12838463D01*
X22393223Y12836555D01*
X22400615Y12833910D01*
X22407712Y12830554D01*
X22414446Y12826518D01*
X22420751Y12821841D01*
X22426569Y12816569D01*
X22431841Y12810751D01*
X22436518Y12804446D01*
X22440554Y12797712D01*
X22443910Y12790615D01*
X22446555Y12783223D01*
X22448463Y12775607D01*
X22449615Y12767841D01*
X22450000Y12760000D01*
X22450000Y12020000D01*
X22449615Y12012159D01*
X22448463Y12004393D01*
X22446555Y11996777D01*
X22443910Y11989385D01*
X22440554Y11982288D01*
X22436518Y11975554D01*
X22431841Y11969249D01*
X22426569Y11963431D01*
X22420751Y11958159D01*
X22414446Y11953482D01*
X22407712Y11949446D01*
X22400615Y11946090D01*
X22393223Y11943445D01*
X22385607Y11941537D01*
X22377841Y11940385D01*
X22370000Y11940000D01*
X21730000Y11940000D01*
X21722159Y11940385D01*
X21714393Y11941537D01*
X21706777Y11943445D01*
X21699385Y11946090D01*
X21692288Y11949446D01*
X21685554Y11953482D01*
X21679249Y11958159D01*
X21673431Y11963431D01*
X21668159Y11969249D01*
X21663482Y11975554D01*
X21659446Y11982288D01*
X21656090Y11989385D01*
X21653445Y11996777D01*
X21651537Y12004393D01*
X21650385Y12012159D01*
X21650000Y12020000D01*
X21650000Y12760000D01*
X21650385Y12767841D01*
X21651537Y12775607D01*
X21653445Y12783223D01*
X21656090Y12790615D01*
X21659446Y12797712D01*
X21663482Y12804446D01*
X21668159Y12810751D01*
X21673431Y12816569D01*
X21679249Y12821841D01*
X21685554Y12826518D01*
X21692288Y12830554D01*
X21699385Y12833910D01*
X21706777Y12836555D01*
X21714393Y12838463D01*
X21722159Y12839615D01*
X21730000Y12840000D01*
X22370000Y12840000D01*
X22377841Y12839615D01*
G37*
G36*
X26905292Y7489494D02*
G01*
X26915484Y7487982D01*
X26925480Y7485479D01*
X26935182Y7482007D01*
X26944497Y7477602D01*
X26953335Y7472304D01*
X26961611Y7466166D01*
X26969246Y7459246D01*
X26976166Y7451611D01*
X26982304Y7443335D01*
X26987602Y7434497D01*
X26992007Y7425182D01*
X26995479Y7415480D01*
X26997982Y7405484D01*
X26999494Y7395292D01*
X27000000Y7385000D01*
X27000000Y6895000D01*
X26999494Y6884708D01*
X26997982Y6874516D01*
X26995479Y6864520D01*
X26992007Y6854818D01*
X26987602Y6845503D01*
X26982304Y6836665D01*
X26976166Y6828389D01*
X26969246Y6820754D01*
X26961611Y6813834D01*
X26953335Y6807696D01*
X26944497Y6802398D01*
X26935182Y6797993D01*
X26925480Y6794521D01*
X26915484Y6792018D01*
X26905292Y6790506D01*
X26895000Y6790000D01*
X26205000Y6790000D01*
X26194708Y6790506D01*
X26184516Y6792018D01*
X26174520Y6794521D01*
X26164818Y6797993D01*
X26155503Y6802398D01*
X26146665Y6807696D01*
X26138389Y6813834D01*
X26130754Y6820754D01*
X26123834Y6828389D01*
X26117696Y6836665D01*
X26112398Y6845503D01*
X26107993Y6854818D01*
X26104521Y6864520D01*
X26102018Y6874516D01*
X26100506Y6884708D01*
X26100000Y6895000D01*
X26100000Y7385000D01*
X26100506Y7395292D01*
X26102018Y7405484D01*
X26104521Y7415480D01*
X26107993Y7425182D01*
X26112398Y7434497D01*
X26117696Y7443335D01*
X26123834Y7451611D01*
X26130754Y7459246D01*
X26138389Y7466166D01*
X26146665Y7472304D01*
X26155503Y7477602D01*
X26164818Y7482007D01*
X26174520Y7485479D01*
X26184516Y7487982D01*
X26194708Y7489494D01*
X26205000Y7490000D01*
X26895000Y7490000D01*
X26905292Y7489494D01*
G37*
G36*
X26905292Y5989494D02*
G01*
X26915484Y5987982D01*
X26925480Y5985479D01*
X26935182Y5982007D01*
X26944497Y5977602D01*
X26953335Y5972304D01*
X26961611Y5966166D01*
X26969246Y5959246D01*
X26976166Y5951611D01*
X26982304Y5943335D01*
X26987602Y5934497D01*
X26992007Y5925182D01*
X26995479Y5915480D01*
X26997982Y5905484D01*
X26999494Y5895292D01*
X27000000Y5885000D01*
X27000000Y5395000D01*
X26999494Y5384708D01*
X26997982Y5374516D01*
X26995479Y5364520D01*
X26992007Y5354818D01*
X26987602Y5345503D01*
X26982304Y5336665D01*
X26976166Y5328389D01*
X26969246Y5320754D01*
X26961611Y5313834D01*
X26953335Y5307696D01*
X26944497Y5302398D01*
X26935182Y5297993D01*
X26925480Y5294521D01*
X26915484Y5292018D01*
X26905292Y5290506D01*
X26895000Y5290000D01*
X26205000Y5290000D01*
X26194708Y5290506D01*
X26184516Y5292018D01*
X26174520Y5294521D01*
X26164818Y5297993D01*
X26155503Y5302398D01*
X26146665Y5307696D01*
X26138389Y5313834D01*
X26130754Y5320754D01*
X26123834Y5328389D01*
X26117696Y5336665D01*
X26112398Y5345503D01*
X26107993Y5354818D01*
X26104521Y5364520D01*
X26102018Y5374516D01*
X26100506Y5384708D01*
X26100000Y5395000D01*
X26100000Y5885000D01*
X26100506Y5895292D01*
X26102018Y5905484D01*
X26104521Y5915480D01*
X26107993Y5925182D01*
X26112398Y5934497D01*
X26117696Y5943335D01*
X26123834Y5951611D01*
X26130754Y5959246D01*
X26138389Y5966166D01*
X26146665Y5972304D01*
X26155503Y5977602D01*
X26164818Y5982007D01*
X26174520Y5985479D01*
X26184516Y5987982D01*
X26194708Y5989494D01*
X26205000Y5990000D01*
X26895000Y5990000D01*
X26905292Y5989494D01*
G37*
G36*
X31177841Y12989615D02*
G01*
X31185607Y12988463D01*
X31193223Y12986555D01*
X31200615Y12983910D01*
X31207712Y12980554D01*
X31214446Y12976518D01*
X31220751Y12971841D01*
X31226569Y12966569D01*
X31231841Y12960751D01*
X31236518Y12954446D01*
X31240554Y12947712D01*
X31243910Y12940615D01*
X31246555Y12933223D01*
X31248463Y12925607D01*
X31249615Y12917841D01*
X31250000Y12910000D01*
X31250000Y12170000D01*
X31249615Y12162159D01*
X31248463Y12154393D01*
X31246555Y12146777D01*
X31243910Y12139385D01*
X31240554Y12132288D01*
X31236518Y12125554D01*
X31231841Y12119249D01*
X31226569Y12113431D01*
X31220751Y12108159D01*
X31214446Y12103482D01*
X31207712Y12099446D01*
X31200615Y12096090D01*
X31193223Y12093445D01*
X31185607Y12091537D01*
X31177841Y12090385D01*
X31170000Y12090000D01*
X30530000Y12090000D01*
X30522159Y12090385D01*
X30514393Y12091537D01*
X30506777Y12093445D01*
X30499385Y12096090D01*
X30492288Y12099446D01*
X30485554Y12103482D01*
X30479249Y12108159D01*
X30473431Y12113431D01*
X30468159Y12119249D01*
X30463482Y12125554D01*
X30459446Y12132288D01*
X30456090Y12139385D01*
X30453445Y12146777D01*
X30451537Y12154393D01*
X30450385Y12162159D01*
X30450000Y12170000D01*
X30450000Y12910000D01*
X30450385Y12917841D01*
X30451537Y12925607D01*
X30453445Y12933223D01*
X30456090Y12940615D01*
X30459446Y12947712D01*
X30463482Y12954446D01*
X30468159Y12960751D01*
X30473431Y12966569D01*
X30479249Y12971841D01*
X30485554Y12976518D01*
X30492288Y12980554D01*
X30499385Y12983910D01*
X30506777Y12986555D01*
X30514393Y12988463D01*
X30522159Y12989615D01*
X30530000Y12990000D01*
X31170000Y12990000D01*
X31177841Y12989615D01*
G37*
G36*
X29577841Y12989615D02*
G01*
X29585607Y12988463D01*
X29593223Y12986555D01*
X29600615Y12983910D01*
X29607712Y12980554D01*
X29614446Y12976518D01*
X29620751Y12971841D01*
X29626569Y12966569D01*
X29631841Y12960751D01*
X29636518Y12954446D01*
X29640554Y12947712D01*
X29643910Y12940615D01*
X29646555Y12933223D01*
X29648463Y12925607D01*
X29649615Y12917841D01*
X29650000Y12910000D01*
X29650000Y12170000D01*
X29649615Y12162159D01*
X29648463Y12154393D01*
X29646555Y12146777D01*
X29643910Y12139385D01*
X29640554Y12132288D01*
X29636518Y12125554D01*
X29631841Y12119249D01*
X29626569Y12113431D01*
X29620751Y12108159D01*
X29614446Y12103482D01*
X29607712Y12099446D01*
X29600615Y12096090D01*
X29593223Y12093445D01*
X29585607Y12091537D01*
X29577841Y12090385D01*
X29570000Y12090000D01*
X28930000Y12090000D01*
X28922159Y12090385D01*
X28914393Y12091537D01*
X28906777Y12093445D01*
X28899385Y12096090D01*
X28892288Y12099446D01*
X28885554Y12103482D01*
X28879249Y12108159D01*
X28873431Y12113431D01*
X28868159Y12119249D01*
X28863482Y12125554D01*
X28859446Y12132288D01*
X28856090Y12139385D01*
X28853445Y12146777D01*
X28851537Y12154393D01*
X28850385Y12162159D01*
X28850000Y12170000D01*
X28850000Y12910000D01*
X28850385Y12917841D01*
X28851537Y12925607D01*
X28853445Y12933223D01*
X28856090Y12940615D01*
X28859446Y12947712D01*
X28863482Y12954446D01*
X28868159Y12960751D01*
X28873431Y12966569D01*
X28879249Y12971841D01*
X28885554Y12976518D01*
X28892288Y12980554D01*
X28899385Y12983910D01*
X28906777Y12986555D01*
X28914393Y12988463D01*
X28922159Y12989615D01*
X28930000Y12990000D01*
X29570000Y12990000D01*
X29577841Y12989615D01*
G37*
G36*
X31177841Y11089615D02*
G01*
X31185607Y11088463D01*
X31193223Y11086555D01*
X31200615Y11083910D01*
X31207712Y11080554D01*
X31214446Y11076518D01*
X31220751Y11071841D01*
X31226569Y11066569D01*
X31231841Y11060751D01*
X31236518Y11054446D01*
X31240554Y11047712D01*
X31243910Y11040615D01*
X31246555Y11033223D01*
X31248463Y11025607D01*
X31249615Y11017841D01*
X31250000Y11010000D01*
X31250000Y10270000D01*
X31249615Y10262159D01*
X31248463Y10254393D01*
X31246555Y10246777D01*
X31243910Y10239385D01*
X31240554Y10232288D01*
X31236518Y10225554D01*
X31231841Y10219249D01*
X31226569Y10213431D01*
X31220751Y10208159D01*
X31214446Y10203482D01*
X31207712Y10199446D01*
X31200615Y10196090D01*
X31193223Y10193445D01*
X31185607Y10191537D01*
X31177841Y10190385D01*
X31170000Y10190000D01*
X30530000Y10190000D01*
X30522159Y10190385D01*
X30514393Y10191537D01*
X30506777Y10193445D01*
X30499385Y10196090D01*
X30492288Y10199446D01*
X30485554Y10203482D01*
X30479249Y10208159D01*
X30473431Y10213431D01*
X30468159Y10219249D01*
X30463482Y10225554D01*
X30459446Y10232288D01*
X30456090Y10239385D01*
X30453445Y10246777D01*
X30451537Y10254393D01*
X30450385Y10262159D01*
X30450000Y10270000D01*
X30450000Y11010000D01*
X30450385Y11017841D01*
X30451537Y11025607D01*
X30453445Y11033223D01*
X30456090Y11040615D01*
X30459446Y11047712D01*
X30463482Y11054446D01*
X30468159Y11060751D01*
X30473431Y11066569D01*
X30479249Y11071841D01*
X30485554Y11076518D01*
X30492288Y11080554D01*
X30499385Y11083910D01*
X30506777Y11086555D01*
X30514393Y11088463D01*
X30522159Y11089615D01*
X30530000Y11090000D01*
X31170000Y11090000D01*
X31177841Y11089615D01*
G37*
G36*
X29577841Y11089615D02*
G01*
X29585607Y11088463D01*
X29593223Y11086555D01*
X29600615Y11083910D01*
X29607712Y11080554D01*
X29614446Y11076518D01*
X29620751Y11071841D01*
X29626569Y11066569D01*
X29631841Y11060751D01*
X29636518Y11054446D01*
X29640554Y11047712D01*
X29643910Y11040615D01*
X29646555Y11033223D01*
X29648463Y11025607D01*
X29649615Y11017841D01*
X29650000Y11010000D01*
X29650000Y10270000D01*
X29649615Y10262159D01*
X29648463Y10254393D01*
X29646555Y10246777D01*
X29643910Y10239385D01*
X29640554Y10232288D01*
X29636518Y10225554D01*
X29631841Y10219249D01*
X29626569Y10213431D01*
X29620751Y10208159D01*
X29614446Y10203482D01*
X29607712Y10199446D01*
X29600615Y10196090D01*
X29593223Y10193445D01*
X29585607Y10191537D01*
X29577841Y10190385D01*
X29570000Y10190000D01*
X28930000Y10190000D01*
X28922159Y10190385D01*
X28914393Y10191537D01*
X28906777Y10193445D01*
X28899385Y10196090D01*
X28892288Y10199446D01*
X28885554Y10203482D01*
X28879249Y10208159D01*
X28873431Y10213431D01*
X28868159Y10219249D01*
X28863482Y10225554D01*
X28859446Y10232288D01*
X28856090Y10239385D01*
X28853445Y10246777D01*
X28851537Y10254393D01*
X28850385Y10262159D01*
X28850000Y10270000D01*
X28850000Y11010000D01*
X28850385Y11017841D01*
X28851537Y11025607D01*
X28853445Y11033223D01*
X28856090Y11040615D01*
X28859446Y11047712D01*
X28863482Y11054446D01*
X28868159Y11060751D01*
X28873431Y11066569D01*
X28879249Y11071841D01*
X28885554Y11076518D01*
X28892288Y11080554D01*
X28899385Y11083910D01*
X28906777Y11086555D01*
X28914393Y11088463D01*
X28922159Y11089615D01*
X28930000Y11090000D01*
X29570000Y11090000D01*
X29577841Y11089615D01*
G37*
D17*
X11350000Y8090000D03*
D18*
X11350000Y6490000D03*
X11350000Y7290000D03*
D17*
X11350000Y5690000D03*
D18*
X9550000Y7290000D03*
D17*
X9550000Y8090000D03*
D18*
X9550000Y6490000D03*
D17*
X9550000Y5690000D03*
X11350000Y12090000D03*
D18*
X11350000Y10490000D03*
X11350000Y11290000D03*
D17*
X11350000Y9690000D03*
D18*
X9550000Y11290000D03*
D17*
X9550000Y12090000D03*
D18*
X9550000Y10490000D03*
D17*
X9550000Y9690000D03*
D10*
G36*
X35077841Y8539615D02*
G01*
X35085607Y8538463D01*
X35093223Y8536555D01*
X35100615Y8533910D01*
X35107712Y8530554D01*
X35114446Y8526518D01*
X35120751Y8521841D01*
X35126569Y8516569D01*
X35131841Y8510751D01*
X35136518Y8504446D01*
X35140554Y8497712D01*
X35143910Y8490615D01*
X35146555Y8483223D01*
X35148463Y8475607D01*
X35149615Y8467841D01*
X35150000Y8460000D01*
X35150000Y7720000D01*
X35149615Y7712159D01*
X35148463Y7704393D01*
X35146555Y7696777D01*
X35143910Y7689385D01*
X35140554Y7682288D01*
X35136518Y7675554D01*
X35131841Y7669249D01*
X35126569Y7663431D01*
X35120751Y7658159D01*
X35114446Y7653482D01*
X35107712Y7649446D01*
X35100615Y7646090D01*
X35093223Y7643445D01*
X35085607Y7641537D01*
X35077841Y7640385D01*
X35070000Y7640000D01*
X34430000Y7640000D01*
X34422159Y7640385D01*
X34414393Y7641537D01*
X34406777Y7643445D01*
X34399385Y7646090D01*
X34392288Y7649446D01*
X34385554Y7653482D01*
X34379249Y7658159D01*
X34373431Y7663431D01*
X34368159Y7669249D01*
X34363482Y7675554D01*
X34359446Y7682288D01*
X34356090Y7689385D01*
X34353445Y7696777D01*
X34351537Y7704393D01*
X34350385Y7712159D01*
X34350000Y7720000D01*
X34350000Y8460000D01*
X34350385Y8467841D01*
X34351537Y8475607D01*
X34353445Y8483223D01*
X34356090Y8490615D01*
X34359446Y8497712D01*
X34363482Y8504446D01*
X34368159Y8510751D01*
X34373431Y8516569D01*
X34379249Y8521841D01*
X34385554Y8526518D01*
X34392288Y8530554D01*
X34399385Y8533910D01*
X34406777Y8536555D01*
X34414393Y8538463D01*
X34422159Y8539615D01*
X34430000Y8540000D01*
X35070000Y8540000D01*
X35077841Y8539615D01*
G37*
G36*
X33477841Y8539615D02*
G01*
X33485607Y8538463D01*
X33493223Y8536555D01*
X33500615Y8533910D01*
X33507712Y8530554D01*
X33514446Y8526518D01*
X33520751Y8521841D01*
X33526569Y8516569D01*
X33531841Y8510751D01*
X33536518Y8504446D01*
X33540554Y8497712D01*
X33543910Y8490615D01*
X33546555Y8483223D01*
X33548463Y8475607D01*
X33549615Y8467841D01*
X33550000Y8460000D01*
X33550000Y7720000D01*
X33549615Y7712159D01*
X33548463Y7704393D01*
X33546555Y7696777D01*
X33543910Y7689385D01*
X33540554Y7682288D01*
X33536518Y7675554D01*
X33531841Y7669249D01*
X33526569Y7663431D01*
X33520751Y7658159D01*
X33514446Y7653482D01*
X33507712Y7649446D01*
X33500615Y7646090D01*
X33493223Y7643445D01*
X33485607Y7641537D01*
X33477841Y7640385D01*
X33470000Y7640000D01*
X32830000Y7640000D01*
X32822159Y7640385D01*
X32814393Y7641537D01*
X32806777Y7643445D01*
X32799385Y7646090D01*
X32792288Y7649446D01*
X32785554Y7653482D01*
X32779249Y7658159D01*
X32773431Y7663431D01*
X32768159Y7669249D01*
X32763482Y7675554D01*
X32759446Y7682288D01*
X32756090Y7689385D01*
X32753445Y7696777D01*
X32751537Y7704393D01*
X32750385Y7712159D01*
X32750000Y7720000D01*
X32750000Y8460000D01*
X32750385Y8467841D01*
X32751537Y8475607D01*
X32753445Y8483223D01*
X32756090Y8490615D01*
X32759446Y8497712D01*
X32763482Y8504446D01*
X32768159Y8510751D01*
X32773431Y8516569D01*
X32779249Y8521841D01*
X32785554Y8526518D01*
X32792288Y8530554D01*
X32799385Y8533910D01*
X32806777Y8536555D01*
X32814393Y8538463D01*
X32822159Y8539615D01*
X32830000Y8540000D01*
X33470000Y8540000D01*
X33477841Y8539615D01*
G37*
G36*
X35055292Y10139494D02*
G01*
X35065484Y10137982D01*
X35075480Y10135479D01*
X35085182Y10132007D01*
X35094497Y10127602D01*
X35103335Y10122304D01*
X35111611Y10116166D01*
X35119246Y10109246D01*
X35126166Y10101611D01*
X35132304Y10093335D01*
X35137602Y10084497D01*
X35142007Y10075182D01*
X35145479Y10065480D01*
X35147982Y10055484D01*
X35149494Y10045292D01*
X35150000Y10035000D01*
X35150000Y9345000D01*
X35149494Y9334708D01*
X35147982Y9324516D01*
X35145479Y9314520D01*
X35142007Y9304818D01*
X35137602Y9295503D01*
X35132304Y9286665D01*
X35126166Y9278389D01*
X35119246Y9270754D01*
X35111611Y9263834D01*
X35103335Y9257696D01*
X35094497Y9252398D01*
X35085182Y9247993D01*
X35075480Y9244521D01*
X35065484Y9242018D01*
X35055292Y9240506D01*
X35045000Y9240000D01*
X34555000Y9240000D01*
X34544708Y9240506D01*
X34534516Y9242018D01*
X34524520Y9244521D01*
X34514818Y9247993D01*
X34505503Y9252398D01*
X34496665Y9257696D01*
X34488389Y9263834D01*
X34480754Y9270754D01*
X34473834Y9278389D01*
X34467696Y9286665D01*
X34462398Y9295503D01*
X34457993Y9304818D01*
X34454521Y9314520D01*
X34452018Y9324516D01*
X34450506Y9334708D01*
X34450000Y9345000D01*
X34450000Y10035000D01*
X34450506Y10045292D01*
X34452018Y10055484D01*
X34454521Y10065480D01*
X34457993Y10075182D01*
X34462398Y10084497D01*
X34467696Y10093335D01*
X34473834Y10101611D01*
X34480754Y10109246D01*
X34488389Y10116166D01*
X34496665Y10122304D01*
X34505503Y10127602D01*
X34514818Y10132007D01*
X34524520Y10135479D01*
X34534516Y10137982D01*
X34544708Y10139494D01*
X34555000Y10140000D01*
X35045000Y10140000D01*
X35055292Y10139494D01*
G37*
G36*
X33555292Y10139494D02*
G01*
X33565484Y10137982D01*
X33575480Y10135479D01*
X33585182Y10132007D01*
X33594497Y10127602D01*
X33603335Y10122304D01*
X33611611Y10116166D01*
X33619246Y10109246D01*
X33626166Y10101611D01*
X33632304Y10093335D01*
X33637602Y10084497D01*
X33642007Y10075182D01*
X33645479Y10065480D01*
X33647982Y10055484D01*
X33649494Y10045292D01*
X33650000Y10035000D01*
X33650000Y9345000D01*
X33649494Y9334708D01*
X33647982Y9324516D01*
X33645479Y9314520D01*
X33642007Y9304818D01*
X33637602Y9295503D01*
X33632304Y9286665D01*
X33626166Y9278389D01*
X33619246Y9270754D01*
X33611611Y9263834D01*
X33603335Y9257696D01*
X33594497Y9252398D01*
X33585182Y9247993D01*
X33575480Y9244521D01*
X33565484Y9242018D01*
X33555292Y9240506D01*
X33545000Y9240000D01*
X33055000Y9240000D01*
X33044708Y9240506D01*
X33034516Y9242018D01*
X33024520Y9244521D01*
X33014818Y9247993D01*
X33005503Y9252398D01*
X32996665Y9257696D01*
X32988389Y9263834D01*
X32980754Y9270754D01*
X32973834Y9278389D01*
X32967696Y9286665D01*
X32962398Y9295503D01*
X32957993Y9304818D01*
X32954521Y9314520D01*
X32952018Y9324516D01*
X32950506Y9334708D01*
X32950000Y9345000D01*
X32950000Y10035000D01*
X32950506Y10045292D01*
X32952018Y10055484D01*
X32954521Y10065480D01*
X32957993Y10075182D01*
X32962398Y10084497D01*
X32967696Y10093335D01*
X32973834Y10101611D01*
X32980754Y10109246D01*
X32988389Y10116166D01*
X32996665Y10122304D01*
X33005503Y10127602D01*
X33014818Y10132007D01*
X33024520Y10135479D01*
X33034516Y10137982D01*
X33044708Y10139494D01*
X33055000Y10140000D01*
X33545000Y10140000D01*
X33555292Y10139494D01*
G37*
G36*
X31014703Y6014278D02*
G01*
X31029264Y6012118D01*
X31043543Y6008541D01*
X31057403Y6003582D01*
X31070710Y5997288D01*
X31083336Y5989720D01*
X31095159Y5980952D01*
X31106066Y5971066D01*
X31115952Y5960159D01*
X31124720Y5948336D01*
X31132288Y5935710D01*
X31138582Y5922403D01*
X31143541Y5908543D01*
X31147118Y5894264D01*
X31149278Y5879703D01*
X31150000Y5865000D01*
X31150000Y4915000D01*
X31149278Y4900297D01*
X31147118Y4885736D01*
X31143541Y4871457D01*
X31138582Y4857597D01*
X31132288Y4844290D01*
X31124720Y4831664D01*
X31115952Y4819841D01*
X31106066Y4808934D01*
X31095159Y4799048D01*
X31083336Y4790280D01*
X31070710Y4782712D01*
X31057403Y4776418D01*
X31043543Y4771459D01*
X31029264Y4767882D01*
X31014703Y4765722D01*
X31000000Y4765000D01*
X30300000Y4765000D01*
X30285297Y4765722D01*
X30270736Y4767882D01*
X30256457Y4771459D01*
X30242597Y4776418D01*
X30229290Y4782712D01*
X30216664Y4790280D01*
X30204841Y4799048D01*
X30193934Y4808934D01*
X30184048Y4819841D01*
X30175280Y4831664D01*
X30167712Y4844290D01*
X30161418Y4857597D01*
X30156459Y4871457D01*
X30152882Y4885736D01*
X30150722Y4900297D01*
X30150000Y4915000D01*
X30150000Y5865000D01*
X30150722Y5879703D01*
X30152882Y5894264D01*
X30156459Y5908543D01*
X30161418Y5922403D01*
X30167712Y5935710D01*
X30175280Y5948336D01*
X30184048Y5960159D01*
X30193934Y5971066D01*
X30204841Y5980952D01*
X30216664Y5989720D01*
X30229290Y5997288D01*
X30242597Y6003582D01*
X30256457Y6008541D01*
X30270736Y6012118D01*
X30285297Y6014278D01*
X30300000Y6015000D01*
X31000000Y6015000D01*
X31014703Y6014278D01*
G37*
G36*
X29014703Y6014278D02*
G01*
X29029264Y6012118D01*
X29043543Y6008541D01*
X29057403Y6003582D01*
X29070710Y5997288D01*
X29083336Y5989720D01*
X29095159Y5980952D01*
X29106066Y5971066D01*
X29115952Y5960159D01*
X29124720Y5948336D01*
X29132288Y5935710D01*
X29138582Y5922403D01*
X29143541Y5908543D01*
X29147118Y5894264D01*
X29149278Y5879703D01*
X29150000Y5865000D01*
X29150000Y4915000D01*
X29149278Y4900297D01*
X29147118Y4885736D01*
X29143541Y4871457D01*
X29138582Y4857597D01*
X29132288Y4844290D01*
X29124720Y4831664D01*
X29115952Y4819841D01*
X29106066Y4808934D01*
X29095159Y4799048D01*
X29083336Y4790280D01*
X29070710Y4782712D01*
X29057403Y4776418D01*
X29043543Y4771459D01*
X29029264Y4767882D01*
X29014703Y4765722D01*
X29000000Y4765000D01*
X28300000Y4765000D01*
X28285297Y4765722D01*
X28270736Y4767882D01*
X28256457Y4771459D01*
X28242597Y4776418D01*
X28229290Y4782712D01*
X28216664Y4790280D01*
X28204841Y4799048D01*
X28193934Y4808934D01*
X28184048Y4819841D01*
X28175280Y4831664D01*
X28167712Y4844290D01*
X28161418Y4857597D01*
X28156459Y4871457D01*
X28152882Y4885736D01*
X28150722Y4900297D01*
X28150000Y4915000D01*
X28150000Y5865000D01*
X28150722Y5879703D01*
X28152882Y5894264D01*
X28156459Y5908543D01*
X28161418Y5922403D01*
X28167712Y5935710D01*
X28175280Y5948336D01*
X28184048Y5960159D01*
X28193934Y5971066D01*
X28204841Y5980952D01*
X28216664Y5989720D01*
X28229290Y5997288D01*
X28242597Y6003582D01*
X28256457Y6008541D01*
X28270736Y6012118D01*
X28285297Y6014278D01*
X28300000Y6015000D01*
X29000000Y6015000D01*
X29014703Y6014278D01*
G37*
G36*
X14139703Y5889278D02*
G01*
X14154264Y5887118D01*
X14168543Y5883541D01*
X14182403Y5878582D01*
X14195710Y5872288D01*
X14208336Y5864720D01*
X14220159Y5855952D01*
X14231066Y5846066D01*
X14240952Y5835159D01*
X14249720Y5823336D01*
X14257288Y5810710D01*
X14263582Y5797403D01*
X14268541Y5783543D01*
X14272118Y5769264D01*
X14274278Y5754703D01*
X14275000Y5740000D01*
X14275000Y5040000D01*
X14274278Y5025297D01*
X14272118Y5010736D01*
X14268541Y4996457D01*
X14263582Y4982597D01*
X14257288Y4969290D01*
X14249720Y4956664D01*
X14240952Y4944841D01*
X14231066Y4933934D01*
X14220159Y4924048D01*
X14208336Y4915280D01*
X14195710Y4907712D01*
X14182403Y4901418D01*
X14168543Y4896459D01*
X14154264Y4892882D01*
X14139703Y4890722D01*
X14125000Y4890000D01*
X13175000Y4890000D01*
X13160297Y4890722D01*
X13145736Y4892882D01*
X13131457Y4896459D01*
X13117597Y4901418D01*
X13104290Y4907712D01*
X13091664Y4915280D01*
X13079841Y4924048D01*
X13068934Y4933934D01*
X13059048Y4944841D01*
X13050280Y4956664D01*
X13042712Y4969290D01*
X13036418Y4982597D01*
X13031459Y4996457D01*
X13027882Y5010736D01*
X13025722Y5025297D01*
X13025000Y5040000D01*
X13025000Y5740000D01*
X13025722Y5754703D01*
X13027882Y5769264D01*
X13031459Y5783543D01*
X13036418Y5797403D01*
X13042712Y5810710D01*
X13050280Y5823336D01*
X13059048Y5835159D01*
X13068934Y5846066D01*
X13079841Y5855952D01*
X13091664Y5864720D01*
X13104290Y5872288D01*
X13117597Y5878582D01*
X13131457Y5883541D01*
X13145736Y5887118D01*
X13160297Y5889278D01*
X13175000Y5890000D01*
X14125000Y5890000D01*
X14139703Y5889278D01*
G37*
G36*
X14139703Y7889278D02*
G01*
X14154264Y7887118D01*
X14168543Y7883541D01*
X14182403Y7878582D01*
X14195710Y7872288D01*
X14208336Y7864720D01*
X14220159Y7855952D01*
X14231066Y7846066D01*
X14240952Y7835159D01*
X14249720Y7823336D01*
X14257288Y7810710D01*
X14263582Y7797403D01*
X14268541Y7783543D01*
X14272118Y7769264D01*
X14274278Y7754703D01*
X14275000Y7740000D01*
X14275000Y7040000D01*
X14274278Y7025297D01*
X14272118Y7010736D01*
X14268541Y6996457D01*
X14263582Y6982597D01*
X14257288Y6969290D01*
X14249720Y6956664D01*
X14240952Y6944841D01*
X14231066Y6933934D01*
X14220159Y6924048D01*
X14208336Y6915280D01*
X14195710Y6907712D01*
X14182403Y6901418D01*
X14168543Y6896459D01*
X14154264Y6892882D01*
X14139703Y6890722D01*
X14125000Y6890000D01*
X13175000Y6890000D01*
X13160297Y6890722D01*
X13145736Y6892882D01*
X13131457Y6896459D01*
X13117597Y6901418D01*
X13104290Y6907712D01*
X13091664Y6915280D01*
X13079841Y6924048D01*
X13068934Y6933934D01*
X13059048Y6944841D01*
X13050280Y6956664D01*
X13042712Y6969290D01*
X13036418Y6982597D01*
X13031459Y6996457D01*
X13027882Y7010736D01*
X13025722Y7025297D01*
X13025000Y7040000D01*
X13025000Y7740000D01*
X13025722Y7754703D01*
X13027882Y7769264D01*
X13031459Y7783543D01*
X13036418Y7797403D01*
X13042712Y7810710D01*
X13050280Y7823336D01*
X13059048Y7835159D01*
X13068934Y7846066D01*
X13079841Y7855952D01*
X13091664Y7864720D01*
X13104290Y7872288D01*
X13117597Y7878582D01*
X13131457Y7883541D01*
X13145736Y7887118D01*
X13160297Y7889278D01*
X13175000Y7890000D01*
X14125000Y7890000D01*
X14139703Y7889278D01*
G37*
G36*
X13939703Y11489278D02*
G01*
X13954264Y11487118D01*
X13968543Y11483541D01*
X13982403Y11478582D01*
X13995710Y11472288D01*
X14008336Y11464720D01*
X14020159Y11455952D01*
X14031066Y11446066D01*
X14040952Y11435159D01*
X14049720Y11423336D01*
X14057288Y11410710D01*
X14063582Y11397403D01*
X14068541Y11383543D01*
X14072118Y11369264D01*
X14074278Y11354703D01*
X14075000Y11340000D01*
X14075000Y10640000D01*
X14074278Y10625297D01*
X14072118Y10610736D01*
X14068541Y10596457D01*
X14063582Y10582597D01*
X14057288Y10569290D01*
X14049720Y10556664D01*
X14040952Y10544841D01*
X14031066Y10533934D01*
X14020159Y10524048D01*
X14008336Y10515280D01*
X13995710Y10507712D01*
X13982403Y10501418D01*
X13968543Y10496459D01*
X13954264Y10492882D01*
X13939703Y10490722D01*
X13925000Y10490000D01*
X12975000Y10490000D01*
X12960297Y10490722D01*
X12945736Y10492882D01*
X12931457Y10496459D01*
X12917597Y10501418D01*
X12904290Y10507712D01*
X12891664Y10515280D01*
X12879841Y10524048D01*
X12868934Y10533934D01*
X12859048Y10544841D01*
X12850280Y10556664D01*
X12842712Y10569290D01*
X12836418Y10582597D01*
X12831459Y10596457D01*
X12827882Y10610736D01*
X12825722Y10625297D01*
X12825000Y10640000D01*
X12825000Y11340000D01*
X12825722Y11354703D01*
X12827882Y11369264D01*
X12831459Y11383543D01*
X12836418Y11397403D01*
X12842712Y11410710D01*
X12850280Y11423336D01*
X12859048Y11435159D01*
X12868934Y11446066D01*
X12879841Y11455952D01*
X12891664Y11464720D01*
X12904290Y11472288D01*
X12917597Y11478582D01*
X12931457Y11483541D01*
X12945736Y11487118D01*
X12960297Y11489278D01*
X12975000Y11490000D01*
X13925000Y11490000D01*
X13939703Y11489278D01*
G37*
G36*
X13939703Y9489278D02*
G01*
X13954264Y9487118D01*
X13968543Y9483541D01*
X13982403Y9478582D01*
X13995710Y9472288D01*
X14008336Y9464720D01*
X14020159Y9455952D01*
X14031066Y9446066D01*
X14040952Y9435159D01*
X14049720Y9423336D01*
X14057288Y9410710D01*
X14063582Y9397403D01*
X14068541Y9383543D01*
X14072118Y9369264D01*
X14074278Y9354703D01*
X14075000Y9340000D01*
X14075000Y8640000D01*
X14074278Y8625297D01*
X14072118Y8610736D01*
X14068541Y8596457D01*
X14063582Y8582597D01*
X14057288Y8569290D01*
X14049720Y8556664D01*
X14040952Y8544841D01*
X14031066Y8533934D01*
X14020159Y8524048D01*
X14008336Y8515280D01*
X13995710Y8507712D01*
X13982403Y8501418D01*
X13968543Y8496459D01*
X13954264Y8492882D01*
X13939703Y8490722D01*
X13925000Y8490000D01*
X12975000Y8490000D01*
X12960297Y8490722D01*
X12945736Y8492882D01*
X12931457Y8496459D01*
X12917597Y8501418D01*
X12904290Y8507712D01*
X12891664Y8515280D01*
X12879841Y8524048D01*
X12868934Y8533934D01*
X12859048Y8544841D01*
X12850280Y8556664D01*
X12842712Y8569290D01*
X12836418Y8582597D01*
X12831459Y8596457D01*
X12827882Y8610736D01*
X12825722Y8625297D01*
X12825000Y8640000D01*
X12825000Y9340000D01*
X12825722Y9354703D01*
X12827882Y9369264D01*
X12831459Y9383543D01*
X12836418Y9397403D01*
X12842712Y9410710D01*
X12850280Y9423336D01*
X12859048Y9435159D01*
X12868934Y9446066D01*
X12879841Y9455952D01*
X12891664Y9464720D01*
X12904290Y9472288D01*
X12917597Y9478582D01*
X12931457Y9483541D01*
X12945736Y9487118D01*
X12960297Y9489278D01*
X12975000Y9490000D01*
X13925000Y9490000D01*
X13939703Y9489278D01*
G37*
M02*
