G04 #@! TF.GenerationSoftware,KiCad,Pcbnew,(5.1.5)-3*
G04 #@! TF.CreationDate,2021-01-27T12:55:09+11:00*
G04 #@! TF.ProjectId,PD_Micro,50445f4d-6963-4726-9f2e-6b696361645f,rev?*
G04 #@! TF.SameCoordinates,PX7ce2370PY67d8790*
G04 #@! TF.FileFunction,Soldermask,Bot*
G04 #@! TF.FilePolarity,Negative*
%FSLAX46Y46*%
G04 Gerber Fmt 4.6, Leading zero omitted, Abs format (unit mm)*
G04 Created by KiCad (PCBNEW (5.1.5)-3) date 2021-01-27 12:55:09*
%MOMM*%
%LPD*%
G04 APERTURE LIST*
%ADD10C,0.100000*%
G04 APERTURE END LIST*
D10*
G36*
X39652937Y2202724D02*
G01*
X39829465Y2129603D01*
X39829467Y2129602D01*
X39988339Y2023448D01*
X40123448Y1888339D01*
X40149572Y1849241D01*
X40229603Y1729465D01*
X40302724Y1552937D01*
X40340000Y1365538D01*
X40340000Y1174462D01*
X40302724Y987063D01*
X40229603Y810535D01*
X40229602Y810533D01*
X40123448Y651661D01*
X39988339Y516552D01*
X39829467Y410398D01*
X39829466Y410397D01*
X39829465Y410397D01*
X39652937Y337276D01*
X39465538Y300000D01*
X39274462Y300000D01*
X39087063Y337276D01*
X38910535Y410397D01*
X38910534Y410397D01*
X38910533Y410398D01*
X38751661Y516552D01*
X38616552Y651661D01*
X38510398Y810533D01*
X38510397Y810535D01*
X38437276Y987063D01*
X38400000Y1174462D01*
X38400000Y1365538D01*
X38437276Y1552937D01*
X38510397Y1729465D01*
X38590428Y1849241D01*
X38616552Y1888339D01*
X38751661Y2023448D01*
X38910533Y2129602D01*
X38910535Y2129603D01*
X39087063Y2202724D01*
X39274462Y2240000D01*
X39465538Y2240000D01*
X39652937Y2202724D01*
G37*
G36*
X6632937Y2202724D02*
G01*
X6809465Y2129603D01*
X6809467Y2129602D01*
X6968339Y2023448D01*
X7103448Y1888339D01*
X7129572Y1849241D01*
X7209603Y1729465D01*
X7282724Y1552937D01*
X7320000Y1365538D01*
X7320000Y1174462D01*
X7282724Y987063D01*
X7209603Y810535D01*
X7209602Y810533D01*
X7103448Y651661D01*
X6968339Y516552D01*
X6809467Y410398D01*
X6809466Y410397D01*
X6809465Y410397D01*
X6632937Y337276D01*
X6445538Y300000D01*
X6254462Y300000D01*
X6067063Y337276D01*
X5890535Y410397D01*
X5890534Y410397D01*
X5890533Y410398D01*
X5731661Y516552D01*
X5596552Y651661D01*
X5490398Y810533D01*
X5490397Y810535D01*
X5417276Y987063D01*
X5380000Y1174462D01*
X5380000Y1365538D01*
X5417276Y1552937D01*
X5490397Y1729465D01*
X5570428Y1849241D01*
X5596552Y1888339D01*
X5731661Y2023448D01*
X5890533Y2129602D01*
X5890535Y2129603D01*
X6067063Y2202724D01*
X6254462Y2240000D01*
X6445538Y2240000D01*
X6632937Y2202724D01*
G37*
G36*
X11698353Y2154645D02*
G01*
X11865782Y2085294D01*
X11940612Y2035294D01*
X12016466Y1984610D01*
X12144610Y1856466D01*
X12191816Y1785817D01*
X12245294Y1705782D01*
X12314645Y1538353D01*
X12350000Y1360613D01*
X12350000Y1179387D01*
X12314645Y1001647D01*
X12245294Y834218D01*
X12245293Y834217D01*
X12144610Y683534D01*
X12016466Y555390D01*
X11958341Y516552D01*
X11865782Y454706D01*
X11698353Y385355D01*
X11520613Y350000D01*
X11339387Y350000D01*
X11161647Y385355D01*
X10994218Y454706D01*
X10901659Y516552D01*
X10843534Y555390D01*
X10715390Y683534D01*
X10614707Y834217D01*
X10614706Y834218D01*
X10545355Y1001647D01*
X10510000Y1179387D01*
X10510000Y1360613D01*
X10545355Y1538353D01*
X10614706Y1705782D01*
X10668184Y1785817D01*
X10715390Y1856466D01*
X10843534Y1984610D01*
X10919388Y2035294D01*
X10994218Y2085294D01*
X11161647Y2154645D01*
X11339387Y2190000D01*
X11520613Y2190000D01*
X11698353Y2154645D01*
G37*
G36*
X24398353Y2154645D02*
G01*
X24565782Y2085294D01*
X24640612Y2035294D01*
X24716466Y1984610D01*
X24844610Y1856466D01*
X24891816Y1785817D01*
X24945294Y1705782D01*
X25014645Y1538353D01*
X25050000Y1360613D01*
X25050000Y1179387D01*
X25014645Y1001647D01*
X24945294Y834218D01*
X24945293Y834217D01*
X24844610Y683534D01*
X24716466Y555390D01*
X24658341Y516552D01*
X24565782Y454706D01*
X24398353Y385355D01*
X24220613Y350000D01*
X24039387Y350000D01*
X23861647Y385355D01*
X23694218Y454706D01*
X23601659Y516552D01*
X23543534Y555390D01*
X23415390Y683534D01*
X23314707Y834217D01*
X23314706Y834218D01*
X23245355Y1001647D01*
X23210000Y1179387D01*
X23210000Y1360613D01*
X23245355Y1538353D01*
X23314706Y1705782D01*
X23368184Y1785817D01*
X23415390Y1856466D01*
X23543534Y1984610D01*
X23619388Y2035294D01*
X23694218Y2085294D01*
X23861647Y2154645D01*
X24039387Y2190000D01*
X24220613Y2190000D01*
X24398353Y2154645D01*
G37*
G36*
X9405817Y2179761D02*
G01*
X9499877Y2151228D01*
X9586559Y2104896D01*
X9662540Y2042540D01*
X9724896Y1966559D01*
X9771228Y1879877D01*
X9799761Y1785817D01*
X9810000Y1681860D01*
X9810000Y858140D01*
X9799761Y754183D01*
X9771228Y660123D01*
X9724896Y573441D01*
X9662540Y497460D01*
X9586559Y435104D01*
X9499877Y388772D01*
X9405817Y360239D01*
X9301860Y350000D01*
X8478140Y350000D01*
X8374183Y360239D01*
X8280123Y388772D01*
X8193441Y435104D01*
X8117460Y497460D01*
X8055104Y573441D01*
X8008772Y660123D01*
X7980239Y754183D01*
X7970000Y858140D01*
X7970000Y1681860D01*
X7980239Y1785817D01*
X8008772Y1879877D01*
X8055104Y1966559D01*
X8117460Y2042540D01*
X8193441Y2104896D01*
X8280123Y2151228D01*
X8374183Y2179761D01*
X8478140Y2190000D01*
X9301860Y2190000D01*
X9405817Y2179761D01*
G37*
G36*
X14238353Y2154645D02*
G01*
X14405782Y2085294D01*
X14480612Y2035294D01*
X14556466Y1984610D01*
X14684610Y1856466D01*
X14731816Y1785817D01*
X14785294Y1705782D01*
X14854645Y1538353D01*
X14890000Y1360613D01*
X14890000Y1179387D01*
X14854645Y1001647D01*
X14785294Y834218D01*
X14785293Y834217D01*
X14684610Y683534D01*
X14556466Y555390D01*
X14498341Y516552D01*
X14405782Y454706D01*
X14238353Y385355D01*
X14060613Y350000D01*
X13879387Y350000D01*
X13701647Y385355D01*
X13534218Y454706D01*
X13441659Y516552D01*
X13383534Y555390D01*
X13255390Y683534D01*
X13154707Y834217D01*
X13154706Y834218D01*
X13085355Y1001647D01*
X13050000Y1179387D01*
X13050000Y1360613D01*
X13085355Y1538353D01*
X13154706Y1705782D01*
X13208184Y1785817D01*
X13255390Y1856466D01*
X13383534Y1984610D01*
X13459388Y2035294D01*
X13534218Y2085294D01*
X13701647Y2154645D01*
X13879387Y2190000D01*
X14060613Y2190000D01*
X14238353Y2154645D01*
G37*
G36*
X16778353Y2154645D02*
G01*
X16945782Y2085294D01*
X17020612Y2035294D01*
X17096466Y1984610D01*
X17224610Y1856466D01*
X17271816Y1785817D01*
X17325294Y1705782D01*
X17394645Y1538353D01*
X17430000Y1360613D01*
X17430000Y1179387D01*
X17394645Y1001647D01*
X17325294Y834218D01*
X17325293Y834217D01*
X17224610Y683534D01*
X17096466Y555390D01*
X17038341Y516552D01*
X16945782Y454706D01*
X16778353Y385355D01*
X16600613Y350000D01*
X16419387Y350000D01*
X16241647Y385355D01*
X16074218Y454706D01*
X15981659Y516552D01*
X15923534Y555390D01*
X15795390Y683534D01*
X15694707Y834217D01*
X15694706Y834218D01*
X15625355Y1001647D01*
X15590000Y1179387D01*
X15590000Y1360613D01*
X15625355Y1538353D01*
X15694706Y1705782D01*
X15748184Y1785817D01*
X15795390Y1856466D01*
X15923534Y1984610D01*
X15999388Y2035294D01*
X16074218Y2085294D01*
X16241647Y2154645D01*
X16419387Y2190000D01*
X16600613Y2190000D01*
X16778353Y2154645D01*
G37*
G36*
X19318353Y2154645D02*
G01*
X19485782Y2085294D01*
X19560612Y2035294D01*
X19636466Y1984610D01*
X19764610Y1856466D01*
X19811816Y1785817D01*
X19865294Y1705782D01*
X19934645Y1538353D01*
X19970000Y1360613D01*
X19970000Y1179387D01*
X19934645Y1001647D01*
X19865294Y834218D01*
X19865293Y834217D01*
X19764610Y683534D01*
X19636466Y555390D01*
X19578341Y516552D01*
X19485782Y454706D01*
X19318353Y385355D01*
X19140613Y350000D01*
X18959387Y350000D01*
X18781647Y385355D01*
X18614218Y454706D01*
X18521659Y516552D01*
X18463534Y555390D01*
X18335390Y683534D01*
X18234707Y834217D01*
X18234706Y834218D01*
X18165355Y1001647D01*
X18130000Y1179387D01*
X18130000Y1360613D01*
X18165355Y1538353D01*
X18234706Y1705782D01*
X18288184Y1785817D01*
X18335390Y1856466D01*
X18463534Y1984610D01*
X18539388Y2035294D01*
X18614218Y2085294D01*
X18781647Y2154645D01*
X18959387Y2190000D01*
X19140613Y2190000D01*
X19318353Y2154645D01*
G37*
G36*
X21858353Y2154645D02*
G01*
X22025782Y2085294D01*
X22100612Y2035294D01*
X22176466Y1984610D01*
X22304610Y1856466D01*
X22351816Y1785817D01*
X22405294Y1705782D01*
X22474645Y1538353D01*
X22510000Y1360613D01*
X22510000Y1179387D01*
X22474645Y1001647D01*
X22405294Y834218D01*
X22405293Y834217D01*
X22304610Y683534D01*
X22176466Y555390D01*
X22118341Y516552D01*
X22025782Y454706D01*
X21858353Y385355D01*
X21680613Y350000D01*
X21499387Y350000D01*
X21321647Y385355D01*
X21154218Y454706D01*
X21061659Y516552D01*
X21003534Y555390D01*
X20875390Y683534D01*
X20774707Y834217D01*
X20774706Y834218D01*
X20705355Y1001647D01*
X20670000Y1179387D01*
X20670000Y1360613D01*
X20705355Y1538353D01*
X20774706Y1705782D01*
X20828184Y1785817D01*
X20875390Y1856466D01*
X21003534Y1984610D01*
X21079388Y2035294D01*
X21154218Y2085294D01*
X21321647Y2154645D01*
X21499387Y2190000D01*
X21680613Y2190000D01*
X21858353Y2154645D01*
G37*
G36*
X29478353Y2154645D02*
G01*
X29645782Y2085294D01*
X29720612Y2035294D01*
X29796466Y1984610D01*
X29924610Y1856466D01*
X29971816Y1785817D01*
X30025294Y1705782D01*
X30094645Y1538353D01*
X30130000Y1360613D01*
X30130000Y1179387D01*
X30094645Y1001647D01*
X30025294Y834218D01*
X30025293Y834217D01*
X29924610Y683534D01*
X29796466Y555390D01*
X29738341Y516552D01*
X29645782Y454706D01*
X29478353Y385355D01*
X29300613Y350000D01*
X29119387Y350000D01*
X28941647Y385355D01*
X28774218Y454706D01*
X28681659Y516552D01*
X28623534Y555390D01*
X28495390Y683534D01*
X28394707Y834217D01*
X28394706Y834218D01*
X28325355Y1001647D01*
X28290000Y1179387D01*
X28290000Y1360613D01*
X28325355Y1538353D01*
X28394706Y1705782D01*
X28448184Y1785817D01*
X28495390Y1856466D01*
X28623534Y1984610D01*
X28699388Y2035294D01*
X28774218Y2085294D01*
X28941647Y2154645D01*
X29119387Y2190000D01*
X29300613Y2190000D01*
X29478353Y2154645D01*
G37*
G36*
X34558353Y2154645D02*
G01*
X34725782Y2085294D01*
X34800612Y2035294D01*
X34876466Y1984610D01*
X35004610Y1856466D01*
X35051816Y1785817D01*
X35105294Y1705782D01*
X35174645Y1538353D01*
X35210000Y1360613D01*
X35210000Y1179387D01*
X35174645Y1001647D01*
X35105294Y834218D01*
X35105293Y834217D01*
X35004610Y683534D01*
X34876466Y555390D01*
X34818341Y516552D01*
X34725782Y454706D01*
X34558353Y385355D01*
X34380613Y350000D01*
X34199387Y350000D01*
X34021647Y385355D01*
X33854218Y454706D01*
X33761659Y516552D01*
X33703534Y555390D01*
X33575390Y683534D01*
X33474707Y834217D01*
X33474706Y834218D01*
X33405355Y1001647D01*
X33370000Y1179387D01*
X33370000Y1360613D01*
X33405355Y1538353D01*
X33474706Y1705782D01*
X33528184Y1785817D01*
X33575390Y1856466D01*
X33703534Y1984610D01*
X33779388Y2035294D01*
X33854218Y2085294D01*
X34021647Y2154645D01*
X34199387Y2190000D01*
X34380613Y2190000D01*
X34558353Y2154645D01*
G37*
G36*
X1785817Y2179761D02*
G01*
X1879877Y2151228D01*
X1966559Y2104896D01*
X2042540Y2042540D01*
X2104896Y1966559D01*
X2151228Y1879877D01*
X2179761Y1785817D01*
X2190000Y1681860D01*
X2190000Y858140D01*
X2179761Y754183D01*
X2151228Y660123D01*
X2104896Y573441D01*
X2042540Y497460D01*
X1966559Y435104D01*
X1879877Y388772D01*
X1785817Y360239D01*
X1681860Y350000D01*
X858140Y350000D01*
X754183Y360239D01*
X660123Y388772D01*
X573441Y435104D01*
X497460Y497460D01*
X435104Y573441D01*
X388772Y660123D01*
X360239Y754183D01*
X350000Y858140D01*
X350000Y1681860D01*
X360239Y1785817D01*
X388772Y1879877D01*
X435104Y1966559D01*
X497460Y2042540D01*
X573441Y2104896D01*
X660123Y2151228D01*
X754183Y2179761D01*
X858140Y2190000D01*
X1681860Y2190000D01*
X1785817Y2179761D01*
G37*
G36*
X4078353Y2154645D02*
G01*
X4245782Y2085294D01*
X4320612Y2035294D01*
X4396466Y1984610D01*
X4524610Y1856466D01*
X4571816Y1785817D01*
X4625294Y1705782D01*
X4694645Y1538353D01*
X4730000Y1360613D01*
X4730000Y1179387D01*
X4694645Y1001647D01*
X4625294Y834218D01*
X4625293Y834217D01*
X4524610Y683534D01*
X4396466Y555390D01*
X4338341Y516552D01*
X4245782Y454706D01*
X4078353Y385355D01*
X3900613Y350000D01*
X3719387Y350000D01*
X3541647Y385355D01*
X3374218Y454706D01*
X3281659Y516552D01*
X3223534Y555390D01*
X3095390Y683534D01*
X2994707Y834217D01*
X2994706Y834218D01*
X2925355Y1001647D01*
X2890000Y1179387D01*
X2890000Y1360613D01*
X2925355Y1538353D01*
X2994706Y1705782D01*
X3048184Y1785817D01*
X3095390Y1856466D01*
X3223534Y1984610D01*
X3299388Y2035294D01*
X3374218Y2085294D01*
X3541647Y2154645D01*
X3719387Y2190000D01*
X3900613Y2190000D01*
X4078353Y2154645D01*
G37*
G36*
X37098353Y2154645D02*
G01*
X37265782Y2085294D01*
X37340612Y2035294D01*
X37416466Y1984610D01*
X37544610Y1856466D01*
X37591816Y1785817D01*
X37645294Y1705782D01*
X37714645Y1538353D01*
X37750000Y1360613D01*
X37750000Y1179387D01*
X37714645Y1001647D01*
X37645294Y834218D01*
X37645293Y834217D01*
X37544610Y683534D01*
X37416466Y555390D01*
X37358341Y516552D01*
X37265782Y454706D01*
X37098353Y385355D01*
X36920613Y350000D01*
X36739387Y350000D01*
X36561647Y385355D01*
X36394218Y454706D01*
X36301659Y516552D01*
X36243534Y555390D01*
X36115390Y683534D01*
X36014707Y834217D01*
X36014706Y834218D01*
X35945355Y1001647D01*
X35910000Y1179387D01*
X35910000Y1360613D01*
X35945355Y1538353D01*
X36014706Y1705782D01*
X36068184Y1785817D01*
X36115390Y1856466D01*
X36243534Y1984610D01*
X36319388Y2035294D01*
X36394218Y2085294D01*
X36561647Y2154645D01*
X36739387Y2190000D01*
X36920613Y2190000D01*
X37098353Y2154645D01*
G37*
G36*
X32018353Y2154645D02*
G01*
X32185782Y2085294D01*
X32260612Y2035294D01*
X32336466Y1984610D01*
X32464610Y1856466D01*
X32511816Y1785817D01*
X32565294Y1705782D01*
X32634645Y1538353D01*
X32670000Y1360613D01*
X32670000Y1179387D01*
X32634645Y1001647D01*
X32565294Y834218D01*
X32565293Y834217D01*
X32464610Y683534D01*
X32336466Y555390D01*
X32278341Y516552D01*
X32185782Y454706D01*
X32018353Y385355D01*
X31840613Y350000D01*
X31659387Y350000D01*
X31481647Y385355D01*
X31314218Y454706D01*
X31221659Y516552D01*
X31163534Y555390D01*
X31035390Y683534D01*
X30934707Y834217D01*
X30934706Y834218D01*
X30865355Y1001647D01*
X30830000Y1179387D01*
X30830000Y1360613D01*
X30865355Y1538353D01*
X30934706Y1705782D01*
X30988184Y1785817D01*
X31035390Y1856466D01*
X31163534Y1984610D01*
X31239388Y2035294D01*
X31314218Y2085294D01*
X31481647Y2154645D01*
X31659387Y2190000D01*
X31840613Y2190000D01*
X32018353Y2154645D01*
G37*
G36*
X26938353Y2154645D02*
G01*
X27105782Y2085294D01*
X27180612Y2035294D01*
X27256466Y1984610D01*
X27384610Y1856466D01*
X27431816Y1785817D01*
X27485294Y1705782D01*
X27554645Y1538353D01*
X27590000Y1360613D01*
X27590000Y1179387D01*
X27554645Y1001647D01*
X27485294Y834218D01*
X27485293Y834217D01*
X27384610Y683534D01*
X27256466Y555390D01*
X27198341Y516552D01*
X27105782Y454706D01*
X26938353Y385355D01*
X26760613Y350000D01*
X26579387Y350000D01*
X26401647Y385355D01*
X26234218Y454706D01*
X26141659Y516552D01*
X26083534Y555390D01*
X25955390Y683534D01*
X25854707Y834217D01*
X25854706Y834218D01*
X25785355Y1001647D01*
X25750000Y1179387D01*
X25750000Y1360613D01*
X25785355Y1538353D01*
X25854706Y1705782D01*
X25908184Y1785817D01*
X25955390Y1856466D01*
X26083534Y1984610D01*
X26159388Y2035294D01*
X26234218Y2085294D01*
X26401647Y2154645D01*
X26579387Y2190000D01*
X26760613Y2190000D01*
X26938353Y2154645D01*
G37*
G36*
X35675908Y5137251D02*
G01*
X35731739Y5131752D01*
X35839185Y5099158D01*
X35938207Y5046230D01*
X36025000Y4975000D01*
X36096230Y4888207D01*
X36149158Y4789185D01*
X36181752Y4681739D01*
X36192757Y4570000D01*
X36181752Y4458261D01*
X36149158Y4350815D01*
X36096230Y4251793D01*
X36025000Y4165000D01*
X35938207Y4093770D01*
X35839185Y4040842D01*
X35731739Y4008248D01*
X35675908Y4002749D01*
X35647994Y4000000D01*
X34492006Y4000000D01*
X34464092Y4002749D01*
X34408261Y4008248D01*
X34300815Y4040842D01*
X34201793Y4093770D01*
X34115000Y4165000D01*
X34043770Y4251793D01*
X33990842Y4350815D01*
X33958248Y4458261D01*
X33947243Y4570000D01*
X33958248Y4681739D01*
X33990842Y4789185D01*
X34043770Y4888207D01*
X34115000Y4975000D01*
X34201793Y5046230D01*
X34300815Y5099158D01*
X34408261Y5131752D01*
X34464092Y5137251D01*
X34492006Y5140000D01*
X35647994Y5140000D01*
X35675908Y5137251D01*
G37*
G36*
X39605908Y5137251D02*
G01*
X39661739Y5131752D01*
X39769185Y5099158D01*
X39868207Y5046230D01*
X39955000Y4975000D01*
X40026230Y4888207D01*
X40079158Y4789185D01*
X40111752Y4681739D01*
X40122757Y4570000D01*
X40111752Y4458261D01*
X40079158Y4350815D01*
X40026230Y4251793D01*
X39955000Y4165000D01*
X39868207Y4093770D01*
X39769185Y4040842D01*
X39661739Y4008248D01*
X39605908Y4002749D01*
X39577994Y4000000D01*
X38922006Y4000000D01*
X38894092Y4002749D01*
X38838261Y4008248D01*
X38730815Y4040842D01*
X38631793Y4093770D01*
X38545000Y4165000D01*
X38473770Y4251793D01*
X38420842Y4350815D01*
X38388248Y4458261D01*
X38377243Y4570000D01*
X38388248Y4681739D01*
X38420842Y4789185D01*
X38473770Y4888207D01*
X38545000Y4975000D01*
X38631793Y5046230D01*
X38730815Y5099158D01*
X38838261Y5131752D01*
X38894092Y5137251D01*
X38922006Y5140000D01*
X39577994Y5140000D01*
X39605908Y5137251D01*
G37*
G36*
X31152673Y6082803D02*
G01*
X31168221Y6078086D01*
X31182552Y6070426D01*
X31195115Y6060115D01*
X31205426Y6047552D01*
X31213086Y6033221D01*
X31217803Y6017673D01*
X31220000Y5995362D01*
X31220000Y4784638D01*
X31217803Y4762327D01*
X31213086Y4746779D01*
X31205426Y4732448D01*
X31195115Y4719885D01*
X31182552Y4709574D01*
X31168221Y4701914D01*
X31152673Y4697197D01*
X31130362Y4695000D01*
X30169638Y4695000D01*
X30147327Y4697197D01*
X30131779Y4701914D01*
X30117448Y4709574D01*
X30104885Y4719885D01*
X30094574Y4732448D01*
X30086914Y4746779D01*
X30082197Y4762327D01*
X30080000Y4784638D01*
X30080000Y5995362D01*
X30082197Y6017673D01*
X30086914Y6033221D01*
X30094574Y6047552D01*
X30104885Y6060115D01*
X30117448Y6070426D01*
X30131779Y6078086D01*
X30147327Y6082803D01*
X30169638Y6085000D01*
X31130362Y6085000D01*
X31152673Y6082803D01*
G37*
G36*
X29152673Y6082803D02*
G01*
X29168221Y6078086D01*
X29182552Y6070426D01*
X29195115Y6060115D01*
X29205426Y6047552D01*
X29213086Y6033221D01*
X29217803Y6017673D01*
X29220000Y5995362D01*
X29220000Y4784638D01*
X29217803Y4762327D01*
X29213086Y4746779D01*
X29205426Y4732448D01*
X29195115Y4719885D01*
X29182552Y4709574D01*
X29168221Y4701914D01*
X29152673Y4697197D01*
X29130362Y4695000D01*
X28169638Y4695000D01*
X28147327Y4697197D01*
X28131779Y4701914D01*
X28117448Y4709574D01*
X28104885Y4719885D01*
X28094574Y4732448D01*
X28086914Y4746779D01*
X28082197Y4762327D01*
X28080000Y4784638D01*
X28080000Y5995362D01*
X28082197Y6017673D01*
X28086914Y6033221D01*
X28094574Y6047552D01*
X28104885Y6060115D01*
X28117448Y6070426D01*
X28131779Y6078086D01*
X28147327Y6082803D01*
X28169638Y6085000D01*
X29130362Y6085000D01*
X29152673Y6082803D01*
G37*
G36*
X17852673Y6082803D02*
G01*
X17868221Y6078086D01*
X17882552Y6070426D01*
X17895115Y6060115D01*
X17905426Y6047552D01*
X17913086Y6033221D01*
X17917803Y6017673D01*
X17920000Y5995362D01*
X17920000Y4784638D01*
X17917803Y4762327D01*
X17913086Y4746779D01*
X17905426Y4732448D01*
X17895115Y4719885D01*
X17882552Y4709574D01*
X17868221Y4701914D01*
X17852673Y4697197D01*
X17830362Y4695000D01*
X16869638Y4695000D01*
X16847327Y4697197D01*
X16831779Y4701914D01*
X16817448Y4709574D01*
X16804885Y4719885D01*
X16794574Y4732448D01*
X16786914Y4746779D01*
X16782197Y4762327D01*
X16780000Y4784638D01*
X16780000Y5995362D01*
X16782197Y6017673D01*
X16786914Y6033221D01*
X16794574Y6047552D01*
X16804885Y6060115D01*
X16817448Y6070426D01*
X16831779Y6078086D01*
X16847327Y6082803D01*
X16869638Y6085000D01*
X17830362Y6085000D01*
X17852673Y6082803D01*
G37*
G36*
X15852673Y6082803D02*
G01*
X15868221Y6078086D01*
X15882552Y6070426D01*
X15895115Y6060115D01*
X15905426Y6047552D01*
X15913086Y6033221D01*
X15917803Y6017673D01*
X15920000Y5995362D01*
X15920000Y4784638D01*
X15917803Y4762327D01*
X15913086Y4746779D01*
X15905426Y4732448D01*
X15895115Y4719885D01*
X15882552Y4709574D01*
X15868221Y4701914D01*
X15852673Y4697197D01*
X15830362Y4695000D01*
X14869638Y4695000D01*
X14847327Y4697197D01*
X14831779Y4701914D01*
X14817448Y4709574D01*
X14804885Y4719885D01*
X14794574Y4732448D01*
X14786914Y4746779D01*
X14782197Y4762327D01*
X14780000Y4784638D01*
X14780000Y5995362D01*
X14782197Y6017673D01*
X14786914Y6033221D01*
X14794574Y6047552D01*
X14804885Y6060115D01*
X14817448Y6070426D01*
X14831779Y6078086D01*
X14847327Y6082803D01*
X14869638Y6085000D01*
X15830362Y6085000D01*
X15852673Y6082803D01*
G37*
G36*
X22726415Y6308370D02*
G01*
X22736433Y6305331D01*
X22745665Y6300396D01*
X22753756Y6293756D01*
X22760396Y6285665D01*
X22765331Y6276433D01*
X22768370Y6266415D01*
X22770000Y6249862D01*
X22770000Y4830138D01*
X22768370Y4813585D01*
X22765331Y4803567D01*
X22760396Y4794335D01*
X22753756Y4786244D01*
X22745665Y4779604D01*
X22736433Y4774669D01*
X22726415Y4771630D01*
X22709862Y4770000D01*
X18790138Y4770000D01*
X18773585Y4771630D01*
X18763567Y4774669D01*
X18754335Y4779604D01*
X18746244Y4786244D01*
X18739604Y4794335D01*
X18734669Y4803567D01*
X18731630Y4813585D01*
X18730000Y4830138D01*
X18730000Y6249862D01*
X18731630Y6266415D01*
X18734669Y6276433D01*
X18739604Y6285665D01*
X18746244Y6293756D01*
X18754335Y6300396D01*
X18763567Y6305331D01*
X18773585Y6308370D01*
X18790138Y6310000D01*
X22709862Y6310000D01*
X22726415Y6308370D01*
G37*
G36*
X14277673Y5957803D02*
G01*
X14293221Y5953086D01*
X14307552Y5945426D01*
X14320115Y5935115D01*
X14330426Y5922552D01*
X14338086Y5908221D01*
X14342803Y5892673D01*
X14345000Y5870362D01*
X14345000Y4909638D01*
X14342803Y4887327D01*
X14338086Y4871779D01*
X14330426Y4857448D01*
X14320115Y4844885D01*
X14307552Y4834574D01*
X14293221Y4826914D01*
X14277673Y4822197D01*
X14255362Y4820000D01*
X13044638Y4820000D01*
X13022327Y4822197D01*
X13006779Y4826914D01*
X12992448Y4834574D01*
X12979885Y4844885D01*
X12969574Y4857448D01*
X12961914Y4871779D01*
X12957197Y4887327D01*
X12955000Y4909638D01*
X12955000Y5870362D01*
X12957197Y5892673D01*
X12961914Y5908221D01*
X12969574Y5922552D01*
X12979885Y5935115D01*
X12992448Y5945426D01*
X13006779Y5953086D01*
X13022327Y5957803D01*
X13044638Y5960000D01*
X14255362Y5960000D01*
X14277673Y5957803D01*
G37*
G36*
X8141404Y5657534D02*
G01*
X8159580Y5652020D01*
X8176331Y5643066D01*
X8191015Y5631015D01*
X8203066Y5616331D01*
X8212020Y5599580D01*
X8217534Y5581404D01*
X8220000Y5556362D01*
X8220000Y5123638D01*
X8217534Y5098596D01*
X8212020Y5080420D01*
X8203066Y5063669D01*
X8191015Y5048985D01*
X8176331Y5036934D01*
X8159580Y5027980D01*
X8141404Y5022466D01*
X8116362Y5020000D01*
X7383638Y5020000D01*
X7358596Y5022466D01*
X7340420Y5027980D01*
X7323669Y5036934D01*
X7308985Y5048985D01*
X7296934Y5063669D01*
X7287980Y5080420D01*
X7282466Y5098596D01*
X7280000Y5123638D01*
X7280000Y5556362D01*
X7282466Y5581404D01*
X7287980Y5599580D01*
X7296934Y5616331D01*
X7308985Y5631015D01*
X7323669Y5643066D01*
X7340420Y5652020D01*
X7358596Y5657534D01*
X7383638Y5660000D01*
X8116362Y5660000D01*
X8141404Y5657534D01*
G37*
G36*
X27038891Y6058667D02*
G01*
X27046004Y6056509D01*
X27052552Y6053009D01*
X27058296Y6048296D01*
X27063009Y6042552D01*
X27066509Y6036004D01*
X27068667Y6028891D01*
X27070000Y6015357D01*
X27070000Y5264643D01*
X27068667Y5251109D01*
X27066509Y5243996D01*
X27063009Y5237448D01*
X27058296Y5231704D01*
X27052552Y5226991D01*
X27046004Y5223491D01*
X27038891Y5221333D01*
X27025357Y5220000D01*
X26074643Y5220000D01*
X26061109Y5221333D01*
X26053996Y5223491D01*
X26047448Y5226991D01*
X26041704Y5231704D01*
X26036991Y5237448D01*
X26033491Y5243996D01*
X26031333Y5251109D01*
X26030000Y5264643D01*
X26030000Y6015357D01*
X26031333Y6028891D01*
X26033491Y6036004D01*
X26036991Y6042552D01*
X26041704Y6048296D01*
X26047448Y6053009D01*
X26053996Y6056509D01*
X26061109Y6058667D01*
X26074643Y6060000D01*
X27025357Y6060000D01*
X27038891Y6058667D01*
G37*
G36*
X24088891Y6408667D02*
G01*
X24096004Y6406509D01*
X24102552Y6403009D01*
X24108296Y6398296D01*
X24113009Y6392552D01*
X24116509Y6386004D01*
X24118667Y6378891D01*
X24120000Y6365357D01*
X24120000Y5414643D01*
X24118667Y5401109D01*
X24116509Y5393996D01*
X24113009Y5387448D01*
X24108296Y5381704D01*
X24102552Y5376991D01*
X24096004Y5373491D01*
X24088891Y5371333D01*
X24075357Y5370000D01*
X23324643Y5370000D01*
X23311109Y5371333D01*
X23303996Y5373491D01*
X23297448Y5376991D01*
X23291704Y5381704D01*
X23286991Y5387448D01*
X23283491Y5393996D01*
X23281333Y5401109D01*
X23280000Y5414643D01*
X23280000Y6365357D01*
X23281333Y6378891D01*
X23283491Y6386004D01*
X23286991Y6392552D01*
X23291704Y6398296D01*
X23297448Y6403009D01*
X23303996Y6406509D01*
X23311109Y6408667D01*
X23324643Y6410000D01*
X24075357Y6410000D01*
X24088891Y6408667D01*
G37*
G36*
X25588891Y6408667D02*
G01*
X25596004Y6406509D01*
X25602552Y6403009D01*
X25608296Y6398296D01*
X25613009Y6392552D01*
X25616509Y6386004D01*
X25618667Y6378891D01*
X25620000Y6365357D01*
X25620000Y5414643D01*
X25618667Y5401109D01*
X25616509Y5393996D01*
X25613009Y5387448D01*
X25608296Y5381704D01*
X25602552Y5376991D01*
X25596004Y5373491D01*
X25588891Y5371333D01*
X25575357Y5370000D01*
X24824643Y5370000D01*
X24811109Y5371333D01*
X24803996Y5373491D01*
X24797448Y5376991D01*
X24791704Y5381704D01*
X24786991Y5387448D01*
X24783491Y5393996D01*
X24781333Y5401109D01*
X24780000Y5414643D01*
X24780000Y6365357D01*
X24781333Y6378891D01*
X24783491Y6386004D01*
X24786991Y6392552D01*
X24791704Y6398296D01*
X24797448Y6403009D01*
X24803996Y6406509D01*
X24811109Y6408667D01*
X24824643Y6410000D01*
X25575357Y6410000D01*
X25588891Y6408667D01*
G37*
G36*
X11820000Y5370000D02*
G01*
X10880000Y5370000D01*
X10880000Y6760000D01*
X11820000Y6760000D01*
X11820000Y5370000D01*
G37*
G36*
X10020000Y5370000D02*
G01*
X9080000Y5370000D01*
X9080000Y6760000D01*
X10020000Y6760000D01*
X10020000Y5370000D01*
G37*
G36*
X35715216Y6379821D02*
G01*
X35787104Y6350044D01*
X35851795Y6306819D01*
X35906819Y6251795D01*
X35950044Y6187104D01*
X35979821Y6115216D01*
X35995000Y6038905D01*
X35995000Y5961095D01*
X35979821Y5884784D01*
X35950044Y5812896D01*
X35906819Y5748205D01*
X35851795Y5693181D01*
X35787104Y5649956D01*
X35715216Y5620179D01*
X35638905Y5605000D01*
X35561095Y5605000D01*
X35484784Y5620179D01*
X35412896Y5649956D01*
X35348205Y5693181D01*
X35293181Y5748205D01*
X35249956Y5812896D01*
X35220179Y5884784D01*
X35205000Y5961095D01*
X35205000Y6038905D01*
X35220179Y6115216D01*
X35249956Y6187104D01*
X35293181Y6251795D01*
X35348205Y6306819D01*
X35412896Y6350044D01*
X35484784Y6379821D01*
X35561095Y6395000D01*
X35638905Y6395000D01*
X35715216Y6379821D01*
G37*
G36*
X6141404Y6307534D02*
G01*
X6159580Y6302020D01*
X6176331Y6293066D01*
X6191015Y6281015D01*
X6203066Y6266331D01*
X6212020Y6249580D01*
X6217534Y6231404D01*
X6220000Y6206362D01*
X6220000Y5773638D01*
X6217534Y5748596D01*
X6212020Y5730420D01*
X6203066Y5713669D01*
X6191015Y5698985D01*
X6176331Y5686934D01*
X6159580Y5677980D01*
X6141404Y5672466D01*
X6116362Y5670000D01*
X5383638Y5670000D01*
X5358596Y5672466D01*
X5340420Y5677980D01*
X5323669Y5686934D01*
X5308985Y5698985D01*
X5296934Y5713669D01*
X5287980Y5730420D01*
X5282466Y5748596D01*
X5280000Y5773638D01*
X5280000Y6206362D01*
X5282466Y6231404D01*
X5287980Y6249580D01*
X5296934Y6266331D01*
X5308985Y6281015D01*
X5323669Y6293066D01*
X5340420Y6302020D01*
X5358596Y6307534D01*
X5383638Y6310000D01*
X6116362Y6310000D01*
X6141404Y6307534D01*
G37*
G36*
X3797765Y8385597D02*
G01*
X3920445Y8361195D01*
X4151571Y8265459D01*
X4235162Y8209605D01*
X4359577Y8126474D01*
X4536474Y7949577D01*
X4588320Y7871983D01*
X4675459Y7741571D01*
X4771195Y7510445D01*
X4820000Y7265084D01*
X4820000Y7014916D01*
X4771195Y6769555D01*
X4728301Y6666000D01*
X4694600Y6584638D01*
X4675459Y6538429D01*
X4636418Y6480000D01*
X4536474Y6330423D01*
X4359577Y6153526D01*
X4302243Y6115217D01*
X4151571Y6014541D01*
X3920445Y5918805D01*
X3867235Y5908221D01*
X3675085Y5870000D01*
X3424915Y5870000D01*
X3232765Y5908221D01*
X3179555Y5918805D01*
X2948429Y6014541D01*
X2797757Y6115217D01*
X2740423Y6153526D01*
X2563526Y6330423D01*
X2463582Y6480000D01*
X2424541Y6538429D01*
X2405401Y6584638D01*
X2371699Y6666000D01*
X2328805Y6769555D01*
X2280000Y7014916D01*
X2280000Y7265084D01*
X2328805Y7510445D01*
X2424541Y7741571D01*
X2511680Y7871983D01*
X2563526Y7949577D01*
X2740423Y8126474D01*
X2864838Y8209605D01*
X2948429Y8265459D01*
X3179555Y8361195D01*
X3302235Y8385597D01*
X3424915Y8410000D01*
X3675085Y8410000D01*
X3797765Y8385597D01*
G37*
G36*
X8141404Y6957534D02*
G01*
X8159580Y6952020D01*
X8176331Y6943066D01*
X8191015Y6931015D01*
X8203066Y6916331D01*
X8212020Y6899580D01*
X8217534Y6881404D01*
X8220000Y6856362D01*
X8220000Y6423638D01*
X8217534Y6398596D01*
X8212020Y6380420D01*
X8203066Y6363669D01*
X8191015Y6348985D01*
X8176331Y6336934D01*
X8159580Y6327980D01*
X8141404Y6322466D01*
X8116362Y6320000D01*
X7383638Y6320000D01*
X7358596Y6322466D01*
X7340420Y6327980D01*
X7323669Y6336934D01*
X7308985Y6348985D01*
X7296934Y6363669D01*
X7287980Y6380420D01*
X7282466Y6398596D01*
X7280000Y6423638D01*
X7280000Y6856362D01*
X7282466Y6881404D01*
X7287980Y6899580D01*
X7296934Y6916331D01*
X7308985Y6931015D01*
X7323669Y6943066D01*
X7340420Y6952020D01*
X7358596Y6957534D01*
X7383638Y6960000D01*
X8116362Y6960000D01*
X8141404Y6957534D01*
G37*
G36*
X31188891Y7508667D02*
G01*
X31196004Y7506509D01*
X31202552Y7503009D01*
X31208296Y7498296D01*
X31213009Y7492552D01*
X31216509Y7486004D01*
X31218667Y7478891D01*
X31220000Y7465357D01*
X31220000Y6514643D01*
X31218667Y6501109D01*
X31216509Y6493996D01*
X31213009Y6487448D01*
X31208296Y6481704D01*
X31202552Y6476991D01*
X31196004Y6473491D01*
X31188891Y6471333D01*
X31175357Y6470000D01*
X30424643Y6470000D01*
X30411109Y6471333D01*
X30403996Y6473491D01*
X30397448Y6476991D01*
X30391704Y6481704D01*
X30386991Y6487448D01*
X30383491Y6493996D01*
X30381333Y6501109D01*
X30380000Y6514643D01*
X30380000Y7465357D01*
X30381333Y7478891D01*
X30383491Y7486004D01*
X30386991Y7492552D01*
X30391704Y7498296D01*
X30397448Y7503009D01*
X30403996Y7506509D01*
X30411109Y7508667D01*
X30424643Y7510000D01*
X31175357Y7510000D01*
X31188891Y7508667D01*
G37*
G36*
X29688891Y7508667D02*
G01*
X29696004Y7506509D01*
X29702552Y7503009D01*
X29708296Y7498296D01*
X29713009Y7492552D01*
X29716509Y7486004D01*
X29718667Y7478891D01*
X29720000Y7465357D01*
X29720000Y6514643D01*
X29718667Y6501109D01*
X29716509Y6493996D01*
X29713009Y6487448D01*
X29708296Y6481704D01*
X29702552Y6476991D01*
X29696004Y6473491D01*
X29688891Y6471333D01*
X29675357Y6470000D01*
X28924643Y6470000D01*
X28911109Y6471333D01*
X28903996Y6473491D01*
X28897448Y6476991D01*
X28891704Y6481704D01*
X28886991Y6487448D01*
X28883491Y6493996D01*
X28881333Y6501109D01*
X28880000Y6514643D01*
X28880000Y7465357D01*
X28881333Y7478891D01*
X28883491Y7486004D01*
X28886991Y7492552D01*
X28891704Y7498296D01*
X28897448Y7503009D01*
X28903996Y7506509D01*
X28911109Y7508667D01*
X28924643Y7510000D01*
X29675357Y7510000D01*
X29688891Y7508667D01*
G37*
G36*
X15852673Y7882803D02*
G01*
X15868221Y7878086D01*
X15882552Y7870426D01*
X15895115Y7860115D01*
X15905426Y7847552D01*
X15913086Y7833221D01*
X15917803Y7817673D01*
X15920000Y7795362D01*
X15920000Y6584638D01*
X15917803Y6562327D01*
X15913086Y6546779D01*
X15905426Y6532448D01*
X15895115Y6519885D01*
X15882552Y6509574D01*
X15868221Y6501914D01*
X15852673Y6497197D01*
X15830362Y6495000D01*
X14869638Y6495000D01*
X14847327Y6497197D01*
X14831779Y6501914D01*
X14817448Y6509574D01*
X14804885Y6519885D01*
X14794574Y6532448D01*
X14786914Y6546779D01*
X14782197Y6562327D01*
X14780000Y6584638D01*
X14780000Y7795362D01*
X14782197Y7817673D01*
X14786914Y7833221D01*
X14794574Y7847552D01*
X14804885Y7860115D01*
X14817448Y7870426D01*
X14831779Y7878086D01*
X14847327Y7882803D01*
X14869638Y7885000D01*
X15830362Y7885000D01*
X15852673Y7882803D01*
G37*
G36*
X17852673Y7882803D02*
G01*
X17868221Y7878086D01*
X17882552Y7870426D01*
X17895115Y7860115D01*
X17905426Y7847552D01*
X17913086Y7833221D01*
X17917803Y7817673D01*
X17920000Y7795362D01*
X17920000Y6584638D01*
X17917803Y6562327D01*
X17913086Y6546779D01*
X17905426Y6532448D01*
X17895115Y6519885D01*
X17882552Y6509574D01*
X17868221Y6501914D01*
X17852673Y6497197D01*
X17830362Y6495000D01*
X16869638Y6495000D01*
X16847327Y6497197D01*
X16831779Y6501914D01*
X16817448Y6509574D01*
X16804885Y6519885D01*
X16794574Y6532448D01*
X16786914Y6546779D01*
X16782197Y6562327D01*
X16780000Y6584638D01*
X16780000Y7795362D01*
X16782197Y7817673D01*
X16786914Y7833221D01*
X16794574Y7847552D01*
X16804885Y7860115D01*
X16817448Y7870426D01*
X16831779Y7878086D01*
X16847327Y7882803D01*
X16869638Y7885000D01*
X17830362Y7885000D01*
X17852673Y7882803D01*
G37*
G36*
X27038891Y7558667D02*
G01*
X27046004Y7556509D01*
X27052552Y7553009D01*
X27058296Y7548296D01*
X27063009Y7542552D01*
X27066509Y7536004D01*
X27068667Y7528891D01*
X27070000Y7515357D01*
X27070000Y6764643D01*
X27068667Y6751109D01*
X27066509Y6743996D01*
X27063009Y6737448D01*
X27058296Y6731704D01*
X27052552Y6726991D01*
X27046004Y6723491D01*
X27038891Y6721333D01*
X27025357Y6720000D01*
X26074643Y6720000D01*
X26061109Y6721333D01*
X26053996Y6723491D01*
X26047448Y6726991D01*
X26041704Y6731704D01*
X26036991Y6737448D01*
X26033491Y6743996D01*
X26031333Y6751109D01*
X26030000Y6764643D01*
X26030000Y7515357D01*
X26031333Y7528891D01*
X26033491Y7536004D01*
X26036991Y7542552D01*
X26041704Y7548296D01*
X26047448Y7553009D01*
X26053996Y7556509D01*
X26061109Y7558667D01*
X26074643Y7560000D01*
X27025357Y7560000D01*
X27038891Y7558667D01*
G37*
G36*
X14277673Y7957803D02*
G01*
X14293221Y7953086D01*
X14307552Y7945426D01*
X14320115Y7935115D01*
X14330426Y7922552D01*
X14338086Y7908221D01*
X14342803Y7892673D01*
X14345000Y7870362D01*
X14345000Y6909638D01*
X14342803Y6887327D01*
X14338086Y6871779D01*
X14330426Y6857448D01*
X14320115Y6844885D01*
X14307552Y6834574D01*
X14293221Y6826914D01*
X14277673Y6822197D01*
X14255362Y6820000D01*
X13044638Y6820000D01*
X13022327Y6822197D01*
X13006779Y6826914D01*
X12992448Y6834574D01*
X12979885Y6844885D01*
X12969574Y6857448D01*
X12961914Y6871779D01*
X12957197Y6887327D01*
X12955000Y6909638D01*
X12955000Y7870362D01*
X12957197Y7892673D01*
X12961914Y7908221D01*
X12969574Y7922552D01*
X12979885Y7935115D01*
X12992448Y7945426D01*
X13006779Y7953086D01*
X13022327Y7957803D01*
X13044638Y7960000D01*
X14255362Y7960000D01*
X14277673Y7957803D01*
G37*
G36*
X11820000Y7020000D02*
G01*
X10880000Y7020000D01*
X10880000Y8410000D01*
X11820000Y8410000D01*
X11820000Y7020000D01*
G37*
G36*
X10020000Y7020000D02*
G01*
X9080000Y7020000D01*
X9080000Y8410000D01*
X10020000Y8410000D01*
X10020000Y7020000D01*
G37*
G36*
X6419987Y8509987D02*
G01*
X6420000Y8509857D01*
X6420000Y7470143D01*
X6419987Y7470013D01*
X6419857Y7470000D01*
X5480143Y7470000D01*
X5480013Y7470013D01*
X5480000Y7470143D01*
X5480000Y8509857D01*
X5480013Y8509987D01*
X5480143Y8510000D01*
X6419857Y8510000D01*
X6419987Y8509987D01*
G37*
G36*
X8019987Y8509987D02*
G01*
X8020000Y8509857D01*
X8020000Y7470143D01*
X8019987Y7470013D01*
X8019857Y7470000D01*
X7080143Y7470000D01*
X7080013Y7470013D01*
X7080000Y7470143D01*
X7080000Y8509857D01*
X7080013Y8509987D01*
X7080143Y8510000D01*
X8019857Y8510000D01*
X8019987Y8509987D01*
G37*
G36*
X33619987Y8609987D02*
G01*
X33620000Y8609857D01*
X33620000Y7570143D01*
X33619987Y7570013D01*
X33619857Y7570000D01*
X32680143Y7570000D01*
X32680013Y7570013D01*
X32680000Y7570143D01*
X32680000Y8609857D01*
X32680013Y8609987D01*
X32680143Y8610000D01*
X33619857Y8610000D01*
X33619987Y8609987D01*
G37*
G36*
X35219987Y8609987D02*
G01*
X35220000Y8609857D01*
X35220000Y7570143D01*
X35219987Y7570013D01*
X35219857Y7570000D01*
X34280143Y7570000D01*
X34280013Y7570013D01*
X34280000Y7570143D01*
X34280000Y8609857D01*
X34280013Y8609987D01*
X34280143Y8610000D01*
X35219857Y8610000D01*
X35219987Y8609987D01*
G37*
G36*
X22726415Y9308370D02*
G01*
X22736433Y9305331D01*
X22745665Y9300396D01*
X22753756Y9293756D01*
X22760396Y9285665D01*
X22765331Y9276433D01*
X22768370Y9266415D01*
X22770000Y9249862D01*
X22770000Y7830138D01*
X22768370Y7813585D01*
X22765331Y7803567D01*
X22760396Y7794335D01*
X22753756Y7786244D01*
X22745665Y7779604D01*
X22736433Y7774669D01*
X22726415Y7771630D01*
X22709862Y7770000D01*
X18790138Y7770000D01*
X18773585Y7771630D01*
X18763567Y7774669D01*
X18754335Y7779604D01*
X18746244Y7786244D01*
X18739604Y7794335D01*
X18734669Y7803567D01*
X18731630Y7813585D01*
X18730000Y7830138D01*
X18730000Y9249862D01*
X18731630Y9266415D01*
X18734669Y9276433D01*
X18739604Y9285665D01*
X18746244Y9293756D01*
X18754335Y9300396D01*
X18763567Y9305331D01*
X18773585Y9308370D01*
X18790138Y9310000D01*
X22709862Y9310000D01*
X22726415Y9308370D01*
G37*
G36*
X26070000Y10647499D02*
G01*
X26072402Y10623113D01*
X26079515Y10599664D01*
X26091066Y10578053D01*
X26106611Y10559111D01*
X26125553Y10543566D01*
X26147164Y10532015D01*
X26170613Y10524902D01*
X26194999Y10522500D01*
X26925000Y10522500D01*
X26925000Y8582500D01*
X26194999Y8582500D01*
X26170613Y8580098D01*
X26147164Y8572985D01*
X26125553Y8561434D01*
X26106611Y8545889D01*
X26091066Y8526947D01*
X26079515Y8505336D01*
X26072402Y8481887D01*
X26070000Y8457501D01*
X26070000Y7977500D01*
X24630000Y7977500D01*
X24630000Y8457501D01*
X24627598Y8481887D01*
X24620485Y8505336D01*
X24608934Y8526947D01*
X24593389Y8545889D01*
X24574447Y8561434D01*
X24552836Y8572985D01*
X24529387Y8580098D01*
X24505001Y8582500D01*
X23775000Y8582500D01*
X23775000Y10522500D01*
X24505001Y10522500D01*
X24529387Y10524902D01*
X24552836Y10532015D01*
X24574447Y10543566D01*
X24593389Y10559111D01*
X24608934Y10578053D01*
X24620485Y10599664D01*
X24627598Y10623113D01*
X24630000Y10647499D01*
X24630000Y11127500D01*
X26070000Y11127500D01*
X26070000Y10647499D01*
G37*
G36*
X31188891Y9108667D02*
G01*
X31196004Y9106509D01*
X31202552Y9103009D01*
X31208296Y9098296D01*
X31213009Y9092552D01*
X31216509Y9086004D01*
X31218667Y9078891D01*
X31220000Y9065357D01*
X31220000Y8114643D01*
X31218667Y8101109D01*
X31216509Y8093996D01*
X31213009Y8087448D01*
X31208296Y8081704D01*
X31202552Y8076991D01*
X31196004Y8073491D01*
X31188891Y8071333D01*
X31175357Y8070000D01*
X30424643Y8070000D01*
X30411109Y8071333D01*
X30403996Y8073491D01*
X30397448Y8076991D01*
X30391704Y8081704D01*
X30386991Y8087448D01*
X30383491Y8093996D01*
X30381333Y8101109D01*
X30380000Y8114643D01*
X30380000Y9065357D01*
X30381333Y9078891D01*
X30383491Y9086004D01*
X30386991Y9092552D01*
X30391704Y9098296D01*
X30397448Y9103009D01*
X30403996Y9106509D01*
X30411109Y9108667D01*
X30424643Y9110000D01*
X31175357Y9110000D01*
X31188891Y9108667D01*
G37*
G36*
X29688891Y9108667D02*
G01*
X29696004Y9106509D01*
X29702552Y9103009D01*
X29708296Y9098296D01*
X29713009Y9092552D01*
X29716509Y9086004D01*
X29718667Y9078891D01*
X29720000Y9065357D01*
X29720000Y8114643D01*
X29718667Y8101109D01*
X29716509Y8093996D01*
X29713009Y8087448D01*
X29708296Y8081704D01*
X29702552Y8076991D01*
X29696004Y8073491D01*
X29688891Y8071333D01*
X29675357Y8070000D01*
X28924643Y8070000D01*
X28911109Y8071333D01*
X28903996Y8073491D01*
X28897448Y8076991D01*
X28891704Y8081704D01*
X28886991Y8087448D01*
X28883491Y8093996D01*
X28881333Y8101109D01*
X28880000Y8114643D01*
X28880000Y9065357D01*
X28881333Y9078891D01*
X28883491Y9086004D01*
X28886991Y9092552D01*
X28891704Y9098296D01*
X28897448Y9103009D01*
X28903996Y9106509D01*
X28911109Y9108667D01*
X28924643Y9110000D01*
X29675357Y9110000D01*
X29688891Y9108667D01*
G37*
G36*
X14077673Y9557803D02*
G01*
X14093221Y9553086D01*
X14107552Y9545426D01*
X14120115Y9535115D01*
X14130426Y9522552D01*
X14138086Y9508221D01*
X14142803Y9492673D01*
X14145000Y9470362D01*
X14145000Y8509638D01*
X14142803Y8487327D01*
X14138086Y8471779D01*
X14130426Y8457448D01*
X14120115Y8444885D01*
X14107552Y8434574D01*
X14093221Y8426914D01*
X14077673Y8422197D01*
X14055362Y8420000D01*
X12844638Y8420000D01*
X12822327Y8422197D01*
X12806779Y8426914D01*
X12792448Y8434574D01*
X12779885Y8444885D01*
X12769574Y8457448D01*
X12761914Y8471779D01*
X12757197Y8487327D01*
X12755000Y8509638D01*
X12755000Y9470362D01*
X12757197Y9492673D01*
X12761914Y9508221D01*
X12769574Y9522552D01*
X12779885Y9535115D01*
X12792448Y9545426D01*
X12806779Y9553086D01*
X12822327Y9557803D01*
X12844638Y9560000D01*
X14055362Y9560000D01*
X14077673Y9557803D01*
G37*
G36*
X16561066Y11140553D02*
G01*
X16576611Y11121611D01*
X16595553Y11106066D01*
X16617164Y11094515D01*
X16640613Y11087402D01*
X16664999Y11085000D01*
X17320000Y11085000D01*
X17320000Y8695000D01*
X16664999Y8695000D01*
X16640613Y8692598D01*
X16617164Y8685485D01*
X16595553Y8673934D01*
X16576611Y8658389D01*
X16561066Y8639447D01*
X16550672Y8620000D01*
X15549328Y8620000D01*
X15538934Y8639447D01*
X15523389Y8658389D01*
X15504447Y8673934D01*
X15482836Y8685485D01*
X15459387Y8692598D01*
X15435001Y8695000D01*
X14780000Y8695000D01*
X14780000Y11085000D01*
X15435001Y11085000D01*
X15459387Y11087402D01*
X15482836Y11094515D01*
X15504447Y11106066D01*
X15523389Y11121611D01*
X15538934Y11140553D01*
X15549328Y11160000D01*
X16550672Y11160000D01*
X16561066Y11140553D01*
G37*
G36*
X8019987Y10009987D02*
G01*
X8020000Y10009857D01*
X8020000Y8970143D01*
X8019987Y8970013D01*
X8019857Y8970000D01*
X7080143Y8970000D01*
X7080013Y8970013D01*
X7080000Y8970143D01*
X7080000Y10009857D01*
X7080013Y10009987D01*
X7080143Y10010000D01*
X8019857Y10010000D01*
X8019987Y10009987D01*
G37*
G36*
X6419987Y10009987D02*
G01*
X6420000Y10009857D01*
X6420000Y8970143D01*
X6419987Y8970013D01*
X6419857Y8970000D01*
X5480143Y8970000D01*
X5480013Y8970013D01*
X5480000Y8970143D01*
X5480000Y10009857D01*
X5480013Y10009987D01*
X5480143Y10010000D01*
X6419857Y10010000D01*
X6419987Y10009987D01*
G37*
G36*
X35188891Y10208667D02*
G01*
X35196004Y10206509D01*
X35202552Y10203009D01*
X35208296Y10198296D01*
X35213009Y10192552D01*
X35216509Y10186004D01*
X35218667Y10178891D01*
X35220000Y10165357D01*
X35220000Y9214643D01*
X35218667Y9201109D01*
X35216509Y9193996D01*
X35213009Y9187448D01*
X35208296Y9181704D01*
X35202552Y9176991D01*
X35196004Y9173491D01*
X35188891Y9171333D01*
X35175357Y9170000D01*
X34424643Y9170000D01*
X34411109Y9171333D01*
X34403996Y9173491D01*
X34397448Y9176991D01*
X34391704Y9181704D01*
X34386991Y9187448D01*
X34383491Y9193996D01*
X34381333Y9201109D01*
X34380000Y9214643D01*
X34380000Y10165357D01*
X34381333Y10178891D01*
X34383491Y10186004D01*
X34386991Y10192552D01*
X34391704Y10198296D01*
X34397448Y10203009D01*
X34403996Y10206509D01*
X34411109Y10208667D01*
X34424643Y10210000D01*
X35175357Y10210000D01*
X35188891Y10208667D01*
G37*
G36*
X33688891Y10208667D02*
G01*
X33696004Y10206509D01*
X33702552Y10203009D01*
X33708296Y10198296D01*
X33713009Y10192552D01*
X33716509Y10186004D01*
X33718667Y10178891D01*
X33720000Y10165357D01*
X33720000Y9214643D01*
X33718667Y9201109D01*
X33716509Y9193996D01*
X33713009Y9187448D01*
X33708296Y9181704D01*
X33702552Y9176991D01*
X33696004Y9173491D01*
X33688891Y9171333D01*
X33675357Y9170000D01*
X32924643Y9170000D01*
X32911109Y9171333D01*
X32903996Y9173491D01*
X32897448Y9176991D01*
X32891704Y9181704D01*
X32886991Y9187448D01*
X32883491Y9193996D01*
X32881333Y9201109D01*
X32880000Y9214643D01*
X32880000Y10165357D01*
X32881333Y10178891D01*
X32883491Y10186004D01*
X32886991Y10192552D01*
X32891704Y10198296D01*
X32897448Y10203009D01*
X32903996Y10206509D01*
X32911109Y10208667D01*
X32924643Y10210000D01*
X33675357Y10210000D01*
X33688891Y10208667D01*
G37*
G36*
X10020000Y9370000D02*
G01*
X9080000Y9370000D01*
X9080000Y10760000D01*
X10020000Y10760000D01*
X10020000Y9370000D01*
G37*
G36*
X4359067Y11898407D02*
G01*
X4466359Y11865860D01*
X4565227Y11813014D01*
X4651891Y11741891D01*
X4723014Y11655227D01*
X4775860Y11556359D01*
X4808407Y11449067D01*
X4820000Y11331360D01*
X4820000Y9948640D01*
X4808407Y9830933D01*
X4775860Y9723641D01*
X4723014Y9624773D01*
X4651891Y9538109D01*
X4565227Y9466986D01*
X4466359Y9414140D01*
X4359067Y9381593D01*
X4241360Y9370000D01*
X2858640Y9370000D01*
X2740933Y9381593D01*
X2633641Y9414140D01*
X2534773Y9466986D01*
X2448109Y9538109D01*
X2376986Y9624773D01*
X2324140Y9723641D01*
X2291593Y9830933D01*
X2280000Y9948640D01*
X2280000Y11331360D01*
X2291593Y11449067D01*
X2324140Y11556359D01*
X2376986Y11655227D01*
X2448109Y11741891D01*
X2534773Y11813014D01*
X2633641Y11865860D01*
X2740933Y11898407D01*
X2858640Y11910000D01*
X4241360Y11910000D01*
X4359067Y11898407D01*
G37*
G36*
X11820000Y9370000D02*
G01*
X10880000Y9370000D01*
X10880000Y10760000D01*
X11820000Y10760000D01*
X11820000Y9370000D01*
G37*
G36*
X31319987Y11159987D02*
G01*
X31320000Y11159857D01*
X31320000Y10120143D01*
X31319987Y10120013D01*
X31319857Y10120000D01*
X30380143Y10120000D01*
X30380013Y10120013D01*
X30380000Y10120143D01*
X30380000Y11159857D01*
X30380013Y11159987D01*
X30380143Y11160000D01*
X31319857Y11160000D01*
X31319987Y11159987D01*
G37*
G36*
X29719987Y11159987D02*
G01*
X29720000Y11159857D01*
X29720000Y10120143D01*
X29719987Y10120013D01*
X29719857Y10120000D01*
X28780143Y10120000D01*
X28780013Y10120013D01*
X28780000Y10120143D01*
X28780000Y11159857D01*
X28780013Y11159987D01*
X28780143Y11160000D01*
X29719857Y11160000D01*
X29719987Y11159987D01*
G37*
G36*
X20919987Y11409987D02*
G01*
X20920000Y11409857D01*
X20920000Y10370143D01*
X20919987Y10370013D01*
X20919857Y10370000D01*
X19980143Y10370000D01*
X19980013Y10370013D01*
X19980000Y10370143D01*
X19980000Y11409857D01*
X19980013Y11409987D01*
X19980143Y11410000D01*
X20919857Y11410000D01*
X20919987Y11409987D01*
G37*
G36*
X22519987Y11409987D02*
G01*
X22520000Y11409857D01*
X22520000Y10370143D01*
X22519987Y10370013D01*
X22519857Y10370000D01*
X21580143Y10370000D01*
X21580013Y10370013D01*
X21580000Y10370143D01*
X21580000Y11409857D01*
X21580013Y11409987D01*
X21580143Y11410000D01*
X22519857Y11410000D01*
X22519987Y11409987D01*
G37*
G36*
X14077673Y11557803D02*
G01*
X14093221Y11553086D01*
X14107552Y11545426D01*
X14120115Y11535115D01*
X14130426Y11522552D01*
X14138086Y11508221D01*
X14142803Y11492673D01*
X14145000Y11470362D01*
X14145000Y10509638D01*
X14142803Y10487327D01*
X14138086Y10471779D01*
X14130426Y10457448D01*
X14120115Y10444885D01*
X14107552Y10434574D01*
X14093221Y10426914D01*
X14077673Y10422197D01*
X14055362Y10420000D01*
X12844638Y10420000D01*
X12822327Y10422197D01*
X12806779Y10426914D01*
X12792448Y10434574D01*
X12779885Y10444885D01*
X12769574Y10457448D01*
X12761914Y10471779D01*
X12757197Y10487327D01*
X12755000Y10509638D01*
X12755000Y11470362D01*
X12757197Y11492673D01*
X12761914Y11508221D01*
X12769574Y11522552D01*
X12779885Y11535115D01*
X12792448Y11545426D01*
X12806779Y11553086D01*
X12822327Y11557803D01*
X12844638Y11560000D01*
X14055362Y11560000D01*
X14077673Y11557803D01*
G37*
G36*
X7193917Y12706878D02*
G01*
X7218497Y12699421D01*
X7246078Y12684679D01*
X7268717Y12675302D01*
X7292750Y12670522D01*
X7317254Y12670522D01*
X7341287Y12675303D01*
X7363926Y12684680D01*
X7384300Y12698294D01*
X7386006Y12700000D01*
X8270000Y12700000D01*
X8270000Y10880000D01*
X7385431Y10880000D01*
X7374447Y10889014D01*
X7352836Y10900565D01*
X7329387Y10907678D01*
X7305001Y10910080D01*
X7280615Y10907678D01*
X7246078Y10895321D01*
X7218497Y10880579D01*
X7193917Y10873122D01*
X7162212Y10870000D01*
X5917788Y10870000D01*
X5886083Y10873122D01*
X5881156Y10874617D01*
X5857123Y10879398D01*
X5844870Y10880000D01*
X5230000Y10880000D01*
X5230000Y12700000D01*
X5844870Y12700000D01*
X5869256Y12702402D01*
X5881156Y12705383D01*
X5886083Y12706878D01*
X5917788Y12710000D01*
X7162212Y12710000D01*
X7193917Y12706878D01*
G37*
G36*
X10020000Y11020000D02*
G01*
X9080000Y11020000D01*
X9080000Y12410000D01*
X10020000Y12410000D01*
X10020000Y11020000D01*
G37*
G36*
X11820000Y11020000D02*
G01*
X10880000Y11020000D01*
X10880000Y12410000D01*
X11820000Y12410000D01*
X11820000Y11020000D01*
G37*
G36*
X35715216Y12159821D02*
G01*
X35787104Y12130044D01*
X35851795Y12086819D01*
X35906819Y12031795D01*
X35950044Y11967104D01*
X35979821Y11895216D01*
X35995000Y11818905D01*
X35995000Y11741095D01*
X35979821Y11664784D01*
X35950044Y11592896D01*
X35906819Y11528205D01*
X35851795Y11473181D01*
X35787104Y11429956D01*
X35715216Y11400179D01*
X35638905Y11385000D01*
X35561095Y11385000D01*
X35484784Y11400179D01*
X35412896Y11429956D01*
X35348205Y11473181D01*
X35293181Y11528205D01*
X35249956Y11592896D01*
X35220179Y11664784D01*
X35205000Y11741095D01*
X35205000Y11818905D01*
X35220179Y11895216D01*
X35249956Y11967104D01*
X35293181Y12031795D01*
X35348205Y12086819D01*
X35412896Y12130044D01*
X35484784Y12159821D01*
X35561095Y12175000D01*
X35638905Y12175000D01*
X35715216Y12159821D01*
G37*
G36*
X24502673Y12882803D02*
G01*
X24518221Y12878086D01*
X24532552Y12870426D01*
X24545115Y12860115D01*
X24555426Y12847552D01*
X24563086Y12833221D01*
X24567803Y12817673D01*
X24570000Y12795362D01*
X24570000Y11584638D01*
X24567803Y11562327D01*
X24563086Y11546779D01*
X24555426Y11532448D01*
X24545115Y11519885D01*
X24532552Y11509574D01*
X24518221Y11501914D01*
X24502673Y11497197D01*
X24480362Y11495000D01*
X23519638Y11495000D01*
X23497327Y11497197D01*
X23481779Y11501914D01*
X23467448Y11509574D01*
X23454885Y11519885D01*
X23444574Y11532448D01*
X23436914Y11546779D01*
X23432197Y11562327D01*
X23430000Y11584638D01*
X23430000Y12795362D01*
X23432197Y12817673D01*
X23436914Y12833221D01*
X23444574Y12847552D01*
X23454885Y12860115D01*
X23467448Y12870426D01*
X23481779Y12878086D01*
X23497327Y12882803D01*
X23519638Y12885000D01*
X24480362Y12885000D01*
X24502673Y12882803D01*
G37*
G36*
X26502673Y12882803D02*
G01*
X26518221Y12878086D01*
X26532552Y12870426D01*
X26545115Y12860115D01*
X26555426Y12847552D01*
X26563086Y12833221D01*
X26567803Y12817673D01*
X26570000Y12795362D01*
X26570000Y11584638D01*
X26567803Y11562327D01*
X26563086Y11546779D01*
X26555426Y11532448D01*
X26545115Y11519885D01*
X26532552Y11509574D01*
X26518221Y11501914D01*
X26502673Y11497197D01*
X26480362Y11495000D01*
X25519638Y11495000D01*
X25497327Y11497197D01*
X25481779Y11501914D01*
X25467448Y11509574D01*
X25454885Y11519885D01*
X25444574Y11532448D01*
X25436914Y11546779D01*
X25432197Y11562327D01*
X25430000Y11584638D01*
X25430000Y12795362D01*
X25432197Y12817673D01*
X25436914Y12833221D01*
X25444574Y12847552D01*
X25454885Y12860115D01*
X25467448Y12870426D01*
X25481779Y12878086D01*
X25497327Y12882803D01*
X25519638Y12885000D01*
X26480362Y12885000D01*
X26502673Y12882803D01*
G37*
G36*
X20919987Y12909987D02*
G01*
X20920000Y12909857D01*
X20920000Y11870143D01*
X20919987Y11870013D01*
X20919857Y11870000D01*
X19980143Y11870000D01*
X19980013Y11870013D01*
X19980000Y11870143D01*
X19980000Y12909857D01*
X19980013Y12909987D01*
X19980143Y12910000D01*
X20919857Y12910000D01*
X20919987Y12909987D01*
G37*
G36*
X22519987Y12909987D02*
G01*
X22520000Y12909857D01*
X22520000Y11870143D01*
X22519987Y11870013D01*
X22519857Y11870000D01*
X21580143Y11870000D01*
X21580013Y11870013D01*
X21580000Y11870143D01*
X21580000Y12909857D01*
X21580013Y12909987D01*
X21580143Y12910000D01*
X22519857Y12910000D01*
X22519987Y12909987D01*
G37*
G36*
X18269987Y13009987D02*
G01*
X18270000Y13009857D01*
X18270000Y11970143D01*
X18269987Y11970013D01*
X18269857Y11970000D01*
X17330143Y11970000D01*
X17330013Y11970013D01*
X17330000Y11970143D01*
X17330000Y13009857D01*
X17330013Y13009987D01*
X17330143Y13010000D01*
X18269857Y13010000D01*
X18269987Y13009987D01*
G37*
G36*
X16669987Y13009987D02*
G01*
X16670000Y13009857D01*
X16670000Y11970143D01*
X16669987Y11970013D01*
X16669857Y11970000D01*
X15730143Y11970000D01*
X15730013Y11970013D01*
X15730000Y11970143D01*
X15730000Y13009857D01*
X15730013Y13009987D01*
X15730143Y13010000D01*
X16669857Y13010000D01*
X16669987Y13009987D01*
G37*
G36*
X15369987Y13009987D02*
G01*
X15370000Y13009857D01*
X15370000Y11970143D01*
X15369987Y11970013D01*
X15369857Y11970000D01*
X14430143Y11970000D01*
X14430013Y11970013D01*
X14430000Y11970143D01*
X14430000Y13009857D01*
X14430013Y13009987D01*
X14430143Y13010000D01*
X15369857Y13010000D01*
X15369987Y13009987D01*
G37*
G36*
X13769987Y13009987D02*
G01*
X13770000Y13009857D01*
X13770000Y11970143D01*
X13769987Y11970013D01*
X13769857Y11970000D01*
X12830143Y11970000D01*
X12830013Y11970013D01*
X12830000Y11970143D01*
X12830000Y13009857D01*
X12830013Y13009987D01*
X12830143Y13010000D01*
X13769857Y13010000D01*
X13769987Y13009987D01*
G37*
G36*
X31319987Y13059987D02*
G01*
X31320000Y13059857D01*
X31320000Y12020143D01*
X31319987Y12020013D01*
X31319857Y12020000D01*
X30380143Y12020000D01*
X30380013Y12020013D01*
X30380000Y12020143D01*
X30380000Y13059857D01*
X30380013Y13059987D01*
X30380143Y13060000D01*
X31319857Y13060000D01*
X31319987Y13059987D01*
G37*
G36*
X29719987Y13059987D02*
G01*
X29720000Y13059857D01*
X29720000Y12020143D01*
X29719987Y12020013D01*
X29719857Y12020000D01*
X28780143Y12020000D01*
X28780013Y12020013D01*
X28780000Y12020143D01*
X28780000Y13059857D01*
X28780013Y13059987D01*
X28780143Y13060000D01*
X29719857Y13060000D01*
X29719987Y13059987D01*
G37*
G36*
X39605908Y13777251D02*
G01*
X39661739Y13771752D01*
X39769185Y13739158D01*
X39868207Y13686230D01*
X39955000Y13615000D01*
X40026230Y13528207D01*
X40079158Y13429185D01*
X40111752Y13321739D01*
X40122757Y13210000D01*
X40111752Y13098261D01*
X40079158Y12990815D01*
X40026230Y12891793D01*
X39955000Y12805000D01*
X39868207Y12733770D01*
X39769185Y12680842D01*
X39661739Y12648248D01*
X39605908Y12642749D01*
X39577994Y12640000D01*
X38922006Y12640000D01*
X38894092Y12642749D01*
X38838261Y12648248D01*
X38730815Y12680842D01*
X38631793Y12733770D01*
X38545000Y12805000D01*
X38473770Y12891793D01*
X38420842Y12990815D01*
X38388248Y13098261D01*
X38377243Y13210000D01*
X38388248Y13321739D01*
X38420842Y13429185D01*
X38473770Y13528207D01*
X38545000Y13615000D01*
X38631793Y13686230D01*
X38730815Y13739158D01*
X38838261Y13771752D01*
X38894092Y13777251D01*
X38922006Y13780000D01*
X39577994Y13780000D01*
X39605908Y13777251D01*
G37*
G36*
X35675908Y13777251D02*
G01*
X35731739Y13771752D01*
X35839185Y13739158D01*
X35938207Y13686230D01*
X36025000Y13615000D01*
X36096230Y13528207D01*
X36149158Y13429185D01*
X36181752Y13321739D01*
X36192757Y13210000D01*
X36181752Y13098261D01*
X36149158Y12990815D01*
X36096230Y12891793D01*
X36025000Y12805000D01*
X35938207Y12733770D01*
X35839185Y12680842D01*
X35731739Y12648248D01*
X35675908Y12642749D01*
X35647994Y12640000D01*
X34492006Y12640000D01*
X34464092Y12642749D01*
X34408261Y12648248D01*
X34300815Y12680842D01*
X34201793Y12733770D01*
X34115000Y12805000D01*
X34043770Y12891793D01*
X33990842Y12990815D01*
X33958248Y13098261D01*
X33947243Y13210000D01*
X33958248Y13321739D01*
X33990842Y13429185D01*
X34043770Y13528207D01*
X34115000Y13615000D01*
X34201793Y13686230D01*
X34300815Y13739158D01*
X34408261Y13771752D01*
X34464092Y13777251D01*
X34492006Y13780000D01*
X35647994Y13780000D01*
X35675908Y13777251D01*
G37*
G36*
X6632937Y17442724D02*
G01*
X6809465Y17369603D01*
X6809467Y17369602D01*
X6968339Y17263448D01*
X7103448Y17128339D01*
X7129572Y17089241D01*
X7209603Y16969465D01*
X7282724Y16792937D01*
X7320000Y16605538D01*
X7320000Y16414462D01*
X7282724Y16227063D01*
X7209603Y16050535D01*
X7209602Y16050533D01*
X7103448Y15891661D01*
X6968339Y15756552D01*
X6809467Y15650398D01*
X6809466Y15650397D01*
X6809465Y15650397D01*
X6632937Y15577276D01*
X6445538Y15540000D01*
X6254462Y15540000D01*
X6067063Y15577276D01*
X5890535Y15650397D01*
X5890534Y15650397D01*
X5890533Y15650398D01*
X5731661Y15756552D01*
X5596552Y15891661D01*
X5490398Y16050533D01*
X5490397Y16050535D01*
X5417276Y16227063D01*
X5380000Y16414462D01*
X5380000Y16605538D01*
X5417276Y16792937D01*
X5490397Y16969465D01*
X5570428Y17089241D01*
X5596552Y17128339D01*
X5731661Y17263448D01*
X5890533Y17369602D01*
X5890535Y17369603D01*
X6067063Y17442724D01*
X6254462Y17480000D01*
X6445538Y17480000D01*
X6632937Y17442724D01*
G37*
G36*
X39652937Y17442724D02*
G01*
X39829465Y17369603D01*
X39829467Y17369602D01*
X39988339Y17263448D01*
X40123448Y17128339D01*
X40149572Y17089241D01*
X40229603Y16969465D01*
X40302724Y16792937D01*
X40340000Y16605538D01*
X40340000Y16414462D01*
X40302724Y16227063D01*
X40229603Y16050535D01*
X40229602Y16050533D01*
X40123448Y15891661D01*
X39988339Y15756552D01*
X39829467Y15650398D01*
X39829466Y15650397D01*
X39829465Y15650397D01*
X39652937Y15577276D01*
X39465538Y15540000D01*
X39274462Y15540000D01*
X39087063Y15577276D01*
X38910535Y15650397D01*
X38910534Y15650397D01*
X38910533Y15650398D01*
X38751661Y15756552D01*
X38616552Y15891661D01*
X38510398Y16050533D01*
X38510397Y16050535D01*
X38437276Y16227063D01*
X38400000Y16414462D01*
X38400000Y16605538D01*
X38437276Y16792937D01*
X38510397Y16969465D01*
X38590428Y17089241D01*
X38616552Y17128339D01*
X38751661Y17263448D01*
X38910533Y17369602D01*
X38910535Y17369603D01*
X39087063Y17442724D01*
X39274462Y17480000D01*
X39465538Y17480000D01*
X39652937Y17442724D01*
G37*
G36*
X37098353Y17394645D02*
G01*
X37265782Y17325294D01*
X37340612Y17275294D01*
X37416466Y17224610D01*
X37544610Y17096466D01*
X37591816Y17025817D01*
X37645294Y16945782D01*
X37714645Y16778353D01*
X37750000Y16600613D01*
X37750000Y16419387D01*
X37714645Y16241647D01*
X37645294Y16074218D01*
X37645293Y16074217D01*
X37544610Y15923534D01*
X37416466Y15795390D01*
X37358341Y15756552D01*
X37265782Y15694706D01*
X37098353Y15625355D01*
X36920613Y15590000D01*
X36739387Y15590000D01*
X36561647Y15625355D01*
X36394218Y15694706D01*
X36301659Y15756552D01*
X36243534Y15795390D01*
X36115390Y15923534D01*
X36014707Y16074217D01*
X36014706Y16074218D01*
X35945355Y16241647D01*
X35910000Y16419387D01*
X35910000Y16600613D01*
X35945355Y16778353D01*
X36014706Y16945782D01*
X36068184Y17025817D01*
X36115390Y17096466D01*
X36243534Y17224610D01*
X36319388Y17275294D01*
X36394218Y17325294D01*
X36561647Y17394645D01*
X36739387Y17430000D01*
X36920613Y17430000D01*
X37098353Y17394645D01*
G37*
G36*
X34558353Y17394645D02*
G01*
X34725782Y17325294D01*
X34800612Y17275294D01*
X34876466Y17224610D01*
X35004610Y17096466D01*
X35051816Y17025817D01*
X35105294Y16945782D01*
X35174645Y16778353D01*
X35210000Y16600613D01*
X35210000Y16419387D01*
X35174645Y16241647D01*
X35105294Y16074218D01*
X35105293Y16074217D01*
X35004610Y15923534D01*
X34876466Y15795390D01*
X34818341Y15756552D01*
X34725782Y15694706D01*
X34558353Y15625355D01*
X34380613Y15590000D01*
X34199387Y15590000D01*
X34021647Y15625355D01*
X33854218Y15694706D01*
X33761659Y15756552D01*
X33703534Y15795390D01*
X33575390Y15923534D01*
X33474707Y16074217D01*
X33474706Y16074218D01*
X33405355Y16241647D01*
X33370000Y16419387D01*
X33370000Y16600613D01*
X33405355Y16778353D01*
X33474706Y16945782D01*
X33528184Y17025817D01*
X33575390Y17096466D01*
X33703534Y17224610D01*
X33779388Y17275294D01*
X33854218Y17325294D01*
X34021647Y17394645D01*
X34199387Y17430000D01*
X34380613Y17430000D01*
X34558353Y17394645D01*
G37*
G36*
X32018353Y17394645D02*
G01*
X32185782Y17325294D01*
X32260612Y17275294D01*
X32336466Y17224610D01*
X32464610Y17096466D01*
X32511816Y17025817D01*
X32565294Y16945782D01*
X32634645Y16778353D01*
X32670000Y16600613D01*
X32670000Y16419387D01*
X32634645Y16241647D01*
X32565294Y16074218D01*
X32565293Y16074217D01*
X32464610Y15923534D01*
X32336466Y15795390D01*
X32278341Y15756552D01*
X32185782Y15694706D01*
X32018353Y15625355D01*
X31840613Y15590000D01*
X31659387Y15590000D01*
X31481647Y15625355D01*
X31314218Y15694706D01*
X31221659Y15756552D01*
X31163534Y15795390D01*
X31035390Y15923534D01*
X30934707Y16074217D01*
X30934706Y16074218D01*
X30865355Y16241647D01*
X30830000Y16419387D01*
X30830000Y16600613D01*
X30865355Y16778353D01*
X30934706Y16945782D01*
X30988184Y17025817D01*
X31035390Y17096466D01*
X31163534Y17224610D01*
X31239388Y17275294D01*
X31314218Y17325294D01*
X31481647Y17394645D01*
X31659387Y17430000D01*
X31840613Y17430000D01*
X32018353Y17394645D01*
G37*
G36*
X29478353Y17394645D02*
G01*
X29645782Y17325294D01*
X29720612Y17275294D01*
X29796466Y17224610D01*
X29924610Y17096466D01*
X29971816Y17025817D01*
X30025294Y16945782D01*
X30094645Y16778353D01*
X30130000Y16600613D01*
X30130000Y16419387D01*
X30094645Y16241647D01*
X30025294Y16074218D01*
X30025293Y16074217D01*
X29924610Y15923534D01*
X29796466Y15795390D01*
X29738341Y15756552D01*
X29645782Y15694706D01*
X29478353Y15625355D01*
X29300613Y15590000D01*
X29119387Y15590000D01*
X28941647Y15625355D01*
X28774218Y15694706D01*
X28681659Y15756552D01*
X28623534Y15795390D01*
X28495390Y15923534D01*
X28394707Y16074217D01*
X28394706Y16074218D01*
X28325355Y16241647D01*
X28290000Y16419387D01*
X28290000Y16600613D01*
X28325355Y16778353D01*
X28394706Y16945782D01*
X28448184Y17025817D01*
X28495390Y17096466D01*
X28623534Y17224610D01*
X28699388Y17275294D01*
X28774218Y17325294D01*
X28941647Y17394645D01*
X29119387Y17430000D01*
X29300613Y17430000D01*
X29478353Y17394645D01*
G37*
G36*
X26938353Y17394645D02*
G01*
X27105782Y17325294D01*
X27180612Y17275294D01*
X27256466Y17224610D01*
X27384610Y17096466D01*
X27431816Y17025817D01*
X27485294Y16945782D01*
X27554645Y16778353D01*
X27590000Y16600613D01*
X27590000Y16419387D01*
X27554645Y16241647D01*
X27485294Y16074218D01*
X27485293Y16074217D01*
X27384610Y15923534D01*
X27256466Y15795390D01*
X27198341Y15756552D01*
X27105782Y15694706D01*
X26938353Y15625355D01*
X26760613Y15590000D01*
X26579387Y15590000D01*
X26401647Y15625355D01*
X26234218Y15694706D01*
X26141659Y15756552D01*
X26083534Y15795390D01*
X25955390Y15923534D01*
X25854707Y16074217D01*
X25854706Y16074218D01*
X25785355Y16241647D01*
X25750000Y16419387D01*
X25750000Y16600613D01*
X25785355Y16778353D01*
X25854706Y16945782D01*
X25908184Y17025817D01*
X25955390Y17096466D01*
X26083534Y17224610D01*
X26159388Y17275294D01*
X26234218Y17325294D01*
X26401647Y17394645D01*
X26579387Y17430000D01*
X26760613Y17430000D01*
X26938353Y17394645D01*
G37*
G36*
X11698353Y17394645D02*
G01*
X11865782Y17325294D01*
X11940612Y17275294D01*
X12016466Y17224610D01*
X12144610Y17096466D01*
X12191816Y17025817D01*
X12245294Y16945782D01*
X12314645Y16778353D01*
X12350000Y16600613D01*
X12350000Y16419387D01*
X12314645Y16241647D01*
X12245294Y16074218D01*
X12245293Y16074217D01*
X12144610Y15923534D01*
X12016466Y15795390D01*
X11958341Y15756552D01*
X11865782Y15694706D01*
X11698353Y15625355D01*
X11520613Y15590000D01*
X11339387Y15590000D01*
X11161647Y15625355D01*
X10994218Y15694706D01*
X10901659Y15756552D01*
X10843534Y15795390D01*
X10715390Y15923534D01*
X10614707Y16074217D01*
X10614706Y16074218D01*
X10545355Y16241647D01*
X10510000Y16419387D01*
X10510000Y16600613D01*
X10545355Y16778353D01*
X10614706Y16945782D01*
X10668184Y17025817D01*
X10715390Y17096466D01*
X10843534Y17224610D01*
X10919388Y17275294D01*
X10994218Y17325294D01*
X11161647Y17394645D01*
X11339387Y17430000D01*
X11520613Y17430000D01*
X11698353Y17394645D01*
G37*
G36*
X9405817Y17419761D02*
G01*
X9499877Y17391228D01*
X9586559Y17344896D01*
X9662540Y17282540D01*
X9724896Y17206559D01*
X9771228Y17119877D01*
X9799761Y17025817D01*
X9810000Y16921860D01*
X9810000Y16098140D01*
X9799761Y15994183D01*
X9771228Y15900123D01*
X9724896Y15813441D01*
X9662540Y15737460D01*
X9586559Y15675104D01*
X9499877Y15628772D01*
X9405817Y15600239D01*
X9301860Y15590000D01*
X8478140Y15590000D01*
X8374183Y15600239D01*
X8280123Y15628772D01*
X8193441Y15675104D01*
X8117460Y15737460D01*
X8055104Y15813441D01*
X8008772Y15900123D01*
X7980239Y15994183D01*
X7970000Y16098140D01*
X7970000Y16921860D01*
X7980239Y17025817D01*
X8008772Y17119877D01*
X8055104Y17206559D01*
X8117460Y17282540D01*
X8193441Y17344896D01*
X8280123Y17391228D01*
X8374183Y17419761D01*
X8478140Y17430000D01*
X9301860Y17430000D01*
X9405817Y17419761D01*
G37*
G36*
X16778353Y17394645D02*
G01*
X16945782Y17325294D01*
X17020612Y17275294D01*
X17096466Y17224610D01*
X17224610Y17096466D01*
X17271816Y17025817D01*
X17325294Y16945782D01*
X17394645Y16778353D01*
X17430000Y16600613D01*
X17430000Y16419387D01*
X17394645Y16241647D01*
X17325294Y16074218D01*
X17325293Y16074217D01*
X17224610Y15923534D01*
X17096466Y15795390D01*
X17038341Y15756552D01*
X16945782Y15694706D01*
X16778353Y15625355D01*
X16600613Y15590000D01*
X16419387Y15590000D01*
X16241647Y15625355D01*
X16074218Y15694706D01*
X15981659Y15756552D01*
X15923534Y15795390D01*
X15795390Y15923534D01*
X15694707Y16074217D01*
X15694706Y16074218D01*
X15625355Y16241647D01*
X15590000Y16419387D01*
X15590000Y16600613D01*
X15625355Y16778353D01*
X15694706Y16945782D01*
X15748184Y17025817D01*
X15795390Y17096466D01*
X15923534Y17224610D01*
X15999388Y17275294D01*
X16074218Y17325294D01*
X16241647Y17394645D01*
X16419387Y17430000D01*
X16600613Y17430000D01*
X16778353Y17394645D01*
G37*
G36*
X14238353Y17394645D02*
G01*
X14405782Y17325294D01*
X14480612Y17275294D01*
X14556466Y17224610D01*
X14684610Y17096466D01*
X14731816Y17025817D01*
X14785294Y16945782D01*
X14854645Y16778353D01*
X14890000Y16600613D01*
X14890000Y16419387D01*
X14854645Y16241647D01*
X14785294Y16074218D01*
X14785293Y16074217D01*
X14684610Y15923534D01*
X14556466Y15795390D01*
X14498341Y15756552D01*
X14405782Y15694706D01*
X14238353Y15625355D01*
X14060613Y15590000D01*
X13879387Y15590000D01*
X13701647Y15625355D01*
X13534218Y15694706D01*
X13441659Y15756552D01*
X13383534Y15795390D01*
X13255390Y15923534D01*
X13154707Y16074217D01*
X13154706Y16074218D01*
X13085355Y16241647D01*
X13050000Y16419387D01*
X13050000Y16600613D01*
X13085355Y16778353D01*
X13154706Y16945782D01*
X13208184Y17025817D01*
X13255390Y17096466D01*
X13383534Y17224610D01*
X13459388Y17275294D01*
X13534218Y17325294D01*
X13701647Y17394645D01*
X13879387Y17430000D01*
X14060613Y17430000D01*
X14238353Y17394645D01*
G37*
G36*
X19318353Y17394645D02*
G01*
X19485782Y17325294D01*
X19560612Y17275294D01*
X19636466Y17224610D01*
X19764610Y17096466D01*
X19811816Y17025817D01*
X19865294Y16945782D01*
X19934645Y16778353D01*
X19970000Y16600613D01*
X19970000Y16419387D01*
X19934645Y16241647D01*
X19865294Y16074218D01*
X19865293Y16074217D01*
X19764610Y15923534D01*
X19636466Y15795390D01*
X19578341Y15756552D01*
X19485782Y15694706D01*
X19318353Y15625355D01*
X19140613Y15590000D01*
X18959387Y15590000D01*
X18781647Y15625355D01*
X18614218Y15694706D01*
X18521659Y15756552D01*
X18463534Y15795390D01*
X18335390Y15923534D01*
X18234707Y16074217D01*
X18234706Y16074218D01*
X18165355Y16241647D01*
X18130000Y16419387D01*
X18130000Y16600613D01*
X18165355Y16778353D01*
X18234706Y16945782D01*
X18288184Y17025817D01*
X18335390Y17096466D01*
X18463534Y17224610D01*
X18539388Y17275294D01*
X18614218Y17325294D01*
X18781647Y17394645D01*
X18959387Y17430000D01*
X19140613Y17430000D01*
X19318353Y17394645D01*
G37*
G36*
X21858353Y17394645D02*
G01*
X22025782Y17325294D01*
X22100612Y17275294D01*
X22176466Y17224610D01*
X22304610Y17096466D01*
X22351816Y17025817D01*
X22405294Y16945782D01*
X22474645Y16778353D01*
X22510000Y16600613D01*
X22510000Y16419387D01*
X22474645Y16241647D01*
X22405294Y16074218D01*
X22405293Y16074217D01*
X22304610Y15923534D01*
X22176466Y15795390D01*
X22118341Y15756552D01*
X22025782Y15694706D01*
X21858353Y15625355D01*
X21680613Y15590000D01*
X21499387Y15590000D01*
X21321647Y15625355D01*
X21154218Y15694706D01*
X21061659Y15756552D01*
X21003534Y15795390D01*
X20875390Y15923534D01*
X20774707Y16074217D01*
X20774706Y16074218D01*
X20705355Y16241647D01*
X20670000Y16419387D01*
X20670000Y16600613D01*
X20705355Y16778353D01*
X20774706Y16945782D01*
X20828184Y17025817D01*
X20875390Y17096466D01*
X21003534Y17224610D01*
X21079388Y17275294D01*
X21154218Y17325294D01*
X21321647Y17394645D01*
X21499387Y17430000D01*
X21680613Y17430000D01*
X21858353Y17394645D01*
G37*
G36*
X24398353Y17394645D02*
G01*
X24565782Y17325294D01*
X24640612Y17275294D01*
X24716466Y17224610D01*
X24844610Y17096466D01*
X24891816Y17025817D01*
X24945294Y16945782D01*
X25014645Y16778353D01*
X25050000Y16600613D01*
X25050000Y16419387D01*
X25014645Y16241647D01*
X24945294Y16074218D01*
X24945293Y16074217D01*
X24844610Y15923534D01*
X24716466Y15795390D01*
X24658341Y15756552D01*
X24565782Y15694706D01*
X24398353Y15625355D01*
X24220613Y15590000D01*
X24039387Y15590000D01*
X23861647Y15625355D01*
X23694218Y15694706D01*
X23601659Y15756552D01*
X23543534Y15795390D01*
X23415390Y15923534D01*
X23314707Y16074217D01*
X23314706Y16074218D01*
X23245355Y16241647D01*
X23210000Y16419387D01*
X23210000Y16600613D01*
X23245355Y16778353D01*
X23314706Y16945782D01*
X23368184Y17025817D01*
X23415390Y17096466D01*
X23543534Y17224610D01*
X23619388Y17275294D01*
X23694218Y17325294D01*
X23861647Y17394645D01*
X24039387Y17430000D01*
X24220613Y17430000D01*
X24398353Y17394645D01*
G37*
G36*
X1785817Y17419761D02*
G01*
X1879877Y17391228D01*
X1966559Y17344896D01*
X2042540Y17282540D01*
X2104896Y17206559D01*
X2151228Y17119877D01*
X2179761Y17025817D01*
X2190000Y16921860D01*
X2190000Y16098140D01*
X2179761Y15994183D01*
X2151228Y15900123D01*
X2104896Y15813441D01*
X2042540Y15737460D01*
X1966559Y15675104D01*
X1879877Y15628772D01*
X1785817Y15600239D01*
X1681860Y15590000D01*
X858140Y15590000D01*
X754183Y15600239D01*
X660123Y15628772D01*
X573441Y15675104D01*
X497460Y15737460D01*
X435104Y15813441D01*
X388772Y15900123D01*
X360239Y15994183D01*
X350000Y16098140D01*
X350000Y16921860D01*
X360239Y17025817D01*
X388772Y17119877D01*
X435104Y17206559D01*
X497460Y17282540D01*
X573441Y17344896D01*
X660123Y17391228D01*
X754183Y17419761D01*
X858140Y17430000D01*
X1681860Y17430000D01*
X1785817Y17419761D01*
G37*
G36*
X4078353Y17394645D02*
G01*
X4245782Y17325294D01*
X4320612Y17275294D01*
X4396466Y17224610D01*
X4524610Y17096466D01*
X4571816Y17025817D01*
X4625294Y16945782D01*
X4694645Y16778353D01*
X4730000Y16600613D01*
X4730000Y16419387D01*
X4694645Y16241647D01*
X4625294Y16074218D01*
X4625293Y16074217D01*
X4524610Y15923534D01*
X4396466Y15795390D01*
X4338341Y15756552D01*
X4245782Y15694706D01*
X4078353Y15625355D01*
X3900613Y15590000D01*
X3719387Y15590000D01*
X3541647Y15625355D01*
X3374218Y15694706D01*
X3281659Y15756552D01*
X3223534Y15795390D01*
X3095390Y15923534D01*
X2994707Y16074217D01*
X2994706Y16074218D01*
X2925355Y16241647D01*
X2890000Y16419387D01*
X2890000Y16600613D01*
X2925355Y16778353D01*
X2994706Y16945782D01*
X3048184Y17025817D01*
X3095390Y17096466D01*
X3223534Y17224610D01*
X3299388Y17275294D01*
X3374218Y17325294D01*
X3541647Y17394645D01*
X3719387Y17430000D01*
X3900613Y17430000D01*
X4078353Y17394645D01*
G37*
M02*
